<svg id="Capa_1" enable-background="new 0 0 512 512" height="512" viewBox="0 0 512 512" width="512" xmlns="http://www.w3.org/2000/svg"><g><g><g><g><g><g><g><g><path d="m314.043 445.468h-269.867c-10.409 0-18.848-8.438-18.848-18.848v-400.269c0-10.409 8.438-18.848 18.848-18.848h269.867c10.409 0 18.848 8.438 18.848 18.848v400.269c0 10.409-8.438 18.848-18.848 18.848z" fill="#fbbe66"/><path d="m332.891 26.351c0-6.518-3.31-12.262-8.339-15.647l-127.451 48.922c-10.838 4.16-17.992 14.569-17.992 26.178v3.229h153.781v-62.682z" fill="#fcb143"/></g></g><g><path d="m425.237 66.532h-227.28c-10.409 0-18.848 8.438-18.848 18.848v400.269c0 10.409 8.438 18.848 18.848 18.848h269.867c10.409 0 18.848-8.438 18.848-18.848v-357.681z" fill="#fbe77b"/></g><path d="m446.011 87.306v398.343c0 10.409-8.438 18.848-18.848 18.848h40.662c10.409 0 18.848-8.438 18.848-18.848v-357.681z" fill="#fcdd2e"/><path d="m444.084 127.968c-10.409 0-18.848-8.438-18.848-18.848v-42.588l61.436 61.436z" fill="#d5b0ec"/></g></g><g><g><g><path d="m229.315 292.912h207.151c5.271 0 9.544-4.273 9.544-9.544v-107.489c0-5.271-4.273-9.544-9.544-9.544h-207.151c-5.271 0-9.544 4.273-9.544 9.544v107.489c0 5.271 4.273 9.544 9.544 9.544z" fill="#f9f6f6"/></g><path d="m229.315 292.912h147.228l-65.66-79.113c-5.431-6.543-15.47-6.543-20.901 0l-64.85 78.138c1.265.618 2.681.975 4.183.975z" fill="#61a2f9"/><path d="m436.467 292.912c1.573 0 3.053-.387 4.361-1.061l-46.195-55.661c-5.431-6.543-15.47-6.543-20.901 0l-47.076 56.722z" fill="#9dc6fb"/></g></g></g><path d="m179.109 175.946h-115.104c-3.172 0-5.743-2.571-5.743-5.743v-67.209c0-3.172 2.571-5.743 5.743-5.743h115.105v78.695z" fill="#f9f6f6"/><path d="m138.448 97.25h40.662v78.695h-40.662z" fill="#e7ecf1"/><path d="m179.109 289.795h-115.104c-3.172 0-5.743-2.571-5.743-5.743v-67.209c0-3.172 2.571-5.743 5.743-5.743h115.105v78.695z" fill="#f9f6f6"/><path d="m138.448 211.099h40.662v78.695h-40.662z" fill="#e7ecf1"/></g></g><g><g><path d="m444.958 337.623h-223.949c-4.144 0-7.503 3.359-7.503 7.503s3.359 7.503 7.503 7.503h223.949c4.144 0 7.503-3.359 7.503-7.503-.001-4.144-3.359-7.503-7.503-7.503z"/><path d="m444.958 378.638h-223.949c-4.144 0-7.503 3.359-7.503 7.503s3.359 7.503 7.503 7.503h223.949c4.144 0 7.503-3.359 7.503-7.503-.001-4.144-3.359-7.503-7.503-7.503z"/><path d="m385.687 419.653h-164.678c-4.144 0-7.503 3.359-7.503 7.503s3.359 7.503 7.503 7.503h164.678c4.144 0 7.503-3.359 7.503-7.503s-3.359-7.503-7.503-7.503z"/><path d="m491.978 122.663-61.435-61.435c-1.408-1.407-3.316-2.198-5.306-2.198h-84.842v-32.68c0-14.53-11.821-26.35-26.351-26.35h-269.868c-14.53 0-26.351 11.821-26.351 26.35v400.27c0 14.53 11.821 26.35 26.351 26.35h99.783c4.144 0 7.503-3.359 7.503-7.503s-3.359-7.503-7.503-7.503h-99.783c-6.256 0-11.345-5.089-11.345-11.345v-400.269c0-6.256 5.09-11.345 11.345-11.345h248.232l-97.996 37.616c-12.109 4.648-20.794 15.779-22.473 28.591-.501 3.14-.275 4.979-.333 8.535h-107.601c-7.303 0-13.246 5.942-13.246 13.246v67.21c0 7.303 5.942 13.246 13.246 13.246h107.602v20.148h-107.602c-7.303 0-13.246 5.942-13.246 13.246v67.21c0 7.303 5.942 13.246 13.246 13.246h107.602v22.653h-113.345c-4.144 0-7.503 3.359-7.503 7.503s3.359 7.503 7.503 7.503h113.345v23.175h-113.345c-4.144 0-7.503 3.359-7.503 7.503s3.359 7.503 7.503 7.503h113.345v112.513c0 14.53 11.821 26.351 26.35 26.351h269.867c14.53 0 26.35-11.821 26.35-26.351v-357.684c.001-1.99-.789-3.898-2.196-5.305zm-59.239-38.017 35.82 35.82h-24.475c-6.255 0-11.345-5.09-11.345-11.345zm-213.148-25.616 103.364-39.677c1.519 1.93 2.434 4.357 2.434 6.998v32.679zm-153.827 109.413v-63.69h105.842v63.69zm0 113.849v-63.69h105.842v63.69zm402.06 214.703h-269.867c-6.256 0-11.345-5.09-11.345-11.345v-400.27c0-6.194 5.036-11.345 11.345-11.345h219.777v35.085c0 14.53 11.821 26.351 26.35 26.351h35.085v350.178c0 6.256-5.089 11.346-11.345 11.346z"/><path d="m436.466 158.832h-148.233c-4.144 0-7.503 3.359-7.503 7.503s3.359 7.503 7.503 7.503h148.234c1.125 0 2.042.916 2.042 2.041v101.428l-38.102-45.909c-8.44-10.168-24.025-10.148-32.448 0l-16.359 19.71-34.942-42.101c-8.441-10.168-24.025-10.147-32.448 0l-56.935 68.601v-101.73c0-1.125.916-2.041 2.041-2.041h23.842c4.144 0 7.503-3.359 7.503-7.503s-3.359-7.503-7.503-7.503h-23.842c-9.399 0-17.047 7.647-17.047 17.047v107.489c0 9.4 7.647 17.047 17.047 17.047h207.151c9.4 0 17.047-7.647 17.047-17.047v-107.488c0-9.4-7.648-17.047-17.048-17.047zm-56.961 82.15c2.431-2.931 6.921-2.932 9.354 0l36.873 44.428h-83.099zm-83.749-22.391c2.431-2.931 6.921-2.932 9.354 0l36.739 44.266-18.718 22.553h-82.831z"/></g></g></g></svg>