<svg height="512" viewBox="0 0 512 512" width="512" xmlns="http://www.w3.org/2000/svg"><g id="BULINE"><circle cx="256" cy="256" fill="#27273d" r="256"/></g><g id="Icons"><path d="m496.14 167.12h-480.29c36.15-97.58 130.01-167.12 240.15-167.12s204 69.54 240.14 167.12z" fill="#db1b1b"/><path d="m496.14 344.87h-480.29a256.53 256.53 0 0 1 0-177.75h480.29a253 253 0 0 1 8.91 29.41 257.31 257.31 0 0 1 -8.91 148.34z" fill="#fff"/><path d="m256 512a256.09 256.09 0 0 1 -240.15-167.13h480.29a252.21 252.21 0 0 1 -13.05 29.41 256 256 0 0 1 -227.09 137.72z" fill="#134989"/><path d="m289.5 2.17c-95.38 12.47-174.24 77.43-206.65 165h-67c36.15-97.63 130.01-167.17 240.15-167.17a259.05 259.05 0 0 1 33.5 2.17z" fill="#c11b1b"/><path d="m67 256a255.41 255.41 0 0 0 15.85 88.87h-67a256.53 256.53 0 0 1 0-177.75h67a252.91 252.91 0 0 0 -8.85 29.41 256.16 256.16 0 0 0 -7 59.47z" fill="#e2e2e2"/><path d="m289.5 509.83a258.82 258.82 0 0 1 -33.5 2.17 256.09 256.09 0 0 1 -240.15-167.13h67a256.15 256.15 0 0 0 206.65 165z" fill="#0f4172"/><circle cx="427.72" cy="112.38" fill="#e53838" r="18.07"/><circle cx="401.11" cy="85.77" fill="#e53838" r="12.8"/><path d="m154.9 160.31s93.44-39.18 201.52 0l27.92-50.88-16.66-30.63-34.22 14-23-25.66-28.37 18-26.43-19.85-25.33 19.82-32.42-17.11-20.27 25.66-33.77-14.86-16.21 31.08z" fill="none" stroke="#fff" stroke-linecap="round" stroke-linejoin="round" stroke-width="4"/><path d="m256 396.5c-90.52-6.75-107.18-87.81-107.18-87.81v-141.41h214.36v141.41s-16.66 81.06-107.18 87.81" fill="none" stroke="#db1b1b" stroke-linejoin="round" stroke-width="3"/><path d="m256 396.5c-90.52-6.75-107.18-87.81-107.18-87.81v-141.41h214.36v141.41s-16.66 81.06-107.18 87.81" fill="#fff"/><path d="m275.81 388.92a130 130 0 0 1 -20.15 3.08 130 130 0 0 1 -20.16-3.08 107.39 107.39 0 0 1 -32.19-13.14 97.69 97.69 0 0 1 -8.1-5.56 109.58 109.58 0 0 1 -29.6-34.73c-8.27-15-10.72-27.16-10.72-27.16v-134.74h201.53v134.74s-2.45 12.12-10.71 27.16a109.71 109.71 0 0 1 -29.6 34.73 96.23 96.23 0 0 1 -8.11 5.56 107.39 107.39 0 0 1 -32.19 13.14" fill="none" stroke="#db1b1b" stroke-linejoin="round" stroke-width="4"/><path d="m154.9 174.26h40.3v40.3h-40.3z" fill="#db1b1b"/><path d="m195.2 174.26h40.3v40.3h-40.3z" fill="#fff"/><path d="m235.51 174.26h40.3v40.3h-40.3z" fill="#db1b1b"/><path d="m275.81 174.26h40.3v40.3h-40.3z" fill="#fff"/><path d="m316.12 174.26h40.3v40.3h-40.3z" fill="#db1b1b"/><path d="m154.9 214.57h40.3v40.3h-40.3z" fill="#fff"/><path d="m195.2 214.57h40.3v40.3h-40.3z" fill="#db1b1b"/><path d="m235.51 214.57h40.3v40.3h-40.3z" fill="#fff"/><path d="m275.81 214.57h40.3v40.3h-40.3z" fill="#db1b1b"/><path d="m316.12 214.57h40.3v40.3h-40.3z" fill="#fff"/><path d="m154.9 254.87h40.3v40.3h-40.3z" fill="#db1b1b"/><path d="m195.2 254.87h40.3v40.3h-40.3z" fill="#fff"/><path d="m235.51 254.87h40.3v40.3h-40.3z" fill="#db1b1b"/><path d="m275.81 254.87h40.3v40.3h-40.3z" fill="#fff"/><path d="m316.12 254.87h40.3v40.3h-40.3z" fill="#db1b1b"/><path d="m195.21 295.18v40.31h-29.6c-8.27-15-10.72-27.16-10.72-27.16v-13.15z" fill="#fff"/><path d="m195.2 295.18h40.3v40.3h-40.3z" fill="#db1b1b"/><path d="m235.51 295.18h40.3v40.3h-40.3z" fill="#fff"/><path d="m275.81 295.18h40.3v40.3h-40.3z" fill="#db1b1b"/><path d="m195.21 335.49v34.73a109.58 109.58 0 0 1 -29.6-34.73z" fill="#db1b1b"/><path d="m235.5 335.49v40.29h-32.19a97.69 97.69 0 0 1 -8.1-5.56v-34.73z" fill="#fff"/><path d="m235.51 335.48h40.3v40.3h-40.3z" fill="#db1b1b"/><path d="m316.11 335.49v34.73a96.23 96.23 0 0 1 -8.11 5.56h-32.19v-40.29z" fill="#fff"/><path d="m345.71 335.49a109.71 109.71 0 0 1 -29.6 34.73v-34.73z" fill="#db1b1b"/><path d="m235.5 375.78v13.14a107.39 107.39 0 0 1 -32.19-13.14z" fill="#db1b1b"/><path d="m275.81 375.78v13.14a130 130 0 0 1 -20.15 3.08 130 130 0 0 1 -20.16-3.08v-13.14z" fill="#fff"/><path d="m308 375.78a107.39 107.39 0 0 1 -32.19 13.14v-13.14z" fill="#db1b1b"/><path d="m145.22 83.76-13.96 27.02 23.64 45.48 35.8-10.81-12.16-49.08z" fill="#3586cb"/><path d="m199.26 71.6 30.17 16.66 4.05 52.24-42.78 4.95-12.16-49.08z" fill="#0f4172"/><path d="m365.88 83.76 13.96 27.02-23.64 45.48-35.8-10.81 12.16-49.08z" fill="#3586cb"/><path d="m311.84 71.6-30.17 16.66-4.05 52.24 42.78 4.95 12.16-49.08z" fill="#0f4172"/><path d="m256 140.05-22.52.45-4.05-52.24 26.23-19.36 25.56 18.91-2.7 52.69z" fill="#3586cb"/></g></svg>