<svg height="512" viewBox="0 0 512 512" width="512" xmlns="http://www.w3.org/2000/svg"><g id="BULINE"><circle cx="256" cy="256" fill="#f55b4b" r="256"/></g><g id="Icons"><path d="m508.44 213.2h-504.88c20.36-121 125.64-213.2 252.44-213.2s232.08 92.2 252.44 213.2z" fill="#732027"/><path d="m508.44 298.78c-20.36 121.01-125.63 213.22-252.44 213.22s-232.08-92.21-252.44-213.22z" fill="#732027"/><path d="m512 256a257.75 257.75 0 0 1 -3.56 42.79h-504.88a258.94 258.94 0 0 1 0-85.58h504.88a257.84 257.84 0 0 1 3.56 42.79z" fill="#fff"/><path d="m293 2.65c-109.83 15.9-197.1 101.53-215.44 210.55h-74c20.36-121 125.64-213.2 252.44-213.2a257.92 257.92 0 0 1 37 2.65z" fill="#631d25"/><path d="m293 509.33a257.92 257.92 0 0 1 -37 2.67c-126.8 0-232.08-92.21-252.44-213.22h74c18.34 109.02 105.61 194.65 215.44 210.55z" fill="#631d25"/><path d="m74 256a257.75 257.75 0 0 0 3.56 42.79h-74a258.94 258.94 0 0 1 0-85.58h74a257.84 257.84 0 0 0 -3.56 42.79z" fill="#e2e2e2"/><g fill="#872a35"><circle cx="442" cy="119.11" r="16.28"/><circle cx="418.02" cy="95.13" r="11.53"/></g></g></svg>