<svg height="512" viewBox="0 0 58 58" width="512" xmlns="http://www.w3.org/2000/svg"><g id="Page-1" fill="none" fill-rule="evenodd"><g id="017---Forex-Dollar-Yen" fill-rule="nonzero" transform="translate(-1 -1)"><path id="Shape" d="m48.96 10h-2.96v18.28c-1.9825768-.3733434-4.0174232-.3733434-6 0v-18.28h-2.96c-.4130981-.00703392-.7845438-.25323099-.9519448-.63095629s-.1003087-.81827445.1719448-1.12904371l5.97-6.88c.1899799-.22927032.4722463-.36195611.77-.36195611s.5800201.13268579.77.36195611l5.97 6.88c.2722535.31076926.3393458.75131841.1719448 1.12904371s-.5388467.62392237-.9519448.63095629z" fill="#e64c3c"/><path id="Shape" d="m23.74 51.76-5.97 6.88c-.1899799.2292703-.4722463.3619561-.77.3619561s-.5800201-.1326858-.77-.3619561l-5.97-6.88c-.27225347-.3107693-.33934576-.7513184-.1719448-1.1290437.167401-.3777253.5388467-.6239224.9519448-.6309563h2.96v-18.28c1.9825768.3733434 4.0174232.3733434 6 0v18.28h2.96c.4130981.0070339.7845438.253231.9519448.6309563s.1003087.8182744-.1719448 1.1290437z" fill="#e64c3c"/><path id="Shape" d="m59 43c-.0019881 8.4457313-6.5680863 15.4354497-14.997214 15.9647783-8.4291276.5293286-15.8180681-5.5840474-16.8766166-13.9631796-1.0585484-8.3791323 4.5778875-16.1380238 12.8738306-17.7215987 1.9825768-.3733434 4.0174232-.3733434 6 0 7.5449346 1.4402178 13.0018081 8.0388372 13 15.72z" fill="#f3d55b"/><path id="Shape" d="m33 17c.0018081 7.6811628-5.4550654 14.2797822-13 15.72-1.9825768.3733434-4.0174232.3733434-6 0-8.29594312-1.5835749-13.93237903-9.3424664-12.87383056-17.7215987 1.05854846-8.3791322 8.44748895-14.49250822 16.87661656-13.9631796 8.4291277.52932862 14.9952259 7.51904697 14.997214 15.9647783z" fill="#f3d55b"/><g fill="#b19046"><path id="Shape" d="m21 13c0 .5522847.4477153 1 1 1s1-.4477153 1-1c0-2.472-2.167-4.526-5-4.925v-2.075c0-.55228475-.4477153-1-1-1s-1 .44771525-1 1v2.075c-2.833.4-5 2.453-5 4.925s2.167 4.526 5 4.925v5.968c-1.721-.335-3-1.5-3-2.893 0-.5522847-.4477153-1-1-1s-1 .4477153-1 1c0 2.472 2.167 4.526 5 4.925v2.075c0 .5522847.4477153 1 1 1s1-.4477153 1-1v-2.075c2.833-.4 5-2.453 5-4.925s-2.167-4.526-5-4.925v-5.969c1.721.336 3 1.5 3 2.894zm-8 0c0-1.394 1.279-2.558 3-2.894v5.787c-1.721-.335-3-1.499-3-2.893zm8 8c0 1.394-1.279 2.558-3 2.893v-5.787c1.721.336 3 1.5 3 2.894z"/><path id="Shape" d="m49 46h-5v-2h5c.5522847 0 1-.4477153 1-1s-.4477153-1-1-1h-4l4.8-6.4c.3313708-.4418278.2418278-1.0686291-.2-1.4-.4418278-.3313708-1.0686291-.2418278-1.4.2l-5.2 6.933-5.2-6.933c-.3313709-.4418278-.9581722-.5313708-1.4-.2-.4418278.3313709-.5313708.9581722-.2 1.4l4.8 6.4h-4c-.5522847 0-1 .4477153-1 1s.4477153 1 1 1h5v2h-5c-.5522847 0-1 .4477153-1 1s.4477153 1 1 1h5v5c0 .5522847.4477153 1 1 1s1-.4477153 1-1v-5h5c.5522847 0 1-.4477153 1-1s-.4477153-1-1-1z"/></g></g></g></svg>