<svg id="Filled_stroke_cut_Ex" height="512" viewBox="0 0 512 512" width="512" xmlns="http://www.w3.org/2000/svg" data-name="Filled stroke cut Ex"><g><path d="m304 88h184v400h-184z" fill="#f39f37"/><path d="m488 496h-96v-16h88v-168h16v176a8 8 0 0 1 -8 8z"/><path d="m496 296h-16v-200h-128v-16h136a8 8 0 0 1 8 8z"/><g><g><rect fill="#fdbf44" height="432" rx="10" width="304" x="24" y="56"/><path d="m296 448v8h-240v-368h240v200" fill="#fffcf8"/><path d="m206.992 48a32.011 32.011 0 0 0 -61.984 0h-57.008v54a10 10 0 0 0 10 10h156a10 10 0 0 0 10-10v-54z" fill="#fa5131"/><path d="m318 48h-46a8 8 0 0 0 -8-8h-51.325a40.022 40.022 0 0 0 -73.35 0h-51.325a8 8 0 0 0 -8 8h-46a18.021 18.021 0 0 0 -18 18v54h16v-54a2 2 0 0 1 2-2h46v16h-24a8 8 0 0 0 -8 8v368a8 8 0 0 0 8 8h224v-16h-216v-352h16v6a18.021 18.021 0 0 0 18 18h156a18.021 18.021 0 0 0 18-18v-6h16v168h16v-176a8 8 0 0 0 -8-8h-24v-16h46a2 2 0 0 1 2 2v182h16v-182a18.021 18.021 0 0 0 -18-18zm-62 54a2 2 0 0 1 -2 2h-156a2 2 0 0 1 -2-2v-46h49.008a8 8 0 0 0 7.748-6.006 24.01 24.01 0 0 1 46.488 0 8 8 0 0 0 7.748 6.006h49.008z"/><path d="m80 320h96v16h-96z"/><path d="m192 320h32v16h-32z"/><path d="m80 360h48v16h-48z"/><path d="m144 360h88v16h-88z"/><path d="m80 400h96v16h-96z"/><path d="m192 400h48v16h-48z"/></g><g><circle cx="176" cy="216" fill="#fa5131" r="48"/><path d="m256 232v-32h-16v8h-8.57a55.716 55.716 0 0 0 -10.6-25.52l6.079-6.078 5.657 5.657 11.313-11.314-22.627-22.627-11.314 11.313 5.657 5.657-6.078 6.079a55.716 55.716 0 0 0 -25.517-10.597v-8.57h8v-16h-32v16h8v8.57a55.716 55.716 0 0 0 -25.52 10.6l-6.078-6.079 5.657-5.657-11.314-11.313-22.627 22.627 11.313 11.314 5.657-5.657 6.079 6.078a55.716 55.716 0 0 0 -10.597 25.517h-8.57v-8h-16v32h16v-8h8.57a55.716 55.716 0 0 0 10.6 25.52l-6.079 6.078-5.657-5.657-11.313 11.314 22.627 22.627 11.314-11.313-5.657-5.657 6.078-6.079a55.716 55.716 0 0 0 25.517 10.597v8.57h-8v16h32v-16h-8v-8.57a55.716 55.716 0 0 0 25.52-10.6l6.078 6.079-5.657 5.657 11.314 11.313 22.627-22.627-11.313-11.314-5.657 5.657-6.079-6.078a55.716 55.716 0 0 0 10.597-25.517h8.57v8zm-80 24a40 40 0 1 1 40-40 40.045 40.045 0 0 1 -40 40z"/><path d="m152 208h16v16h-16z"/><path d="m176 192h16v16h-16z"/><path d="m176 224h16v16h-16z"/></g><path d="m112 72h16v16h-16z"/><path d="m224 72h16v16h-16z"/><path d="m168 48h16v16h-16z"/></g><g><path d="m320.569 465.469c-33.772-24.311-56.437-59.541-63.819-99.2l-.074-.427-9.2-57.112 104.393-45.5 104.395 45.5-9.315 57.685-.039.212c-7.454 40.015-30.413 75.451-64.65 99.779l-30.392 21.594z" fill="#25b1fa"/><path d="m459.457 301.4-104.4-45.5a8.012 8.012 0 0 0 -6.393 0l-104.388 45.5a8 8 0 0 0 -4.7 8.607l9.218 57.2.074.427c.006.035.012.069.019.1 7.761 41.695 31.559 78.711 67.011 104.229l4.1 2.955v3.082a2 2 0 0 1 -2 2h-283.998a2 2 0 0 1 -2-2v-342h-16v342a18.021 18.021 0 0 0 18 18h284a18.027 18.027 0 0 0 16.446-10.685l12.748 9.178a8 8 0 0 0 9.307.028l30.389-21.592c35.938-25.537 60.045-62.769 67.882-104.848l.04-.211c.011-.06.021-.119.03-.179l9.316-57.685a8 8 0 0 0 -4.701-8.606zm-20.395 63.654-.021.112c-7.071 37.964-28.883 71.6-61.418 94.723l-25.723 18.276-26.655-19.189c-32.079-23.092-53.606-56.519-60.62-94.125l-8.266-51.268 95.508-41.624 95.508 41.625z"/><path d="m408 352h-40v-40h-32v40h-40v32h40v40h32v-40h40z" fill="#fafeff"/><path d="m368 432h-32a8 8 0 0 1 -8-8v-32h-32a8 8 0 0 1 -8-8v-32a8 8 0 0 1 8-8h32v-32a8 8 0 0 1 8-8h32a8 8 0 0 1 8 8v32h32a8 8 0 0 1 8 8v32a8 8 0 0 1 -8 8h-32v32a8 8 0 0 1 -8 8zm-24-16h16v-32a8 8 0 0 1 8-8h32v-16h-32a8 8 0 0 1 -8-8v-32h-16v32a8 8 0 0 1 -8 8h-32v16h32a8 8 0 0 1 8 8z"/></g><path d="m352 120h112v16h-112z"/><path d="m352 160h64v16h-64z"/><path d="m432 160h32v16h-32z"/><path d="m400 200h64v16h-64z"/><path d="m352 200h32v16h-32z"/><path d="m392 240h72v16h-72z"/></g></svg>