<svg height="512pt" viewBox="-26 0 512 512" width="512pt" xmlns="http://www.w3.org/2000/svg"><path d="m345.722656 512h-230.757812c-17.070313 0-30.90625-13.835938-30.90625-30.90625v-450.1875c0-17.070312 13.835937-30.90625 30.90625-30.90625h230.757812c17.070313 0 30.90625 13.835938 30.90625 30.90625v450.1875c0 17.070312-13.835937 30.90625-30.90625 30.90625zm0 0" fill="#b5fcff"/><path d="m345.722656 0h-30.902344c17.066407 0 30.902344 13.835938 30.902344 30.90625v450.1875c0 17.070312-13.835937 30.90625-30.902344 30.90625h30.902344c17.070313 0 30.90625-13.839844 30.90625-30.90625v-450.1875c0-17.070312-13.835937-30.90625-30.90625-30.90625zm0 0" fill="#71f6fc"/><path d="m290.09375 39.148438h-119.5c-7.964844 0-14.421875-6.457032-14.421875-14.425782v-24.722656h148.34375v24.722656c0 7.96875-6.457031 14.425782-14.421875 14.425782zm0 0" fill="#685c79"/><path d="m273.609375 0v24.722656c0 7.964844-6.457031 14.425782-14.421875 14.425782h30.90625c7.964844 0 14.421875-6.457032 14.421875-14.425782v-24.722656zm0 0" fill="#594f69"/><path d="m84.058594 433.707031h292.570312v30.902344h-292.570312zm0 0" fill="#3be3eb"/><path d="m345.722656 433.707031h30.90625v30.902344h-30.90625zm0 0" fill="#2bc3d4"/><path d="m345.722656 512h-230.757812c-17.070313 0-30.90625-13.835938-30.90625-30.90625v-16.480469h292.570312v16.480469c0 17.070312-13.835937 30.90625-30.90625 30.90625zm0 0" fill="#685c79"/><path d="m345.722656 464.613281v16.480469c0 17.070312-13.835937 30.90625-30.902344 30.90625h30.902344c17.070313 0 30.90625-13.835938 30.90625-30.90625v-16.480469zm0 0" fill="#594f69"/><path d="m250.945312 480.804688h-41.207031c-4.140625 0-7.5 3.359374-7.5 7.5 0 4.144531 3.359375 7.5 7.5 7.5h41.207031c4.144532 0 7.5-3.355469 7.5-7.5 0-4.140626-3.355468-7.5-7.5-7.5zm0 0" fill="#d5dfe8"/><path d="m137.628906 117.957031h185.429688v267.847657h-185.429688zm0 0" fill="#d5dfe8"/><path d="m292.152344 117.957031h30.90625v267.847657h-30.90625zm0 0" fill="#cad2db"/><path d="m205.738281 199.339844h-33.207031c-2.207031 0-4-1.789063-4-4v-33.207032c0-2.207031 1.792969-4 4-4h33.207031c2.210938 0 4 1.792969 4 4v33.207032c0 2.210937-1.789062 4-4 4zm0 0" fill="#ff2c5c"/><g fill="#ffd659"><path d="m288.152344 199.339844h-33.207032c-2.207031 0-4-1.789063-4-4v-33.207032c0-2.207031 1.792969-4 4-4h33.207032c2.210937 0 4 1.792969 4 4v33.207032c0 2.210937-1.789063 4-4 4zm0 0"/><path d="m205.738281 279.695312h-33.207031c-2.207031 0-4-1.792968-4-4v-33.207031c0-2.210937 1.792969-4 4-4h33.207031c2.210938 0 4 1.789063 4 4v33.207031c0 2.207032-1.789062 4-4 4zm0 0"/><path d="m288.152344 279.695312h-33.207032c-2.207031 0-4-1.792968-4-4v-33.207031c0-2.210937 1.792969-4 4-4h33.207032c2.210937 0 4 1.789063 4 4v33.207031c0 2.207032-1.789063 4-4 4zm0 0"/><path d="m205.738281 359.019531h-33.207031c-2.207031 0-4-1.792969-4-4v-33.207031c0-2.210938 1.792969-4 4-4h33.207031c2.210938 0 4 1.789062 4 4v33.207031c0 2.207031-1.789062 4-4 4zm0 0"/></g><path d="m288.152344 359.019531h-33.207032c-2.207031 0-4-1.792969-4-4v-33.207031c0-2.210938 1.792969-4 4-4h33.207032c2.210937 0 4 1.789062 4 4v33.207031c0 2.207031-1.789063 4-4 4zm0 0" fill="#ff2c5c"/><path d="m435.347656 101.472656c0 35.558594-28.824218 64.386719-64.382812 64.386719-35.5625 0-64.386719-28.828125-64.386719-64.386719s28.824219-64.386718 64.386719-64.386718c35.558594 0 64.382812 28.828124 64.382812 64.386718zm0 0" fill="#ff2c5c"/><path d="m407.816406 78.808594c-3.039062-2.820313-7.785156-2.644532-10.601562.390625l-32.652344 35.175781-25.363281-16.757812c-3.457031-2.28125-8.109375-1.332032-10.394531 2.125-2.28125 3.457031-1.332032 8.109374 2.125 10.394531l30.667968 20.257812c1.265625.835938 2.703125 1.242188 4.132813 1.242188 2.027343 0 4.035156-.820313 5.5-2.398438l36.980469-39.832031c2.816406-3.035156 2.640624-7.78125-.394532-10.597656zm0 0" fill="#ffd659"/><path d="m56.242188 347.398438c-4.140626 0-7.5 3.355468-7.5 7.5v30.902343c0 4.144531 3.359374 7.5 7.5 7.5 4.144531 0 7.5-3.355469 7.5-7.5v-30.902343c0-4.144532-3.355469-7.5-7.5-7.5zm0 0" fill="#b0693c"/><path d="m404.445312 347.398438c-4.144531 0-7.5 3.355468-7.5 7.5v30.902343c0 4.144531 3.355469 7.5 7.5 7.5 4.140626 0 7.5-3.355469 7.5-7.5v-30.902343c0-4.144532-3.359374-7.5-7.5-7.5zm0 0" fill="#b0693c"/><path d="m159.480469 65.636719 8.09375 16.257812c.871093 1.753907 2.558593 2.96875 4.511719 3.25l18.097656 2.609375c4.914062.707032 6.875 6.691406 3.320312 10.125l-13.097656 12.65625c-1.410156 1.363282-2.054688 3.328125-1.722656 5.253906l3.09375 17.875c.835937 4.851563-4.296875 8.546876-8.6875 6.257813l-16.191406-8.4375c-1.746094-.910156-3.828126-.910156-5.574219 0l-16.1875 8.4375c-4.394531 2.289063-9.527344-1.410156-8.691407-6.257813l3.09375-17.875c.332032-1.925781-.3125-3.890624-1.722656-5.253906l-13.097656-12.65625c-3.554688-3.4375-1.59375-9.417968 3.320312-10.125l18.101563-2.609375c1.949219-.28125 3.632813-1.496093 4.507813-3.25l8.09375-16.257812c2.195312-4.414063 8.539062-4.414063 10.738281 0zm0 0" fill="#ffd659"/><path d="m180.398438 110.535156c-1.410157 1.359375-2.046876 3.328125-1.71875 5.253906l3.089843 17.875c.847657 4.851563-4.292969 8.550782-8.683593 6.261719l-2.335938-1.226562c-1.144531-31.632813-15.96875-43.449219-23.160156-70.75l1.152344-2.316407c2.195312-4.410156 8.542968-4.410156 10.734374 0l8.097657 16.265626c.875 1.75 2.554687 2.964843 4.511719 3.246093l18.101562 2.605469c4.902344.710938 6.871094 6.695312 3.316406 10.125zm0 0" fill="#ffbd54"/><path d="m452.5 378.304688h-445c-4.144531 0-7.5 3.355468-7.5 7.5 0 4.140624 3.359375 7.5 7.5 7.5h445c4.140625 0 7.5-3.359376 7.5-7.5 0-4.144532-3.359375-7.5-7.5-7.5zm0 0" fill="#685c79"/><path d="m93.328125 317.8125c0 20.480469-16.601563 37.085938-37.085937 37.085938-20.480469 0-37.085938-16.605469-37.085938-37.085938 0-20.484375 16.605469-37.089844 37.085938-37.089844 20.484374 0 37.085937 16.605469 37.085937 37.089844zm0 0" fill="#ffbd54"/><path d="m56.242188 280.722656c-5.515626 0-10.746094 1.214844-15.453126 3.375 12.765626 5.863282 21.636719 18.746094 21.636719 33.710938s-8.871093 27.851562-21.636719 33.714844c4.707032 2.160156 9.9375 3.371093 15.453126 3.371093 20.484374 0 37.085937-16.601562 37.085937-37.085937s-16.601563-37.085938-37.085937-37.085938zm0 0" fill="#ff943d"/><path d="m441.53125 317.8125c0 20.480469-16.605469 37.085938-37.085938 37.085938-20.484374 0-37.089843-16.605469-37.089843-37.085938 0-20.484375 16.605469-37.089844 37.089843-37.089844 20.480469 0 37.085938 16.605469 37.085938 37.089844zm0 0" fill="#ffbd54"/><path d="m404.445312 280.722656c-5.519531 0-10.75 1.214844-15.453124 3.375 12.765624 5.863282 21.632812 18.746094 21.632812 33.710938s-8.867188 27.851562-21.632812 33.714844c4.703124 2.160156 9.933593 3.371093 15.453124 3.371093 20.480469 0 37.085938-16.601562 37.085938-37.085937s-16.605469-37.085938-37.085938-37.085938zm0 0" fill="#ff943d"/></svg>