<svg id="Layer_2" enable-background="new 0 0 64 64" height="512" viewBox="0 0 64 64" width="512" xmlns="http://www.w3.org/2000/svg"><path d="m57.031 30c0 1.1-.9 2-2 2h-40.062c-1.1 0-2-.9-2-2v-24.89c0-1.1.9-2 2-2h40.062c1.1 0 2 .9 2 2z" fill="#efc36a"/><path d="m57.031 58.889c0 1.1-.9 2-2 2h-40.062c-1.1 0-2-.9-2-2v-24.889c0-1.1.9-2 2-2h40.062c1.1 0 2 .9 2 2z" fill="#efc36a"/><path d="m55.031 32.5h-40.062c-1.378 0-2.5-1.122-2.5-2.5v-24.89c0-1.378 1.122-2.5 2.5-2.5h40.062c1.379 0 2.5 1.122 2.5 2.5v24.89c0 1.378-1.121 2.5-2.5 2.5zm-40.062-28.89c-.827 0-1.5.673-1.5 1.5v24.89c0 .827.673 1.5 1.5 1.5h40.062c.827 0 1.5-.673 1.5-1.5v-24.89c0-.827-.673-1.5-1.5-1.5z" fill="#63312d"/><path d="m55.031 61.389h-40.062c-1.378 0-2.5-1.122-2.5-2.5v-24.889c0-1.378 1.122-2.5 2.5-2.5h40.062c1.379 0 2.5 1.122 2.5 2.5v24.89c0 1.378-1.121 2.499-2.5 2.499zm-40.062-28.889c-.827 0-1.5.673-1.5 1.5v24.89c0 .827.673 1.5 1.5 1.5h40.062c.827 0 1.5-.673 1.5-1.5v-24.89c0-.827-.673-1.5-1.5-1.5z" fill="#63312d"/><path d="m54.094 30c0 1.1-.9 2-2 2h-40.062c-1.101 0-2-.9-2-2v-24.89c0-1.1.899-2 2-2h40.062c1.1 0 2 .9 2 2z" fill="#d1d1d1"/><path d="m54.094 58.889c0 1.1-.9 2-2 2h-40.062c-1.101 0-2-.9-2-2v-24.889c0-1.1.899-2 2-2h40.062c1.1 0 2 .9 2 2z" fill="#d1d1d1"/><path d="m52.094 32.5h-40.062c-1.378 0-2.5-1.122-2.5-2.5v-24.89c0-1.378 1.122-2.5 2.5-2.5h40.062c1.379 0 2.5 1.122 2.5 2.5v24.89c0 1.378-1.121 2.5-2.5 2.5zm-40.062-28.89c-.827 0-1.5.673-1.5 1.5v24.89c0 .827.673 1.5 1.5 1.5h40.062c.827 0 1.5-.673 1.5-1.5v-24.89c0-.827-.673-1.5-1.5-1.5z" fill="#63312d"/><path d="m52.094 61.389h-40.062c-1.378 0-2.5-1.122-2.5-2.5v-24.889c0-1.378 1.122-2.5 2.5-2.5h40.062c1.379 0 2.5 1.122 2.5 2.5v24.89c0 1.378-1.121 2.499-2.5 2.499zm-40.062-28.889c-.827 0-1.5.673-1.5 1.5v24.89c0 .827.673 1.5 1.5 1.5h40.062c.827 0 1.5-.673 1.5-1.5v-24.89c0-.827-.673-1.5-1.5-1.5z" fill="#63312d"/><path d="m51.031 30c0 1.1-.9 2-2 2h-40.062c-1.1 0-2-.9-2-2v-24.89c0-1.1.9-2 2-2h40.062c1.1 0 2 .9 2 2z" fill="#f8f3f3"/><path d="m51.031 58.889c0 1.1-.9 2-2 2h-40.062c-1.1 0-2-.9-2-2v-24.889c0-1.1.9-2 2-2h40.062c1.1 0 2 .9 2 2z" fill="#f8f3f3"/><path d="m49.031 32.5h-40.062c-1.378 0-2.5-1.122-2.5-2.5v-24.89c0-1.378 1.122-2.5 2.5-2.5h40.062c1.379 0 2.5 1.122 2.5 2.5v24.89c0 1.378-1.121 2.5-2.5 2.5zm-40.062-28.89c-.827 0-1.5.673-1.5 1.5v24.89c0 .827.673 1.5 1.5 1.5h40.062c.827 0 1.5-.673 1.5-1.5v-24.89c0-.827-.673-1.5-1.5-1.5z" fill="#63312d"/><path d="m49.031 61.389h-40.062c-1.378 0-2.5-1.122-2.5-2.5v-24.889c0-1.378 1.122-2.5 2.5-2.5h40.062c1.379 0 2.5 1.122 2.5 2.5v24.89c0 1.378-1.121 2.499-2.5 2.499zm-40.062-28.889c-.827 0-1.5.673-1.5 1.5v24.89c0 .827.673 1.5 1.5 1.5h40.062c.827 0 1.5-.673 1.5-1.5v-24.89c0-.827-.673-1.5-1.5-1.5z" fill="#63312d"/><path d="m22.286 48.926c0 2.001-1.622 3.622-3.623 3.622-1.998 0-3.62-1.621-3.62-3.622s1.622-3.621 3.62-3.621c2.001 0 3.623 1.62 3.623 3.621z" fill="#f9a287"/><path d="m18.663 53.048c-2.272 0-4.12-1.849-4.12-4.122 0-2.272 1.848-4.121 4.12-4.121 2.273 0 4.123 1.849 4.123 4.121 0 2.273-1.85 4.122-4.123 4.122zm0-7.243c-1.72 0-3.12 1.4-3.12 3.121 0 1.722 1.4 3.122 3.12 3.122 1.722 0 3.123-1.4 3.123-3.122 0-1.721-1.401-3.121-3.123-3.121z" fill="#63312d"/><path d="m24.116 57.663c-.185-2.856-2.553-5.114-5.453-5.114s-5.267 2.258-5.45 5.114z" fill="#f9a287"/><g fill="#63312d"><path d="m24.116 58.163h-10.904c-.138 0-.27-.057-.365-.158s-.143-.236-.134-.374c.201-3.13 2.814-5.582 5.949-5.582s5.75 2.452 5.952 5.582c.009.138-.04.273-.134.374-.094.1-.226.158-.364.158zm-10.342-1h9.779c-.409-2.346-2.462-4.114-4.891-4.114-2.428-.001-4.48 1.767-4.888 4.114z"/><path d="m25.914 58.163h-14.5c-.276 0-.5-.224-.5-.5v-15.511c0-.276.224-.5.5-.5h14.5c.276 0 .5.224.5.5v15.511c0 .276-.224.5-.5.5zm-14-1h13.5v-14.511h-13.5z"/><path d="m30.74 43.402h15.5v1h-15.5z"/><path d="m30.74 47.377h15.5v1h-15.5z"/><path d="m30.74 51.353h15.5v1h-15.5z"/><path d="m30.74 55.329h15.5v1h-15.5z"/><text font-family="'Poppins-Medium'" font-size="6.007" transform="translate(11.878 39.366)">VISA</text></g><path d="m11.081 7.459h18.167v6.083h-18.167z" fill="#f9dd9d"/><path d="m29.248 14.042h-18.167c-.276 0-.5-.224-.5-.5v-6.083c0-.276.224-.5.5-.5h18.167c.276 0 .5.224.5.5v6.083c0 .277-.224.5-.5.5zm-17.667-1h17.167v-5.083h-17.167z" fill="#63312d"/><path d="m37.541 7.719h6.083v12.917h-6.083z" fill="#f9a287" transform="matrix(.707 -.707 .707 .707 1.86 32.847)"/><path d="m42.998 21.395c-.128 0-.256-.049-.354-.146l-9.133-9.134c-.195-.195-.195-.512 0-.707l4.301-4.302c.188-.188.52-.188.707 0l9.135 9.135c.094.094.146.221.146.354s-.053.26-.146.354l-4.303 4.301c-.097.096-.225.145-.353.145zm-8.426-9.634 8.426 8.427 3.596-3.594-8.428-8.428z" fill="#63312d"/><path d="m35.795 22.931c0 2.324-1.883 4.208-4.208 4.208-2.324 0-4.209-1.884-4.209-4.208 0-2.325 1.885-4.209 4.209-4.209 2.325 0 4.208 1.884 4.208 4.209z" fill="#f9dd9d"/><path d="m31.587 27.639c-2.597 0-4.709-2.112-4.709-4.708 0-2.597 2.112-4.709 4.709-4.709 2.596 0 4.708 2.112 4.708 4.709 0 2.596-2.111 4.708-4.708 4.708zm0-8.417c-2.045 0-3.709 1.664-3.709 3.709 0 2.044 1.664 3.708 3.709 3.708 2.044 0 3.708-1.664 3.708-3.708 0-2.045-1.663-3.709-3.708-3.709z" fill="#63312d"/></svg>