<?xml version="1.0" standalone="no"?>
<!DOCTYPE svg PUBLIC "-//W3C//DTD SVG 1.1//EN" "http://www.w3.org/Graphics/SVG/1.1/DTD/svg11.dtd" >
<svg xmlns="http://www.w3.org/2000/svg" xmlns:xlink="http://www.w3.org/1999/xlink" version="1.1">
<metadata>
Created by FontForge 20170731 at Fri May  5 00:27:52 2017
 By Aleksey,,,
Copyright (c) 2015 by Noel Leu. All rights reserved.
</metadata>
<defs>
<font id="GTWalsheimPro-Regular" horiz-adv-x="640" >
  <font-face 
    font-family="GT Walsheim Pro"
    font-weight="400"
    font-stretch="normal"
    units-per-em="1000"
    panose-1="0 0 5 0 0 0 0 0 0 0"
    ascent="800"
    descent="-200"
    x-height="461"
    cap-height="700"
    bbox="-514 -227 1138 899"
    underline-thickness="50"
    underline-position="-250"
    unicode-range="U+000D-FB02"
  />
<missing-glyph horiz-adv-x="800" 
d="M400 -17q-109 0 -193.5 52.5t-127.5 135.5t-43 179t43 179t127.5 135.5t193.5 52.5t193.5 -52.5t127.5 -135.5t43 -179t-43 -179t-127.5 -135.5t-193.5 -52.5zM400 6q140 0 239.5 100.5t99.5 243.5q0 138 -98 241.5t-241 103.5t-241.5 -103t-98.5 -242q0 -143 99 -243.5
t241 -100.5zM243 457q-17 0 -29.5 13t-12.5 30q0 18 12.5 30.5t29.5 12.5q18 0 30.5 -12.5t12.5 -30.5q0 -17 -12.5 -30t-30.5 -13zM540 457q-17 0 -29.5 13t-12.5 30q0 18 12.5 30.5t29.5 12.5q18 0 30.5 -12.5t12.5 -30.5q0 -17 -12.5 -30t-30.5 -13zM219 259l179 268
l-110 -243h178v-25h-247zM132 207q0 38 26 52l23 13q11 6 13 17.5t2 39.5h17q0 -57 -20 -69l-22 -13q-23 -13 -23 -40h-16zM616 157l-16 4q5 17 3 26t-16 15l-41 20q-55 27 -31 98l15 -5q-20 -61 27 -82l40 -19q20 -9 22.5 -26.5t-3.5 -30.5zM366 66q-102 0 -198 162
q82 -49 116 -60q35 -11 72 -11q148 0 220 37q1 0 3 2q-22 -49 -88 -89.5t-125 -40.5zM366 92q31 0 71.5 16.5t62.5 30t32 21.5q-9 -2 -40.5 -9.5t-45 -10t-39 -5.5t-49.5 -3q-30 0 -69.5 11.5t-63.5 30.5q26 -42 69 -62t72 -20z" />
    <glyph glyph-name="fi" unicode="fi" horiz-adv-x="588" 
d="M119 541q0 41 10.5 72t26.5 48.5t37 28t38 13.5t35 3q45 0 70 -10v-75q-26 7 -47 7q-16 0 -28.5 -2.5t-26 -10.5t-21 -26t-7.5 -46v-82h130v-73h-130v-388h-87v388h-98v73h98v80zM470 681q30 0 50 -20.5t20 -50.5t-20 -50t-50 -20q-31 0 -51 20t-20 50t20 50.5t51 20.5z
M426 0v461h87v-461h-87z" />
    <glyph glyph-name="fl" unicode="fl" horiz-adv-x="588" 
d="M119 541q0 41 10.5 72t26.5 48.5t37 28t38 13.5t35 3q45 0 70 -10v-75q-26 7 -47 7q-16 0 -28.5 -2.5t-26 -10.5t-21 -26t-7.5 -46v-82h130v-73h-130v-388h-87v388h-98v73h98v80zM426 700h87v-700h-87v700z" />
    <glyph glyph-name="f_f" unicode="ff" horiz-adv-x="725" 
d="M119 541q0 41 10.5 72t26.5 48.5t37 28t38 13.5t35 3q45 0 70 -10v-75q-26 7 -47 7q-16 0 -28.5 -2.5t-26 -10.5t-21 -26t-7.5 -46v-82h130v-73h-130v-388h-87v388h-98v73h98v80zM663 628q-16 0 -28.5 -2.5t-26 -10.5t-21 -26t-7.5 -46v-82h130v-73h-130v-388h-87v388
h-98v73h98v80q0 41 10.5 72t26.5 48.5t37 28t38 13.5t35 3q45 0 70 -10v-75q-26 7 -47 7z" />
    <glyph glyph-name="f_f_i" unicode="ffi" horiz-adv-x="962" 
d="M119 541q0 41 10.5 72t26.5 48.5t37 28t38 13.5t35 3q45 0 70 -10v-75q-26 7 -47 7q-16 0 -28.5 -2.5t-26 -10.5t-21 -26t-7.5 -46v-82h130v-73h-130v-388h-87v388h-98v73h98v80zM493 541q0 41 10.5 72t26.5 48.5t37 28t38 13.5t35 3q45 0 70 -10v-75q-26 7 -47 7
q-16 0 -28.5 -2.5t-26 -10.5t-21 -26t-7.5 -46v-82h130v-73h-130v-388h-87v388h-98v73h98v80zM844 681q30 0 50 -20.5t20 -50.5t-20 -50t-50 -20q-31 0 -51 20t-20 50t20 50.5t51 20.5zM800 0v461h87v-461h-87z" />
    <glyph glyph-name="f_f_l" unicode="ffl" horiz-adv-x="962" 
d="M119 541q0 41 10.5 72t26.5 48.5t37 28t38 13.5t35 3q45 0 70 -10v-75q-26 7 -47 7q-16 0 -28.5 -2.5t-26 -10.5t-21 -26t-7.5 -46v-82h130v-73h-130v-388h-87v388h-98v73h98v80zM493 541q0 41 10.5 72t26.5 48.5t37 28t38 13.5t35 3q45 0 70 -10v-75q-26 7 -47 7
q-16 0 -28.5 -2.5t-26 -10.5t-21 -26t-7.5 -46v-82h130v-73h-130v-388h-87v388h-98v73h98v80zM800 700h87v-700h-87v700z" />
    <glyph glyph-name=".notdef" horiz-adv-x="800" 
d="M400 -17q-109 0 -193.5 52.5t-127.5 135.5t-43 179t43 179t127.5 135.5t193.5 52.5t193.5 -52.5t127.5 -135.5t43 -179t-43 -179t-127.5 -135.5t-193.5 -52.5zM400 6q140 0 239.5 100.5t99.5 243.5q0 138 -98 241.5t-241 103.5t-241.5 -103t-98.5 -242q0 -143 99 -243.5
t241 -100.5zM243 457q-17 0 -29.5 13t-12.5 30q0 18 12.5 30.5t29.5 12.5q18 0 30.5 -12.5t12.5 -30.5q0 -17 -12.5 -30t-30.5 -13zM540 457q-17 0 -29.5 13t-12.5 30q0 18 12.5 30.5t29.5 12.5q18 0 30.5 -12.5t12.5 -30.5q0 -17 -12.5 -30t-30.5 -13zM219 259l179 268
l-110 -243h178v-25h-247zM132 207q0 38 26 52l23 13q11 6 13 17.5t2 39.5h17q0 -57 -20 -69l-22 -13q-23 -13 -23 -40h-16zM616 157l-16 4q5 17 3 26t-16 15l-41 20q-55 27 -31 98l15 -5q-20 -61 27 -82l40 -19q20 -9 22.5 -26.5t-3.5 -30.5zM366 66q-102 0 -198 162
q82 -49 116 -60q35 -11 72 -11q148 0 220 37q1 0 3 2q-22 -49 -88 -89.5t-125 -40.5zM366 92q31 0 71.5 16.5t62.5 30t32 21.5q-9 -2 -40.5 -9.5t-45 -10t-39 -5.5t-49.5 -3q-30 0 -69.5 11.5t-63.5 30.5q26 -42 69 -62t72 -20z" />
    <glyph glyph-name=".null" horiz-adv-x="0" 
 />
    <glyph glyph-name="nonmarkingreturn" horiz-adv-x="333" 
 />
    <glyph glyph-name="CR" unicode="&#xd;" horiz-adv-x="250" 
 />
    <glyph glyph-name="space" unicode=" " horiz-adv-x="253" 
 />
    <glyph glyph-name="exclam" unicode="!" horiz-adv-x="268" 
d="M90 211v489h87v-489h-87zM133 -7q-30 0 -51 21.5t-21 51.5t21 51.5t51 21.5q31 0 52.5 -21.5t21.5 -51.5t-21.5 -51.5t-52.5 -21.5z" />
    <glyph glyph-name="quotedbl" unicode="&#x22;" horiz-adv-x="414" 
d="M190 625q0 -11 -3 -21l-42 -185h-44l-43 185q-3 10 -3 21q0 28 19.5 47.5t47.5 19.5t48 -19.5t20 -47.5zM359 625q0 -11 -3 -21l-42 -185h-44l-43 185q-3 10 -3 21q0 28 19.5 47.5t47.5 19.5t48 -19.5t20 -47.5z" />
    <glyph glyph-name="numbersign" unicode="#" horiz-adv-x="537" 
d="M89 0l29 209h-95v68h105l20 146h-95v68h104l29 209h72l-29 -209h126l29 209h72l-29 -209h88v-68h-98l-20 -146h88v-68h-97l-30 -209h-71l29 209h-126l-30 -209h-71zM199 277h127l20 146h-127z" />
    <glyph glyph-name="dollar" unicode="$" horiz-adv-x="544" 
d="M504 177q0 -80 -51.5 -131.5t-139.5 -60.5v-85h-66v86q-101 9 -156.5 71t-55.5 164h91q0 -72 41 -114.5t114 -42.5q63 0 97.5 29t34.5 82q0 42 -24.5 68.5t-77.5 43.5l-113 31q-69 20 -105.5 68t-36.5 119q0 72 52.5 125t138.5 60v90h66v-92q81 -12 128 -67t48 -140h-91
q-1 63 -35 97.5t-95 34.5q-57 0 -88.5 -28.5t-31.5 -74.5q0 -45 26 -74t85 -46l117 -36q128 -39 128 -177z" />
    <glyph glyph-name="percent" unicode="%" horiz-adv-x="779" 
d="M182 -15l-59 33l472 682l57 -32zM196 348q-80 0 -128 49.5t-48 120.5t48 120.5t128 49.5t128 -49.5t48 -120.5t-48 -120.5t-128 -49.5zM196 416q46 0 73 29t27 73t-27 73t-73 29t-72.5 -29t-26.5 -73t26.5 -73t72.5 -29zM583 -5q-80 0 -128 49.5t-48 120.5t48 120.5
t128 49.5t128 -49.5t48 -120.5t-48 -120.5t-128 -49.5zM583 63q46 0 73 29t27 73t-27 73t-73 29t-72.5 -29t-26.5 -73t26.5 -73t72.5 -29z" />
    <glyph glyph-name="ampersand" unicode="&#x26;" horiz-adv-x="595" 
d="M586 310v-81h-58q-4 -117 -70 -180.5t-174 -63.5q-105 0 -172 58.5t-67 150.5q0 66 40.5 113t98.5 60q-58 16 -91 56.5t-33 99.5q0 86 62 139t165 53q100 0 163 -54.5t63 -155.5h-95q0 59 -33.5 95.5t-97.5 36.5q-58 0 -95 -30.5t-37 -83.5q0 -117 129 -117h26v-83h-25
q-75 0 -110.5 -35t-35.5 -95q0 -54 39 -91t106 -37t107.5 43t41.5 121h-73v81h226z" />
    <glyph glyph-name="quotesingle" unicode="'" horiz-adv-x="245" 
d="M190 625q0 -11 -3 -21l-42 -185h-44l-43 185q-3 10 -3 21q0 28 19.5 47.5t47.5 19.5t48 -19.5t20 -47.5z" />
    <glyph glyph-name="parenleft" unicode="(" horiz-adv-x="318" 
d="M277 -193q-219 189 -219 465q0 275 219 466l53 -50q-93 -90 -139.5 -190t-46.5 -226t46.5 -226t139.5 -190z" />
    <glyph glyph-name="parenright" unicode=")" horiz-adv-x="318" 
d="M41 -193l-53 49q93 90 139.5 190t46.5 226t-46.5 226t-139.5 190l53 50q219 -191 219 -466q0 -276 -219 -465z" />
    <glyph glyph-name="asterisk" unicode="*" horiz-adv-x="421" 
d="M125 353l-57 40l102 126l-145 39l21 62l140 -55l-9 152h68l-10 -152l140 55l21 -62l-145 -39l102 -126l-57 -40l-85 136z" />
    <glyph glyph-name="plus" unicode="+" horiz-adv-x="504" 
d="M211 116v160h-158v77h158v162h83v-162h158v-77h-158v-160h-83z" />
    <glyph glyph-name="comma" unicode="," horiz-adv-x="297" 
d="M106 -120q-20 0 -34 3v42q12 -2 37 -2q41 0 56 34q13 21 13 54q-13 -16 -41 -16q-29 0 -48 19t-19 50t20.5 51t51.5 20q36 0 63.5 -29.5t27.5 -84.5q0 -63 -33.5 -102t-93.5 -39z" />
    <glyph glyph-name="hyphen" unicode="-" horiz-adv-x="410" 
d="M53 223v78h305v-78h-305z" />
    <glyph glyph-name="period" unicode="." horiz-adv-x="286" 
d="M143 -7q-31 0 -52 21.5t-21 51.5t21 51.5t52 21.5q30 0 51.5 -21.5t21.5 -51.5t-21.5 -51.5t-51.5 -21.5z" />
    <glyph glyph-name="slash" unicode="/" horiz-adv-x="439" 
d="M83 -65l-70 31l343 795l70 -31z" />
    <glyph glyph-name="zero" unicode="0" horiz-adv-x="610" 
d="M305 -11q-126 0 -191.5 89.5t-65.5 262.5q0 172 65.5 261.5t191.5 89.5t191.5 -89.5t65.5 -261.5q0 -173 -65.5 -262.5t-191.5 -89.5zM305 69q170 0 170 272q0 271 -170 271q-171 0 -171 -271q0 -272 171 -272z" />
    <glyph glyph-name="one" unicode="1" horiz-adv-x="380" 
d="M178 0v487h-142v77q89 0 119 25t30 91h83v-680h-90z" />
    <glyph glyph-name="two" unicode="2" horiz-adv-x="569" 
d="M53 0q0 113 39 183t130 118l104 54q94 49 94 142q0 51 -33 82.5t-86 31.5q-66 0 -102.5 -41t-36.5 -116h-94q0 108 63.5 172.5t169.5 64.5q99 0 157 -51t58 -139q0 -133 -132 -205l-104 -55q-63 -34 -88 -67.5t-32 -91.5h357v-82h-464z" />
    <glyph glyph-name="three" unicode="3" horiz-adv-x="563" 
d="M282 -11q-114 0 -178.5 59.5t-64.5 165.5h93q0 -70 39.5 -108.5t110.5 -38.5q62 0 100.5 34t38.5 89q0 60 -37 92.5t-107 32.5h-50v79h51q62 0 94.5 29t32.5 84q0 48 -34.5 78t-90.5 30q-62 0 -99 -34.5t-37 -93.5h-89q0 93 61 148.5t164 55.5q98 0 158 -50.5t60 -133.5
q0 -118 -124 -151q61 -8 100 -54t39 -112q0 -89 -64.5 -145t-166.5 -56z" />
    <glyph glyph-name="four" unicode="4" horiz-adv-x="574" 
d="M535 302v-82h-106v-220h-90v220h-274v460h91v-378h183v201h90v-201h106z" />
    <glyph glyph-name="five" unicode="5" horiz-adv-x="577" 
d="M293 -11q-97 0 -161 52.5t-69 135.5h92q3 -49 41.5 -78t97.5 -29q70 0 110 43t40 117q0 72 -37 114t-101 42q-56 0 -90.5 -20.5t-54.5 -66.5h-85v381h414v-81h-331v-209q52 70 159 70q98 0 156 -61.5t58 -165.5q0 -106 -66 -175t-173 -69z" />
    <glyph glyph-name="six" unicode="6" horiz-adv-x="568" 
d="M283 473q110 0 175.5 -69t65.5 -173t-65.5 -173.5t-175.5 -69.5q-109 0 -174.5 69.5t-65.5 173.5q0 83 44 147l214 302h109l-153 -208q8 1 26 1zM283 66q71 0 112.5 46.5t41.5 118.5q0 71 -41.5 117.5t-112.5 46.5t-112 -46.5t-41 -117.5q0 -72 41 -118.5t112 -46.5z" />
    <glyph glyph-name="seven" unicode="7" horiz-adv-x="513" 
d="M60 0l316 596h-331v84h468l-352 -680h-101z" />
    <glyph glyph-name="eight" unicode="8" horiz-adv-x="579" 
d="M289 -11q-109 0 -174 54t-65 144q0 62 31.5 105.5t88.5 59.5q-51 16 -80.5 59.5t-29.5 99.5q0 80 63.5 130t165.5 50t166 -50t64 -130q0 -56 -30.5 -99t-80.5 -60q57 -16 89 -59.5t32 -105.5q0 -90 -65.5 -144t-174.5 -54zM289 389q63 0 99.5 31t36.5 82q0 53 -37 84
t-99 31t-98.5 -31t-36.5 -84q0 -51 37.5 -82t97.5 -31zM289 67q66 0 106.5 34t40.5 91t-40 91t-107 34q-64 0 -105 -34.5t-41 -90.5q0 -57 40 -91t106 -34z" />
    <glyph glyph-name="nine" unicode="9" horiz-adv-x="555" 
d="M512 449q0 -83 -44 -147l-214 -302h-109l153 208q-8 -1 -26 -1q-110 0 -175.5 69t-65.5 173t65.5 173.5t175.5 69.5q109 0 174.5 -69.5t65.5 -173.5zM118 449q0 -71 41.5 -117.5t112.5 -46.5t112 46.5t41 117.5q0 72 -41 118.5t-112 46.5t-112.5 -46.5t-41.5 -118.5z" />
    <glyph glyph-name="colon" unicode=":" horiz-adv-x="286" 
d="M143 326q-31 0 -52 21.5t-21 51.5t21 51.5t52 21.5q30 0 51.5 -21.5t21.5 -51.5t-21.5 -51.5t-51.5 -21.5zM143 -7q-31 0 -52 21.5t-21 51.5t21 51.5t52 21.5q30 0 51.5 -21.5t21.5 -51.5t-21.5 -51.5t-51.5 -21.5z" />
    <glyph glyph-name="semicolon" unicode=";" horiz-adv-x="297" 
d="M143 325q-31 0 -52 21.5t-21 51.5t21 51.5t52 21.5q30 0 51.5 -21.5t21.5 -51.5t-21.5 -51.5t-51.5 -21.5zM106 -120q-20 0 -34 3v42q12 -2 37 -2q41 0 56 34q13 21 13 54q-13 -16 -41 -16q-29 0 -48 19t-19 50t20.5 51t51.5 20q36 0 63.5 -29.5t27.5 -84.5
q0 -63 -33.5 -102t-93.5 -39z" />
    <glyph glyph-name="less" unicode="&#x3c;" horiz-adv-x="500" 
d="M447 112l-394 173v63l394 174v-83l-274 -122l274 -123v-82z" />
    <glyph glyph-name="equal" unicode="=" horiz-adv-x="529" 
d="M53 363v78h424v-78h-424zM53 186v78h424v-78h-424z" />
    <glyph glyph-name="greater" unicode="&#x3e;" horiz-adv-x="500" 
d="M53 112v82l274 123l-274 122v83l394 -174v-63z" />
    <glyph glyph-name="question" unicode="?" horiz-adv-x="472" 
d="M169 211v15q0 50 13 80t52 59l51 35q67 48 67 125q0 50 -31.5 81t-85.5 31q-62 0 -98.5 -37t-36.5 -106h-91q0 105 61.5 164t168.5 59q98 0 153 -52t55 -137q0 -60 -26.5 -101t-74.5 -79l-43 -31q-28 -21 -37.5 -39.5t-9.5 -50.5v-16h-87zM212 -7q-31 0 -52 21.5
t-21 51.5t21 51.5t52 21.5t52 -21.5t21 -51.5t-21 -51.5t-52 -21.5z" />
    <glyph glyph-name="at" unicode="@" horiz-adv-x="889" 
d="M457 -194q-197 0 -308 114t-111 296q0 186 112.5 296t300.5 110q183 0 292 -103.5t109 -304.5q0 -119 -41 -184t-121 -65q-61 0 -93 30t-42 92q-18 -35 -55.5 -56.5t-88.5 -21.5q-86 0 -141 60t-55 144q0 86 55.5 146.5t142.5 60.5q99 0 142 -79v69h73v-276
q0 -110 65 -110q39 0 64 43.5t25 139.5q0 180 -87.5 266.5t-243.5 86.5q-158 0 -251 -93.5t-93 -251.5q0 -156 92.5 -251t258.5 -95q108 0 199 51l27 -58q-100 -56 -227 -56zM421 75q59 0 96.5 40.5t37.5 98.5t-37.5 98.5t-96.5 40.5t-95.5 -40.5t-36.5 -98.5
q0 -59 36.5 -99t95.5 -40z" />
    <glyph glyph-name="A" unicode="A" horiz-adv-x="590" 
d="M474 0l-33 107h-291l-33 -107h-99l237 700h81l237 -700h-99zM176 190h239l-120 384z" />
    <glyph glyph-name="B" unicode="B" horiz-adv-x="582" 
d="M396 358q60 -7 100.5 -51.5t40.5 -115.5q0 -88 -58 -139.5t-159 -51.5h-240v700h230q101 0 159.5 -48t58.5 -133q0 -136 -132 -161zM307 619h-136v-224h142q57 0 90.5 30t33.5 82q0 54 -34.5 83t-95.5 29zM319 81q59 0 93 31.5t34 87.5q0 51 -33.5 83t-86.5 32h-155v-234
h148z" />
    <glyph glyph-name="C" unicode="C" horiz-adv-x="771" 
d="M400 -16q-167 0 -264.5 103t-97.5 263t97.5 263t264.5 103q138 0 226.5 -68t108.5 -178h-100q-20 76 -80 120t-154 44q-124 0 -196 -79t-72 -205t72 -205t196 -79q94 0 154 44t80 120h100q-20 -110 -108.5 -178t-226.5 -68z" />
    <glyph glyph-name="D" unicode="D" horiz-adv-x="691" 
d="M80 0v700h223q166 0 261 -103t95 -247t-95 -247t-261 -103h-223zM171 82h125q129 0 199 79t70 189q0 111 -70 189.5t-199 78.5h-125v-536z" />
    <glyph glyph-name="E" unicode="E" horiz-adv-x="545" 
d="M80 0v700h398v-82h-307v-229h307v-82h-307v-225h307v-82h-398z" />
    <glyph glyph-name="F" unicode="F" horiz-adv-x="532" 
d="M80 0v700h398v-82h-307v-253h307v-82h-307v-283h-91z" />
    <glyph glyph-name="G" unicode="G" horiz-adv-x="829" 
d="M807 340v-82h-77q-23 -127 -109 -200.5t-224 -73.5q-164 0 -262 103t-97 259q0 157 96.5 263.5t267.5 106.5q121 0 204 -61t97 -155h-100q-15 60 -68.5 97t-132.5 37q-130 0 -199.5 -81t-69.5 -207q0 -120 71.5 -200t192.5 -80q98 0 158.5 49.5t79.5 142.5h-170v82h342z
" />
    <glyph glyph-name="H" unicode="H" horiz-adv-x="668" 
d="M80 0v700h91v-311h326v311h91v-700h-91v307h-326v-307h-91z" />
    <glyph glyph-name="I" unicode="I" horiz-adv-x="251" 
d="M80 0v700h91v-700h-91z" />
    <glyph glyph-name="J" unicode="J" horiz-adv-x="536" 
d="M249 -16q-104 0 -165 64.5t-61 173.5h91q0 -72 36.5 -114t98.5 -42q63 0 98.5 42.5t35.5 115.5v476h91v-476q0 -110 -60 -175t-165 -65z" />
    <glyph glyph-name="K" unicode="K" horiz-adv-x="595" 
d="M582 700l-325 -346l325 -354h-118l-293 326v-326h-91v700h91v-328l294 328h117z" />
    <glyph glyph-name="L" unicode="L" horiz-adv-x="511" 
d="M80 0v700h91v-614h298v-86h-389z" />
    <glyph glyph-name="M" unicode="M" horiz-adv-x="816" 
d="M80 0v700h88l240 -571l240 571h88v-700h-88v511l-205 -511h-70l-205 514v-514h-88z" />
    <glyph glyph-name="N" unicode="N" horiz-adv-x="659" 
d="M80 0v700h97l315 -548v548h87v-700h-96l-315 548v-548h-88z" />
    <glyph glyph-name="O" unicode="O" horiz-adv-x="797" 
d="M399 -16q-164 0 -262.5 106t-98.5 260t98.5 260t262.5 106t262.5 -106t98.5 -260t-98.5 -260t-262.5 -106zM399 66q122 0 194 82t71 202q1 120 -71 202t-194 82t-194 -82t-72 -202t72 -202t194 -82z" />
    <glyph glyph-name="P" unicode="P" horiz-adv-x="580" 
d="M331 700q103 0 169 -68t66 -174q0 -105 -66 -173t-169 -68h-160v-217h-91v700h251zM326 299q65 0 107 45t42 114q0 70 -42 115t-107 45h-155v-319h155z" />
    <glyph glyph-name="Q" unicode="Q" horiz-adv-x="797" 
d="M760 350q0 -127 -68.5 -224t-188.5 -129l78 -102l-80 -41l-100 130h-2q-164 0 -262.5 106t-98.5 260t98.5 260t262.5 106t262.5 -106t98.5 -260zM399 66q122 0 194 82t71 202q1 120 -71 202t-194 82t-194 -82t-72 -202t72 -202t194 -82z" />
    <glyph glyph-name="R" unicode="R" horiz-adv-x="606" 
d="M566 458q0 -82 -41 -143t-111 -85l142 -230h-104l-135 217h-146v-217h-91v700h251q103 0 169 -68t66 -174zM171 618v-319h155q65 0 107 45t42 114q0 70 -42 115t-107 45h-155z" />
    <glyph glyph-name="S" unicode="S" horiz-adv-x="557" 
d="M288 -16q-119 0 -186 63t-67 176h91q0 -73 43.5 -116t117.5 -43q66 0 102 30.5t36 85.5q0 46 -25.5 74t-86.5 49l-116 41q-141 45 -141 184q0 84 61 136t159 52q103 0 165 -58t62 -156h-91q0 65 -36 100.5t-103 35.5q-58 0 -91.5 -28.5t-33.5 -76.5q0 -44 29 -73t94 -51
l108 -38q138 -49 138 -189q0 -89 -62.5 -143.5t-166.5 -54.5z" />
    <glyph glyph-name="T" unicode="T" horiz-adv-x="521" 
d="M215 0v614h-209v86h509v-86h-209v-614h-91z" />
    <glyph glyph-name="U" unicode="U" horiz-adv-x="635" 
d="M318 -16q-118 0 -186.5 64t-68.5 182v470h91v-465q0 -82 44 -125.5t120 -43.5t119.5 43.5t43.5 125.5v465h92v-470q0 -118 -68.5 -182t-186.5 -64z" />
    <glyph glyph-name="V" unicode="V" horiz-adv-x="565" 
d="M239 0l-238 700h99l183 -558l182 558h99l-237 -700h-88z" />
    <glyph glyph-name="W" unicode="W" horiz-adv-x="958" 
d="M242 0l-239 700h96l179 -550l167 550h69l166 -550l180 550h96l-240 -700h-67l-170 542l-169 -542h-68z" />
    <glyph glyph-name="X" unicode="X" horiz-adv-x="604" 
d="M20 0l230 350l-230 350h103l179 -275l179 275h103l-230 -350l230 -350h-103l-179 274l-179 -274h-103z" />
    <glyph glyph-name="Y" unicode="Y" horiz-adv-x="552" 
d="M467 700h100l-352 -700h-101l141 278l-265 422h106l205 -328z" />
    <glyph glyph-name="Z" unicode="Z" horiz-adv-x="573" 
d="M23 0l366 618h-329v82h481l-363 -618h359v-82h-514z" />
    <glyph glyph-name="bracketleft" unicode="[" horiz-adv-x="288" 
d="M80 -193v926h197v-70h-118v-787h118v-69h-197z" />
    <glyph glyph-name="backslash" unicode="\" horiz-adv-x="439" 
d="M356 -65l-343 795l70 31l343 -795z" />
    <glyph glyph-name="bracketright" unicode="]" horiz-adv-x="288" 
d="M208 -193h-197v69h118v787h-118v70h197v-926z" />
    <glyph glyph-name="asciicircum" unicode="^" horiz-adv-x="553" 
d="M50 303l194 400h62l197 -400h-98l-129 290l-131 -290h-95z" />
    <glyph glyph-name="underscore" unicode="_" horiz-adv-x="515" 
d="M0 -213v62h515v-62h-515z" />
    <glyph glyph-name="grave" unicode="`" horiz-adv-x="600" 
d="M285 506l-274 117l29 65l274 -114z" />
    <glyph glyph-name="a" unicode="a" horiz-adv-x="591" 
d="M266 -12q-107 0 -167.5 68t-60.5 174q0 105 62.5 174t167.5 69q54 0 97 -25t65 -68v81h86v-461h-86v81q-22 -42 -67 -67.5t-97 -25.5zM278 66q73 0 114.5 47.5t41.5 116.5q0 70 -41.5 117.5t-114.5 47.5q-70 0 -112 -46.5t-42 -118.5t42 -118t112 -46z" />
    <glyph glyph-name="b" unicode="b" horiz-adv-x="591" 
d="M331 473q99 0 161 -67.5t62 -175.5q0 -106 -64 -174t-164 -68q-53 0 -97.5 25t-66.5 68v-81h-87v700h87v-320q22 43 67.5 68t101.5 25zM314 66q67 0 110 46t43 118t-43 118.5t-110 46.5q-69 0 -112.5 -46t-43.5 -119q0 -72 43.5 -118t112.5 -46z" />
    <glyph glyph-name="c" unicode="c" horiz-adv-x="520" 
d="M267 -12q-105 0 -167 66.5t-62 175.5t62 175.5t167 66.5q93 0 150 -46.5t65 -124.5h-87q-18 93 -128 93q-67 0 -105 -43.5t-38 -120.5t38 -120.5t105 -43.5q109 0 128 90h87q-8 -77 -65 -122.5t-150 -45.5z" />
    <glyph glyph-name="d" unicode="d" horiz-adv-x="591" 
d="M429 700h87v-700h-86v81q-22 -42 -67 -67.5t-97 -25.5q-107 0 -167.5 68t-60.5 174q0 105 62.5 174t167.5 69q54 0 97 -25t65 -68v48h-1v272zM278 66q73 0 114.5 47.5t41.5 116.5q0 70 -41.5 117.5t-114.5 47.5q-70 0 -112 -46.5t-42 -118.5t42 -118t112 -46z" />
    <glyph glyph-name="e" unicode="e" horiz-adv-x="521" 
d="M484 257q0 -19 -3 -52h-357q1 -66 40 -103.5t105 -37.5q92 0 122 68h87q-12 -64 -70 -104t-139 -40q-106 0 -168.5 65.5t-62.5 177.5q0 110 62 176t165 66q98 0 158.5 -60t60.5 -156zM124 272h274q0 61 -35.5 96t-98.5 35q-62 0 -99.5 -36t-40.5 -95z" />
    <glyph glyph-name="f" unicode="f" horiz-adv-x="351" 
d="M289 628q-16 0 -28.5 -2.5t-26 -10.5t-21 -26t-7.5 -46v-82h130v-73h-130v-388h-87v388h-98v73h98v80q0 41 10.5 72t26.5 48.5t37 28t38 13.5t35 3q45 0 70 -10v-75q-26 7 -47 7z" />
    <glyph glyph-name="g" unicode="g" horiz-adv-x="591" 
d="M430 461h86v-449q0 -132 -80 -194q-58 -43 -159 -43t-163 45q-66 46 -69 122h91q6 -42 41.5 -68t99.5 -26q153 0 153 158v75q-21 -43 -67 -68t-97 -25q-104 0 -166 69t-62 173t64.5 173.5t165.5 69.5q53 0 96.5 -25t65.5 -68v81zM278 66q71 0 113.5 47t42.5 117
t-42.5 117.5t-113.5 47.5q-68 0 -111 -46.5t-43 -118.5q0 -71 43 -117.5t111 -46.5z" />
    <glyph glyph-name="h" unicode="h" horiz-adv-x="566" 
d="M324 473q172 0 172 -189v-284h-87v246q0 78 -27.5 115t-88.5 37q-63 0 -96.5 -41t-33.5 -113v-244h-87v700h87v-324q19 45 60.5 71t100.5 26z" />
    <glyph glyph-name="i" unicode="i" horiz-adv-x="237" 
d="M119 540q-31 0 -51 20t-20 50t20 50.5t51 20.5q30 0 50 -20.5t20 -50.5t-20 -50t-50 -20zM75 0v461h87v-461h-87z" />
    <glyph glyph-name="j" unicode="j" horiz-adv-x="240" 
d="M122 540q-31 0 -51 20t-20 50t20 50.5t51 20.5q30 0 50 -20.5t20 -50.5t-20 -50t-50 -20zM44 -219q-43 0 -64 11v79q19 -7 47 -7q51 0 51 62v535h87v-559q0 -58 -31.5 -89.5t-89.5 -31.5z" />
    <glyph glyph-name="k" unicode="k" horiz-adv-x="505" 
d="M478 461l-224 -223l224 -238h-115l-201 217v-217h-87v700h87v-449l204 210h112z" />
    <glyph glyph-name="l" unicode="l" horiz-adv-x="237" 
d="M75 0v700h87v-700h-87z" />
    <glyph glyph-name="m" unicode="m" horiz-adv-x="832" 
d="M75 0v461h87v-84q14 41 50 68.5t88 27.5q119 0 148 -99q16 43 56 71t92 28q166 0 166 -181v-292h-87v275q0 123 -100 123q-113 0 -113 -158v-240h-87v269q0 129 -99 129q-54 0 -84 -39.5t-30 -118.5v-240h-87z" />
    <glyph glyph-name="n" unicode="n" horiz-adv-x="565" 
d="M75 0v461h87v-85q19 45 60.5 71t100.5 26q172 0 172 -189v-284h-87v246q0 78 -27.5 115t-88.5 37q-63 0 -96.5 -41t-33.5 -113v-244h-87z" />
    <glyph glyph-name="o" unicode="o" horiz-adv-x="556" 
d="M278 -12q-110 0 -175 69.5t-65 173.5t65 173t175 69q109 0 174.5 -69.5t65.5 -172.5q0 -104 -65.5 -173.5t-174.5 -69.5zM278 66q71 0 112 46.5t41 118.5q0 71 -41 117.5t-112 46.5t-112.5 -46.5t-41.5 -118.5q0 -71 41.5 -117.5t112.5 -46.5z" />
    <glyph glyph-name="p" unicode="p" horiz-adv-x="591" 
d="M331 473q99 0 161 -67.5t62 -175.5q0 -106 -64 -174t-164 -68q-53 0 -97.5 25t-66.5 68v-294h-87v674h87v-81q22 43 67.5 68t101.5 25zM314 66q67 0 110 46t43 118t-43 118.5t-110 46.5q-69 0 -112.5 -46t-43.5 -119q0 -72 43.5 -118t112.5 -46z" />
    <glyph glyph-name="q" unicode="q" horiz-adv-x="591" 
d="M430 461h86v-674h-87v246h1v48q-22 -42 -67 -67.5t-97 -25.5q-107 0 -167.5 68t-60.5 174q0 105 62.5 174t167.5 69q54 0 97 -25t65 -68v81zM278 66q73 0 114.5 47.5t41.5 116.5q0 70 -41.5 117.5t-114.5 47.5q-70 0 -112 -46.5t-42 -118.5t42 -118t112 -46z" />
    <glyph glyph-name="r" unicode="r" horiz-adv-x="361" 
d="M75 0v461h87v-105q13 55 51 83.5t84 28.5q27 0 42 -4v-80q-15 3 -43 3q-65 0 -99.5 -52t-34.5 -133v-202h-87z" />
    <glyph glyph-name="s" unicode="s" horiz-adv-x="450" 
d="M230 -12q-87 0 -139.5 43.5t-52.5 106.5h86q0 -35 30 -57.5t80 -22.5q39 0 62 18t23 49q0 49 -45 60l-123 32q-99 27 -99 124q0 57 48 94.5t125 37.5q84 0 130.5 -38.5t46.5 -100.5h-86q0 33 -25 52.5t-70 19.5q-36 0 -59.5 -16.5t-23.5 -44.5q0 -47 51 -59l115 -32
q49 -13 76 -46t27 -75q0 -66 -47 -105.5t-130 -39.5z" />
    <glyph glyph-name="t" unicode="t" horiz-adv-x="356" 
d="M268 73q36 0 58 5v-77q-30 -7 -77 -7q-21 0 -36.5 2t-36.5 11t-35 25.5t-24 47t-10 73.5v235h-83v73h83v146h87v-146h116v-73h-116v-216q0 -61 18 -80t56 -19z" />
    <glyph glyph-name="u" unicode="u" horiz-adv-x="562" 
d="M245 -12q-80 0 -127.5 48.5t-47.5 140.5v284h87v-263q0 -135 112 -135q66 0 98.5 42.5t32.5 103.5v252h87v-461h-87v84q-19 -44 -59.5 -70t-95.5 -26z" />
    <glyph glyph-name="v" unicode="v" horiz-adv-x="483" 
d="M206 0l-203 461h93l145 -345l146 345h93l-203 -461h-71z" />
    <glyph glyph-name="w" unicode="w" horiz-adv-x="745" 
d="M178 0l-170 461h95l111 -336l112 336h93l112 -336l111 336h96l-171 -461h-74l-121 354l-120 -354h-74z" />
    <glyph glyph-name="x" unicode="x" horiz-adv-x="478" 
d="M15 0l173 232l-171 229h107l115 -165l114 165h107l-171 -229l174 -232h-108l-116 169l-117 -169h-107z" />
    <glyph glyph-name="y" unicode="y" horiz-adv-x="567" 
d="M405 461h87v-470q0 -109 -63 -166q-56 -50 -151 -50q-100 0 -156 48q-51 43 -52 119h88q5 -94 119 -94q128 0 128 149v86q-46 -95 -160 -95q-87 0 -131 53.5t-44 144.5v275h87v-257q0 -67 26.5 -102.5t90.5 -35.5q63 0 97 45.5t34 112.5v237z" />
    <glyph glyph-name="z" unicode="z" horiz-adv-x="440" 
d="M13 0l270 387h-251v74h397l-271 -388h258v-73h-403z" />
    <glyph glyph-name="braceleft" unicode="{" horiz-adv-x="314" 
d="M249 -193q-53 0 -93.5 36.5t-40.5 102.5v197q0 44 -30.5 67.5t-61.5 23.5v72q31 0 61.5 24t30.5 68v196q0 66 40.5 102.5t93.5 36.5h59v-69h-47q-67 0 -67 -86v-192q0 -55 -29.5 -81.5t-64.5 -34.5q15 -3 29 -9t29.5 -18.5t25.5 -35.5t10 -53v-192q0 -86 67 -86h47v-69
h-59z" />
    <glyph glyph-name="bar" unicode="|" horiz-adv-x="228" 
d="M80 -192v925h68v-925h-68z" />
    <glyph glyph-name="braceright" unicode="}" horiz-adv-x="314" 
d="M65 -193h-59v69h47q67 0 67 86v192q0 56 29.5 82.5t64.5 33.5q-15 3 -29 9.5t-30 19t-25.5 35t-9.5 52.5v192q0 86 -67 86h-47v69h59q53 0 93.5 -36.5t40.5 -102.5v-196q0 -44 30.5 -68t61.5 -24v-72q-31 0 -61.5 -23.5t-30.5 -67.5v-197q0 -66 -40.5 -102.5t-93.5 -36.5
z" />
    <glyph glyph-name="asciitilde" unicode="~" horiz-adv-x="543" 
d="M382 199q-40 0 -110 35q-66 33 -119 33q-52 0 -103 -53v77q43 54 107 54q41 0 118 -32q7 -3 23 -9.5t24.5 -10t21 -8t22 -6.5t17.5 -2q53 0 110 55v-76q-46 -57 -111 -57z" />
    <glyph glyph-name="uni00A0" unicode="&#xa0;" horiz-adv-x="265" 
 />
    <glyph glyph-name="exclamdown" unicode="&#xa1;" horiz-adv-x="268" 
d="M133 495q31 0 52.5 -21.5t21.5 -51.5t-21.5 -51.5t-52.5 -21.5q-30 0 -51 21.5t-21 51.5t21 51.5t51 21.5zM90 277h87v-489h-87v489z" />
    <glyph glyph-name="cent" unicode="&#xa2;" horiz-adv-x="520" 
d="M267 175q109 0 128 90h87q-8 -69 -55 -113.5t-125 -52.5v-99h-67v99q-92 10 -144.5 75t-52.5 165t52.5 165t144.5 75v101h67v-101q78 -8 125 -53t55 -116h-87q-18 93 -128 93q-67 0 -105 -43.5t-38 -120.5t38 -120.5t105 -43.5z" />
    <glyph glyph-name="sterling" unicode="&#xa3;" horiz-adv-x="513" 
d="M190 258q0 -60 -14.5 -107.5t-35.5 -68.5h335v-82h-436v61q60 56 60 179v91h-63v67h63v78q0 109 55.5 162.5t147.5 53.5q94 0 147.5 -51.5t53.5 -142.5h-91q0 57 -28 88t-82 31q-56 0 -84 -34t-28 -109v-76h170v-67h-170v-73z" />
    <glyph glyph-name="currency" unicode="&#xa4;" horiz-adv-x="588" 
d="M85 108l-55 55l68 68q-43 62 -43 139t43 139l-67 68l54 55l68 -68q59 45 141 45q80 0 142 -44l66 67l56 -55l-68 -67q44 -61 44 -140q0 -81 -44 -140l67 -67l-55 -55l-66 67q-61 -43 -142 -43q-80 0 -141 43zM294 210q68 0 110.5 46.5t42.5 113.5t-42.5 114t-110.5 47
q-67 0 -109.5 -47t-42.5 -114t42.5 -113.5t109.5 -46.5z" />
    <glyph glyph-name="yen" unicode="&#xa5;" horiz-adv-x="549" 
d="M539 680l-216 -404h143v-61h-145v-68h145v-61h-145v-86h-93v86h-145v61h145v68h-145v61h143l-216 404h102l163 -330l162 330h102z" />
    <glyph glyph-name="brokenbar" unicode="&#xa6;" horiz-adv-x="228" 
d="M80 323v410h68v-410h-68zM80 -192v426h68v-426h-68z" />
    <glyph glyph-name="section" unicode="&#xa7;" horiz-adv-x="553" 
d="M497 234q0 -90 -96 -135q83 -55 83 -153q0 -80 -58.5 -125t-155.5 -45q-107 0 -163 51.5t-56 135.5h94q0 -51 31.5 -80.5t94.5 -29.5q55 0 86 24t31 68q0 47 -34.5 78t-83.5 49.5t-97.5 39t-83 59t-34.5 95.5q0 89 93 133q-79 53 -79 147q0 76 58.5 123.5t153.5 47.5
q108 0 164.5 -51.5t56.5 -136.5h-96q0 52 -31 82t-93 30q-56 0 -87 -24.5t-31 -68.5q0 -46 34.5 -76.5t83 -48.5t97.5 -37.5t83.5 -57.5t34.5 -94zM326 137q81 30 81 92q0 22 -9 39t-31.5 31t-38 21.5t-53 21t-51.5 19.5q-78 -28 -78 -90q0 -19 8 -34.5t18 -26t31.5 -22
t35.5 -17.5t44 -17.5t43 -16.5z" />
    <glyph glyph-name="dieresis" unicode="&#xa8;" horiz-adv-x="600" 
d="M128 539q-28 0 -47.5 19.5t-19.5 47.5t19.5 47.5t47.5 19.5t47.5 -19.5t19.5 -47.5t-19.5 -47.5t-47.5 -19.5zM328 539q-28 0 -47.5 19.5t-19.5 47.5t19.5 47.5t47.5 19.5t47.5 -19.5t19.5 -47.5t-19.5 -47.5t-47.5 -19.5z" />
    <glyph glyph-name="copyright" unicode="&#xa9;" horiz-adv-x="797" 
d="M398 -17q-164 0 -262 105t-98 262t98 262t262 105t262.5 -105t98.5 -262t-98.5 -262t-262.5 -105zM398 44q131 0 210.5 88t79.5 218t-79.5 218t-210.5 88t-210 -88t-79 -218t79 -218t210 -88zM403 143q-94 0 -149.5 60.5t-55.5 146.5q0 87 55.5 147.5t149.5 60.5
q76 0 123.5 -39t56.5 -101h-61q-9 39 -40 63t-80 24q-66 0 -105.5 -45.5t-39.5 -109.5t39.5 -109t105.5 -45q49 0 80 24t40 62h61q-9 -62 -56.5 -100.5t-123.5 -38.5z" />
    <glyph glyph-name="ordfeminine" unicode="&#xaa;" horiz-adv-x="369" 
d="M159 394q-62 0 -99 39.5t-37 100.5t38 101.5t99 40.5q72 0 100 -55v47h71v-268h-71v47q-12 -24 -39 -38.5t-62 -14.5zM178 452q38 0 61.5 24t23.5 58q0 35 -23.5 58.5t-61.5 23.5q-37 0 -60 -23.5t-23 -58.5t23 -58.5t60 -23.5z" />
    <glyph glyph-name="guillemotleft" unicode="&#xab;" horiz-adv-x="498" 
d="M213 69l-207 192l207 192l49 -50l-152 -142l152 -141zM435 69l-207 192l207 192l49 -50l-152 -142l152 -141z" />
    <glyph glyph-name="logicalnot" unicode="&#xac;" horiz-adv-x="504" 
d="M365 199v149h-312v78h399v-227h-87z" />
    <glyph glyph-name="uni00AD" unicode="&#xad;" horiz-adv-x="410" 
d="M53 223v78h305v-78h-305z" />
    <glyph glyph-name="registered" unicode="&#xae;" horiz-adv-x="602" 
d="M302 181q-120 0 -191.5 76.5t-71.5 191.5t71.5 191.5t191.5 76.5q119 0 191 -76.5t72 -191.5t-72 -191.5t-191 -76.5zM302 225q96 0 153.5 64.5t57.5 159.5q0 94 -57.5 158.5t-153.5 64.5t-153.5 -64.5t-57.5 -158.5q0 -95 57.5 -159.5t153.5 -64.5zM208 311v283h109
q42 0 69 -28.5t27 -68.5q0 -31 -16.5 -55.5t-46.5 -34.5l61 -96h-49l-56 91h-55v-91h-43zM252 440h62q25 0 40 16.5t15 40.5q0 25 -15 41.5t-40 16.5h-62v-115z" />
    <glyph glyph-name="macron" unicode="&#xaf;" horiz-adv-x="600" 
d="M68 555v70h318v-70h-318z" />
    <glyph glyph-name="degree" unicode="&#xb0;" horiz-adv-x="358" 
d="M179 384q-65 0 -109.5 44.5t-44.5 109.5t44.5 109.5t109.5 44.5t109.5 -44.5t44.5 -109.5t-44.5 -109.5t-109.5 -44.5zM179 451q39 0 62 25t23 62t-23 62t-62 25t-62 -25t-23 -62t23 -62t62 -25z" />
    <glyph glyph-name="plusminus" unicode="&#xb1;" horiz-adv-x="504" 
d="M208 279v110h-155v78h155v111h87v-111h157v-78h-157v-110h-87zM53 142v77h399v-77h-399z" />
    <glyph glyph-name="uni00B2" unicode="&#xb2;" horiz-adv-x="380" 
d="M34 400q0 70 24 111.5t81 70.5l67 32q52 24 52 72q0 26 -17 41.5t-45 15.5q-36 0 -55.5 -20.5t-19.5 -58.5h-77q0 63 41.5 100.5t109.5 37.5q65 0 103 -30t38 -82q0 -79 -81 -119l-63 -32q-33 -16 -47 -33t-18 -44h207v-62h-300z" />
    <glyph glyph-name="uni00B3" unicode="&#xb3;" horiz-adv-x="387" 
d="M191 392q-73 0 -113 35t-40 97h76q0 -34 21 -53t58 -19q34 0 53.5 16.5t19.5 44.5q0 63 -77 63h-38v58h39q71 0 71 57q0 25 -19 40t-49 15q-33 0 -52.5 -17t-19.5 -47h-75q0 55 40 87.5t109 32.5q64 0 103 -29t39 -78q0 -72 -80 -90q39 -5 62.5 -31t23.5 -64
q0 -53 -41.5 -85.5t-110.5 -32.5z" />
    <glyph glyph-name="acute" unicode="&#xb4;" horiz-adv-x="600" 
d="M86 506l-29 68l274 114l29 -65z" />
    <glyph glyph-name="uni00B5" unicode="&#xb5;" horiz-adv-x="567" 
d="M405 461h87v-461h-87v84q-19 -44 -59.5 -70t-95.5 -26q-51 0 -88 19v-220h-87v674h87v-263q0 -135 112 -135q66 0 98.5 42.5t32.5 103.5v252z" />
    <glyph glyph-name="paragraph" unicode="&#xb6;" horiz-adv-x="668" 
d="M266 -148v477q-97 0 -156.5 48.5t-59.5 142.5q0 50 18 87.5t44 58t62.5 32.5t65 15.5t59.5 3.5h319v-72h-53v-793h-83v792h-134v-792h-82z" />
    <glyph glyph-name="periodcentered" unicode="&#xb7;" horiz-adv-x="286" 
d="M143 240q-31 0 -52 21.5t-21 51.5t21 51.5t52 21.5q30 0 51.5 -21.5t21.5 -51.5t-21.5 -51.5t-51.5 -21.5z" />
    <glyph glyph-name="cedilla" unicode="&#xb8;" horiz-adv-x="600" 
d="M140 -216q-37 0 -60 19t-26 53h46q1 -14 12 -23t27 -9q43 0 43 47q0 46 -41 46q-26 0 -38 -20h-41v103h47v-63q13 15 46 15q32 0 54 -21.5t22 -58.5q0 -38 -24 -63t-67 -25z" />
    <glyph glyph-name="uni00B9" unicode="&#xb9;" horiz-adv-x="276" 
d="M123 400v267h-92v57q59 0 80 16t21 54h63v-394h-72z" />
    <glyph glyph-name="ordmasculine" unicode="&#xba;" horiz-adv-x="356" 
d="M178 393q-70 0 -112 40t-42 102q0 61 42 101t112 40t112.5 -40t42.5 -101q0 -62 -42.5 -102t-112.5 -40zM178 453q38 0 60.5 23.5t22.5 58.5t-22.5 58t-60.5 23t-61.5 -23t-23.5 -58t23.5 -58.5t61.5 -23.5z" />
    <glyph glyph-name="guillemotright" unicode="&#xbb;" horiz-adv-x="498" 
d="M63 69l-49 51l152 141l-152 142l49 50l207 -192zM285 69l-49 51l152 141l-152 142l49 50l207 -192z" />
    <glyph glyph-name="onequarter" unicode="&#xbc;" horiz-adv-x="815" 
d="M558 700l58 -38l-472 -682l-59 38zM123 286v267h-92v57q59 0 80 16t21 54h63v-394h-72zM780 184v-64h-57v-120h-74v120h-171v274h74v-210h97v109h74v-109h57z" />
    <glyph glyph-name="onehalf" unicode="&#xbd;" horiz-adv-x="795" 
d="M144 -20l-59 38l473 682l58 -38zM123 286v267h-92v57q59 0 80 16t21 54h63v-394h-72zM449 0q0 70 24 111.5t81 70.5l67 32q52 24 52 72q0 26 -17 41.5t-45 15.5q-36 0 -55.5 -20.5t-19.5 -58.5h-77q0 63 41.5 100.5t109.5 37.5q65 0 103 -30t38 -82q0 -79 -81 -119
l-63 -32q-33 -16 -47 -33t-18 -44h207v-62h-300z" />
    <glyph glyph-name="threequarters" unicode="&#xbe;" horiz-adv-x="908" 
d="M651 700l58 -38l-472 -682l-59 38zM343 396q0 -53 -41.5 -85.5t-110.5 -32.5q-73 0 -113 35t-40 97h76q0 -34 21 -53t58 -19q34 0 53.5 16.5t19.5 44.5q0 63 -77 63h-38v58h39q71 0 71 57q0 25 -19 40t-49 15q-33 0 -52.5 -17t-19.5 -47h-75q0 55 40 87.5t109 32.5
q64 0 103 -29t39 -78q0 -72 -80 -90q39 -5 62.5 -31t23.5 -64zM873 184v-64h-57v-120h-74v120h-171v274h74v-210h97v109h74v-109h57z" />
    <glyph glyph-name="questiondown" unicode="&#xbf;" horiz-adv-x="472" 
d="M260 516q31 0 52 -21.5t21 -51.5t-21 -51.5t-52 -21.5t-52 21.5t-21 51.5t21 51.5t52 21.5zM303 298v-15q0 -50 -13 -80t-52 -59l-51 -35q-67 -48 -67 -125q0 -50 31.5 -81t85.5 -31q62 0 98.5 37t36.5 106h91q0 -105 -61.5 -164t-168.5 -59q-98 0 -153 52t-55 137
q0 60 26.5 101t74.5 79l43 31q28 21 37.5 39.5t9.5 50.5v16h87z" />
    <glyph glyph-name="Agrave" unicode="&#xc0;" horiz-adv-x="590" 
d="M416 791l-32 -60l-217 104l31 59zM474 0l-33 107h-291l-33 -107h-99l237 700h81l237 -700h-99zM176 190h239l-120 384z" />
    <glyph glyph-name="Aacute" unicode="&#xc1;" horiz-adv-x="590" 
d="M424 835l-217 -104l-32 60l218 103zM474 0l-33 107h-291l-33 -107h-99l237 700h81l237 -700h-99zM176 190h239l-120 384z" />
    <glyph glyph-name="Acircumflex" unicode="&#xc2;" horiz-adv-x="590" 
d="M293 816l-90 -81l-46 41l136 116l135 -116l-46 -41zM474 0l-33 107h-291l-33 -107h-99l237 700h81l237 -700h-99zM176 190h239l-120 384z" />
    <glyph glyph-name="Atilde" unicode="&#xc3;" horiz-adv-x="590" 
d="M215 801q-41 0 -74 -46l-37 35q46 77 105 77q34 0 85.5 -31t75.5 -31q46 0 80 48l37 -39q-41 -73 -111 -75q-38 -3 -89 29.5t-72 32.5zM474 0l-33 107h-291l-33 -107h-99l237 700h81l237 -700h-99zM176 190h239l-120 384z" />
    <glyph glyph-name="Adieresis" unicode="&#xc4;" horiz-adv-x="590" 
d="M177 747q-28 0 -47 19.5t-19 47.5t19 47.5t47 19.5q29 0 48.5 -19.5t19.5 -47.5t-20 -47.5t-48 -19.5zM414 747q-28 0 -47.5 19.5t-19.5 47.5t19.5 47.5t47.5 19.5t47.5 -19.5t19.5 -47.5t-19.5 -47.5t-47.5 -19.5zM474 0l-33 107h-291l-33 -107h-99l237 700h81l237 -700
h-99zM176 190h239l-120 384z" />
    <glyph glyph-name="Aring" unicode="&#xc5;" horiz-adv-x="590" 
d="M474 0l-33 107h-291l-33 -107h-99l226 666q-33 15 -52.5 44.5t-19.5 65.5q0 52 36 87.5t88 35.5q53 0 90.5 -36.5t37.5 -86.5q0 -36 -21 -66.5t-55 -44.5l225 -665h-99zM296 846q-28 0 -48 -20.5t-20 -49.5q0 -28 20 -47.5t48 -19.5q30 0 50 19.5t20 48.5t-20 49t-50 20z
M176 190h239l-120 384z" />
    <glyph glyph-name="AE" unicode="&#xc6;" horiz-adv-x="841" 
d="M773 618h-276v-229h276v-82h-276v-225h276v-82h-367v111h-241l-53 -111h-99l348 700h412v-82zM203 190h203v426z" />
    <glyph glyph-name="Ccedilla" unicode="&#xc7;" horiz-adv-x="771" 
d="M401 66q94 0 154 44t80 120h100q-19 -105 -101 -172t-211 -73v-48q13 15 46 15q32 0 54 -21.5t22 -58.5q0 -38 -24 -63t-67 -25q-37 0 -60 19t-26 53h46q1 -14 12 -23t27 -9q43 0 43 47q0 46 -41 46q-26 0 -38 -20h-41v88q-156 7 -247 109t-91 256q0 160 97.5 263
t264.5 103q138 0 226.5 -68t108.5 -178h-100q-20 76 -80 120t-154 44q-124 0 -196 -79t-72 -205t72 -205t196 -79z" />
    <glyph glyph-name="Egrave" unicode="&#xc8;" horiz-adv-x="545" 
d="M373 731l-217 104l31 59l218 -103zM80 0v700h398v-82h-307v-229h307v-82h-307v-225h307v-82h-398z" />
    <glyph glyph-name="Eacute" unicode="&#xc9;" horiz-adv-x="545" 
d="M196 731l-32 60l218 103l31 -59zM80 0v700h398v-82h-307v-229h307v-82h-307v-225h307v-82h-398z" />
    <glyph glyph-name="Ecircumflex" unicode="&#xca;" horiz-adv-x="545" 
d="M282 892l135 -116l-46 -41l-89 81l-90 -81l-46 41zM80 0v700h398v-82h-307v-229h307v-82h-307v-225h307v-82h-398z" />
    <glyph glyph-name="Edieresis" unicode="&#xcb;" horiz-adv-x="545" 
d="M166 747q-28 0 -47 19.5t-19 47.5t19 47.5t47 19.5q29 0 48.5 -19.5t19.5 -47.5t-20 -47.5t-48 -19.5zM403 747q-28 0 -47.5 19.5t-19.5 47.5t19.5 47.5t47.5 19.5t47.5 -19.5t19.5 -47.5t-19.5 -47.5t-47.5 -19.5zM80 0v700h398v-82h-307v-229h307v-82h-307v-225h307
v-82h-398z" />
    <glyph glyph-name="Igrave" unicode="&#xcc;" horiz-adv-x="251" 
d="M181 738l-150 89l40 59l149 -89zM80 0v700h91v-700h-91z" />
    <glyph glyph-name="Iacute" unicode="&#xcd;" horiz-adv-x="251" 
d="M64 737l-39 57l161 100l40 -57zM80 0v700h91v-700h-91z" />
    <glyph glyph-name="Icircumflex" unicode="&#xce;" horiz-adv-x="251" 
d="M195 743l-70 61l-70 -61l-40 45l110 92l111 -92zM80 0v700h91v-700h-91z" />
    <glyph glyph-name="Idieresis" unicode="&#xcf;" horiz-adv-x="251" 
d="M55 751q-27 0 -44.5 17.5t-17.5 44.5t17.5 44.5t44.5 17.5t44.5 -17.5t17.5 -44.5t-17.5 -44.5t-44.5 -17.5zM197 751q-26 0 -44 17.5t-18 44.5t18 44.5t44 17.5q27 0 45 -17.5t18 -44.5t-18 -44.5t-45 -17.5zM80 0v700h91v-700h-91z" />
    <glyph glyph-name="Eth" unicode="&#xd0;" horiz-adv-x="691" 
d="M303 700q166 0 261 -103t95 -247t-95 -247t-261 -103h-223v313h-79v78h79v309h223zM296 82q129 0 199 79t70 189q0 111 -70 189.5t-199 78.5h-125v-227h133v-78h-133v-231h125z" />
    <glyph glyph-name="Ntilde" unicode="&#xd1;" horiz-adv-x="659" 
d="M410 739q-38 -3 -89 29.5t-72 32.5q-41 0 -74 -46l-37 35q46 77 105 77q34 0 85.5 -31t75.5 -31q46 0 80 48l37 -39q-41 -73 -111 -75zM80 0v700h97l315 -548v548h87v-700h-96l-315 548v-548h-88z" />
    <glyph glyph-name="Ograve" unicode="&#xd2;" horiz-adv-x="797" 
d="M487 731l-217 104l31 59l218 -103zM399 -16q-164 0 -262.5 106t-98.5 260t98.5 260t262.5 106t262.5 -106t98.5 -260t-98.5 -260t-262.5 -106zM399 66q122 0 194 82t71 202q1 120 -71 202t-194 82t-194 -82t-72 -202t72 -202t194 -82z" />
    <glyph glyph-name="Oacute" unicode="&#xd3;" horiz-adv-x="797" 
d="M310 731l-32 60l218 103l31 -59zM399 -16q-164 0 -262.5 106t-98.5 260t98.5 260t262.5 106t262.5 -106t98.5 -260t-98.5 -260t-262.5 -106zM399 66q122 0 194 82t71 202q1 120 -71 202t-194 82t-194 -82t-72 -202t72 -202t194 -82z" />
    <glyph glyph-name="Ocircumflex" unicode="&#xd4;" horiz-adv-x="797" 
d="M396 892l135 -116l-46 -41l-89 81l-90 -81l-46 41zM399 -16q-164 0 -262.5 106t-98.5 260t98.5 260t262.5 106t262.5 -106t98.5 -260t-98.5 -260t-262.5 -106zM399 66q122 0 194 82t71 202q1 120 -71 202t-194 82t-194 -82t-72 -202t72 -202t194 -82z" />
    <glyph glyph-name="Otilde" unicode="&#xd5;" horiz-adv-x="797" 
d="M479 739q-38 -3 -89 29.5t-72 32.5q-41 0 -74 -46l-37 35q46 77 105 77q34 0 85.5 -31t75.5 -31q46 0 80 48l37 -39q-41 -73 -111 -75zM399 -16q-164 0 -262.5 106t-98.5 260t98.5 260t262.5 106t262.5 -106t98.5 -260t-98.5 -260t-262.5 -106zM399 66q122 0 194 82
t71 202q1 120 -71 202t-194 82t-194 -82t-72 -202t72 -202t194 -82z" />
    <glyph glyph-name="Odieresis" unicode="&#xd6;" horiz-adv-x="797" 
d="M280 747q-28 0 -47 19.5t-19 47.5t19 47.5t47 19.5q29 0 48.5 -19.5t19.5 -47.5t-20 -47.5t-48 -19.5zM517 747q-28 0 -47.5 19.5t-19.5 47.5t19.5 47.5t47.5 19.5t47.5 -19.5t19.5 -47.5t-19.5 -47.5t-47.5 -19.5zM399 -16q-164 0 -262.5 106t-98.5 260t98.5 260
t262.5 106t262.5 -106t98.5 -260t-98.5 -260t-262.5 -106zM399 66q122 0 194 82t71 202q1 120 -71 202t-194 82t-194 -82t-72 -202t72 -202t194 -82z" />
    <glyph glyph-name="multiply" unicode="&#xd7;" horiz-adv-x="486" 
d="M434 451l-136 -136l135 -136l-55 -55l-135 136l-135 -135l-55 54l135 136l-135 135l54 55l136 -135l136 135z" />
    <glyph glyph-name="Oslash" unicode="&#xd8;" horiz-adv-x="797" 
d="M576 675q87 -46 135.5 -133t48.5 -192q0 -154 -98.5 -260t-262.5 -106q-61 0 -112 15l-36 -83l-62 27l35 81q-88 46 -137 133t-49 193q0 154 98.5 260t262.5 106q59 0 115 -16l34 80l61 -27zM133 350q0 -79 32.5 -144.5t92.5 -101.5l223 519q-39 11 -82 11
q-122 0 -194 -82t-72 -202zM399 66q122 0 194 82t71 202q1 78 -31 143t-91 102l-222 -518q38 -11 79 -11z" />
    <glyph glyph-name="Ugrave" unicode="&#xd9;" horiz-adv-x="635" 
d="M406 731l-217 104l31 59l218 -103zM318 -16q-118 0 -186.5 64t-68.5 182v470h91v-465q0 -82 44 -125.5t120 -43.5t119.5 43.5t43.5 125.5v465h92v-470q0 -118 -68.5 -182t-186.5 -64z" />
    <glyph glyph-name="Uacute" unicode="&#xda;" horiz-adv-x="635" 
d="M229 731l-32 60l218 103l31 -59zM318 -16q-118 0 -186.5 64t-68.5 182v470h91v-465q0 -82 44 -125.5t120 -43.5t119.5 43.5t43.5 125.5v465h92v-470q0 -118 -68.5 -182t-186.5 -64z" />
    <glyph glyph-name="Ucircumflex" unicode="&#xdb;" horiz-adv-x="635" 
d="M315 892l135 -116l-46 -41l-89 81l-90 -81l-46 41zM318 -16q-118 0 -186.5 64t-68.5 182v470h91v-465q0 -82 44 -125.5t120 -43.5t119.5 43.5t43.5 125.5v465h92v-470q0 -118 -68.5 -182t-186.5 -64z" />
    <glyph glyph-name="Udieresis" unicode="&#xdc;" horiz-adv-x="635" 
d="M199 747q-28 0 -47 19.5t-19 47.5t19 47.5t47 19.5q29 0 48.5 -19.5t19.5 -47.5t-20 -47.5t-48 -19.5zM436 747q-28 0 -47.5 19.5t-19.5 47.5t19.5 47.5t47.5 19.5t47.5 -19.5t19.5 -47.5t-19.5 -47.5t-47.5 -19.5zM318 -16q-118 0 -186.5 64t-68.5 182v470h91v-465
q0 -82 44 -125.5t120 -43.5t119.5 43.5t43.5 125.5v465h92v-470q0 -118 -68.5 -182t-186.5 -64z" />
    <glyph glyph-name="Yacute" unicode="&#xdd;" horiz-adv-x="552" 
d="M416 835l-217 -104l-32 60l218 103zM467 700h100l-352 -700h-101l141 278l-265 422h106l205 -328z" />
    <glyph glyph-name="Thorn" unicode="&#xde;" horiz-adv-x="581" 
d="M332 589q106 0 170.5 -69.5t64.5 -169.5t-64.5 -169t-170.5 -69h-161v-112h-91v700h91v-111h161zM327 194q66 0 107.5 45.5t41.5 110.5t-41.5 110.5t-107.5 45.5h-156v-312h156z" />
    <glyph glyph-name="germandbls" unicode="&#xdf;" horiz-adv-x="566" 
d="M303 -12q-55 0 -91 12v76q34 -10 83 -10q63 0 101 33t38 94q0 52 -36 92.5t-109 40.5h-58v78h48q69 0 103.5 32t34.5 85q0 52 -34 84.5t-92 32.5q-62 0 -96 -39t-34 -101v-498h-87v498q0 97 58 157.5t159 60.5q100 0 156.5 -51.5t56.5 -135.5q0 -65 -38 -108.5t-98 -52.5
q68 -7 110.5 -61t42.5 -125q0 -93 -62 -143.5t-156 -50.5z" />
    <glyph glyph-name="agrave" unicode="&#xe0;" horiz-adv-x="591" 
d="M396 505l-274 117l29 65l274 -114zM266 -12q-107 0 -167.5 68t-60.5 174q0 105 62.5 174t167.5 69q54 0 97 -25t65 -68v81h86v-461h-86v81q-22 -42 -67 -67.5t-97 -25.5zM278 66q73 0 114.5 47.5t41.5 116.5q0 70 -41.5 117.5t-114.5 47.5q-70 0 -112 -46.5t-42 -118.5
t42 -118t112 -46z" />
    <glyph glyph-name="aacute" unicode="&#xe1;" horiz-adv-x="591" 
d="M149 506l-29 68l274 114l29 -65zM266 -12q-107 0 -167.5 68t-60.5 174q0 105 62.5 174t167.5 69q54 0 97 -25t65 -68v81h86v-461h-86v81q-22 -42 -67 -67.5t-97 -25.5zM278 66q73 0 114.5 47.5t41.5 116.5q0 70 -41.5 117.5t-114.5 47.5q-70 0 -112 -46.5t-42 -118.5
t42 -118t112 -46z" />
    <glyph glyph-name="acircumflex" unicode="&#xe2;" horiz-adv-x="591" 
d="M280 698l175 -146l-47 -52l-128 112l-128 -111l-47 51zM266 -12q-107 0 -167.5 68t-60.5 174q0 105 62.5 174t167.5 69q54 0 97 -25t65 -68v81h86v-461h-86v81q-22 -42 -67 -67.5t-97 -25.5zM278 66q73 0 114.5 47.5t41.5 116.5q0 70 -41.5 117.5t-114.5 47.5
q-70 0 -112 -46.5t-42 -118.5t42 -118t112 -46z" />
    <glyph glyph-name="atilde" unicode="&#xe3;" horiz-adv-x="591" 
d="M355 531q-29 0 -75 28.5t-68 28.5q-37 0 -71 -42l-33 47q41 67 100 67q27 0 73.5 -28.5t68.5 -28.5q36 0 69 41l34 -46q-40 -67 -98 -67zM266 -12q-107 0 -167.5 68t-60.5 174q0 105 62.5 174t167.5 69q54 0 97 -25t65 -68v81h86v-461h-86v81q-22 -42 -67 -67.5
t-97 -25.5zM278 66q73 0 114.5 47.5t41.5 116.5q0 70 -41.5 117.5t-114.5 47.5q-70 0 -112 -46.5t-42 -118.5t42 -118t112 -46z" />
    <glyph glyph-name="adieresis" unicode="&#xe4;" horiz-adv-x="591" 
d="M180 539q-28 0 -47.5 19.5t-19.5 47.5t19.5 47.5t47.5 19.5t47.5 -19.5t19.5 -47.5t-19.5 -47.5t-47.5 -19.5zM380 539q-28 0 -47.5 19.5t-19.5 47.5t19.5 47.5t47.5 19.5t47.5 -19.5t19.5 -47.5t-19.5 -47.5t-47.5 -19.5zM266 -12q-107 0 -167.5 68t-60.5 174
q0 105 62.5 174t167.5 69q54 0 97 -25t65 -68v81h86v-461h-86v81q-22 -42 -67 -67.5t-97 -25.5zM278 66q73 0 114.5 47.5t41.5 116.5q0 70 -41.5 117.5t-114.5 47.5q-70 0 -112 -46.5t-42 -118.5t42 -118t112 -46z" />
    <glyph glyph-name="aring" unicode="&#xe5;" horiz-adv-x="591" 
d="M280 500q-47 0 -79 31t-32 78t32 78t79 31t79 -31t32 -78t-32 -78t-79 -31zM280 545q26 0 43.5 18t17.5 46t-17.5 46t-43.5 18t-43.5 -18t-17.5 -46t17.5 -46t43.5 -18zM266 -12q-107 0 -167.5 68t-60.5 174q0 105 62.5 174t167.5 69q54 0 97 -25t65 -68v81h86v-461h-86
v81q-22 -42 -67 -67.5t-97 -25.5zM278 66q73 0 114.5 47.5t41.5 116.5q0 70 -41.5 117.5t-114.5 47.5q-70 0 -112 -46.5t-42 -118.5t42 -118t112 -46z" />
    <glyph glyph-name="ae" unicode="&#xe6;" horiz-adv-x="871" 
d="M833 255q0 -29 -2 -52h-358q2 -66 41.5 -103t105.5 -37q91 0 120 74h88q-12 -67 -70 -109t-138 -42q-129 0 -191 101q-62 -99 -203 -99q-82 0 -132.5 36.5t-50.5 97.5q0 75 54 113q29 20 70.5 27t121.5 7h104v40q0 42 -29.5 68t-92.5 26q-119 0 -125 -93h-87
q4 74 62.5 118.5t150.5 44.5q127 0 176 -76q63 74 168 74q96 0 156.5 -60.5t60.5 -155.5zM474 270h274q0 61 -35.5 97t-96.5 36q-62 0 -101.5 -36.5t-40.5 -96.5zM393 183v20h-136q-126 0 -126 -74q0 -72 112 -72q61 0 105.5 32.5t44.5 93.5z" />
    <glyph glyph-name="ccedilla" unicode="&#xe7;" horiz-adv-x="520" 
d="M267 66q109 0 128 90h87q-8 -72 -59 -117t-135 -50v-52q13 15 46 15q32 0 54 -21.5t22 -58.5q0 -38 -24 -63t-67 -25q-37 0 -60 19t-26 53h46q1 -14 12 -23t27 -9q43 0 43 47q0 46 -41 46q-26 0 -38 -20h-41v92q-94 9 -148.5 74.5t-54.5 166.5q0 109 62 175.5t167 66.5
q93 0 150 -46.5t65 -124.5h-87q-18 93 -128 93q-67 0 -105 -43.5t-38 -120.5t38 -120.5t105 -43.5z" />
    <glyph glyph-name="egrave" unicode="&#xe8;" horiz-adv-x="521" 
d="M411 573l-29 -68l-274 117l29 65zM484 257q0 -19 -3 -52h-357q1 -66 40 -103.5t105 -37.5q92 0 122 68h87q-12 -64 -70 -104t-139 -40q-106 0 -168.5 65.5t-62.5 177.5q0 110 62 176t165 66q98 0 158.5 -60t60.5 -156zM124 272h274q0 61 -35.5 96t-98.5 35
q-62 0 -99.5 -36t-40.5 -95z" />
    <glyph glyph-name="eacute" unicode="&#xe9;" horiz-adv-x="521" 
d="M409 623l-274 -117l-29 68l274 114zM484 257q0 -19 -3 -52h-357q1 -66 40 -103.5t105 -37.5q92 0 122 68h87q-12 -64 -70 -104t-139 -40q-106 0 -168.5 65.5t-62.5 177.5q0 110 62 176t165 66q98 0 158.5 -60t60.5 -156zM124 272h274q0 61 -35.5 96t-98.5 35
q-62 0 -99.5 -36t-40.5 -95z" />
    <glyph glyph-name="ecircumflex" unicode="&#xea;" horiz-adv-x="521" 
d="M266 612l-128 -111l-47 51l175 146l175 -146l-47 -52zM484 257q0 -19 -3 -52h-357q1 -66 40 -103.5t105 -37.5q92 0 122 68h87q-12 -64 -70 -104t-139 -40q-106 0 -168.5 65.5t-62.5 177.5q0 110 62 176t165 66q98 0 158.5 -60t60.5 -156zM124 272h274q0 61 -35.5 96
t-98.5 35q-62 0 -99.5 -36t-40.5 -95z" />
    <glyph glyph-name="edieresis" unicode="&#xeb;" horiz-adv-x="521" 
d="M166 539q-28 0 -47.5 19.5t-19.5 47.5t19.5 47.5t47.5 19.5t47.5 -19.5t19.5 -47.5t-19.5 -47.5t-47.5 -19.5zM366 539q-28 0 -47.5 19.5t-19.5 47.5t19.5 47.5t47.5 19.5t47.5 -19.5t19.5 -47.5t-19.5 -47.5t-47.5 -19.5zM484 257q0 -19 -3 -52h-357q1 -66 40 -103.5
t105 -37.5q92 0 122 68h87q-12 -64 -70 -104t-139 -40q-106 0 -168.5 65.5t-62.5 177.5q0 110 62 176t165 66q98 0 158.5 -60t60.5 -156zM124 272h274q0 61 -35.5 96t-98.5 35q-62 0 -99.5 -36t-40.5 -95z" />
    <glyph glyph-name="igrave" unicode="&#xec;" horiz-adv-x="237" 
d="M173 516l-150 100l40 60l150 -100zM75 0v461h87v-461h-87z" />
    <glyph glyph-name="iacute" unicode="&#xed;" horiz-adv-x="237" 
d="M63 516l-40 60l150 100l40 -60zM75 0v461h87v-461h-87z" />
    <glyph glyph-name="icircumflex" unicode="&#xee;" horiz-adv-x="237" 
d="M46 518l-48 50l121 111l121 -111l-47 -51l-74 71zM75 0v461h87v-461h-87z" />
    <glyph glyph-name="idieresis" unicode="&#xef;" horiz-adv-x="237" 
d="M52 547q-24 0 -40.5 17t-16.5 40q0 24 16.5 40.5t40.5 16.5t41 -16.5t17 -40.5q0 -23 -17 -40t-41 -17zM185 547q-23 0 -40 17t-17 40q0 24 17 40.5t40 16.5q25 0 41.5 -16.5t16.5 -40.5t-16.5 -40.5t-41.5 -16.5zM75 0v461h87v-461h-87z" />
    <glyph glyph-name="eth" unicode="&#xf0;" horiz-adv-x="556" 
d="M478 371q40 -60 40 -140q0 -104 -65.5 -173.5t-174.5 -69.5q-110 0 -175 69.5t-65 173.5t65 173t175 69q17 0 25 -1l-55 78l-86 -47l-26 48l81 44l-73 105h109l43 -63l81 44l26 -46l-77 -42l153 -222h-1zM278 66q71 0 112 46.5t41 118.5q0 71 -41 117.5t-112 46.5
t-112.5 -46.5t-41.5 -118.5q0 -71 41.5 -117.5t112.5 -46.5z" />
    <glyph glyph-name="ntilde" unicode="&#xf1;" horiz-adv-x="565" 
d="M357 531q-29 0 -75 28.5t-68 28.5q-37 0 -71 -42l-33 47q41 67 100 67q27 0 73.5 -28.5t68.5 -28.5q36 0 69 41l34 -46q-40 -67 -98 -67zM75 0v461h87v-85q19 45 60.5 71t100.5 26q172 0 172 -189v-284h-87v246q0 78 -27.5 115t-88.5 37q-63 0 -96.5 -41t-33.5 -113v-244
h-87z" />
    <glyph glyph-name="ograve" unicode="&#xf2;" horiz-adv-x="556" 
d="M394 505l-274 117l29 65l274 -114zM278 -12q-110 0 -175 69.5t-65 173.5t65 173t175 69q109 0 174.5 -69.5t65.5 -172.5q0 -104 -65.5 -173.5t-174.5 -69.5zM278 66q71 0 112 46.5t41 118.5q0 71 -41 117.5t-112 46.5t-112.5 -46.5t-41.5 -118.5q0 -71 41.5 -117.5
t112.5 -46.5z" />
    <glyph glyph-name="oacute" unicode="&#xf3;" horiz-adv-x="556" 
d="M147 506l-29 68l274 114l29 -65zM278 -12q-110 0 -175 69.5t-65 173.5t65 173t175 69q109 0 174.5 -69.5t65.5 -172.5q0 -104 -65.5 -173.5t-174.5 -69.5zM278 66q71 0 112 46.5t41 118.5q0 71 -41 117.5t-112 46.5t-112.5 -46.5t-41.5 -118.5q0 -71 41.5 -117.5
t112.5 -46.5z" />
    <glyph glyph-name="ocircumflex" unicode="&#xf4;" horiz-adv-x="556" 
d="M278 698l175 -146l-47 -52l-128 112l-128 -111l-47 51zM278 -12q-110 0 -175 69.5t-65 173.5t65 173t175 69q109 0 174.5 -69.5t65.5 -172.5q0 -104 -65.5 -173.5t-174.5 -69.5zM278 66q71 0 112 46.5t41 118.5q0 71 -41 117.5t-112 46.5t-112.5 -46.5t-41.5 -118.5
q0 -71 41.5 -117.5t112.5 -46.5z" />
    <glyph glyph-name="otilde" unicode="&#xf5;" horiz-adv-x="556" 
d="M353 531q-29 0 -75 28.5t-68 28.5q-37 0 -71 -42l-33 47q41 67 100 67q27 0 73.5 -28.5t68.5 -28.5q36 0 69 41l34 -46q-40 -67 -98 -67zM278 -12q-110 0 -175 69.5t-65 173.5t65 173t175 69q109 0 174.5 -69.5t65.5 -172.5q0 -104 -65.5 -173.5t-174.5 -69.5zM278 66
q71 0 112 46.5t41 118.5q0 71 -41 117.5t-112 46.5t-112.5 -46.5t-41.5 -118.5q0 -71 41.5 -117.5t112.5 -46.5z" />
    <glyph glyph-name="odieresis" unicode="&#xf6;" horiz-adv-x="556" 
d="M178 539q-28 0 -47.5 19.5t-19.5 47.5t19.5 47.5t47.5 19.5t47.5 -19.5t19.5 -47.5t-19.5 -47.5t-47.5 -19.5zM378 539q-28 0 -47.5 19.5t-19.5 47.5t19.5 47.5t47.5 19.5t47.5 -19.5t19.5 -47.5t-19.5 -47.5t-47.5 -19.5zM278 -12q-110 0 -175 69.5t-65 173.5t65 173
t175 69q109 0 174.5 -69.5t65.5 -172.5q0 -104 -65.5 -173.5t-174.5 -69.5zM278 66q71 0 112 46.5t41 118.5q0 71 -41 117.5t-112 46.5t-112.5 -46.5t-41.5 -118.5q0 -71 41.5 -117.5t112.5 -46.5z" />
    <glyph glyph-name="divide" unicode="&#xf7;" horiz-adv-x="504" 
d="M252 400q-29 0 -49 20.5t-20 49.5t20 49.5t49 20.5t50 -20.5t21 -49.5t-21 -49.5t-50 -20.5zM53 273v77h399v-77h-399zM252 89q-29 0 -49 20.5t-20 49.5t20 49.5t49 20.5t50 -20.5t21 -49.5t-21 -49.5t-50 -20.5z" />
    <glyph glyph-name="oslash" unicode="&#xf8;" horiz-adv-x="556" 
d="M405 441q54 -31 83.5 -86.5t29.5 -123.5q0 -104 -65.5 -173.5t-174.5 -69.5q-32 0 -66 8l-30 -71l-51 22l29 68q-58 30 -90 87t-32 129q0 104 65 173t175 69q38 0 76 -10l29 66l50 -22zM124 230q0 -97 69 -140l130 299q-21 6 -45 6q-71 0 -112.5 -46.5t-41.5 -118.5z
M278 66q71 0 112 46.5t41 118.5q0 89 -59 134l-128 -296q17 -3 34 -3z" />
    <glyph glyph-name="ugrave" unicode="&#xf9;" horiz-adv-x="562" 
d="M398 505l-274 117l29 65l274 -114zM245 -12q-80 0 -127.5 48.5t-47.5 140.5v284h87v-263q0 -135 112 -135q66 0 98.5 42.5t32.5 103.5v252h87v-461h-87v84q-19 -44 -59.5 -70t-95.5 -26z" />
    <glyph glyph-name="uacute" unicode="&#xfa;" horiz-adv-x="562" 
d="M151 506l-29 68l274 114l29 -65zM245 -12q-80 0 -127.5 48.5t-47.5 140.5v284h87v-263q0 -135 112 -135q66 0 98.5 42.5t32.5 103.5v252h87v-461h-87v84q-19 -44 -59.5 -70t-95.5 -26z" />
    <glyph glyph-name="ucircumflex" unicode="&#xfb;" horiz-adv-x="562" 
d="M282 698l175 -146l-47 -52l-128 112l-128 -111l-47 51zM245 -12q-80 0 -127.5 48.5t-47.5 140.5v284h87v-263q0 -135 112 -135q66 0 98.5 42.5t32.5 103.5v252h87v-461h-87v84q-19 -44 -59.5 -70t-95.5 -26z" />
    <glyph glyph-name="udieresis" unicode="&#xfc;" horiz-adv-x="562" 
d="M182 539q-28 0 -47.5 19.5t-19.5 47.5t19.5 47.5t47.5 19.5t47.5 -19.5t19.5 -47.5t-19.5 -47.5t-47.5 -19.5zM382 539q-28 0 -47.5 19.5t-19.5 47.5t19.5 47.5t47.5 19.5t47.5 -19.5t19.5 -47.5t-19.5 -47.5t-47.5 -19.5zM245 -12q-80 0 -127.5 48.5t-47.5 140.5v284h87
v-263q0 -135 112 -135q66 0 98.5 42.5t32.5 103.5v252h87v-461h-87v84q-19 -44 -59.5 -70t-95.5 -26z" />
    <glyph glyph-name="yacute" unicode="&#xfd;" horiz-adv-x="567" 
d="M146 506l-29 68l274 114l29 -65zM405 461h87v-470q0 -109 -63 -166q-56 -50 -151 -50q-100 0 -156 48q-51 43 -52 119h88q5 -94 119 -94q128 0 128 149v86q-46 -95 -160 -95q-87 0 -131 53.5t-44 144.5v275h87v-257q0 -67 26.5 -102.5t90.5 -35.5q63 0 97 45.5t34 112.5
v237z" />
    <glyph glyph-name="thorn" unicode="&#xfe;" horiz-adv-x="591" 
d="M331 473q99 0 161 -67.5t62 -175.5q0 -106 -64 -174t-164 -68q-53 0 -97.5 25t-66.5 68v-294h-87v913h87v-320q22 43 67.5 68t101.5 25zM314 66q67 0 110 46t43 118t-43 118.5t-110 46.5q-69 0 -112.5 -46t-43.5 -119q0 -72 43.5 -118t112.5 -46z" />
    <glyph glyph-name="ydieresis" unicode="&#xff;" horiz-adv-x="567" 
d="M177 539q-28 0 -47.5 19.5t-19.5 47.5t19.5 47.5t47.5 19.5q29 0 48 -19.5t19 -47.5t-19.5 -47.5t-47.5 -19.5zM377 539q-28 0 -47.5 19.5t-19.5 47.5t19.5 47.5t47.5 19.5q29 0 48 -19.5t19 -47.5t-19.5 -47.5t-47.5 -19.5zM405 461h87v-470q0 -109 -63 -166
q-56 -50 -151 -50q-100 0 -156 48q-51 43 -52 119h88q5 -94 119 -94q128 0 128 149v86q-46 -95 -160 -95q-87 0 -131 53.5t-44 144.5v275h87v-257q0 -67 26.5 -102.5t90.5 -35.5q63 0 97 45.5t34 112.5v237z" />
    <glyph glyph-name="Amacron" unicode="&#x100;" horiz-adv-x="590" 
d="M482 837v-69h-372v69h372zM474 0l-33 107h-291l-33 -107h-99l237 700h81l237 -700h-99zM176 190h239l-120 384z" />
    <glyph glyph-name="amacron" unicode="&#x101;" horiz-adv-x="591" 
d="M121 555v70h318v-70h-318zM266 -12q-107 0 -167.5 68t-60.5 174q0 105 62.5 174t167.5 69q54 0 97 -25t65 -68v81h86v-461h-86v81q-22 -42 -67 -67.5t-97 -25.5zM278 66q73 0 114.5 47.5t41.5 116.5q0 70 -41.5 117.5t-114.5 47.5q-70 0 -112 -46.5t-42 -118.5t42 -118
t112 -46z" />
    <glyph glyph-name="Abreve" unicode="&#x102;" horiz-adv-x="590" 
d="M296 734q-68 0 -115 38t-52 97h72q5 -36 31 -54t64 -18t64 18t31 54h72q-5 -59 -52 -97t-115 -38zM474 0l-33 107h-291l-33 -107h-99l237 700h81l237 -700h-99zM176 190h239l-120 384z" />
    <glyph glyph-name="abreve" unicode="&#x103;" horiz-adv-x="591" 
d="M280 508q-75 0 -122.5 40t-51.5 111h74q3 -43 30.5 -65t69.5 -22q43 0 70.5 22t30.5 65h74q-5 -71 -52 -111t-123 -40zM266 -12q-107 0 -167.5 68t-60.5 174q0 105 62.5 174t167.5 69q54 0 97 -25t65 -68v81h86v-461h-86v81q-22 -42 -67 -67.5t-97 -25.5zM278 66
q73 0 114.5 47.5t41.5 116.5q0 70 -41.5 117.5t-114.5 47.5q-70 0 -112 -46.5t-42 -118.5t42 -118t112 -46z" />
    <glyph glyph-name="Aogonek" unicode="&#x104;" horiz-adv-x="590" 
d="M541 -146q28 0 57 13l-1 -64q-39 -15 -79 -15q-53 0 -85 28t-32 70q0 68 85 114h-12l-33 107h-291l-33 -107h-99l237 700h81l237 -700q-48 -10 -70 -34.5t-22 -53.5q0 -26 16.5 -42t43.5 -16zM176 190h239l-120 384z" />
    <glyph glyph-name="aogonek" unicode="&#x105;" horiz-adv-x="591" 
d="M491 -146q28 0 57 13l-1 -64q-39 -15 -79 -15q-53 0 -85 28t-32 70q0 68 85 114h-6v81q-22 -42 -67 -67.5t-97 -25.5q-107 0 -167.5 68t-60.5 174q0 105 62.5 174t167.5 69q54 0 97 -25t65 -68v81h86v-461h7q-48 -10 -70 -34.5t-22 -53.5q0 -26 16.5 -42t43.5 -16z
M278 66q73 0 114.5 47.5t41.5 116.5q0 70 -41.5 117.5t-114.5 47.5q-70 0 -112 -46.5t-42 -118.5t42 -118t112 -46z" />
    <glyph glyph-name="Cacute" unicode="&#x106;" horiz-adv-x="771" 
d="M311 731l-32 60l218 103l31 -59zM400 -16q-167 0 -264.5 103t-97.5 263t97.5 263t264.5 103q138 0 226.5 -68t108.5 -178h-100q-20 76 -80 120t-154 44q-124 0 -196 -79t-72 -205t72 -205t196 -79q94 0 154 44t80 120h100q-20 -110 -108.5 -178t-226.5 -68z" />
    <glyph glyph-name="cacute" unicode="&#x107;" horiz-adv-x="520" 
d="M134 506l-29 68l274 114l29 -65zM267 -12q-105 0 -167 66.5t-62 175.5t62 175.5t167 66.5q93 0 150 -46.5t65 -124.5h-87q-18 93 -128 93q-67 0 -105 -43.5t-38 -120.5t38 -120.5t105 -43.5q109 0 128 90h87q-8 -77 -65 -122.5t-150 -45.5z" />
    <glyph glyph-name="Ccircumflex" unicode="&#x108;" horiz-adv-x="771" 
d="M397 892l135 -116l-46 -41l-89 81l-90 -81l-46 41zM400 -16q-167 0 -264.5 103t-97.5 263t97.5 263t264.5 103q138 0 226.5 -68t108.5 -178h-100q-20 76 -80 120t-154 44q-124 0 -196 -79t-72 -205t72 -205t196 -79q94 0 154 44t80 120h100q-20 -110 -108.5 -178
t-226.5 -68z" />
    <glyph glyph-name="ccircumflex" unicode="&#x109;" horiz-adv-x="520" 
d="M265 698l175 -146l-47 -52l-128 112l-128 -111l-47 51zM267 -12q-105 0 -167 66.5t-62 175.5t62 175.5t167 66.5q93 0 150 -46.5t65 -124.5h-87q-18 93 -128 93q-67 0 -105 -43.5t-38 -120.5t38 -120.5t105 -43.5q109 0 128 90h87q-8 -77 -65 -122.5t-150 -45.5z" />
    <glyph glyph-name="Cdotaccent" unicode="&#x10a;" horiz-adv-x="771" 
d="M400 744q-30 0 -48.5 19.5t-18.5 48.5q0 28 19 47.5t48 19.5t48 -19.5t19 -47.5q0 -29 -18.5 -48.5t-48.5 -19.5zM400 -16q-167 0 -264.5 103t-97.5 263t97.5 263t264.5 103q138 0 226.5 -68t108.5 -178h-100q-20 76 -80 120t-154 44q-124 0 -196 -79t-72 -205t72 -205
t196 -79q94 0 154 44t80 120h100q-20 -110 -108.5 -178t-226.5 -68z" />
    <glyph glyph-name="cdotaccent" unicode="&#x10b;" horiz-adv-x="520" 
d="M265 540q-31 0 -51 20t-20 50t20 50.5t51 20.5q30 0 50 -20.5t20 -50.5t-20 -50t-50 -20zM267 -12q-105 0 -167 66.5t-62 175.5t62 175.5t167 66.5q93 0 150 -46.5t65 -124.5h-87q-18 93 -128 93q-67 0 -105 -43.5t-38 -120.5t38 -120.5t105 -43.5q109 0 128 90h87
q-8 -77 -65 -122.5t-150 -45.5z" />
    <glyph glyph-name="Ccaron" unicode="&#x10c;" horiz-adv-x="771" 
d="M399 736l-135 116l46 41l89 -81l90 81l46 -41zM400 -16q-167 0 -264.5 103t-97.5 263t97.5 263t264.5 103q138 0 226.5 -68t108.5 -178h-100q-20 76 -80 120t-154 44q-124 0 -196 -79t-72 -205t72 -205t196 -79q94 0 154 44t80 120h100q-20 -110 -108.5 -178t-226.5 -68z
" />
    <glyph glyph-name="ccaron" unicode="&#x10d;" horiz-adv-x="520" 
d="M265 502l-175 146l47 51l128 -111l128 112l47 -52zM267 -12q-105 0 -167 66.5t-62 175.5t62 175.5t167 66.5q93 0 150 -46.5t65 -124.5h-87q-18 93 -128 93q-67 0 -105 -43.5t-38 -120.5t38 -120.5t105 -43.5q109 0 128 90h87q-8 -77 -65 -122.5t-150 -45.5z" />
    <glyph glyph-name="Dcaron" unicode="&#x10e;" horiz-adv-x="691" 
d="M322 736l-135 116l46 41l89 -81l90 81l46 -41zM80 0v700h223q166 0 261 -103t95 -247t-95 -247t-261 -103h-223zM171 82h125q129 0 199 79t70 189q0 111 -70 189.5t-199 78.5h-125v-536z" />
    <glyph glyph-name="dcaron" unicode="&#x10f;" horiz-adv-x="721" 
d="M634 715q36 0 58.5 -27t22.5 -75q0 -55 -28 -86t-78 -31q-13 0 -19 2v40q7 -1 18 -1q39 0 51 28q8 19 5 45q-11 -17 -39 -17q-24 0 -39.5 17t-15.5 43q0 27 17.5 44.5t46.5 17.5zM429 428v272h87v-700h-86v81q-22 -42 -67 -67.5t-97 -25.5q-107 0 -167.5 68t-60.5 174
q0 105 62.5 174t167.5 69q54 0 97 -25t65 -68v48h-1zM278 66q73 0 114.5 47.5t41.5 116.5q0 70 -41.5 117.5t-114.5 47.5q-70 0 -112 -46.5t-42 -118.5t42 -118t112 -46z" />
    <glyph glyph-name="Dcroat" unicode="&#x110;" horiz-adv-x="691" 
d="M303 700q166 0 261 -103t95 -247t-95 -247t-261 -103h-223v313h-79v78h79v309h223zM296 82q129 0 199 79t70 189q0 111 -70 189.5t-199 78.5h-125v-227h133v-78h-133v-231h125z" />
    <glyph glyph-name="dcroat" unicode="&#x111;" horiz-adv-x="591" 
d="M569 595v-59h-53v-536h-86v81q-22 -42 -67 -67.5t-97 -25.5q-107 0 -167.5 68t-60.5 174q0 105 62.5 174t167.5 69q54 0 97 -25t65 -68v48h-1v108h-155v59h155v105h87v-105h53zM278 66q73 0 114.5 47.5t41.5 116.5q0 70 -41.5 117.5t-114.5 47.5q-70 0 -112 -46.5
t-42 -118.5t42 -118t112 -46z" />
    <glyph glyph-name="Emacron" unicode="&#x112;" horiz-adv-x="545" 
d="M99 768v69h372v-69h-372zM80 0v700h398v-82h-307v-229h307v-82h-307v-225h307v-82h-398z" />
    <glyph glyph-name="emacron" unicode="&#x113;" horiz-adv-x="521" 
d="M425 625v-70h-318v70h318zM484 257q0 -19 -3 -52h-357q1 -66 40 -103.5t105 -37.5q92 0 122 68h87q-12 -64 -70 -104t-139 -40q-106 0 -168.5 65.5t-62.5 177.5q0 110 62 176t165 66q98 0 158.5 -60t60.5 -156zM124 272h274q0 61 -35.5 96t-98.5 35q-62 0 -99.5 -36
t-40.5 -95z" />
    <glyph glyph-name="Ebreve" unicode="&#x114;" horiz-adv-x="545" 
d="M285 734q-68 0 -115 38t-52 97h72q5 -36 31 -54t64 -18t64 18t31 54h72q-5 -59 -52 -97t-115 -38zM80 0v700h398v-82h-307v-229h307v-82h-307v-225h307v-82h-398z" />
    <glyph glyph-name="ebreve" unicode="&#x115;" horiz-adv-x="521" 
d="M266 508q-75 0 -122.5 40t-51.5 111h74q3 -43 30.5 -65t69.5 -22q43 0 70.5 22t30.5 65h74q-5 -71 -52 -111t-123 -40zM484 257q0 -19 -3 -52h-357q1 -66 40 -103.5t105 -37.5q92 0 122 68h87q-12 -64 -70 -104t-139 -40q-106 0 -168.5 65.5t-62.5 177.5q0 110 62 176
t165 66q98 0 158.5 -60t60.5 -156zM124 272h274q0 61 -35.5 96t-98.5 35q-62 0 -99.5 -36t-40.5 -95z" />
    <glyph glyph-name="Edotaccent" unicode="&#x116;" horiz-adv-x="545" 
d="M285 744q-30 0 -48.5 19.5t-18.5 48.5q0 28 19 47.5t48 19.5t48 -19.5t19 -47.5q0 -29 -18.5 -48.5t-48.5 -19.5zM80 0v700h398v-82h-307v-229h307v-82h-307v-225h307v-82h-398z" />
    <glyph glyph-name="edotaccent" unicode="&#x117;" horiz-adv-x="521" 
d="M266 540q-31 0 -51 20t-20 50t20 50.5t51 20.5q30 0 50 -20.5t20 -50.5t-20 -50t-50 -20zM484 257q0 -19 -3 -52h-357q1 -66 40 -103.5t105 -37.5q92 0 122 68h87q-12 -64 -70 -104t-139 -40q-106 0 -168.5 65.5t-62.5 177.5q0 110 62 176t165 66q98 0 158.5 -60
t60.5 -156zM124 272h274q0 61 -35.5 96t-98.5 35q-62 0 -99.5 -36t-40.5 -95z" />
    <glyph glyph-name="Eogonek" unicode="&#x118;" horiz-adv-x="545" 
d="M446 -146q28 0 57 13l-1 -64q-39 -15 -79 -15q-53 0 -85 28t-32 70q0 68 85 114h-311v700h398v-82h-307v-229h307v-82h-307v-225h307v-82q-48 -10 -70 -34.5t-22 -53.5q0 -26 16.5 -42t43.5 -16z" />
    <glyph glyph-name="eogonek" unicode="&#x119;" horiz-adv-x="521" 
d="M484 257q0 -19 -3 -52h-357q1 -66 40 -103.5t105 -37.5q92 0 122 68h87q-10 -51 -50 -87.5t-100 -50.5q-71 -23 -71 -82q0 -26 16.5 -42t43.5 -16q28 0 57 13l-1 -64q-39 -15 -79 -15q-53 0 -85 28t-32 70q0 60 67 103q-96 8 -151 72.5t-55 169.5q0 110 62 176t165 66
q98 0 158.5 -60t60.5 -156zM124 272h274q0 61 -35.5 96t-98.5 35q-62 0 -99.5 -36t-40.5 -95z" />
    <glyph glyph-name="Ecaron" unicode="&#x11a;" horiz-adv-x="545" 
d="M284 736l-135 116l46 41l89 -81l90 81l46 -41zM80 0v700h398v-82h-307v-229h307v-82h-307v-225h307v-82h-398z" />
    <glyph glyph-name="ecaron" unicode="&#x11b;" horiz-adv-x="521" 
d="M441 648l-175 -146l-175 146l47 51l128 -111l128 112zM484 257q0 -19 -3 -52h-357q1 -66 40 -103.5t105 -37.5q92 0 122 68h87q-12 -64 -70 -104t-139 -40q-106 0 -168.5 65.5t-62.5 177.5q0 110 62 176t165 66q98 0 158.5 -60t60.5 -156zM124 272h274q0 61 -35.5 96
t-98.5 35q-62 0 -99.5 -36t-40.5 -95z" />
    <glyph glyph-name="Gcircumflex" unicode="&#x11c;" horiz-adv-x="829" 
d="M401 816l-90 -81l-46 41l136 116l135 -116l-46 -41zM807 340v-82h-77q-23 -127 -109 -200.5t-224 -73.5q-164 0 -262 103t-97 259q0 157 96.5 263.5t267.5 106.5q121 0 204 -61t97 -155h-100q-15 60 -68.5 97t-132.5 37q-130 0 -199.5 -81t-69.5 -207q0 -120 71.5 -200
t192.5 -80q98 0 158.5 49.5t79.5 142.5h-170v82h342z" />
    <glyph glyph-name="gcircumflex" unicode="&#x11d;" horiz-adv-x="591" 
d="M284 612l-128 -111l-47 51l175 146l175 -146l-47 -52zM430 461h86v-449q0 -132 -80 -194q-58 -43 -159 -43t-163 45q-66 46 -69 122h91q6 -42 41.5 -68t99.5 -26q153 0 153 158v75q-21 -43 -67 -68t-97 -25q-104 0 -166 69t-62 173t64.5 173.5t165.5 69.5q53 0 96.5 -25
t65.5 -68v81zM278 66q71 0 113.5 47t42.5 117t-42.5 117.5t-113.5 47.5q-68 0 -111 -46.5t-43 -118.5q0 -71 43 -117.5t111 -46.5z" />
    <glyph glyph-name="Gbreve" unicode="&#x11e;" horiz-adv-x="829" 
d="M404 734q-68 0 -115 38t-52 97h72q5 -36 31 -54t64 -18t64 18t31 54h72q-5 -59 -52 -97t-115 -38zM807 340v-82h-77q-23 -127 -109 -200.5t-224 -73.5q-164 0 -262 103t-97 259q0 157 96.5 263.5t267.5 106.5q121 0 204 -61t97 -155h-100q-15 60 -68.5 97t-132.5 37
q-130 0 -199.5 -81t-69.5 -207q0 -120 71.5 -200t192.5 -80q98 0 158.5 49.5t79.5 142.5h-170v82h342z" />
    <glyph glyph-name="gbreve" unicode="&#x11f;" horiz-adv-x="591" 
d="M284 508q-75 0 -122.5 40t-51.5 111h74q3 -43 30.5 -65t69.5 -22q43 0 70.5 22t30.5 65h74q-5 -71 -52 -111t-123 -40zM430 461h86v-449q0 -132 -80 -194q-58 -43 -159 -43t-163 45q-66 46 -69 122h91q6 -42 41.5 -68t99.5 -26q153 0 153 158v75q-21 -43 -67 -68t-97 -25
q-104 0 -166 69t-62 173t64.5 173.5t165.5 69.5q53 0 96.5 -25t65.5 -68v81zM278 66q71 0 113.5 47t42.5 117t-42.5 117.5t-113.5 47.5q-68 0 -111 -46.5t-43 -118.5q0 -71 43 -117.5t111 -46.5z" />
    <glyph glyph-name="Gdotaccent" unicode="&#x120;" horiz-adv-x="829" 
d="M404 744q-30 0 -48.5 19.5t-18.5 48.5q0 28 19 47.5t48 19.5t48 -19.5t19 -47.5q0 -29 -18.5 -48.5t-48.5 -19.5zM807 340v-82h-77q-23 -127 -109 -200.5t-224 -73.5q-164 0 -262 103t-97 259q0 157 96.5 263.5t267.5 106.5q121 0 204 -61t97 -155h-100q-15 60 -68.5 97
t-132.5 37q-130 0 -199.5 -81t-69.5 -207q0 -120 71.5 -200t192.5 -80q98 0 158.5 49.5t79.5 142.5h-170v82h342z" />
    <glyph glyph-name="gdotaccent" unicode="&#x121;" horiz-adv-x="591" 
d="M284 540q-31 0 -51 20t-20 50t20 50.5t51 20.5q30 0 50 -20.5t20 -50.5t-20 -50t-50 -20zM430 461h86v-449q0 -132 -80 -194q-58 -43 -159 -43t-163 45q-66 46 -69 122h91q6 -42 41.5 -68t99.5 -26q153 0 153 158v75q-21 -43 -67 -68t-97 -25q-104 0 -166 69t-62 173
t64.5 173.5t165.5 69.5q53 0 96.5 -25t65.5 -68v81zM278 66q71 0 113.5 47t42.5 117t-42.5 117.5t-113.5 47.5q-68 0 -111 -46.5t-43 -118.5q0 -71 43 -117.5t111 -46.5z" />
    <glyph glyph-name="Gcommaaccent" unicode="&#x122;" horiz-adv-x="829" 
d="M807 340v-82h-77q-23 -127 -109 -200.5t-224 -73.5q-164 0 -262 103t-97 259q0 157 96.5 263.5t267.5 106.5q121 0 204 -61t97 -155h-100q-15 60 -68.5 97t-132.5 37q-130 0 -199.5 -81t-69.5 -207q0 -120 71.5 -200t192.5 -80q98 0 158.5 49.5t79.5 142.5h-170v82h342z
M400 -30q29 0 46 -19.5t17 -51.5q0 -105 -104 -105v30q42 0 54 26q9 10 9 30q-5 -9 -20 -9q-23 0 -38 14t-15 35t14.5 35.5t36.5 14.5z" />
    <glyph glyph-name="gcommaaccent" unicode="&#x123;" horiz-adv-x="591" 
d="M271 514q-27 0 -44.5 22.5t-17.5 57.5q0 45 29 72t80 27v-31q-40 0 -54 -24q-14 -15 -12 -32q4 10 23 10q21 0 35 -15t14 -36q0 -22 -15 -36.5t-38 -14.5zM430 461h86v-449q0 -132 -80 -194q-58 -43 -159 -43t-163 45q-66 46 -69 122h91q6 -42 41.5 -68t99.5 -26
q153 0 153 158v75q-21 -43 -67 -68t-97 -25q-104 0 -166 69t-62 173t64.5 173.5t165.5 69.5q53 0 96.5 -25t65.5 -68v81zM278 66q71 0 113.5 47t42.5 117t-42.5 117.5t-113.5 47.5q-68 0 -111 -46.5t-43 -118.5q0 -71 43 -117.5t111 -46.5z" />
    <glyph glyph-name="Hcircumflex" unicode="&#x124;" horiz-adv-x="668" 
d="M331 892l135 -116l-46 -41l-89 81l-90 -81l-46 41zM80 0v700h91v-311h326v311h91v-700h-91v307h-326v-307h-91z" />
    <glyph glyph-name="hcircumflex" unicode="&#x125;" horiz-adv-x="566" 
d="M189 743l-70 61l-70 -61l-40 45l110 92l111 -92zM324 473q172 0 172 -189v-284h-87v246q0 78 -27.5 115t-88.5 37q-63 0 -96.5 -41t-33.5 -113v-244h-87v700h87v-324q19 45 60.5 71t100.5 26z" />
    <glyph glyph-name="Hbar" unicode="&#x126;" horiz-adv-x="668" 
d="M623 565v-59h-35v-506h-91v307h-326v-307h-91v506h-35v59h35v135h91v-135h326v135h91v-135h35zM497 389v117h-326v-117h326z" />
    <glyph glyph-name="hbar" unicode="&#x127;" horiz-adv-x="566" 
d="M324 473q172 0 172 -189v-284h-87v246q0 78 -27.5 115t-88.5 37q-63 0 -96.5 -41t-33.5 -113v-244h-87v536h-48v59h48v105h87v-105h161v-59h-161v-160q19 45 60.5 71t100.5 26z" />
    <glyph glyph-name="Itilde" unicode="&#x128;" horiz-adv-x="251" 
d="M166 758q-22 0 -45 18.5t-34 18.5q-23 0 -40 -30l-23 40q22 50 64 50q22 0 45 -19t34 -19q22 0 39 29l22 -40q-21 -48 -62 -48zM80 0v700h91v-700h-91z" />
    <glyph glyph-name="itilde" unicode="&#x129;" horiz-adv-x="237" 
d="M157 526q-22 0 -45.5 25t-36.5 25q-23 0 -39 -33l-21 45q22 62 65 62q24 0 50.5 -25t37.5 -25q20 0 35 29l20 -46q-17 -57 -66 -57zM75 0v461h87v-461h-87z" />
    <glyph glyph-name="Imacron" unicode="&#x12a;" horiz-adv-x="251" 
d="M33 768v62h187v-62h-187zM80 0v700h91v-700h-91z" />
    <glyph glyph-name="imacron" unicode="&#x12b;" horiz-adv-x="237" 
d="M20 555v70h198v-70h-198zM75 0v461h87v-461h-87z" />
    <glyph glyph-name="Ibreve" unicode="&#x12c;" horiz-adv-x="251" 
d="M126 737q-51 0 -84 30t-33 100h67q1 -34 15 -51t35 -17q47 0 50 68h68q-1 -70 -34 -100t-84 -30zM80 0v700h91v-700h-91z" />
    <glyph glyph-name="ibreve" unicode="&#x12d;" horiz-adv-x="237" 
d="M118 513q-109 0 -109 128h60q3 -72 49 -72q47 0 50 72h60q0 -128 -110 -128zM75 0v461h87v-461h-87z" />
    <glyph glyph-name="Iogonek" unicode="&#x12e;" horiz-adv-x="251" 
d="M139 -146q28 0 57 13l-1 -64q-39 -15 -79 -15q-53 0 -85 28t-32 70q0 68 85 114h-4v700h91v-700q-48 -10 -70 -34.5t-22 -53.5q0 -26 16.5 -42t43.5 -16z" />
    <glyph glyph-name="iogonek" unicode="&#x12f;" horiz-adv-x="237" 
d="M119 540q-31 0 -51 20t-20 50t20 50.5t51 20.5q30 0 50 -20.5t20 -50.5t-20 -50t-50 -20zM70 -88q0 -26 16.5 -42t43.5 -16q28 0 57 13l-1 -64q-39 -15 -79 -15q-53 0 -85 28t-32 70q0 68 85 114v461h87v-461q-48 -10 -70 -34.5t-22 -53.5z" />
    <glyph glyph-name="Idotaccent" unicode="&#x130;" horiz-adv-x="251" 
d="M126 744q-30 0 -48.5 19.5t-18.5 48.5q0 28 19 47.5t48 19.5t48 -19.5t19 -47.5q0 -29 -18.5 -48.5t-48.5 -19.5zM80 0v700h91v-700h-91z" />
    <glyph glyph-name="dotlessi" unicode="&#x131;" horiz-adv-x="237" 
d="M75 0v461h87v-461h-87z" />
    <glyph glyph-name="IJ" unicode="&#x132;" horiz-adv-x="787" 
d="M80 0v700h91v-700h-91zM500 -16q-104 0 -165 64.5t-61 173.5h91q0 -72 36.5 -114t98.5 -42q63 0 98.5 42.5t35.5 115.5v476h91v-476q0 -110 -60 -175t-165 -65z" />
    <glyph glyph-name="ij" unicode="&#x133;" horiz-adv-x="477" 
d="M119 540q-31 0 -51 20t-20 50t20 50.5t51 20.5q30 0 50 -20.5t20 -50.5t-20 -50t-50 -20zM359 540q-31 0 -51 20t-20 50t20 50.5t51 20.5q30 0 50 -20.5t20 -50.5t-20 -50t-50 -20zM75 0v461h87v-461h-87zM281 -219q-43 0 -64 11v79q19 -7 47 -7q51 0 51 62v535h87v-559
q0 -58 -31.5 -89.5t-89.5 -31.5z" />
    <glyph glyph-name="Jcircumflex" unicode="&#x134;" horiz-adv-x="536" 
d="M498 743l-70 61l-70 -61l-40 45l110 92l111 -92zM249 -16q-104 0 -165 64.5t-61 173.5h91q0 -72 36.5 -114t98.5 -42q63 0 98.5 42.5t35.5 115.5v476h91v-476q0 -110 -60 -175t-165 -65z" />
    <glyph glyph-name="jcircumflex" unicode="&#x135;" horiz-adv-x="240" 
d="M49 518l-48 50l121 111l121 -111l-47 -51l-74 71zM44 -219q-43 0 -64 11v79q19 -7 47 -7q51 0 51 62v535h87v-559q0 -58 -31.5 -89.5t-89.5 -31.5z" />
    <glyph glyph-name="Kcommaaccent" unicode="&#x136;" horiz-adv-x="595" 
d="M582 700l-325 -346l325 -354h-118l-293 326v-326h-91v700h91v-328l294 328h117zM288 -30q29 0 46 -19.5t17 -51.5q0 -105 -104 -105v30q42 0 54 26q9 10 9 30q-5 -9 -20 -9q-23 0 -38 14t-15 35t14.5 35.5t36.5 14.5z" />
    <glyph glyph-name="kcommaaccent" unicode="&#x137;" horiz-adv-x="505" 
d="M478 461l-224 -223l224 -238h-115l-201 217v-217h-87v700h87v-449l204 210h112zM259 -30q29 0 46 -19.5t17 -51.5q0 -105 -104 -105v30q42 0 54 26q9 10 9 30q-5 -9 -20 -9q-23 0 -38 14t-15 35t14.5 35.5t36.5 14.5z" />
    <glyph glyph-name="kgreenlandic" unicode="&#x138;" horiz-adv-x="505" 
d="M478 461l-224 -223l224 -238h-115l-201 217v-217h-87v461h87v-210l204 210h112z" />
    <glyph glyph-name="Lacute" unicode="&#x139;" horiz-adv-x="511" 
d="M77 737l-39 57l161 100l40 -57zM80 0v700h91v-614h298v-86h-389z" />
    <glyph glyph-name="lacute" unicode="&#x13a;" horiz-adv-x="237" 
d="M57 737l-39 57l161 100l40 -57zM75 0v700h87v-700h-87z" />
    <glyph glyph-name="Lcommaaccent" unicode="&#x13b;" horiz-adv-x="511" 
d="M80 0v700h91v-614h298v-86h-389zM238 -206v30q42 0 54 26q9 10 9 30q-5 -9 -20 -9q-23 0 -38 14t-15 35t14.5 35.5t36.5 14.5q29 0 46 -19.5t17 -51.5q0 -105 -104 -105z" />
    <glyph glyph-name="lcommaaccent" unicode="&#x13c;" horiz-adv-x="237" 
d="M75 0v700h87v-700h-87zM74 -206v30q42 0 54 26q9 10 9 30q-5 -9 -20 -9q-23 0 -38 14t-15 35t14.5 35.5t36.5 14.5q29 0 46 -19.5t17 -51.5q0 -105 -104 -105z" />
    <glyph glyph-name="Lcaron" unicode="&#x13d;" horiz-adv-x="511" 
d="M330 496q-13 0 -19 2v40q7 -1 18 -1q39 0 51 28q8 19 5 45q-11 -17 -39 -17q-24 0 -39.5 17t-15.5 43q0 27 17.5 44.5t46.5 17.5q36 0 58.5 -27t22.5 -75q0 -55 -28 -86t-78 -31zM80 0v700h91v-614h298v-86h-389z" />
    <glyph glyph-name="lcaron" unicode="&#x13e;" horiz-adv-x="375" 
d="M268 496q-13 0 -19 2v40q7 -1 18 -1q39 0 51 28q8 19 5 45q-11 -17 -39 -17q-24 0 -39.5 17t-15.5 43q0 27 17.5 44.5t46.5 17.5q36 0 58.5 -27t22.5 -75q0 -55 -28 -86t-78 -31zM75 0v700h87v-700h-87z" />
    <glyph glyph-name="Ldot" unicode="&#x13f;" horiz-adv-x="511" 
d="M80 0v700h91v-614h298v-86h-389zM346 321q-31 0 -52 21.5t-21 51.5t21 51.5t52 21.5q30 0 51.5 -21.5t21.5 -51.5t-21.5 -51.5t-51.5 -21.5z" />
    <glyph glyph-name="ldot" unicode="&#x140;" horiz-adv-x="366" 
d="M75 0v700h87v-700h-87zM286 278q-31 0 -52 21.5t-21 51.5t21 51.5t52 21.5q30 0 51.5 -21.5t21.5 -51.5t-21.5 -51.5t-51.5 -21.5z" />
    <glyph glyph-name="Lslash" unicode="&#x141;" horiz-adv-x="498" 
d="M171 86h298v-86h-389v269l-56 -25v73l56 25v358h91v-318l162 72v-73l-162 -72v-223z" />
    <glyph glyph-name="lslash" unicode="&#x142;" horiz-adv-x="237" 
d="M232 459v-67l-73 -39v-353h-87v306l-67 -36v67l67 36v327h87v-280z" />
    <glyph glyph-name="Nacute" unicode="&#x143;" horiz-adv-x="659" 
d="M241 731l-32 60l218 103l31 -59zM80 0v700h97l315 -548v548h87v-700h-96l-315 548v-548h-88z" />
    <glyph glyph-name="nacute" unicode="&#x144;" horiz-adv-x="565" 
d="M151 506l-29 68l274 114l29 -65zM75 0v461h87v-85q19 45 60.5 71t100.5 26q172 0 172 -189v-284h-87v246q0 78 -27.5 115t-88.5 37q-63 0 -96.5 -41t-33.5 -113v-244h-87z" />
    <glyph glyph-name="Ncommaaccent" unicode="&#x145;" horiz-adv-x="659" 
d="M80 0v700h97l315 -548v548h87v-700h-96l-315 548v-548h-88zM285 -206v30q42 0 54 26q9 10 9 30q-5 -9 -20 -9q-23 0 -38 14t-15 35t14.5 35.5t36.5 14.5q29 0 46 -19.5t17 -51.5q0 -105 -104 -105z" />
    <glyph glyph-name="ncommaaccent" unicode="&#x146;" horiz-adv-x="565" 
d="M75 0v461h87v-85q19 45 60.5 71t100.5 26q172 0 172 -189v-284h-87v246q0 78 -27.5 115t-88.5 37q-63 0 -96.5 -41t-33.5 -113v-244h-87zM237 -206v30q42 0 54 26q9 10 9 30q-5 -9 -20 -9q-23 0 -38 14t-15 35t14.5 35.5t36.5 14.5q29 0 46 -19.5t17 -51.5
q0 -105 -104 -105z" />
    <glyph glyph-name="Ncaron" unicode="&#x147;" horiz-adv-x="659" 
d="M329 736l-135 116l46 41l89 -81l90 81l46 -41zM80 0v700h97l315 -548v548h87v-700h-96l-315 548v-548h-88z" />
    <glyph glyph-name="ncaron" unicode="&#x148;" horiz-adv-x="565" 
d="M282 502l-175 146l47 51l128 -111l128 112l47 -52zM75 0v461h87v-85q19 45 60.5 71t100.5 26q172 0 172 -189v-284h-87v246q0 78 -27.5 115t-88.5 37q-63 0 -96.5 -41t-33.5 -113v-244h-87z" />
    <glyph glyph-name="napostrophe" unicode="&#x149;" horiz-adv-x="586" 
d="M55 496q-13 0 -19 2v40q7 -1 18 -1q39 0 51 28q8 19 5 45q-11 -17 -39 -17q-24 0 -39.5 17t-15.5 43q0 27 17.5 44.5t46.5 17.5q36 0 58.5 -27t22.5 -75q0 -55 -28 -86t-78 -31zM97 0v461h87v-85q19 45 60.5 71t100.5 26q172 0 172 -189v-284h-87v246q0 78 -27.5 115
t-88.5 37q-63 0 -96.5 -41t-33.5 -113v-244h-87z" />
    <glyph glyph-name="Eng" unicode="&#x14a;" horiz-adv-x="659" 
d="M492 700h87v-782q0 -66 -36.5 -101.5t-104.5 -35.5q-42 0 -66 11v82q21 -7 52 -7q33 0 48.5 18.5t15.5 59.5v55h-5l-315 548v-548h-88v700h97l315 -548v548z" />
    <glyph glyph-name="eng" unicode="&#x14b;" horiz-adv-x="565" 
d="M323 473q172 0 172 -189v-382q0 -58 -31.5 -89.5t-89.5 -31.5q-42 0 -63 11v79q17 -7 46 -7q51 0 51 62v320q0 78 -27.5 115t-88.5 37q-63 0 -96.5 -41t-33.5 -113v-244h-87v461h87v-85q19 45 60.5 71t100.5 26z" />
    <glyph glyph-name="Omacron" unicode="&#x14c;" horiz-adv-x="797" 
d="M213 768v69h372v-69h-372zM399 -16q-164 0 -262.5 106t-98.5 260t98.5 260t262.5 106t262.5 -106t98.5 -260t-98.5 -260t-262.5 -106zM399 66q122 0 194 82t71 202q1 120 -71 202t-194 82t-194 -82t-72 -202t72 -202t194 -82z" />
    <glyph glyph-name="omacron" unicode="&#x14d;" horiz-adv-x="556" 
d="M119 555v70h318v-70h-318zM278 -12q-110 0 -175 69.5t-65 173.5t65 173t175 69q109 0 174.5 -69.5t65.5 -172.5q0 -104 -65.5 -173.5t-174.5 -69.5zM278 66q71 0 112 46.5t41 118.5q0 71 -41 117.5t-112 46.5t-112.5 -46.5t-41.5 -118.5q0 -71 41.5 -117.5t112.5 -46.5z
" />
    <glyph glyph-name="Obreve" unicode="&#x14e;" horiz-adv-x="797" 
d="M399 734q-68 0 -115 38t-52 97h72q5 -36 31 -54t64 -18t64 18t31 54h72q-5 -59 -52 -97t-115 -38zM399 -16q-164 0 -262.5 106t-98.5 260t98.5 260t262.5 106t262.5 -106t98.5 -260t-98.5 -260t-262.5 -106zM399 66q122 0 194 82t71 202q1 120 -71 202t-194 82t-194 -82
t-72 -202t72 -202t194 -82z" />
    <glyph glyph-name="obreve" unicode="&#x14f;" horiz-adv-x="556" 
d="M278 508q-75 0 -122.5 40t-51.5 111h74q3 -43 30.5 -65t69.5 -22q43 0 70.5 22t30.5 65h74q-5 -71 -52 -111t-123 -40zM278 -12q-110 0 -175 69.5t-65 173.5t65 173t175 69q109 0 174.5 -69.5t65.5 -172.5q0 -104 -65.5 -173.5t-174.5 -69.5zM278 66q71 0 112 46.5
t41 118.5q0 71 -41 117.5t-112 46.5t-112.5 -46.5t-41.5 -118.5q0 -71 41.5 -117.5t112.5 -46.5z" />
    <glyph glyph-name="Ohungarumlaut" unicode="&#x150;" horiz-adv-x="797" 
d="M311 736l-49 21l127 131l78 -30zM489 735l-48 22l127 131l77 -32zM399 -16q-164 0 -262.5 106t-98.5 260t98.5 260t262.5 106t262.5 -106t98.5 -260t-98.5 -260t-262.5 -106zM399 66q122 0 194 82t71 202q1 120 -71 202t-194 82t-194 -82t-72 -202t72 -202t194 -82z" />
    <glyph glyph-name="ohungarumlaut" unicode="&#x151;" horiz-adv-x="556" 
d="M168 497l-43 23l125 166l76 -38zM358 497l-43 23l125 166l76 -38zM278 -12q-110 0 -175 69.5t-65 173.5t65 173t175 69q109 0 174.5 -69.5t65.5 -172.5q0 -104 -65.5 -173.5t-174.5 -69.5zM278 66q71 0 112 46.5t41 118.5q0 71 -41 117.5t-112 46.5t-112.5 -46.5
t-41.5 -118.5q0 -71 41.5 -117.5t112.5 -46.5z" />
    <glyph glyph-name="OE" unicode="&#x152;" horiz-adv-x="879" 
d="M812 618h-280v-229h280v-82h-280v-225h280v-82h-438q-152 0 -244 101.5t-92 248.5t91.5 248.5t244.5 101.5h438v-82zM374 82h67v536h-67q-111 0 -176 -77.5t-65 -190.5t65 -190.5t176 -77.5z" />
    <glyph glyph-name="oe" unicode="&#x153;" horiz-adv-x="915" 
d="M878 257q0 -19 -3 -52h-357q1 -66 40 -103.5t105 -37.5q92 0 122 68h87q-12 -64 -70 -104t-139 -40q-128 0 -191 93q-67 -93 -194 -93q-110 0 -175 69.5t-65 173.5t65 173t175 69q129 0 194 -93q63 93 187 93q98 0 158.5 -60t60.5 -156zM518 272h274q0 61 -35.5 96
t-98.5 35q-62 0 -99.5 -36t-40.5 -95zM278 66q71 0 112 46.5t41 118.5q0 71 -41 117.5t-112 46.5t-112.5 -46.5t-41.5 -118.5q0 -71 41.5 -117.5t112.5 -46.5z" />
    <glyph glyph-name="Racute" unicode="&#x154;" horiz-adv-x="606" 
d="M429 835l-217 -104l-32 60l218 103zM566 458q0 -82 -41 -143t-111 -85l142 -230h-104l-135 217h-146v-217h-91v700h251q103 0 169 -68t66 -174zM171 618v-319h155q65 0 107 45t42 114q0 70 -42 115t-107 45h-155z" />
    <glyph glyph-name="racute" unicode="&#x155;" horiz-adv-x="361" 
d="M42 505l-29 68l274 114l29 -65zM75 0v461h87v-105q13 55 51 83.5t84 28.5q27 0 42 -4v-80q-15 3 -43 3q-65 0 -99.5 -52t-34.5 -133v-202h-87z" />
    <glyph glyph-name="Rcommaaccent" unicode="&#x156;" horiz-adv-x="606" 
d="M566 458q0 -82 -41 -143t-111 -85l142 -230h-104l-135 217h-146v-217h-91v700h251q103 0 169 -68t66 -174zM171 618v-319h155q65 0 107 45t42 114q0 70 -42 115t-107 45h-155zM297 -30q29 0 46 -19.5t17 -51.5q0 -105 -104 -105v30q42 0 54 26q9 10 9 30q-5 -9 -20 -9
q-23 0 -38 14t-15 35t14.5 35.5t36.5 14.5z" />
    <glyph glyph-name="rcommaaccent" unicode="&#x157;" horiz-adv-x="361" 
d="M75 0v461h87v-105q13 55 51 83.5t84 28.5q27 0 42 -4v-80q-15 3 -43 3q-65 0 -99.5 -52t-34.5 -133v-202h-87zM79 -206v30q42 0 54 26q9 10 9 30q-5 -9 -20 -9q-23 0 -38 14t-15 35t14.5 35.5t36.5 14.5q29 0 46 -19.5t17 -51.5q0 -105 -104 -105z" />
    <glyph glyph-name="Rcaron" unicode="&#x158;" horiz-adv-x="606" 
d="M436 852l-136 -116l-135 116l46 41l89 -81l90 81zM566 458q0 -82 -41 -143t-111 -85l142 -230h-104l-135 217h-146v-217h-91v700h251q103 0 169 -68t66 -174zM171 618v-319h155q65 0 107 45t42 114q0 70 -42 115t-107 45h-155z" />
    <glyph glyph-name="rcaron" unicode="&#x159;" horiz-adv-x="361" 
d="M173 501l-175 146l47 51l128 -111l128 112l47 -52zM75 0v461h87v-105q13 55 51 83.5t84 28.5q27 0 42 -4v-80q-15 3 -43 3q-65 0 -99.5 -52t-34.5 -133v-202h-87z" />
    <glyph glyph-name="Sacute" unicode="&#x15a;" horiz-adv-x="557" 
d="M189 731l-32 60l218 103l31 -59zM288 -16q-119 0 -186 63t-67 176h91q0 -73 43.5 -116t117.5 -43q66 0 102 30.5t36 85.5q0 46 -25.5 74t-86.5 49l-116 41q-141 45 -141 184q0 84 61 136t159 52q103 0 165 -58t62 -156h-91q0 65 -36 100.5t-103 35.5q-58 0 -91.5 -28.5
t-33.5 -76.5q0 -44 29 -73t94 -51l108 -38q138 -49 138 -189q0 -89 -62.5 -143.5t-166.5 -54.5z" />
    <glyph glyph-name="sacute" unicode="&#x15b;" horiz-adv-x="450" 
d="M91 506l-29 68l274 114l29 -65zM230 -12q-87 0 -139.5 43.5t-52.5 106.5h86q0 -35 30 -57.5t80 -22.5q39 0 62 18t23 49q0 49 -45 60l-123 32q-99 27 -99 124q0 57 48 94.5t125 37.5q84 0 130.5 -38.5t46.5 -100.5h-86q0 33 -25 52.5t-70 19.5q-36 0 -59.5 -16.5
t-23.5 -44.5q0 -47 51 -59l115 -32q49 -13 76 -46t27 -75q0 -66 -47 -105.5t-130 -39.5z" />
    <glyph glyph-name="Scircumflex" unicode="&#x15c;" horiz-adv-x="557" 
d="M275 892l135 -116l-46 -41l-89 81l-90 -81l-46 41zM288 -16q-119 0 -186 63t-67 176h91q0 -73 43.5 -116t117.5 -43q66 0 102 30.5t36 85.5q0 46 -25.5 74t-86.5 49l-116 41q-141 45 -141 184q0 84 61 136t159 52q103 0 165 -58t62 -156h-91q0 65 -36 100.5t-103 35.5
q-58 0 -91.5 -28.5t-33.5 -76.5q0 -44 29 -73t94 -51l108 -38q138 -49 138 -189q0 -89 -62.5 -143.5t-166.5 -54.5z" />
    <glyph glyph-name="scircumflex" unicode="&#x15d;" horiz-adv-x="450" 
d="M222 698l175 -146l-47 -52l-128 112l-128 -111l-47 51zM230 -12q-87 0 -139.5 43.5t-52.5 106.5h86q0 -35 30 -57.5t80 -22.5q39 0 62 18t23 49q0 49 -45 60l-123 32q-99 27 -99 124q0 57 48 94.5t125 37.5q84 0 130.5 -38.5t46.5 -100.5h-86q0 33 -25 52.5t-70 19.5
q-36 0 -59.5 -16.5t-23.5 -44.5q0 -47 51 -59l115 -32q49 -13 76 -46t27 -75q0 -66 -47 -105.5t-130 -39.5z" />
    <glyph glyph-name="Scedilla" unicode="&#x15e;" horiz-adv-x="557" 
d="M517 182q0 -86 -58 -140t-155 -58v-47q13 15 46 15q32 0 54 -21.5t22 -58.5q0 -38 -24 -63t-67 -25q-37 0 -60 19t-26 53h46q1 -14 12 -23t27 -9q43 0 43 47q0 46 -41 46q-26 0 -38 -20h-41v88q-105 8 -163.5 70.5t-58.5 167.5h91q0 -73 43.5 -116t117.5 -43
q66 0 102 30.5t36 85.5q0 46 -25.5 74t-86.5 49l-116 41q-141 45 -141 184q0 84 61 136t159 52q103 0 165 -58t62 -156h-91q0 65 -36 100.5t-103 35.5q-58 0 -91.5 -28.5t-33.5 -76.5q0 -44 29 -73t94 -51l108 -38q138 -49 138 -189z" />
    <glyph glyph-name="scedilla" unicode="&#x15f;" horiz-adv-x="450" 
d="M407 133q0 -63 -43 -102t-119 -43v-51q13 15 46 15q32 0 54 -21.5t22 -58.5q0 -38 -24 -63t-67 -25q-37 0 -60 19t-26 53h46q1 -14 12 -23t27 -9q43 0 43 47q0 46 -41 46q-26 0 -38 -20h-41v93q-73 8 -116.5 50t-43.5 98h86q0 -35 30 -57.5t80 -22.5q39 0 62 18t23 49
q0 49 -45 60l-123 32q-99 27 -99 124q0 57 48 94.5t125 37.5q84 0 130.5 -38.5t46.5 -100.5h-86q0 33 -25 52.5t-70 19.5q-36 0 -59.5 -16.5t-23.5 -44.5q0 -47 51 -59l115 -32q49 -13 76 -46t27 -75z" />
    <glyph glyph-name="Scaron" unicode="&#x160;" horiz-adv-x="557" 
d="M277 736l-135 116l46 41l89 -81l90 81l46 -41zM288 -16q-119 0 -186 63t-67 176h91q0 -73 43.5 -116t117.5 -43q66 0 102 30.5t36 85.5q0 46 -25.5 74t-86.5 49l-116 41q-141 45 -141 184q0 84 61 136t159 52q103 0 165 -58t62 -156h-91q0 65 -36 100.5t-103 35.5
q-58 0 -91.5 -28.5t-33.5 -76.5q0 -44 29 -73t94 -51l108 -38q138 -49 138 -189q0 -89 -62.5 -143.5t-166.5 -54.5z" />
    <glyph glyph-name="scaron" unicode="&#x161;" horiz-adv-x="450" 
d="M222 502l-175 146l47 51l128 -111l128 112l47 -52zM230 -12q-87 0 -139.5 43.5t-52.5 106.5h86q0 -35 30 -57.5t80 -22.5q39 0 62 18t23 49q0 49 -45 60l-123 32q-99 27 -99 124q0 57 48 94.5t125 37.5q84 0 130.5 -38.5t46.5 -100.5h-86q0 33 -25 52.5t-70 19.5
q-36 0 -59.5 -16.5t-23.5 -44.5q0 -47 51 -59l115 -32q49 -13 76 -46t27 -75q0 -66 -47 -105.5t-130 -39.5z" />
    <glyph glyph-name="uni0162" unicode="&#x162;" horiz-adv-x="521" 
d="M306 0h-22v-63q13 15 46 15q32 0 54 -21.5t22 -58.5q0 -38 -24 -63t-67 -25q-37 0 -60 19t-26 53h46q1 -14 12 -23t27 -9q43 0 43 47q0 46 -41 46q-26 0 -38 -20h-41v103h-22v614h-209v86h509v-86h-209v-614z" />
    <glyph glyph-name="uni0163" unicode="&#x163;" horiz-adv-x="356" 
d="M302 -48q32 0 54 -21.5t22 -58.5q0 -38 -24 -63t-67 -25q-37 0 -60 19t-26 53h46q1 -14 12 -23t27 -9q43 0 43 47q0 46 -41 46q-26 0 -38 -20h-41v100q-102 17 -102 156v235h-83v73h83v146h87v-146h116v-73h-116v-216q0 -61 18 -80t56 -19q36 0 58 5v-77q-28 -7 -70 -7
v-57q13 15 46 15z" />
    <glyph glyph-name="Tcaron" unicode="&#x164;" horiz-adv-x="521" 
d="M260 736l-135 116l46 41l89 -81l90 81l46 -41zM215 0v614h-209v86h509v-86h-209v-614h-91z" />
    <glyph glyph-name="tcaron" unicode="&#x165;" horiz-adv-x="378" 
d="M300 714q33 0 54 -25.5t21 -69.5q0 -51 -26 -80t-72 -29q-13 0 -18 2v37q6 -1 17 -1q34 0 47 26q7 17 5 42q-11 -16 -37 -16q-22 0 -36.5 16t-14.5 40q0 25 16.5 41.5t43.5 16.5zM194 172q0 -61 18 -80t56 -19q36 0 58 5v-77q-30 -7 -77 -7q-21 0 -36.5 2t-36.5 11
t-35 25.5t-24 47t-10 73.5v235h-83v73h83v146h87v-146h116v-73h-116v-216z" />
    <glyph glyph-name="Tbar" unicode="&#x166;" horiz-adv-x="521" 
d="M515 614h-209v-158h145v-66h-145v-390h-91v390h-144v66h144v158h-209v86h509v-86z" />
    <glyph glyph-name="tbar" unicode="&#x167;" horiz-adv-x="360" 
d="M272 73q36 0 58 5v-77q-30 -7 -77 -7q-21 0 -36.5 2t-36.5 11t-35 25.5t-24 47t-10 73.5v64h-87v59h87v112h-83v73h83v146h87v-146h116v-73h-116v-112h115v-59h-115v-45q0 -61 18 -80t56 -19z" />
    <glyph glyph-name="Utilde" unicode="&#x168;" horiz-adv-x="635" 
d="M398 739q-38 -3 -89 29.5t-72 32.5q-41 0 -74 -46l-37 35q46 77 105 77q34 0 85.5 -31t75.5 -31q46 0 80 48l37 -39q-41 -73 -111 -75zM318 -16q-118 0 -186.5 64t-68.5 182v470h91v-465q0 -82 44 -125.5t120 -43.5t119.5 43.5t43.5 125.5v465h92v-470q0 -118 -68.5 -182
t-186.5 -64z" />
    <glyph glyph-name="utilde" unicode="&#x169;" horiz-adv-x="562" 
d="M357 531q-29 0 -75 28.5t-68 28.5q-37 0 -71 -42l-33 47q41 67 100 67q27 0 73.5 -28.5t68.5 -28.5q36 0 69 41l34 -46q-40 -67 -98 -67zM245 -12q-80 0 -127.5 48.5t-47.5 140.5v284h87v-263q0 -135 112 -135q66 0 98.5 42.5t32.5 103.5v252h87v-461h-87v84
q-19 -44 -59.5 -70t-95.5 -26z" />
    <glyph glyph-name="Umacron" unicode="&#x16a;" horiz-adv-x="635" 
d="M132 768v69h372v-69h-372zM318 -16q-118 0 -186.5 64t-68.5 182v470h91v-465q0 -82 44 -125.5t120 -43.5t119.5 43.5t43.5 125.5v465h92v-470q0 -118 -68.5 -182t-186.5 -64z" />
    <glyph glyph-name="umacron" unicode="&#x16b;" horiz-adv-x="562" 
d="M123 555v70h318v-70h-318zM245 -12q-80 0 -127.5 48.5t-47.5 140.5v284h87v-263q0 -135 112 -135q66 0 98.5 42.5t32.5 103.5v252h87v-461h-87v84q-19 -44 -59.5 -70t-95.5 -26z" />
    <glyph glyph-name="Ubreve" unicode="&#x16c;" horiz-adv-x="635" 
d="M318 734q-68 0 -115 38t-52 97h72q5 -36 31 -54t64 -18t64 18t31 54h72q-5 -59 -52 -97t-115 -38zM318 -16q-118 0 -186.5 64t-68.5 182v470h91v-465q0 -82 44 -125.5t120 -43.5t119.5 43.5t43.5 125.5v465h92v-470q0 -118 -68.5 -182t-186.5 -64z" />
    <glyph glyph-name="ubreve" unicode="&#x16d;" horiz-adv-x="562" 
d="M282 508q-75 0 -122.5 40t-51.5 111h74q3 -43 30.5 -65t69.5 -22q43 0 70.5 22t30.5 65h74q-5 -71 -52 -111t-123 -40zM245 -12q-80 0 -127.5 48.5t-47.5 140.5v284h87v-263q0 -135 112 -135q66 0 98.5 42.5t32.5 103.5v252h87v-461h-87v84q-19 -44 -59.5 -70t-95.5 -26z
" />
    <glyph glyph-name="Uring" unicode="&#x16e;" horiz-adv-x="635" 
d="M318 656q-52 0 -89 36t-37 86t37 85.5t89 35.5t89 -35.5t37 -85.5t-37 -86t-89 -36zM318 709q29 0 49 20t20 49t-20 48.5t-49 19.5t-49 -19.5t-20 -48.5t20 -49t49 -20zM318 -16q-118 0 -186.5 64t-68.5 182v470h91v-465q0 -82 44 -125.5t120 -43.5t119.5 43.5
t43.5 125.5v465h92v-470q0 -118 -68.5 -182t-186.5 -64z" />
    <glyph glyph-name="uring" unicode="&#x16f;" horiz-adv-x="562" 
d="M282 500q-47 0 -79 31t-32 78t32 78t79 31t79 -31t32 -78t-32 -78t-79 -31zM282 545q26 0 43.5 18t17.5 46t-17.5 46t-43.5 18t-43.5 -18t-17.5 -46t17.5 -46t43.5 -18zM245 -12q-80 0 -127.5 48.5t-47.5 140.5v284h87v-263q0 -135 112 -135q66 0 98.5 42.5t32.5 103.5
v252h87v-461h-87v84q-19 -44 -59.5 -70t-95.5 -26z" />
    <glyph glyph-name="Uhungarumlaut" unicode="&#x170;" horiz-adv-x="635" 
d="M230 736l-49 21l127 131l78 -30zM408 735l-48 22l127 131l77 -32zM318 -16q-118 0 -186.5 64t-68.5 182v470h91v-465q0 -82 44 -125.5t120 -43.5t119.5 43.5t43.5 125.5v465h92v-470q0 -118 -68.5 -182t-186.5 -64z" />
    <glyph glyph-name="uhungarumlaut" unicode="&#x171;" horiz-adv-x="562" 
d="M172 497l-43 23l125 166l76 -38zM362 497l-43 23l125 166l76 -38zM245 -12q-80 0 -127.5 48.5t-47.5 140.5v284h87v-263q0 -135 112 -135q66 0 98.5 42.5t32.5 103.5v252h87v-461h-87v84q-19 -44 -59.5 -70t-95.5 -26z" />
    <glyph glyph-name="Uogonek" unicode="&#x172;" horiz-adv-x="635" 
d="M481 700h92v-470q0 -98 -48 -159.5t-134 -79.5q-63 -25 -63 -79q0 -26 16.5 -42t43.5 -16q28 0 57 13l-1 -64q-39 -15 -79 -15q-53 0 -85 28t-32 70q0 56 59 98q-114 3 -179 67t-65 179v470h91v-465q0 -82 44 -125.5t120 -43.5t119.5 43.5t43.5 125.5v465z" />
    <glyph glyph-name="uogonek" unicode="&#x173;" horiz-adv-x="562" 
d="M455 -146q28 0 57 13l-1 -64q-39 -15 -79 -15q-53 0 -85 28t-32 70q0 68 85 114v84q-19 -44 -59.5 -70t-95.5 -26q-80 0 -127.5 48.5t-47.5 140.5v284h87v-263q0 -135 112 -135q66 0 98.5 42.5t32.5 103.5v252h87v-461q-48 -10 -70 -34.5t-22 -53.5q0 -26 16.5 -42
t43.5 -16z" />
    <glyph glyph-name="Wcircumflex" unicode="&#x174;" horiz-adv-x="958" 
d="M477 892l135 -116l-46 -41l-89 81l-90 -81l-46 41zM242 0l-239 700h96l179 -550l167 550h69l166 -550l180 550h96l-240 -700h-67l-170 542l-169 -542h-68z" />
    <glyph glyph-name="wcircumflex" unicode="&#x175;" horiz-adv-x="745" 
d="M373 698l175 -146l-47 -52l-128 112l-128 -111l-47 51zM178 0l-170 461h95l111 -336l112 336h93l112 -336l111 336h96l-171 -461h-74l-121 354l-120 -354h-74z" />
    <glyph glyph-name="Ycircumflex" unicode="&#x176;" horiz-adv-x="552" 
d="M285 816l-90 -81l-46 41l136 116l135 -116l-46 -41zM467 700h100l-352 -700h-101l141 278l-265 422h106l205 -328z" />
    <glyph glyph-name="ycircumflex" unicode="&#x177;" horiz-adv-x="567" 
d="M277 698l175 -146l-47 -52l-128 112l-128 -111l-47 51zM405 461h87v-470q0 -109 -63 -166q-56 -50 -151 -50q-100 0 -156 48q-51 43 -52 119h88q5 -94 119 -94q128 0 128 149v86q-46 -95 -160 -95q-87 0 -131 53.5t-44 144.5v275h87v-257q0 -67 26.5 -102.5t90.5 -35.5
q63 0 97 45.5t34 112.5v237z" />
    <glyph glyph-name="Ydieresis" unicode="&#x178;" horiz-adv-x="552" 
d="M169 747q-28 0 -47 19.5t-19 47.5t19 47.5t47 19.5q29 0 48.5 -19.5t19.5 -47.5t-20 -47.5t-48 -19.5zM406 747q-28 0 -47.5 19.5t-19.5 47.5t19.5 47.5t47.5 19.5t47.5 -19.5t19.5 -47.5t-19.5 -47.5t-47.5 -19.5zM467 700h100l-352 -700h-101l141 278l-265 422h106
l205 -328z" />
    <glyph glyph-name="Zacute" unicode="&#x179;" horiz-adv-x="573" 
d="M211 731l-32 60l218 103l31 -59zM23 0l366 618h-329v82h481l-363 -618h359v-82h-514z" />
    <glyph glyph-name="zacute" unicode="&#x17a;" horiz-adv-x="440" 
d="M86 506l-29 68l274 114l29 -65zM13 0l270 387h-251v74h397l-271 -388h258v-73h-403z" />
    <glyph glyph-name="Zdotaccent" unicode="&#x17b;" horiz-adv-x="573" 
d="M300 744q-30 0 -48.5 19.5t-18.5 48.5q0 28 19 47.5t48 19.5t48 -19.5t19 -47.5q0 -29 -18.5 -48.5t-48.5 -19.5zM23 0l366 618h-329v82h481l-363 -618h359v-82h-514z" />
    <glyph glyph-name="zdotaccent" unicode="&#x17c;" horiz-adv-x="440" 
d="M217 540q-31 0 -51 20t-20 50t20 50.5t51 20.5q30 0 50 -20.5t20 -50.5t-20 -50t-50 -20zM13 0l270 387h-251v74h397l-271 -388h258v-73h-403z" />
    <glyph glyph-name="Zcaron" unicode="&#x17d;" horiz-adv-x="573" 
d="M299 736l-135 116l46 41l89 -81l90 81l46 -41zM23 0l366 618h-329v82h481l-363 -618h359v-82h-514z" />
    <glyph glyph-name="zcaron" unicode="&#x17e;" horiz-adv-x="440" 
d="M217 502l-175 146l47 51l128 -111l128 112l47 -52zM13 0l270 387h-251v74h397l-271 -388h258v-73h-403z" />
    <glyph glyph-name="florin" unicode="&#x192;" horiz-adv-x="430" 
d="M376 614q-41 0 -63.5 -21t-32.5 -76l-11 -63h129l-13 -73h-129l-78 -434q-30 -166 -169 -166q-44 0 -75 12l12 74q21 -8 50 -8q41 0 63.5 19t31.5 68l78 435h-99l13 73h99l12 64q30 173 177 173q44 0 68 -11l-13 -74q-24 8 -50 8z" />
    <glyph glyph-name="AEacute" unicode="&#x1fc;" horiz-adv-x="841" 
d="M717 835l-217 -104l-32 60l218 103zM773 618h-276v-229h276v-82h-276v-225h276v-82h-367v111h-241l-53 -111h-99l348 700h412v-82zM203 190h203v426z" />
    <glyph glyph-name="aeacute" unicode="&#x1fd;" horiz-adv-x="871" 
d="M587 623l-274 -117l-29 68l274 114zM833 255q0 -29 -2 -52h-358q2 -66 41.5 -103t105.5 -37q91 0 120 74h88q-12 -67 -70 -109t-138 -42q-129 0 -191 101q-62 -99 -203 -99q-82 0 -132.5 36.5t-50.5 97.5q0 75 54 113q29 20 70.5 27t121.5 7h104v40q0 42 -29.5 68
t-92.5 26q-119 0 -125 -93h-87q4 74 62.5 118.5t150.5 44.5q127 0 176 -76q63 74 168 74q96 0 156.5 -60.5t60.5 -155.5zM474 270h274q0 61 -35.5 97t-96.5 36q-62 0 -101.5 -36.5t-40.5 -96.5zM393 183v20h-136q-126 0 -126 -74q0 -72 112 -72q61 0 105.5 32.5t44.5 93.5z
" />
    <glyph glyph-name="Oslashacute" unicode="&#x1fe;" horiz-adv-x="797" 
d="M530 835l-217 -104l-32 60l218 103zM576 675q87 -46 135.5 -133t48.5 -192q0 -154 -98.5 -260t-262.5 -106q-61 0 -112 15l-36 -83l-62 27l35 81q-88 46 -137 133t-49 193q0 154 98.5 260t262.5 106q59 0 115 -16l34 80l61 -27zM133 350q0 -79 32.5 -144.5t92.5 -101.5
l223 519q-39 11 -82 11q-122 0 -194 -82t-72 -202zM399 66q122 0 194 82t71 202q1 78 -31 143t-91 102l-222 -518q38 -11 79 -11z" />
    <glyph glyph-name="oslashacute" unicode="&#x1ff;" horiz-adv-x="556" 
d="M420 616l-274 -117l-29 68l274 114zM405 441q54 -31 83.5 -86.5t29.5 -123.5q0 -104 -65.5 -173.5t-174.5 -69.5q-32 0 -66 8l-30 -71l-51 22l29 68q-58 30 -90 87t-32 129q0 104 65 173t175 69q38 0 76 -10l29 66l50 -22zM124 230q0 -97 69 -140l130 299q-21 6 -45 6
q-71 0 -112.5 -46.5t-41.5 -118.5zM278 66q71 0 112 46.5t41 118.5q0 89 -59 134l-128 -296q17 -3 34 -3z" />
    <glyph glyph-name="Scommaaccent" unicode="&#x218;" horiz-adv-x="557" 
d="M288 -16q-119 0 -186 63t-67 176h91q0 -73 43.5 -116t117.5 -43q66 0 102 30.5t36 85.5q0 46 -25.5 74t-86.5 49l-116 41q-141 45 -141 184q0 84 61 136t159 52q103 0 165 -58t62 -156h-91q0 65 -36 100.5t-103 35.5q-58 0 -91.5 -28.5t-33.5 -76.5q0 -44 29 -73t94 -51
l108 -38q138 -49 138 -189q0 -89 -62.5 -143.5t-166.5 -54.5zM236 -206v30q42 0 54 26q9 10 9 30q-5 -9 -20 -9q-23 0 -38 14t-15 35t14.5 35.5t36.5 14.5q29 0 46 -19.5t17 -51.5q0 -105 -104 -105z" />
    <glyph glyph-name="scommaaccent" unicode="&#x219;" horiz-adv-x="450" 
d="M230 -12q-87 0 -139.5 43.5t-52.5 106.5h86q0 -35 30 -57.5t80 -22.5q39 0 62 18t23 49q0 49 -45 60l-123 32q-99 27 -99 124q0 57 48 94.5t125 37.5q84 0 130.5 -38.5t46.5 -100.5h-86q0 33 -25 52.5t-70 19.5q-36 0 -59.5 -16.5t-23.5 -44.5q0 -47 51 -59l115 -32
q49 -13 76 -46t27 -75q0 -66 -47 -105.5t-130 -39.5zM177 -206v30q42 0 54 26q9 10 9 30q-5 -9 -20 -9q-23 0 -38 14t-15 35t14.5 35.5t36.5 14.5q29 0 46 -19.5t17 -51.5q0 -105 -104 -105z" />
    <glyph glyph-name="uni021A" unicode="&#x21a;" horiz-adv-x="521" 
d="M215 0v614h-209v86h509v-86h-209v-614h-91zM216 -206v30q42 0 54 26q9 10 9 30q-5 -9 -20 -9q-23 0 -38 14t-15 35t14.5 35.5t36.5 14.5q29 0 46 -19.5t17 -51.5q0 -105 -104 -105z" />
    <glyph glyph-name="uni021B" unicode="&#x21b;" horiz-adv-x="356" 
d="M268 73q36 0 58 5v-77q-30 -7 -77 -7q-21 0 -36.5 2t-36.5 11t-35 25.5t-24 47t-10 73.5v235h-83v73h83v146h87v-146h116v-73h-116v-216q0 -61 18 -80t56 -19zM229 -30q29 0 46 -19.5t17 -51.5q0 -105 -104 -105v30q42 0 54 26q9 10 9 30q-5 -9 -20 -9q-23 0 -38 14
t-15 35t14.5 35.5t36.5 14.5z" />
    <glyph glyph-name="uni0237" unicode="&#x237;" horiz-adv-x="240" 
d="M44 -219q-43 0 -64 11v79q19 -7 47 -7q51 0 51 62v535h87v-559q0 -58 -31.5 -89.5t-89.5 -31.5z" />
    <glyph glyph-name="uni0243" unicode="&#x243;" horiz-adv-x="582" 
d="M537 186q0 -76 -46 -124t-127 -59v-102h-66v99h-60v-99h-66v99h-92v681h92v99h66v-99h60v99h66v-103q78 -12 121 -57t43 -116q0 -67 -35 -107t-97 -50q60 -6 100.5 -49.5t40.5 -111.5zM307 601h-136v-216h142q57 0 90.5 29t33.5 79q0 51 -34.5 79.5t-95.5 28.5zM319 81
q59 0 93 30t34 84q0 49 -33.5 80t-86.5 31h-155v-225h148z" />
    <glyph glyph-name="uni02BC" unicode="&#x2bc;" horiz-adv-x="276" 
d="M134 740q33 0 59 -28t26 -80q0 -59 -32 -96t-89 -37q-19 0 -31 3v40q11 -2 31 -2q40 0 55 33q14 21 14 50q-12 -15 -38 -15q-27 0 -45.5 18t-18.5 47t19 48t50 19z" />
    <glyph glyph-name="circumflex" unicode="&#x2c6;" horiz-adv-x="600" 
d="M209 698l175 -146l-47 -52l-128 112l-128 -111l-47 51z" />
    <glyph glyph-name="caron" unicode="&#x2c7;" horiz-adv-x="600" 
d="M209 502l-175 146l47 51l128 -111l128 112l47 -52z" />
    <glyph glyph-name="breve" unicode="&#x2d8;" horiz-adv-x="600" 
d="M234 508q-75 0 -122.5 40t-51.5 111h74q3 -43 30.5 -65t69.5 -22q43 0 70.5 22t30.5 65h74q-5 -71 -52 -111t-123 -40z" />
    <glyph glyph-name="dotaccent" unicode="&#x2d9;" horiz-adv-x="600" 
d="M300 540q-31 0 -51 20t-20 50t20 50.5t51 20.5q30 0 50 -20.5t20 -50.5t-20 -50t-50 -20z" />
    <glyph glyph-name="ring" unicode="&#x2da;" horiz-adv-x="600" 
d="M158 481q-47 0 -79 31t-32 78t32 78t79 31t79 -31t32 -78t-32 -78t-79 -31zM158 526q26 0 43.5 18t17.5 46t-17.5 46t-43.5 18t-43.5 -18t-17.5 -46t17.5 -46t43.5 -18z" />
    <glyph glyph-name="ogonek" unicode="&#x2db;" horiz-adv-x="600" 
d="M152 -212q-53 0 -85 28t-32 70q0 68 85 114h87q-48 -10 -70 -34.5t-22 -53.5q0 -26 16.5 -42t43.5 -16q28 0 57 13l-1 -64q-39 -15 -79 -15z" />
    <glyph glyph-name="tilde" unicode="&#x2dc;" horiz-adv-x="600" 
d="M291 531q-29 0 -75 28.5t-68 28.5q-37 0 -71 -42l-33 47q41 67 100 67q27 0 73.5 -28.5t68.5 -28.5q36 0 69 41l34 -46q-40 -67 -98 -67z" />
    <glyph glyph-name="hungarumlaut" unicode="&#x2dd;" horiz-adv-x="600" 
d="M90 497l-43 23l125 166l76 -38zM280 497l-43 23l125 166l76 -38z" />
    <glyph glyph-name="gravecomb" unicode="&#x300;" horiz-adv-x="0" 
d="M-85 506l-274 117l29 65l274 -114z" />
    <glyph glyph-name="acutecomb" unicode="&#x301;" horiz-adv-x="0" 
d="M-284 506l-29 68l274 114l29 -65z" />
    <glyph glyph-name="uni0302" unicode="&#x302;" horiz-adv-x="0" 
d="M-209 698l175 -146l-47 -52l-128 112l-128 -111l-47 51z" />
    <glyph glyph-name="tildecomb" unicode="&#x303;" horiz-adv-x="0" 
d="M-138 531q-29 0 -75 28.5t-68 28.5q-37 0 -71 -42l-33 47q41 67 100 67q27 0 73.5 -28.5t68.5 -28.5q36 0 69 41l34 -46q-40 -67 -98 -67z" />
    <glyph glyph-name="uni0304" unicode="&#x304;" horiz-adv-x="0" 
d="M-386 555v70h318v-70h-318z" />
    <glyph glyph-name="uni0306" unicode="&#x306;" horiz-adv-x="0" 
d="M-235 508q-75 0 -122.5 40t-51.5 111h74q3 -43 30.5 -65t69.5 -22q43 0 70.5 22t30.5 65h74q-5 -71 -52 -111t-123 -40z" />
    <glyph glyph-name="uni0307" unicode="&#x307;" horiz-adv-x="0" 
d="M-111 540q-31 0 -51 20t-20 50t20 50.5t51 20.5q30 0 50 -20.5t20 -50.5t-20 -50t-50 -20z" />
    <glyph glyph-name="uni0308" unicode="&#x308;" horiz-adv-x="0" 
d="M-328 539q-28 0 -47.5 19.5t-19.5 47.5t19.5 47.5t47.5 19.5t47.5 -19.5t19.5 -47.5t-19.5 -47.5t-47.5 -19.5zM-128 539q-28 0 -47.5 19.5t-19.5 47.5t19.5 47.5t47.5 19.5t47.5 -19.5t19.5 -47.5t-19.5 -47.5t-47.5 -19.5z" />
    <glyph glyph-name="uni030A" unicode="&#x30a;" horiz-adv-x="0" 
d="M-157 481q-47 0 -79 31t-32 78t32 78t79 31t79 -31t32 -78t-32 -78t-79 -31zM-157 526q26 0 43.5 18t17.5 46t-17.5 46t-43.5 18t-43.5 -18t-17.5 -46t17.5 -46t43.5 -18z" />
    <glyph glyph-name="uni030B" unicode="&#x30b;" horiz-adv-x="0" 
d="M-380 497l-43 23l125 166l76 -38zM-190 497l-43 23l125 166l76 -38z" />
    <glyph glyph-name="uni030C" unicode="&#x30c;" horiz-adv-x="0" 
d="M-209 502l-175 146l47 51l128 -111l128 112l47 -52z" />
    <glyph glyph-name="uni0312" unicode="&#x312;" horiz-adv-x="0" 
d="M-405 693v-31q-40 0 -54 -24q-14 -15 -12 -32q4 10 23 10q21 0 35 -15t14 -36q0 -22 -15 -36.5t-38 -14.5q-27 0 -44.5 22.5t-17.5 57.5q0 45 29 72t80 27z" />
    <glyph glyph-name="uni0326" unicode="&#x326;" horiz-adv-x="0" 
d="M-147 -206v30q42 0 54 26q9 10 9 30q-5 -9 -20 -9q-23 0 -38 14t-15 35t14.5 35.5t36.5 14.5q29 0 46 -19.5t17 -51.5q0 -105 -104 -105z" />
    <glyph glyph-name="uni0327" unicode="&#x327;" horiz-adv-x="0" 
d="M-134 -216q-37 0 -60 19t-26 53h46q1 -14 12 -23t27 -9q43 0 43 47q0 46 -41 46q-26 0 -38 -20h-41v103h47v-63q13 15 46 15q32 0 54 -21.5t22 -58.5q0 -38 -24 -63t-67 -25z" />
    <glyph glyph-name="uni0328" unicode="&#x328;" horiz-adv-x="0" 
d="M-124 -212q-53 0 -85 28t-32 70q0 68 85 114h87q-48 -10 -70 -34.5t-22 -53.5q0 -26 16.5 -42t43.5 -16q28 0 57 13l-1 -64q-39 -15 -79 -15z" />
    <glyph glyph-name="uni0394" unicode="&#x394;" horiz-adv-x="584" 
d="M18 0l241 700h66l242 -700h-549zM144 82h296l-148 469z" />
    <glyph glyph-name="uni03A9" unicode="&#x3a9;" horiz-adv-x="702" 
d="M58 0v82h183v28q-93 32 -148 110.5t-55 178.5q0 131 85.5 222t227.5 91t227.5 -91t85.5 -222q0 -100 -55 -179t-148 -110v-28h183v-82h-255v160q88 17 136 85t48 158q0 96 -59 161.5t-163 65.5t-163 -65.5t-59 -161.5q0 -90 48 -158t136 -85v-160h-255z" />
    <glyph glyph-name="uni03BC" unicode="&#x3bc;" horiz-adv-x="567" 
d="M405 461h87v-461h-87v84q-19 -44 -59.5 -70t-95.5 -26q-51 0 -88 19v-220h-87v674h87v-263q0 -135 112 -135q66 0 98.5 42.5t32.5 103.5v252z" />
    <glyph glyph-name="pi" unicode="&#x3c0;" horiz-adv-x="629" 
d="M138 0v377h-63v77h479v-77h-63v-377h-86v377h-181v-377h-86z" />
    <glyph glyph-name="uni0401" unicode="&#x401;" horiz-adv-x="545" 
d="M166 747q-28 0 -47 19.5t-19 47.5t19 47.5t47 19.5q29 0 48.5 -19.5t19.5 -47.5t-20 -47.5t-48 -19.5zM403 747q-28 0 -47.5 19.5t-19.5 47.5t19.5 47.5t47.5 19.5t47.5 -19.5t19.5 -47.5t-19.5 -47.5t-47.5 -19.5zM80 0v700h398v-82h-307v-229h307v-82h-307v-225h307
v-82h-398z" />
    <glyph glyph-name="uni0402" unicode="&#x402;" horiz-adv-x="711" 
d="M449 482q95 0 159.5 -64t64.5 -176q0 -127 -62 -190t-178 -63q-30 0 -51 5v80q22 -4 40 -4q78 0 119 43t41 124q0 83 -41 122.5t-109 39.5q-77 0 -126 -35v-364h-91v614h-209v86h509v-86h-209v-168q59 36 143 36z" />
    <glyph glyph-name="uni0403" unicode="&#x403;" horiz-adv-x="479" 
d="M197 731l-32 60l218 103l31 -59zM80 700h393v-86h-302v-614h-91v700z" />
    <glyph glyph-name="uni0404" unicode="&#x404;" horiz-adv-x="739" 
d="M388 66q85 0 143 42t73 111h99q-20 -106 -105 -170.5t-210 -64.5q-156 0 -253 101t-97 265t97 265t253 101q122 0 207.5 -63t107.5 -170h-99q-16 68 -74 109.5t-142 41.5q-104 0 -172.5 -65.5t-80.5 -176.5h346v-83h-346q12 -112 80 -177.5t173 -65.5z" />
    <glyph glyph-name="uni0405" unicode="&#x405;" horiz-adv-x="557" 
d="M288 -16q-119 0 -186 63t-67 176h91q0 -73 43.5 -116t117.5 -43q66 0 102 30.5t36 85.5q0 46 -25.5 74t-86.5 49l-116 41q-141 45 -141 184q0 84 61 136t159 52q103 0 165 -58t62 -156h-91q0 65 -36 100.5t-103 35.5q-58 0 -91.5 -28.5t-33.5 -76.5q0 -44 29 -73t94 -51
l108 -38q138 -49 138 -189q0 -89 -62.5 -143.5t-166.5 -54.5z" />
    <glyph glyph-name="uni0406" unicode="&#x406;" horiz-adv-x="251" 
d="M80 0v700h91v-700h-91z" />
    <glyph glyph-name="uni0407" unicode="&#x407;" horiz-adv-x="251" 
d="M55 751q-27 0 -44.5 17.5t-17.5 44.5t17.5 44.5t44.5 17.5t44.5 -17.5t17.5 -44.5t-17.5 -44.5t-44.5 -17.5zM197 751q-26 0 -44 17.5t-18 44.5t18 44.5t44 17.5q27 0 45 -17.5t18 -44.5t-18 -44.5t-45 -17.5zM80 0v700h91v-700h-91z" />
    <glyph glyph-name="uni0408" unicode="&#x408;" horiz-adv-x="536" 
d="M249 -16q-104 0 -165 64.5t-61 173.5h91q0 -72 36.5 -114t98.5 -42q63 0 98.5 42.5t35.5 115.5v476h91v-476q0 -110 -60 -175t-165 -65z" />
    <glyph glyph-name="uni0409" unicode="&#x409;" horiz-adv-x="994" 
d="M763 400q86 0 141.5 -58.5t55.5 -141.5t-56 -141.5t-142 -58.5h-259v619h-262v-357q0 -268 -180 -268h-40v86h26q51 0 77 41.5t26 142.5v436h444v-300h169zM762 82q46 0 76.5 34.5t30.5 83.5t-30 83.5t-76 34.5h-169v-236h168z" />
    <glyph glyph-name="uni040A" unicode="&#x40a;" horiz-adv-x="988" 
d="M757 400q86 0 141.5 -58.5t55.5 -141.5t-56 -141.5t-142 -58.5h-259v307h-326v-307h-91v700h91v-311h326v311h91v-300h169zM756 82q46 0 76.5 34.5t30.5 83.5t-30 83.5t-76 34.5h-169v-236h168z" />
    <glyph glyph-name="uni040B" unicode="&#x40b;" horiz-adv-x="739" 
d="M458 478q100 0 155.5 -61t55.5 -157v-260h-91v237q0 159 -144 159q-82 0 -128 -37v-359h-91v614h-209v86h509v-86h-209v-173q58 37 152 37z" />
    <glyph glyph-name="uni040C" unicode="&#x40c;" horiz-adv-x="597" 
d="M431 835l-217 -104l-32 60l218 103zM265 358l319 -358h-116l-297 344v-344h-91v700h91v-300h30q47 0 76 52l99 156q32 52 59.5 74t67.5 22h54v-83h-35q-22 0 -38 -12.5t-39 -48.5l-97 -156q-28 -46 -71 -46h-12z" />
    <glyph glyph-name="uni040E" unicode="&#x40e;" horiz-adv-x="552" 
d="M288 734q-68 0 -115 38t-52 97h72q5 -36 31 -54t64 -18t64 18t31 54h72q-5 -59 -52 -97t-115 -38zM467 700h100l-352 -700h-101l141 278l-265 422h106l205 -328z" />
    <glyph glyph-name="uni040F" unicode="&#x40f;" horiz-adv-x="646" 
d="M566 700v-700h-198v-120h-91v120h-197v700h91v-618h304v618h91z" />
    <glyph glyph-name="uni0410" unicode="&#x410;" horiz-adv-x="590" 
d="M474 0l-33 107h-291l-33 -107h-99l237 700h81l237 -700h-99zM176 190h239l-120 384z" />
    <glyph glyph-name="uni0411" unicode="&#x411;" horiz-adv-x="571" 
d="M80 0v700h398v-82h-307v-218h169q86 0 141.5 -58.5t55.5 -141.5t-56 -141.5t-142 -58.5h-259zM171 82h168q46 0 76.5 34.5t30.5 83.5t-30 83.5t-76 34.5h-169v-236z" />
    <glyph glyph-name="uni0412" unicode="&#x412;" horiz-adv-x="582" 
d="M396 358q60 -7 100.5 -51.5t40.5 -115.5q0 -88 -58 -139.5t-159 -51.5h-240v700h230q101 0 159.5 -48t58.5 -133q0 -136 -132 -161zM307 619h-136v-224h142q57 0 90.5 30t33.5 82q0 54 -34.5 83t-95.5 29zM319 81q59 0 93 31.5t34 87.5q0 51 -33.5 83t-86.5 32h-155v-234
h148z" />
    <glyph glyph-name="uni0413" unicode="&#x413;" horiz-adv-x="479" 
d="M80 700h393v-86h-302v-614h-91v700z" />
    <glyph glyph-name="uni0414" unicode="&#x414;" horiz-adv-x="642" 
d="M555 82h45v-202h-87v120h-401v-120h-91v202h33q38 0 57 40.5t19 141.5v436h425v-618zM182 82h281v536h-240v-352q0 -115 -41 -184z" />
    <glyph glyph-name="uni0415" unicode="&#x415;" horiz-adv-x="545" 
d="M80 0v700h398v-82h-307v-229h307v-82h-307v-225h307v-82h-398z" />
    <glyph glyph-name="uni0416" unicode="&#x416;" horiz-adv-x="943" 
d="M611 358l319 -358h-116l-297 344v-344h-91v344l-297 -344h-116l319 358h-12q-43 0 -71 46l-97 156q-23 36 -39 48.5t-38 12.5h-35v83h54q40 0 67.5 -22t59.5 -74l99 -156q29 -52 76 -52h30v300h91v-300h30q47 0 76 52l99 156q32 52 59.5 74t67.5 22h54v-83h-35
q-22 0 -38 -12.5t-39 -48.5l-97 -156q-28 -46 -71 -46h-12z" />
    <glyph glyph-name="uni0417" unicode="&#x417;" horiz-adv-x="564" 
d="M134 214q0 -68 41.5 -108t109.5 -40q65 0 103 37.5t38 92.5q0 123 -142 123h-54v81h54q66 0 98.5 33t32.5 83q0 51 -36 84.5t-95 33.5q-64 0 -104.5 -35.5t-40.5 -96.5h-92q0 95 65 154.5t169 59.5q98 0 161.5 -51t63.5 -142q0 -61 -33.5 -104t-86.5 -55q58 -10 95 -55
t37 -113q0 -95 -63 -153.5t-168 -58.5q-109 0 -176.5 61.5t-67.5 168.5h91z" />
    <glyph glyph-name="uni0418" unicode="&#x418;" horiz-adv-x="667" 
d="M496 519l-325 -472v-47h-91v700h91v-519l325 472v47h91v-700h-91v519z" />
    <glyph glyph-name="uni0419" unicode="&#x419;" horiz-adv-x="667" 
d="M335 714q-73 0 -121.5 31t-52.5 84h72q10 -56 102 -56t103 56h72q-5 -53 -53.5 -84t-121.5 -31zM496 519l-325 -472v-47h-91v700h91v-519l325 472v47h91v-700h-91v519z" />
    <glyph glyph-name="uni041A" unicode="&#x41a;" horiz-adv-x="597" 
d="M265 358l319 -358h-116l-297 344v-344h-91v700h91v-300h30q47 0 76 52l99 156q32 52 59.5 74t67.5 22h54v-83h-35q-22 0 -38 -12.5t-39 -48.5l-97 -156q-28 -46 -71 -46h-12z" />
    <glyph glyph-name="uni041B" unicode="&#x41b;" horiz-adv-x="674" 
d="M21 80h26q51 0 77 41.5t26 142.5v436h444v-700h-91v619h-262v-357q0 -268 -180 -268h-40v86z" />
    <glyph glyph-name="uni041C" unicode="&#x41c;" horiz-adv-x="816" 
d="M80 0v700h88l240 -571l240 571h88v-700h-88v511l-205 -511h-70l-205 514v-514h-88z" />
    <glyph glyph-name="uni041D" unicode="&#x41d;" horiz-adv-x="668" 
d="M80 0v700h91v-311h326v311h91v-700h-91v307h-326v-307h-91z" />
    <glyph glyph-name="uni041E" unicode="&#x41e;" horiz-adv-x="797" 
d="M399 -16q-164 0 -262.5 106t-98.5 260t98.5 260t262.5 106t262.5 -106t98.5 -260t-98.5 -260t-262.5 -106zM399 66q122 0 194 82t71 202q1 120 -71 202t-194 82t-194 -82t-72 -202t72 -202t194 -82z" />
    <glyph glyph-name="uni041F" unicode="&#x41f;" horiz-adv-x="665" 
d="M171 618v-618h-91v700h505v-700h-91v618h-323z" />
    <glyph glyph-name="uni0420" unicode="&#x420;" horiz-adv-x="580" 
d="M331 700q103 0 169 -68t66 -174q0 -105 -66 -173t-169 -68h-160v-217h-91v700h251zM326 299q65 0 107 45t42 114q0 70 -42 115t-107 45h-155v-319h155z" />
    <glyph glyph-name="uni0421" unicode="&#x421;" horiz-adv-x="771" 
d="M400 -16q-167 0 -264.5 103t-97.5 263t97.5 263t264.5 103q138 0 226.5 -68t108.5 -178h-100q-20 76 -80 120t-154 44q-124 0 -196 -79t-72 -205t72 -205t196 -79q94 0 154 44t80 120h100q-20 -110 -108.5 -178t-226.5 -68z" />
    <glyph glyph-name="uni0422" unicode="&#x422;" horiz-adv-x="521" 
d="M215 0v614h-209v86h509v-86h-209v-614h-91z" />
    <glyph glyph-name="uni0423" unicode="&#x423;" horiz-adv-x="552" 
d="M467 700h100l-352 -700h-101l141 278l-265 422h106l205 -328z" />
    <glyph glyph-name="uni0424" unicode="&#x424;" horiz-adv-x="705" 
d="M447 605q109 0 177 -74t68 -181t-68 -181t-177 -74h-49v-95h-91v95h-49q-108 0 -176 74t-68 181t68 181t176 74h49v95h91v-95h49zM105 350q0 -73 42.5 -123t110.5 -50h49v346h-49q-68 0 -110.5 -50t-42.5 -123zM447 177q68 0 110.5 50t42.5 123t-42.5 123t-110.5 50h-49
v-346h49z" />
    <glyph glyph-name="uni0425" unicode="&#x425;" horiz-adv-x="604" 
d="M20 0l230 350l-230 350h103l179 -275l179 275h103l-230 -350l230 -350h-103l-179 274l-179 -274h-103z" />
    <glyph glyph-name="uni0426" unicode="&#x426;" horiz-adv-x="653" 
d="M566 82h45v-202h-87v120h-444v700h91v-618h304v618h91v-618z" />
    <glyph glyph-name="uni0427" unicode="&#x427;" horiz-adv-x="579" 
d="M408 0v259q-60 -37 -152 -37q-100 0 -155.5 61t-55.5 157v260h91v-237q0 -159 144 -159q82 0 128 37v359h91v-700h-91z" />
    <glyph glyph-name="uni0428" unicode="&#x428;" horiz-adv-x="913" 
d="M80 0v700h91v-618h240v618h91v-618h240v618h91v-700h-753z" />
    <glyph glyph-name="uni0429" unicode="&#x429;" horiz-adv-x="920" 
d="M833 82h46v-202h-87v120h-712v700h91v-618h240v618h91v-618h240v618h91v-618z" />
    <glyph glyph-name="uni042A" unicode="&#x42a;" horiz-adv-x="695" 
d="M464 400q86 0 141.5 -58.5t55.5 -141.5t-56 -141.5t-142 -58.5h-259v618h-198v82h289v-300h169zM463 82q46 0 76.5 34.5t30.5 83.5t-30 83.5t-76 34.5h-169v-236h168z" />
    <glyph glyph-name="uni042B" unicode="&#x42b;" horiz-adv-x="775" 
d="M80 0v700h91v-300h169q86 0 141.5 -58.5t55.5 -141.5t-56 -141.5t-142 -58.5h-259zM604 0v700h91v-700h-91zM171 82h168q46 0 76.5 34.5t30.5 83.5t-30 83.5t-76 34.5h-169v-236z" />
    <glyph glyph-name="uni042C" unicode="&#x42c;" horiz-adv-x="571" 
d="M80 0v700h91v-300h169q86 0 141.5 -58.5t55.5 -141.5t-56 -141.5t-142 -58.5h-259zM171 82h168q46 0 76.5 34.5t30.5 83.5t-30 83.5t-76 34.5h-169v-236z" />
    <glyph glyph-name="uni042D" unicode="&#x42d;" horiz-adv-x="739" 
d="M351 716q156 0 253 -101t97 -265t-97 -265t-253 -101q-125 0 -210 64.5t-105 170.5h99q15 -69 73 -111t143 -42q105 0 173 65.5t80 177.5h-346v83h346q-12 111 -80.5 176.5t-172.5 65.5q-84 0 -142 -41.5t-74 -109.5h-99q22 107 107.5 170t207.5 63z" />
    <glyph glyph-name="uni042E" unicode="&#x42e;" horiz-adv-x="1033" 
d="M635 716q164 0 262.5 -106t98.5 -260t-98.5 -260t-262.5 -106q-152 0 -248.5 92t-110.5 231h-105v-307h-91v700h91v-311h105q12 140 109 233.5t250 93.5zM635 66q122 0 194 82t71 202q1 120 -71 202t-194 82t-194 -82t-72 -202t72 -202t194 -82z" />
    <glyph glyph-name="uni042F" unicode="&#x42f;" horiz-adv-x="606" 
d="M275 700h251v-700h-91v217h-146l-135 -217h-104l142 230q-70 24 -111 85t-41 143q0 106 66 174t169 68zM280 299h155v319h-155q-65 0 -107 -45t-42 -115q0 -69 42 -114t107 -45z" />
    <glyph glyph-name="uni0430" unicode="&#x430;" horiz-adv-x="591" 
d="M266 -12q-107 0 -167.5 68t-60.5 174q0 105 62.5 174t167.5 69q54 0 97 -25t65 -68v81h86v-461h-86v81q-22 -42 -67 -67.5t-97 -25.5zM278 66q73 0 114.5 47.5t41.5 116.5q0 70 -41.5 117.5t-114.5 47.5q-70 0 -112 -46.5t-42 -118.5t42 -118t112 -46z" />
    <glyph glyph-name="uni0431" unicode="&#x431;" horiz-adv-x="572" 
d="M300 -13q-122 0 -186 87t-64 229q0 201 82 299t263 98h94v-84h-118q-119 0 -175 -65t-63 -198q20 56 69.5 88t108.5 32q103 0 163.5 -70t60.5 -172q0 -101 -66 -172.5t-169 -71.5zM295 65q70 0 111.5 47.5t41.5 117.5q0 69 -41.5 116.5t-111.5 47.5q-72 0 -113 -46
t-41 -118t41 -118.5t113 -46.5z" />
    <glyph glyph-name="uni0432" unicode="&#x432;" horiz-adv-x="490" 
d="M75 461h217q78 0 111 -36t33 -84q0 -40 -29.5 -69t-73.5 -34q46 -2 78.5 -33t32.5 -79t-37.5 -87t-119.5 -39h-212v461zM286 266q27 0 45 19.5t18 46.5q0 28 -18 47.5t-46 19.5h-125v-133h126zM160 204v-142h129q28 0 48 20.5t20 49.5t-20 50.5t-48 21.5h-129z" />
    <glyph glyph-name="uni0433" unicode="&#x433;" horiz-adv-x="375" 
d="M353 461v-81h-191v-380h-87v461h278z" />
    <glyph glyph-name="uni0434" unicode="&#x434;" horiz-adv-x="560" 
d="M471 82h46v-202h-87v120h-319v-120h-91v202h46q43 24 43 118v261h362v-379zM162 73h222v315h-188v-184q0 -79 -34 -131z" />
    <glyph glyph-name="uni0435" unicode="&#x435;" horiz-adv-x="521" 
d="M484 257q0 -19 -3 -52h-357q1 -66 40 -103.5t105 -37.5q92 0 122 68h87q-12 -64 -70 -104t-139 -40q-106 0 -168.5 65.5t-62.5 177.5q0 110 62 176t165 66q98 0 158.5 -60t60.5 -156zM124 272h274q0 61 -35.5 96t-98.5 35q-62 0 -99.5 -36t-40.5 -95z" />
    <glyph glyph-name="uni0436" unicode="&#x436;" horiz-adv-x="769" 
d="M733 0h-109l-196 217v-217h-87v217l-196 -217h-109l218 239h-6q-23 0 -39.5 10.5t-36.5 41.5l-42 61q-15 20 -26.5 27.5t-29.5 7.5h-20v79h37q34 0 54.5 -13t43.5 -47l75 -105q27 -40 60 -40h17v200h87v-200h17q33 0 60 40l75 105q23 34 43.5 47t54.5 13h37v-79h-20
q-18 0 -29.5 -7.5t-26.5 -27.5l-42 -61q-20 -31 -36.5 -41.5t-39.5 -10.5h-6z" />
    <glyph glyph-name="uni0437" unicode="&#x437;" horiz-adv-x="478" 
d="M133 137q0 -35 29.5 -56t82.5 -21q102 0 102 73q0 29 -23 48t-64 19h-69v65h65q36 0 58.5 18.5t22.5 50.5q0 30 -25.5 49.5t-68.5 19.5q-50 0 -75.5 -20.5t-25.5 -54.5h-87q0 65 51.5 105t135.5 40q81 0 130.5 -35.5t49.5 -91.5q0 -45 -27 -73.5t-73 -35.5
q49 -5 79.5 -35t30.5 -79q0 -62 -55 -98.5t-138 -36.5q-89 0 -141 41t-52 108h87z" />
    <glyph glyph-name="uni0438" unicode="&#x438;" horiz-adv-x="561" 
d="M399 322l-237 -285v-37h-87v461h87v-326l237 287v39h87v-461h-87v322z" />
    <glyph glyph-name="uni0439" unicode="&#x439;" horiz-adv-x="561" 
d="M278 491q-75 0 -122.5 38.5t-51.5 104.5h74q3 -38 30.5 -58t69.5 -20q43 0 70.5 20t30.5 58h74q-5 -66 -52.5 -104.5t-122.5 -38.5zM399 322l-237 -285v-37h-87v461h87v-326l237 287v39h87v-461h-87v322z" />
    <glyph glyph-name="uni043A" unicode="&#x43a;" horiz-adv-x="503" 
d="M467 0h-109l-196 217v-217h-87v461h87v-200h17q33 0 60 40l75 105q23 34 43.5 47t54.5 13h37v-79h-20q-18 0 -29.5 -7.5t-26.5 -27.5l-42 -61q-20 -31 -36.5 -41.5t-39.5 -10.5h-6z" />
    <glyph glyph-name="uni043B" unicode="&#x43b;" horiz-adv-x="550" 
d="M30 79h18q75 0 75 115v267h352v-461h-86v380h-180v-182q0 -98 -37.5 -150t-105.5 -52h-36v83z" />
    <glyph glyph-name="uni043C" unicode="&#x43c;" horiz-adv-x="708" 
d="M75 0v461h131l148 -343l148 343h131l-1 -461h-83v376l-166 -376h-58l-167 376v-376h-83z" />
    <glyph glyph-name="uni043D" unicode="&#x43d;" horiz-adv-x="564" 
d="M75 0v461h87v-192h241v192h86v-461h-86v196h-241v-196h-87z" />
    <glyph glyph-name="uni043E" unicode="&#x43e;" horiz-adv-x="556" 
d="M278 -12q-110 0 -175 69.5t-65 173.5t65 173t175 69q109 0 174.5 -69.5t65.5 -172.5q0 -104 -65.5 -173.5t-174.5 -69.5zM278 66q71 0 112 46.5t41 118.5q0 71 -41 117.5t-112 46.5t-112.5 -46.5t-41.5 -118.5q0 -71 41.5 -117.5t112.5 -46.5z" />
    <glyph glyph-name="uni043F" unicode="&#x43f;" horiz-adv-x="561" 
d="M486 0h-87v388h-237v-388h-87v461h411v-461z" />
    <glyph glyph-name="uni0440" unicode="&#x440;" horiz-adv-x="591" 
d="M331 473q99 0 161 -67.5t62 -175.5q0 -106 -64 -174t-164 -68q-53 0 -97.5 25t-66.5 68v-294h-87v674h87v-81q22 43 67.5 68t101.5 25zM314 66q67 0 110 46t43 118t-43 118.5t-110 46.5q-69 0 -112.5 -46t-43.5 -119q0 -72 43.5 -118t112.5 -46z" />
    <glyph glyph-name="uni0441" unicode="&#x441;" horiz-adv-x="520" 
d="M267 -12q-105 0 -167 66.5t-62 175.5t62 175.5t167 66.5q93 0 150 -46.5t65 -124.5h-87q-18 93 -128 93q-67 0 -105 -43.5t-38 -120.5t38 -120.5t105 -43.5q109 0 128 90h87q-8 -77 -65 -122.5t-150 -45.5z" />
    <glyph glyph-name="uni0442" unicode="&#x442;" horiz-adv-x="432" 
d="M401 461v-81h-142v-380h-87v380h-141v81h370z" />
    <glyph glyph-name="uni0443" unicode="&#x443;" horiz-adv-x="567" 
d="M405 461h87v-470q0 -109 -63 -166q-56 -50 -151 -50q-100 0 -156 48q-51 43 -52 119h88q5 -94 119 -94q128 0 128 149v86q-46 -95 -160 -95q-87 0 -131 53.5t-44 144.5v275h87v-257q0 -67 26.5 -102.5t90.5 -35.5q63 0 97 45.5t34 112.5v237z" />
    <glyph glyph-name="uni0444" unicode="&#x444;" horiz-adv-x="613" 
d="M575 231q0 -96 -64 -167.5t-161 -74.5v-202h-87v202q-98 3 -161.5 74.5t-63.5 167.5t63.5 167t161.5 74v228h87v-228q98 -3 161.5 -74.5t63.5 -166.5zM124 231q0 -69 39 -118.5t105 -50.5v337q-67 -1 -105.5 -50t-38.5 -118zM345 62q66 1 104.5 50.5t38.5 118.5
t-38.5 118t-104.5 50v-337z" />
    <glyph glyph-name="uni0445" unicode="&#x445;" horiz-adv-x="478" 
d="M15 0l173 232l-171 229h107l115 -165l114 165h107l-171 -229l174 -232h-108l-116 169l-117 -169h-107z" />
    <glyph glyph-name="uni0446" unicode="&#x446;" horiz-adv-x="573" 
d="M484 82h46v-202h-87v120h-368v461h87v-388h235v388h87v-379z" />
    <glyph glyph-name="uni0447" unicode="&#x447;" horiz-adv-x="503" 
d="M341 0v171q-53 -30 -124 -30q-174 0 -174 158v162h86v-152q0 -95 107 -95q68 0 105 32v215h87v-461h-87z" />
    <glyph glyph-name="uni0448" unicode="&#x448;" horiz-adv-x="785" 
d="M436 73h188v388h86v-461h-635v461h87v-388h187v388h87v-388z" />
    <glyph glyph-name="uni0449" unicode="&#x449;" horiz-adv-x="800" 
d="M710 82h46v-202h-87v120h-594v461h87v-388h187v388h87v-388h188v388h86v-379z" />
    <glyph glyph-name="uni044A" unicode="&#x44a;" horiz-adv-x="523" 
d="M333 300q73 0 117 -43t44 -107q0 -62 -46.5 -106t-115.5 -44h-206v383h-105v78h192v-161h120zM322 70q38 0 60 22.5t22 57.5q0 36 -21.5 58.5t-58.5 22.5h-111v-161h109z" />
    <glyph glyph-name="uni044B" unicode="&#x44b;" horiz-adv-x="669" 
d="M75 461h87v-161h120q73 0 117 -43t44 -107q0 -62 -46.5 -106t-115.5 -44h-206v461zM507 0v461h87v-461h-87zM162 231v-161h109q38 0 60 22.5t22 57.5q0 36 -21.5 58.5t-58.5 22.5h-111z" />
    <glyph glyph-name="uni044C" unicode="&#x44c;" horiz-adv-x="472" 
d="M75 461h87v-161h120q73 0 117 -43t44 -107q0 -62 -46.5 -106t-115.5 -44h-206v461zM162 231v-161h109q38 0 60 22.5t22 57.5q0 36 -21.5 58.5t-58.5 22.5h-111z" />
    <glyph glyph-name="uni044D" unicode="&#x44d;" horiz-adv-x="530" 
d="M126 293h-87q3 76 61.5 128t156.5 52q115 0 175 -70t60 -172t-60.5 -172.5t-174.5 -70.5q-97 0 -156 48t-63 122h87q16 -92 136 -92q67 0 103 36t39 96h-193v65h193q-3 59 -39 95.5t-103 36.5q-62 0 -95.5 -28.5t-39.5 -73.5z" />
    <glyph glyph-name="uni044E" unicode="&#x44e;" horiz-adv-x="744" 
d="M466 473q109 0 174.5 -69.5t65.5 -172.5q0 -104 -65.5 -173.5t-174.5 -69.5q-99 0 -162.5 57t-75.5 148h-66v-193h-87v461h87v-195h66q11 91 74.5 149t163.5 58zM466 66q71 0 112 46.5t41 118.5q0 71 -41 117.5t-112 46.5t-112.5 -46.5t-41.5 -118.5q0 -71 41.5 -117.5
t112.5 -46.5z" />
    <glyph glyph-name="uni044F" unicode="&#x44f;" horiz-adv-x="524" 
d="M55 0l107 158q-49 13 -80.5 55t-31.5 92q0 65 45 110.5t116 45.5h238v-461h-85v149h-113l-95 -149h-101zM229 222h135v168h-135q-41 0 -66 -25t-25 -60t25 -59t66 -24z" />
    <glyph glyph-name="uni0451" unicode="&#x451;" horiz-adv-x="521" 
d="M166 539q-28 0 -47.5 19.5t-19.5 47.5t19.5 47.5t47.5 19.5t47.5 -19.5t19.5 -47.5t-19.5 -47.5t-47.5 -19.5zM366 539q-28 0 -47.5 19.5t-19.5 47.5t19.5 47.5t47.5 19.5t47.5 -19.5t19.5 -47.5t-19.5 -47.5t-47.5 -19.5zM484 257q0 -19 -3 -52h-357q1 -66 40 -103.5
t105 -37.5q92 0 122 68h87q-12 -64 -70 -104t-139 -40q-106 0 -168.5 65.5t-62.5 177.5q0 110 62 176t165 66q98 0 158.5 -60t60.5 -156zM124 272h274q0 61 -35.5 96t-98.5 35q-62 0 -99.5 -36t-40.5 -95z" />
    <glyph glyph-name="uni0452" unicode="&#x452;" horiz-adv-x="566" 
d="M324 473q172 0 172 -189v-382q0 -58 -31.5 -89.5t-89.5 -31.5q-42 0 -63 11v79q18 -7 46 -7q51 0 51 62v320q0 78 -27.5 115t-88.5 37q-63 0 -96.5 -41t-33.5 -113v-244h-87v548h-48v70h48v82h87v-82h193v-70h-193v-172q19 45 60.5 71t100.5 26z" />
    <glyph glyph-name="uni0453" unicode="&#x453;" horiz-adv-x="375" 
d="M118 506l-29 68l274 114l29 -65zM353 461v-81h-191v-380h-87v461h278z" />
    <glyph glyph-name="uni0454" unicode="&#x454;" horiz-adv-x="530" 
d="M404 293q-6 45 -39.5 73.5t-95.5 28.5q-67 0 -103 -36.5t-39 -95.5h193v-65h-193q3 -60 39 -96t103 -36q120 0 136 92h87q-4 -74 -63 -122t-156 -48q-114 0 -174.5 70.5t-60.5 172.5t60 172t175 70q98 0 156.5 -52t61.5 -128h-87z" />
    <glyph glyph-name="uni0455" unicode="&#x455;" horiz-adv-x="450" 
d="M230 -12q-87 0 -139.5 43.5t-52.5 106.5h86q0 -35 30 -57.5t80 -22.5q39 0 62 18t23 49q0 49 -45 60l-123 32q-99 27 -99 124q0 57 48 94.5t125 37.5q84 0 130.5 -38.5t46.5 -100.5h-86q0 33 -25 52.5t-70 19.5q-36 0 -59.5 -16.5t-23.5 -44.5q0 -47 51 -59l115 -32
q49 -13 76 -46t27 -75q0 -66 -47 -105.5t-130 -39.5z" />
    <glyph glyph-name="uni0456" unicode="&#x456;" horiz-adv-x="237" 
d="M119 540q-31 0 -51 20t-20 50t20 50.5t51 20.5q30 0 50 -20.5t20 -50.5t-20 -50t-50 -20zM75 0v461h87v-461h-87z" />
    <glyph glyph-name="uni0457" unicode="&#x457;" horiz-adv-x="237" 
d="M52 547q-24 0 -40.5 17t-16.5 40q0 24 16.5 40.5t40.5 16.5t41 -16.5t17 -40.5q0 -23 -17 -40t-41 -17zM185 547q-23 0 -40 17t-17 40q0 24 17 40.5t40 16.5q25 0 41.5 -16.5t16.5 -40.5t-16.5 -40.5t-41.5 -16.5zM75 0v461h87v-461h-87z" />
    <glyph glyph-name="uni0458" unicode="&#x458;" horiz-adv-x="240" 
d="M122 540q-31 0 -51 20t-20 50t20 50.5t51 20.5q30 0 50 -20.5t20 -50.5t-20 -50t-50 -20zM44 -219q-43 0 -64 11v79q19 -7 47 -7q51 0 51 62v535h87v-559q0 -58 -31.5 -89.5t-89.5 -31.5z" />
    <glyph glyph-name="uni0459" unicode="&#x459;" horiz-adv-x="786" 
d="M597 300q73 0 117 -43t44 -107q0 -62 -46.5 -106t-115.5 -44h-207v380h-180v-182q0 -98 -37.5 -150t-105.5 -52h-36v83h18q75 0 75 115v267h354v-161h120zM586 70q38 0 60 22.5t22 57.5q0 36 -21.5 58.5t-58.5 22.5h-111v-161h109z" />
    <glyph glyph-name="uni045A" unicode="&#x45a;" horiz-adv-x="799" 
d="M610 300q73 0 117 -43t44 -107q0 -62 -46.5 -106t-115.5 -44h-206v196h-241v-196h-87v461h87v-192h241v192h87v-161h120zM599 70q38 0 60 22.5t22 57.5q0 36 -21.5 58.5t-58.5 22.5h-111v-161h109z" />
    <glyph glyph-name="uni045B" unicode="&#x45b;" horiz-adv-x="566" 
d="M324 473q172 0 172 -189v-284h-87v246q0 78 -27.5 115t-88.5 37q-63 0 -96.5 -41t-33.5 -113v-244h-87v548h-48v70h48v82h87v-82h193v-70h-193v-172q19 45 60.5 71t100.5 26z" />
    <glyph glyph-name="uni045C" unicode="&#x45c;" horiz-adv-x="503" 
d="M412 623l-274 -117l-29 68l274 114zM467 0h-109l-196 217v-217h-87v461h87v-200h17q33 0 60 40l75 105q23 34 43.5 47t54.5 13h37v-79h-20q-18 0 -29.5 -7.5t-26.5 -27.5l-42 -61q-20 -31 -36.5 -41.5t-39.5 -10.5h-6z" />
    <glyph glyph-name="uni045E" unicode="&#x45e;" horiz-adv-x="567" 
d="M277 501q-75 0 -122.5 38.5t-51.5 104.5h74q3 -38 30.5 -58t69.5 -20q43 0 70.5 20t30.5 58h74q-5 -66 -52.5 -104.5t-122.5 -38.5zM405 461h87v-470q0 -109 -63 -166q-56 -50 -151 -50q-100 0 -156 48q-51 43 -52 119h88q5 -94 119 -94q128 0 128 149v86
q-46 -95 -160 -95q-87 0 -131 53.5t-44 144.5v275h87v-257q0 -67 26.5 -102.5t90.5 -35.5q63 0 97 45.5t34 112.5v237z" />
    <glyph glyph-name="uni045F" unicode="&#x45f;" horiz-adv-x="559" 
d="M484 461v-461h-158v-91h-87v91h-164v461h87v-388h235v388h87z" />
    <glyph glyph-name="uni0462" unicode="&#x462;" horiz-adv-x="706" 
d="M475 400q86 0 141.5 -58.5t55.5 -141.5t-56 -141.5t-142 -58.5h-259v614h-209v86h509v-86h-209v-214h169zM474 82q46 0 76.5 34.5t30.5 83.5t-30 83.5t-76 34.5h-169v-236h168z" />
    <glyph glyph-name="uni0463" unicode="&#x463;" horiz-adv-x="472" 
d="M282 300q73 0 117 -43t44 -107q0 -62 -46.5 -106t-115.5 -44h-206v425h-61v70h61v205h87v-205h110v-70h-110v-125h120zM271 70q38 0 60 22.5t22 57.5q0 36 -21.5 58.5t-58.5 22.5h-111v-161h109z" />
    <glyph glyph-name="uni0472" unicode="&#x472;" horiz-adv-x="797" 
d="M399 716q164 0 262.5 -106t98.5 -260t-98.5 -260t-262.5 -106t-262.5 106t-98.5 260t98.5 260t262.5 106zM399 634q-114 0 -185 -72t-80 -182h529q-9 110 -79.5 182t-184.5 72zM399 66q114 0 184.5 72.5t79.5 182.5h-529q9 -110 80 -182.5t185 -72.5z" />
    <glyph glyph-name="uni0473" unicode="&#x473;" horiz-adv-x="556" 
d="M278 473q109 0 174.5 -69.5t65.5 -172.5q0 -104 -65.5 -173.5t-174.5 -69.5q-110 0 -175 69.5t-65 173.5t65 173t175 69zM278 395q-63 0 -103.5 -37.5t-48.5 -97.5h303q-9 61 -48.5 98t-102.5 37zM278 66q63 0 102.5 37.5t48.5 97.5h-303q9 -60 49 -97.5t103 -37.5z" />
    <glyph glyph-name="uni0474" unicode="&#x474;" horiz-adv-x="598" 
d="M312 0h-66l-245 700h96l183 -558l147 451q20 61 48.5 86.5t81.5 25.5h38v-82h-19q-46 0 -67 -60z" />
    <glyph glyph-name="uni0475" unicode="&#x475;" horiz-adv-x="494" 
d="M270 0h-60l-207 461h93l144 -345l103 243q22 58 47.5 82.5t70.5 24.5h31v-82h-14q-22 0 -34.5 -11.5t-26.5 -46.5z" />
    <glyph glyph-name="uni048A" unicode="&#x48a;" horiz-adv-x="673" 
d="M335 714q-73 0 -121.5 31t-52.5 84h72q10 -56 102 -56t103 56h72q-5 -53 -53.5 -84t-121.5 -31zM587 82h45v-202h-87v120h-49v519l-325 -472v-47h-91v700h91v-519l325 472v47h91v-618z" />
    <glyph glyph-name="uni048B" unicode="&#x48b;" horiz-adv-x="575" 
d="M278 491q-75 0 -122.5 38.5t-51.5 104.5h74q3 -38 30.5 -58t69.5 -20q43 0 70.5 20t30.5 58h74q-5 -66 -52.5 -104.5t-122.5 -38.5zM486 82h45v-202h-87v120h-45v322l-237 -285v-37h-87v461h87v-326l237 287v39h87v-379z" />
    <glyph glyph-name="uni048C" unicode="&#x48c;" horiz-adv-x="571" 
d="M340 400q86 0 141.5 -58.5t55.5 -141.5t-56 -141.5t-142 -58.5h-259v538h-51v70h51v92h91v-92h186v-70h-186v-138h169zM339 82q46 0 76.5 34.5t30.5 83.5t-30 83.5t-76 34.5h-169v-236h168z" />
    <glyph glyph-name="uni048D" unicode="&#x48d;" horiz-adv-x="472" 
d="M282 300q73 0 117 -43t44 -107q0 -62 -46.5 -106t-115.5 -44h-206v425h-61v70h61v205h87v-205h110v-70h-110v-125h120zM271 70q38 0 60 22.5t22 57.5q0 36 -21.5 58.5t-58.5 22.5h-111v-161h109z" />
    <glyph glyph-name="uni048E" unicode="&#x48e;" horiz-adv-x="580" 
d="M566 458q0 -65 -26.5 -117.5t-74.5 -84.5l59 -58l-42 -42l-73 73q-36 -12 -78 -12h-160v-217h-91v700h251q103 0 169 -68t66 -174zM326 299h12l-69 69l42 42l91 -91q73 44 73 139q0 70 -42 115t-107 45h-155v-319h155z" />
    <glyph glyph-name="uni048F" unicode="&#x48f;" horiz-adv-x="591" 
d="M554 230q0 -104 -62 -171l53 -53l-42 -42l-57 57q-53 -33 -120 -33q-53 0 -97.5 25t-66.5 68v-294h-87v674h87v-81q22 43 67.5 68t101.5 25q99 0 161 -67.5t62 -175.5zM314 66q38 0 70 16l-94 94l42 42l99 -98q36 44 36 110q0 72 -43 118.5t-110 46.5q-69 0 -112.5 -46
t-43.5 -119q0 -72 43.5 -118t112.5 -46z" />
    <glyph glyph-name="uni0490" unicode="&#x490;" horiz-adv-x="479" 
d="M382 793h91v-179h-302v-614h-91v700h302v93z" />
    <glyph glyph-name="uni0491" unicode="&#x491;" horiz-adv-x="375" 
d="M262 554h91v-174h-191v-380h-87v461h187v93z" />
    <glyph glyph-name="uni0492" unicode="&#x492;" horiz-adv-x="479" 
d="M473 614h-302v-197h169v-70h-169v-347h-91v347h-68v70h68v283h393v-86z" />
    <glyph glyph-name="uni0493" unicode="&#x493;" horiz-adv-x="375" 
d="M353 380h-191v-100h120v-70h-120v-210h-87v210h-51v70h51v181h278v-81z" />
    <glyph glyph-name="uni0494" unicode="&#x494;" horiz-adv-x="604" 
d="M324 433q100 0 155 -60.5t55 -157.5v-297q0 -66 -36.5 -101.5t-104.5 -35.5q-42 0 -66 11v82q21 -7 52 -7q33 0 48.5 18.5t15.5 59.5v247q0 159 -144 159q-82 0 -128 -37v-314h-91v700h393v-86h-302v-218q59 37 153 37z" />
    <glyph glyph-name="uni0495" unicode="&#x495;" horiz-adv-x="515" 
d="M297 279q84 0 138.5 -57.5t54.5 -161.5q0 -112 -57 -171t-166 -59q-23 0 -49 6v78q20 -4 38 -4q74 0 110.5 38.5t36.5 109.5q0 70 -34 106.5t-89 36.5q-63 0 -118 -28v-173h-87v461h278v-81h-191v-126q67 25 135 25z" />
    <glyph glyph-name="uni0496" unicode="&#x496;" horiz-adv-x="958" 
d="M857 82h87v-202h-87v120h-43l-297 344v-344h-91v344l-297 -344h-116l319 358h-12q-43 0 -71 46l-97 156q-23 36 -39 48.5t-38 12.5h-35v83h54q40 0 67.5 -22t59.5 -74l99 -156q29 -52 76 -52h30v300h91v-300h30q47 0 76 52l99 156q32 52 59.5 74t67.5 22h54v-83h-35
q-22 0 -38 -12.5t-39 -48.5l-97 -156q-28 -46 -71 -46h-12z" />
    <glyph glyph-name="uni0497" unicode="&#x497;" horiz-adv-x="776" 
d="M733 0h-20v-120h-87v120h-2l-196 217v-217h-87v217l-196 -217h-109l218 239h-6q-23 0 -39.5 10.5t-36.5 41.5l-42 61q-15 20 -26.5 27.5t-29.5 7.5h-20v79h37q34 0 54.5 -13t43.5 -47l75 -105q27 -40 60 -40h17v200h87v-200h17q33 0 60 40l75 105q23 34 43.5 47t54.5 13
h37v-79h-20q-18 0 -29.5 -7.5t-26.5 -27.5l-42 -61q-20 -31 -36.5 -41.5t-39.5 -10.5h-6l145 -159h53v-58z" />
    <glyph glyph-name="uni0498" unicode="&#x498;" horiz-adv-x="564" 
d="M518 196q0 -89 -56 -146.5t-150 -64.5v-48q13 15 46 15q32 0 54 -21.5t22 -58.5q0 -38 -24 -63t-67 -25q-37 0 -60 19t-26 53h46q1 -14 12 -23t27 -9q43 0 43 47q0 46 -41 46q-26 0 -38 -20h-41v88q-100 6 -161 67t-61 162h91q0 -68 41.5 -108t109.5 -40q65 0 103 37.5
t38 92.5q0 123 -142 123h-54v81h54q66 0 98.5 33t32.5 83q0 51 -36 84.5t-95 33.5q-64 0 -104.5 -35.5t-40.5 -96.5h-92q0 95 65 154.5t169 59.5q98 0 161.5 -51t63.5 -142q0 -61 -33.5 -104t-86.5 -55q58 -10 95 -55t37 -113z" />
    <glyph glyph-name="uni0499" unicode="&#x499;" horiz-adv-x="478" 
d="M432 123q0 -59 -48.5 -94.5t-124.5 -39.5v-52q13 15 46 15q32 0 54 -21.5t22 -58.5q0 -38 -24 -63t-67 -25q-37 0 -60 19t-26 53h46q1 -14 12 -23t27 -9q43 0 43 47q0 46 -41 46q-26 0 -38 -20h-41v92q-77 6 -121.5 46t-44.5 102h87q0 -35 29.5 -56t82.5 -21
q102 0 102 73q0 29 -23 48t-64 19h-69v65h65q36 0 58.5 18.5t22.5 50.5q0 30 -25.5 49.5t-68.5 19.5q-50 0 -75.5 -20.5t-25.5 -54.5h-87q0 65 51.5 105t135.5 40q81 0 130.5 -35.5t49.5 -91.5q0 -45 -27 -73.5t-73 -35.5q49 -5 79.5 -35t30.5 -79z" />
    <glyph glyph-name="uni049A" unicode="&#x49a;" horiz-adv-x="607" 
d="M511 82h82v-202h-87v120h-38l-297 344v-344h-91v700h91v-300h30q47 0 76 52l99 156q32 52 59.5 74t67.5 22h54v-83h-35q-22 0 -38 -12.5t-39 -48.5l-97 -156q-28 -46 -71 -46h-12z" />
    <glyph glyph-name="uni049B" unicode="&#x49b;" horiz-adv-x="520" 
d="M394 80h82v-200h-87v120h-31l-196 217v-217h-87v461h87v-200h17q33 0 60 40l75 105q23 34 43.5 47t54.5 13h37v-79h-20q-18 0 -29.5 -7.5t-26.5 -27.5l-42 -61q-20 -31 -36.5 -41.5t-39.5 -10.5h-6z" />
    <glyph glyph-name="uni049C" unicode="&#x49c;" horiz-adv-x="657" 
d="M644 0h-116l-285 326v-138h-35v151h-37v-339h-91v700h91v-300h37v153h35v-153h13q51 0 81 52l99 156q33 52 60 74t67 22h54v-83h-35q-22 0 -38 -12.5t-39 -48.5l-97 -156q-28 -46 -76 -46h-12z" />
    <glyph glyph-name="uni049D" unicode="&#x49d;" horiz-adv-x="527" 
d="M490 0h-108l-171 195v-97h-24v115h-25v-213h-87v461h87v-200h25v115h24v-114q26 3 51 39l75 105q24 34 44.5 47t54.5 13h37v-79h-20q-32 0 -56 -35l-43 -61q-21 -31 -36.5 -41.5t-38.5 -10.5h-6z" />
    <glyph glyph-name="uni049E" unicode="&#x49e;" horiz-adv-x="652" 
d="M320 358l319 -358h-116l-297 344v-344h-91v534h-55v70h55v96h91v-96h107v-70h-107v-134h30q47 0 76 52l99 156q32 52 59.5 74t67.5 22h54v-83h-35q-22 0 -38 -12.5t-39 -48.5l-97 -156q-28 -46 -71 -46h-12z" />
    <glyph glyph-name="uni049F" unicode="&#x49f;" horiz-adv-x="503" 
d="M467 0h-109l-196 217v-217h-87v350h-40v51h40v60h87v-60h74v-51h-74v-89h17q33 0 60 40l75 105q23 34 43.5 47t54.5 13h37v-79h-20q-18 0 -29.5 -7.5t-26.5 -27.5l-42 -61q-20 -31 -36.5 -41.5t-39.5 -10.5h-6z" />
    <glyph glyph-name="uni04A0" unicode="&#x4a0;" horiz-adv-x="721" 
d="M389 358l319 -358h-116l-297 344v-344h-91v618h-198v82h289v-300h30q47 0 76 52l99 156q32 52 59.5 74t67.5 22h54v-83h-35q-22 0 -38 -12.5t-39 -48.5l-97 -156q-28 -46 -71 -46h-12z" />
    <glyph glyph-name="uni04A1" unicode="&#x4a1;" horiz-adv-x="554" 
d="M518 0h-109l-196 217v-217h-87v383h-105v78h192v-200h17q33 0 60 40l75 105q23 34 43.5 47t54.5 13h37v-79h-20q-18 0 -29.5 -7.5t-26.5 -27.5l-42 -61q-20 -31 -36.5 -41.5t-39.5 -10.5h-6z" />
    <glyph glyph-name="uni04A2" unicode="&#x4a2;" horiz-adv-x="674" 
d="M588 82h45v-202h-87v120h-49v307h-326v-307h-91v700h91v-311h326v311h91v-618z" />
    <glyph glyph-name="uni04A3" unicode="&#x4a3;" horiz-adv-x="578" 
d="M489 82h46v-202h-87v120h-45v196h-241v-196h-87v461h87v-192h241v192h86v-379z" />
    <glyph glyph-name="uni04A4" unicode="&#x4a4;" horiz-adv-x="895" 
d="M889 700v-86h-301v-614h-92v307h-325v-307h-91v700h91v-311h325v311h393z" />
    <glyph glyph-name="uni04A5" unicode="&#x4a5;" horiz-adv-x="702" 
d="M681 461v-81h-191v-380h-87v196h-241v-196h-87v461h87v-192h241v192h278z" />
    <glyph glyph-name="uni04A6" unicode="&#x4a6;" horiz-adv-x="1018" 
d="M738 471q100 0 155 -61t55 -157v-335q0 -66 -36.5 -101.5t-104.5 -35.5q-42 0 -66 11v82q21 -7 52 -7q33 0 48.5 18.5t15.5 59.5v285q0 158 -144 158q-84 0 -128 -37v-351h-91v618h-323v-618h-91v700h505v-267q61 38 153 38z" />
    <glyph glyph-name="uni04A7" unicode="&#x4a7;" horiz-adv-x="839" 
d="M622 279q84 0 138 -57.5t54 -161.5q0 -112 -57 -171t-166 -59q-23 0 -49 6v78q22 -4 38 -4q74 0 110.5 38.5t36.5 109.5q0 70 -34 106.5t-88 36.5q-64 0 -119 -28v-173h-87v388h-237v-388h-87v461h411v-207q67 25 136 25z" />
    <glyph glyph-name="uni04A8" unicode="&#x4a8;" horiz-adv-x="778" 
d="M627 59q59 -3 109 23v-78q-51 -21 -107 -21q-73 0 -122 23q-47 -23 -129 -23q-157 0 -248.5 99t-91.5 261q0 171 107.5 272.5t298.5 101.5q78 0 144 -22v-85q-68 23 -145 23q-139 0 -224 -80t-85 -208q0 -124 68 -204t187 -80q19 0 28 1q-105 80 -105 238q0 111 59 174
t153 63q93 0 149 -59t56 -160q0 -75 -31.5 -146t-89.5 -112q7 -1 19 -1zM404 296q0 -71 30 -124.5t81 -83.5q61 31 94.5 88.5t33.5 131.5q0 68 -32 106t-87 38q-57 0 -88.5 -40.5t-31.5 -115.5z" />
    <glyph glyph-name="uni04A9" unicode="&#x4a9;" horiz-adv-x="580" 
d="M459 47q54 1 99 21v-62q-46 -20 -97 -20q-52 0 -87 19q-39 -21 -96 -21q-109 0 -174.5 61.5t-65.5 175.5q0 119 74.5 185t197.5 66q51 0 92 -11v-74q-38 10 -92 10q-83 0 -134.5 -44t-51.5 -132q0 -78 40 -122t114 -44h2q-50 52 -50 131q0 72 42.5 115t111.5 43
q70 0 110 -40.5t40 -115.5q0 -84 -75 -141zM310 188q0 -83 59 -119q88 30 88 116q0 40 -18 65t-55 25q-35 0 -54.5 -23t-19.5 -64z" />
    <glyph glyph-name="uni04AA" unicode="&#x4aa;" horiz-adv-x="771" 
d="M401 66q94 0 154 44t80 120h100q-19 -105 -101 -172t-211 -73v-48q13 15 46 15q32 0 54 -21.5t22 -58.5q0 -38 -24 -63t-67 -25q-37 0 -60 19t-26 53h46q1 -14 12 -23t27 -9q43 0 43 47q0 46 -41 46q-26 0 -38 -20h-41v88q-156 7 -247 109t-91 256q0 160 97.5 263
t264.5 103q138 0 226.5 -68t108.5 -178h-100q-20 76 -80 120t-154 44q-124 0 -196 -79t-72 -205t72 -205t196 -79z" />
    <glyph glyph-name="uni04AB" unicode="&#x4ab;" horiz-adv-x="520" 
d="M267 66q109 0 128 90h87q-8 -72 -59 -117t-135 -50v-52q13 15 46 15q32 0 54 -21.5t22 -58.5q0 -38 -24 -63t-67 -25q-37 0 -60 19t-26 53h46q1 -14 12 -23t27 -9q43 0 43 47q0 46 -41 46q-26 0 -38 -20h-41v92q-94 9 -148.5 74.5t-54.5 166.5q0 109 62 175.5t167 66.5
q93 0 150 -46.5t65 -124.5h-87q-18 93 -128 93q-67 0 -105 -43.5t-38 -120.5t38 -120.5t105 -43.5z" />
    <glyph glyph-name="uni04AC" unicode="&#x4ac;" horiz-adv-x="521" 
d="M515 614h-209v-532h45v-202h-87v120h-49v614h-209v86h509v-86z" />
    <glyph glyph-name="uni04AD" unicode="&#x4ad;" horiz-adv-x="432" 
d="M401 380h-142v-298h45v-202h-87v120h-45v380h-141v81h370v-81z" />
    <glyph glyph-name="uni04AE" unicode="&#x4ae;" horiz-adv-x="597" 
d="M252 0v285l-256 415h106l196 -328l197 328h105l-255 -415v-285h-93z" />
    <glyph glyph-name="uni04AF" unicode="&#x4af;" horiz-adv-x="483" 
d="M480 461l-196 -445v-229h-86v231l-195 443h93l145 -345l146 345h93z" />
    <glyph glyph-name="uni04B0" unicode="&#x4b0;" horiz-adv-x="597" 
d="M345 285v-53h116v-70h-116v-162h-93v162h-115v70h115v53l-256 415h106l196 -328l197 328h105z" />
    <glyph glyph-name="uni04B1" unicode="&#x4b1;" horiz-adv-x="483" 
d="M284 16v-27h126v-70h-126v-132h-86v132h-125v70h125v29l-195 443h93l145 -345l146 345h93z" />
    <glyph glyph-name="uni04B2" unicode="&#x4b2;" horiz-adv-x="636" 
d="M530 82h65v-202h-87v120h-27l-179 274l-179 -274h-103l230 350l-230 350h103l179 -275l179 275h103l-230 -350z" />
    <glyph glyph-name="uni04B3" unicode="&#x4b3;" horiz-adv-x="544" 
d="M425 82h75v-202h-87v120h-35l-116 169l-117 -169h-107l173 232l-171 229h107l115 -165l114 165h107l-171 -229z" />
    <glyph glyph-name="uni04B4" unicode="&#x4b4;" horiz-adv-x="759" 
d="M672 82h46v-202h-87v120h-445v614h-180v86h454v-86h-182v-532h303v618h91v-618z" />
    <glyph glyph-name="uni04B5" unicode="&#x4b5;" horiz-adv-x="655" 
d="M566 82h45v-202h-86v120h-368v380h-126v81h340v-81h-127v-307h235v388h87v-379z" />
    <glyph glyph-name="uni04B6" unicode="&#x4b6;" horiz-adv-x="584" 
d="M499 82h44v-202h-87v120h-48v259q-60 -37 -152 -37q-100 0 -155.5 61t-55.5 157v260h91v-237q0 -159 144 -159q82 0 128 37v359h91v-618z" />
    <glyph glyph-name="uni04B7" unicode="&#x4b7;" horiz-adv-x="519" 
d="M428 82h47v-202h-87v120h-47v171q-53 -30 -124 -30q-174 0 -174 158v162h86v-152q0 -95 107 -95q68 0 105 32v215h87v-379z" />
    <glyph glyph-name="uni04B8" unicode="&#x4b8;" horiz-adv-x="579" 
d="M408 700h91v-700h-91v259q-45 -27 -99 -34v-101h-59v98q-98 2 -151.5 62.5t-53.5 155.5v260h91v-237q0 -142 114 -157v117h59v-118q58 3 99 36v359z" />
    <glyph glyph-name="uni04B9" unicode="&#x4b9;" horiz-adv-x="503" 
d="M341 461h87v-461h-87v171q-30 -16 -73 -25v-101h-40v96h-11q-174 0 -174 158v162h86v-152q0 -92 99 -95v115h40v-113q44 5 73 30v215z" />
    <glyph glyph-name="uni04BA" unicode="&#x4ba;" horiz-adv-x="579" 
d="M171 700v-259q60 37 152 37q100 0 155.5 -61t55.5 -157v-260h-91v237q0 159 -144 159q-82 0 -128 -37v-359h-91v700h91z" />
    <glyph glyph-name="uni04BB" unicode="&#x4bb;" horiz-adv-x="566" 
d="M324 473q172 0 172 -189v-284h-87v246q0 78 -27.5 115t-88.5 37q-63 0 -96.5 -41t-33.5 -113v-244h-87v700h87v-324q19 45 60.5 71t100.5 26z" />
    <glyph glyph-name="uni04BC" unicode="&#x4bc;" horiz-adv-x="918" 
d="M541 712q147 0 243.5 -99t95.5 -250v-54h-601q8 -107 71.5 -174t185.5 -67q173 0 229 141h106q-21 -96 -110.5 -161t-224.5 -65q-156 0 -248.5 91.5t-104.5 234.5h-25q-55 0 -89 35t-34 90v42h82v-40q0 -25 14 -40t38 -15h13q11 145 106.5 238t252.5 93zM785 381
q-2 110 -70 180t-178 70q-113 0 -185 -68t-73 -182h506z" />
    <glyph glyph-name="uni04BD" unicode="&#x4bd;" horiz-adv-x="619" 
d="M579 205h-357q1 -66 40 -103.5t105 -37.5q92 0 122 68h87q-12 -64 -70 -104t-139 -40q-100 0 -161 58t-69 159h-8q-56 0 -90 32.5t-34 84.5v42h75v-41q0 -24 14 -38t39 -14h5q11 93 71.5 147.5t153.5 54.5q98 0 158.5 -60t60.5 -156q0 -19 -3 -52zM362 403
q-62 0 -99.5 -36t-40.5 -95h274q0 61 -35.5 96t-98.5 35z" />
    <glyph glyph-name="uni04BE" unicode="&#x4be;" horiz-adv-x="918" 
d="M406 747q-28 0 -47 19.5t-19 47.5t19 47.5t47 19.5q29 0 48.5 -19.5t19.5 -47.5t-20 -47.5t-48 -19.5zM643 747q-28 0 -47.5 19.5t-19.5 47.5t19.5 47.5t47.5 19.5t47.5 -19.5t19.5 -47.5t-19.5 -47.5t-47.5 -19.5zM541 712q147 0 243.5 -99t95.5 -250v-54h-601
q8 -107 71.5 -174t185.5 -67q173 0 229 141h106q-21 -96 -110.5 -161t-224.5 -65q-156 0 -248.5 91.5t-104.5 234.5h-25q-55 0 -89 35t-34 90v42h82v-40q0 -25 14 -40t38 -15h13q11 145 106.5 238t252.5 93zM785 381q-2 110 -70 180t-178 70q-113 0 -185 -68t-73 -182h506z
" />
    <glyph glyph-name="uni04BF" unicode="&#x4bf;" horiz-adv-x="619" 
d="M579 205h-357q1 -66 40 -103.5t105 -37.5q92 0 122 68h87q-9 -46 -43 -81t-85 -51h-1q-12 -4 -18 -5q-73 -23 -73 -83q0 -26 16.5 -42t43.5 -16q28 0 57 13l-1 -64q-39 -15 -79 -15q-53 0 -85 28t-32 70q0 60 67 103q-90 7 -144.5 64.5t-61.5 151.5h-8q-56 0 -90 32.5
t-34 84.5v42h75v-41q0 -24 14 -38t39 -14h5q11 93 71.5 147.5t153.5 54.5q98 0 158.5 -60t60.5 -156q0 -19 -3 -52zM362 403q-62 0 -99.5 -36t-40.5 -95h274q0 61 -35.5 96t-98.5 35z" />
    <glyph glyph-name="uni04C0" unicode="&#x4c0;" horiz-adv-x="251" 
d="M80 0v700h91v-700h-91z" />
    <glyph glyph-name="uni04C1" unicode="&#x4c1;" horiz-adv-x="943" 
d="M471 734q-73 0 -121.5 31t-52.5 84h72q10 -56 102 -56t103 56h72q-5 -53 -53.5 -84t-121.5 -31zM611 358l319 -358h-116l-297 344v-344h-91v344l-297 -344h-116l319 358h-12q-43 0 -71 46l-97 156q-23 36 -39 48.5t-38 12.5h-35v83h54q40 0 67.5 -22t59.5 -74l99 -156
q29 -52 76 -52h30v300h91v-300h30q47 0 76 52l99 156q32 52 59.5 74t67.5 22h54v-83h-35q-22 0 -38 -12.5t-39 -48.5l-97 -156q-28 -46 -71 -46h-12z" />
    <glyph glyph-name="uni04C2" unicode="&#x4c2;" horiz-adv-x="769" 
d="M385 501q-75 0 -122.5 38.5t-51.5 104.5h74q3 -38 30.5 -58t69.5 -20q43 0 70.5 20t30.5 58h74q-5 -66 -52.5 -104.5t-122.5 -38.5zM733 0h-109l-196 217v-217h-87v217l-196 -217h-109l218 239h-6q-23 0 -39.5 10.5t-36.5 41.5l-42 61q-15 20 -26.5 27.5t-29.5 7.5h-20
v79h37q34 0 54.5 -13t43.5 -47l75 -105q27 -40 60 -40h17v200h87v-200h17q33 0 60 40l75 105q23 34 43.5 47t54.5 13h37v-79h-20q-18 0 -29.5 -7.5t-26.5 -27.5l-42 -61q-20 -31 -36.5 -41.5t-39.5 -10.5h-6z" />
    <glyph glyph-name="uni04C3" unicode="&#x4c3;" horiz-adv-x="616" 
d="M364 418q91 0 152.5 -58t61.5 -159q0 -105 -59 -160.5t-170 -55.5q-37 0 -62 5v77q20 -4 51 -4q153 0 153 136q0 70 -40 106t-103 36h-104v1l-64 -1l-9 59h26q52 0 82 52l98 156q33 52 60 74t67 22h55v-83h-35q-22 0 -38 -12.5t-39 -48.5l-89 -142h6zM80 700h91v-700h-91
v700z" />
    <glyph glyph-name="uni04C4" unicode="&#x4c4;" horiz-adv-x="495" 
d="M305 259q72 -9 118.5 -60.5t46.5 -134.5q0 -107 -57.5 -163.5t-166.5 -56.5q-29 0 -49 5v78q19 -4 45 -4q68 0 104.5 36.5t36.5 103.5q0 65 -34 98t-97 33h-90v-194h-87v461h87v-200h17q31 0 60 40l75 105q23 34 43.5 47t54.5 13h37v-79h-20q-18 0 -29.5 -7.5
t-26.5 -27.5l-42 -61q-15 -21 -26 -32z" />
    <glyph glyph-name="uni04C5" unicode="&#x4c5;" horiz-adv-x="674" 
d="M594 82h51l-77 -202h-86l45 120h-24v619h-262v-357q0 -268 -180 -268h-40v86h26q51 0 77 41.5t26 142.5v436h444v-618z" />
    <glyph glyph-name="uni04C6" unicode="&#x4c6;" horiz-adv-x="550" 
d="M475 82h51l-77 -202h-86l45 120h-19v380h-180v-182q0 -98 -37.5 -150t-105.5 -52h-36v83h18q75 0 75 115v267h352v-379z" />
    <glyph glyph-name="uni04C7" unicode="&#x4c7;" horiz-adv-x="668" 
d="M497 700h91v-782q0 -66 -36.5 -101.5t-104.5 -35.5q-42 0 -66 11v82q21 -7 52 -7q33 0 48.5 18.5t15.5 59.5v362h-326v-307h-91v700h91v-311h326v311z" />
    <glyph glyph-name="uni04C8" unicode="&#x4c8;" horiz-adv-x="564" 
d="M403 461h86v-559q0 -58 -31 -89.5t-89 -31.5q-43 0 -64 11v79q19 -7 47 -7q51 0 51 62v270h-241v-196h-87v461h87v-192h241v192z" />
    <glyph glyph-name="uni04C9" unicode="&#x4c9;" horiz-adv-x="668" 
d="M588 82h51l-77 -202h-86l45 120h-24v307h-326v-307h-91v700h91v-311h326v311h91v-618z" />
    <glyph glyph-name="uni04CA" unicode="&#x4ca;" horiz-adv-x="564" 
d="M489 82h51l-77 -202h-86l45 120h-19v196h-241v-196h-87v461h87v-192h241v192h86v-379z" />
    <glyph glyph-name="uni04CB" unicode="&#x4cb;" horiz-adv-x="579" 
d="M499 700v-700h-48v-120h-91v202h48v177q-60 -37 -152 -37q-100 0 -155.5 61t-55.5 157v260h91v-237q0 -159 144 -159q82 0 128 37v359h91z" />
    <glyph glyph-name="uni04CC" unicode="&#x4cc;" horiz-adv-x="503" 
d="M428 461v-461h-44v-120h-91v202h48v89q-53 -30 -124 -30q-174 0 -174 158v162h86v-152q0 -95 107 -95q68 0 105 32v215h87z" />
    <glyph glyph-name="uni04CD" unicode="&#x4cd;" horiz-adv-x="816" 
d="M736 82h51l-77 -202h-86l45 120h-21v511l-205 -511h-70l-205 514v-514h-88v700h88l240 -571l240 571h88v-618z" />
    <glyph glyph-name="uni04CE" unicode="&#x4ce;" horiz-adv-x="708" 
d="M632 82h51l-77 -202h-86l45 120h-16v376l-166 -376h-58l-167 376v-376h-83v461h131l148 -343l148 343h131z" />
    <glyph glyph-name="uni04CF" unicode="&#x4cf;" horiz-adv-x="237" 
d="M75 0v461h87v-461h-87z" />
    <glyph glyph-name="uni04D0" unicode="&#x4d0;" horiz-adv-x="590" 
d="M296 734q-73 0 -121.5 31t-52.5 84h72q10 -56 102 -56t103 56h72q-5 -53 -53.5 -84t-121.5 -31zM474 0l-33 107h-291l-33 -107h-99l237 700h81l237 -700h-99zM176 190h239l-120 384z" />
    <glyph glyph-name="uni04D1" unicode="&#x4d1;" horiz-adv-x="591" 
d="M280 501q-75 0 -122.5 38.5t-51.5 104.5h74q3 -38 30.5 -58t69.5 -20q43 0 70.5 20t30.5 58h74q-5 -66 -52.5 -104.5t-122.5 -38.5zM266 -12q-107 0 -167.5 68t-60.5 174q0 105 62.5 174t167.5 69q54 0 97 -25t65 -68v81h86v-461h-86v81q-22 -42 -67 -67.5t-97 -25.5z
M278 66q73 0 114.5 47.5t41.5 116.5q0 70 -41.5 117.5t-114.5 47.5q-70 0 -112 -46.5t-42 -118.5t42 -118t112 -46z" />
    <glyph glyph-name="uni04D2" unicode="&#x4d2;" horiz-adv-x="590" 
d="M177 747q-28 0 -47 19.5t-19 47.5t19 47.5t47 19.5q29 0 48.5 -19.5t19.5 -47.5t-20 -47.5t-48 -19.5zM414 747q-28 0 -47.5 19.5t-19.5 47.5t19.5 47.5t47.5 19.5t47.5 -19.5t19.5 -47.5t-19.5 -47.5t-47.5 -19.5zM474 0l-33 107h-291l-33 -107h-99l237 700h81l237 -700
h-99zM176 190h239l-120 384z" />
    <glyph glyph-name="uni04D3" unicode="&#x4d3;" horiz-adv-x="591" 
d="M180 539q-28 0 -47.5 19.5t-19.5 47.5t19.5 47.5t47.5 19.5t47.5 -19.5t19.5 -47.5t-19.5 -47.5t-47.5 -19.5zM380 539q-28 0 -47.5 19.5t-19.5 47.5t19.5 47.5t47.5 19.5t47.5 -19.5t19.5 -47.5t-19.5 -47.5t-47.5 -19.5zM266 -12q-107 0 -167.5 68t-60.5 174
q0 105 62.5 174t167.5 69q54 0 97 -25t65 -68v81h86v-461h-86v81q-22 -42 -67 -67.5t-97 -25.5zM278 66q73 0 114.5 47.5t41.5 116.5q0 70 -41.5 117.5t-114.5 47.5q-70 0 -112 -46.5t-42 -118.5t42 -118t112 -46z" />
    <glyph glyph-name="uni04D4" unicode="&#x4d4;" horiz-adv-x="841" 
d="M773 618h-276v-229h276v-82h-276v-225h276v-82h-367v111h-241l-53 -111h-99l348 700h412v-82zM203 190h203v426z" />
    <glyph glyph-name="uni04D5" unicode="&#x4d5;" horiz-adv-x="871" 
d="M833 255q0 -29 -2 -52h-358q2 -66 41.5 -103t105.5 -37q91 0 120 74h88q-12 -67 -70 -109t-138 -42q-129 0 -191 101q-62 -99 -203 -99q-82 0 -132.5 36.5t-50.5 97.5q0 75 54 113q29 20 70.5 27t121.5 7h104v40q0 42 -29.5 68t-92.5 26q-119 0 -125 -93h-87
q4 74 62.5 118.5t150.5 44.5q127 0 176 -76q63 74 168 74q96 0 156.5 -60.5t60.5 -155.5zM474 270h274q0 61 -35.5 97t-96.5 36q-62 0 -101.5 -36.5t-40.5 -96.5zM393 183v20h-136q-126 0 -126 -74q0 -72 112 -72q61 0 105.5 32.5t44.5 93.5z" />
    <glyph glyph-name="uni04D6" unicode="&#x4d6;" horiz-adv-x="545" 
d="M285 734q-73 0 -121.5 31t-52.5 84h72q10 -56 102 -56t103 56h72q-5 -53 -53.5 -84t-121.5 -31zM80 0v700h398v-82h-307v-229h307v-82h-307v-225h307v-82h-398z" />
    <glyph glyph-name="uni04D7" unicode="&#x4d7;" horiz-adv-x="521" 
d="M266 501q-75 0 -122.5 38.5t-51.5 104.5h74q3 -38 30.5 -58t69.5 -20q43 0 70.5 20t30.5 58h74q-5 -66 -52.5 -104.5t-122.5 -38.5zM484 257q0 -19 -3 -52h-357q1 -66 40 -103.5t105 -37.5q92 0 122 68h87q-12 -64 -70 -104t-139 -40q-106 0 -168.5 65.5t-62.5 177.5
q0 110 62 176t165 66q98 0 158.5 -60t60.5 -156zM124 272h274q0 61 -35.5 96t-98.5 35q-62 0 -99.5 -36t-40.5 -95z" />
    <glyph glyph-name="uni04D8" unicode="&#x4d8;" horiz-adv-x="774" 
d="M377 -12q-147 0 -243.5 99t-95.5 250v54h601q-8 107 -71.5 174t-185.5 67q-173 0 -229 -141h-106q21 96 110.5 161t224.5 65q167 0 261 -104t94 -261t-96.5 -260.5t-263.5 -103.5zM381 69q113 0 185 68t73 182h-506q2 -110 70 -180t178 -70z" />
    <glyph glyph-name="uni04D9" unicode="&#x4d9;" horiz-adv-x="521" 
d="M252 473q106 0 168.5 -65.5t62.5 -177.5q0 -110 -62 -176t-165 -66q-98 0 -158.5 60t-60.5 156q0 19 3 52h357q-1 66 -40 103.5t-105 37.5q-92 0 -122 -68h-87q12 64 70 104t139 40zM257 58q62 0 99.5 36t40.5 95h-274q0 -61 35.5 -96t98.5 -35z" />
    <glyph glyph-name="uni04DA" unicode="&#x4da;" horiz-adv-x="774" 
d="M257 747q-28 0 -47 19.5t-19 47.5t19 47.5t47 19.5q29 0 48.5 -19.5t19.5 -47.5t-20 -47.5t-48 -19.5zM494 747q-28 0 -47.5 19.5t-19.5 47.5t19.5 47.5t47.5 19.5t47.5 -19.5t19.5 -47.5t-19.5 -47.5t-47.5 -19.5zM377 -12q-147 0 -243.5 99t-95.5 250v54h601
q-8 107 -71.5 174t-185.5 67q-173 0 -229 -141h-106q21 96 110.5 161t224.5 65q167 0 261 -104t94 -261t-96.5 -260.5t-263.5 -103.5zM381 69q113 0 185 68t73 182h-506q2 -110 70 -180t178 -70z" />
    <glyph glyph-name="uni04DB" unicode="&#x4db;" horiz-adv-x="521" 
d="M155 539q-28 0 -47.5 19.5t-19.5 47.5t19.5 47.5t47.5 19.5q29 0 48 -19.5t19 -47.5t-19.5 -47.5t-47.5 -19.5zM355 539q-28 0 -47.5 19.5t-19.5 47.5t19.5 47.5t47.5 19.5q29 0 48 -19.5t19 -47.5t-19.5 -47.5t-47.5 -19.5zM252 473q106 0 168.5 -65.5t62.5 -177.5
q0 -110 -62 -176t-165 -66q-98 0 -158.5 60t-60.5 156q0 19 3 52h357q-1 66 -40 103.5t-105 37.5q-92 0 -122 -68h-87q12 64 70 104t139 40zM257 58q62 0 99.5 36t40.5 95h-274q0 -61 35.5 -96t98.5 -35z" />
    <glyph glyph-name="uni04DC" unicode="&#x4dc;" horiz-adv-x="943" 
d="M352 747q-28 0 -47 19.5t-19 47.5t19 47.5t47 19.5q29 0 48.5 -19.5t19.5 -47.5t-20 -47.5t-48 -19.5zM589 747q-28 0 -47.5 19.5t-19.5 47.5t19.5 47.5t47.5 19.5t47.5 -19.5t19.5 -47.5t-19.5 -47.5t-47.5 -19.5zM611 358l319 -358h-116l-297 344v-344h-91v344
l-297 -344h-116l319 358h-12q-43 0 -71 46l-97 156q-23 36 -39 48.5t-38 12.5h-35v83h54q40 0 67.5 -22t59.5 -74l99 -156q29 -52 76 -52h30v300h91v-300h30q47 0 76 52l99 156q32 52 59.5 74t67.5 22h54v-83h-35q-22 0 -38 -12.5t-39 -48.5l-97 -156q-28 -46 -71 -46h-12z
" />
    <glyph glyph-name="uni04DD" unicode="&#x4dd;" horiz-adv-x="769" 
d="M285 539q-28 0 -47.5 19.5t-19.5 47.5t19.5 47.5t47.5 19.5q29 0 48 -19.5t19 -47.5t-19.5 -47.5t-47.5 -19.5zM485 539q-28 0 -47.5 19.5t-19.5 47.5t19.5 47.5t47.5 19.5q29 0 48 -19.5t19 -47.5t-19.5 -47.5t-47.5 -19.5zM733 0h-109l-196 217v-217h-87v217l-196 -217
h-109l218 239h-6q-23 0 -39.5 10.5t-36.5 41.5l-42 61q-15 20 -26.5 27.5t-29.5 7.5h-20v79h37q34 0 54.5 -13t43.5 -47l75 -105q27 -40 60 -40h17v200h87v-200h17q33 0 60 40l75 105q23 34 43.5 47t54.5 13h37v-79h-20q-18 0 -29.5 -7.5t-26.5 -27.5l-42 -61
q-20 -31 -36.5 -41.5t-39.5 -10.5h-6z" />
    <glyph glyph-name="uni04DE" unicode="&#x4de;" horiz-adv-x="564" 
d="M160 747q-28 0 -47 19.5t-19 47.5t19 47.5t47 19.5q29 0 48.5 -19.5t19.5 -47.5t-20 -47.5t-48 -19.5zM397 747q-28 0 -47.5 19.5t-19.5 47.5t19.5 47.5t47.5 19.5t47.5 -19.5t19.5 -47.5t-19.5 -47.5t-47.5 -19.5zM134 214q0 -68 41.5 -108t109.5 -40q65 0 103 37.5
t38 92.5q0 123 -142 123h-54v81h54q66 0 98.5 33t32.5 83q0 51 -36 84.5t-95 33.5q-64 0 -104.5 -35.5t-40.5 -96.5h-92q0 95 65 154.5t169 59.5q98 0 161.5 -51t63.5 -142q0 -61 -33.5 -104t-86.5 -55q58 -10 95 -55t37 -113q0 -95 -63 -153.5t-168 -58.5
q-109 0 -176.5 61.5t-67.5 168.5h91z" />
    <glyph glyph-name="uni04DF" unicode="&#x4df;" horiz-adv-x="478" 
d="M138 539q-28 0 -47.5 19.5t-19.5 47.5t19.5 47.5t47.5 19.5t47.5 -19.5t19.5 -47.5t-19.5 -47.5t-47.5 -19.5zM338 539q-28 0 -47.5 19.5t-19.5 47.5t19.5 47.5t47.5 19.5t47.5 -19.5t19.5 -47.5t-19.5 -47.5t-47.5 -19.5zM133 137q0 -35 29.5 -56t82.5 -21q102 0 102 73
q0 29 -23 48t-64 19h-69v65h65q36 0 58.5 18.5t22.5 50.5q0 30 -25.5 49.5t-68.5 19.5q-50 0 -75.5 -20.5t-25.5 -54.5h-87q0 65 51.5 105t135.5 40q81 0 130.5 -35.5t49.5 -91.5q0 -45 -27 -73.5t-73 -35.5q49 -5 79.5 -35t30.5 -79q0 -62 -55 -98.5t-138 -36.5
q-89 0 -141 41t-52 108h87z" />
    <glyph glyph-name="uni04E0" unicode="&#x4e0;" horiz-adv-x="565" 
d="M286 -12q-108 0 -175.5 61.5t-67.5 167.5h91q0 -67 44 -107t110 -40q63 0 100.5 39t37.5 97q0 140 -147 140h-85l187 272h-288v82h438l-206 -289q85 -5 138.5 -60t53.5 -141q0 -97 -65.5 -159.5t-165.5 -62.5z" />
    <glyph glyph-name="uni04E1" unicode="&#x4e1;" horiz-adv-x="488" 
d="M216 -225q-98 0 -155 50t-58 141h85q2 -55 38.5 -86.5t90.5 -31.5q58 0 92.5 41.5t34.5 115.5t-42 112.5t-121 38.5h-70l187 231h-254v74h397l-195 -245q85 -9 135 -68.5t50 -143.5q0 -108 -58.5 -168.5t-156.5 -60.5z" />
    <glyph glyph-name="uni04E2" unicode="&#x4e2;" horiz-adv-x="667" 
d="M149 748v69h372v-69h-372zM496 519l-325 -472v-47h-91v700h91v-519l325 472v47h91v-700h-91v519z" />
    <glyph glyph-name="uni04E3" unicode="&#x4e3;" horiz-adv-x="561" 
d="M119 545v70h318v-70h-318zM399 322l-237 -285v-37h-87v461h87v-326l237 287v39h87v-461h-87v322z" />
    <glyph glyph-name="uni04E4" unicode="&#x4e4;" horiz-adv-x="667" 
d="M216 727q-28 0 -47 19.5t-19 47.5t19 47.5t47 19.5q29 0 48.5 -19.5t19.5 -47.5t-20 -47.5t-48 -19.5zM453 727q-28 0 -47.5 19.5t-19.5 47.5t19.5 47.5t47.5 19.5t47.5 -19.5t19.5 -47.5t-19.5 -47.5t-47.5 -19.5zM496 519l-325 -472v-47h-91v700h91v-519l325 472v47h91
v-700h-91v519z" />
    <glyph glyph-name="uni04E5" unicode="&#x4e5;" horiz-adv-x="561" 
d="M178 529q-28 0 -47.5 19.5t-19.5 47.5t19.5 47.5t47.5 19.5t47.5 -19.5t19.5 -47.5t-19.5 -47.5t-47.5 -19.5zM378 529q-28 0 -47.5 19.5t-19.5 47.5t19.5 47.5t47.5 19.5t47.5 -19.5t19.5 -47.5t-19.5 -47.5t-47.5 -19.5zM399 322l-237 -285v-37h-87v461h87v-326
l237 287v39h87v-461h-87v322z" />
    <glyph glyph-name="uni04E6" unicode="&#x4e6;" horiz-adv-x="797" 
d="M280 747q-28 0 -47 19.5t-19 47.5t19 47.5t47 19.5q29 0 48.5 -19.5t19.5 -47.5t-20 -47.5t-48 -19.5zM517 747q-28 0 -47.5 19.5t-19.5 47.5t19.5 47.5t47.5 19.5t47.5 -19.5t19.5 -47.5t-19.5 -47.5t-47.5 -19.5zM399 -16q-164 0 -262.5 106t-98.5 260t98.5 260
t262.5 106t262.5 -106t98.5 -260t-98.5 -260t-262.5 -106zM399 66q122 0 194 82t71 202q1 120 -71 202t-194 82t-194 -82t-72 -202t72 -202t194 -82z" />
    <glyph glyph-name="uni04E7" unicode="&#x4e7;" horiz-adv-x="556" 
d="M178 539q-28 0 -47.5 19.5t-19.5 47.5t19.5 47.5t47.5 19.5t47.5 -19.5t19.5 -47.5t-19.5 -47.5t-47.5 -19.5zM378 539q-28 0 -47.5 19.5t-19.5 47.5t19.5 47.5t47.5 19.5t47.5 -19.5t19.5 -47.5t-19.5 -47.5t-47.5 -19.5zM278 -12q-110 0 -175 69.5t-65 173.5t65 173
t175 69q109 0 174.5 -69.5t65.5 -172.5q0 -104 -65.5 -173.5t-174.5 -69.5zM278 66q71 0 112 46.5t41 118.5q0 71 -41 117.5t-112 46.5t-112.5 -46.5t-41.5 -118.5q0 -71 41.5 -117.5t112.5 -46.5z" />
    <glyph glyph-name="uni04E8" unicode="&#x4e8;" horiz-adv-x="797" 
d="M399 716q164 0 262.5 -106t98.5 -260t-98.5 -260t-262.5 -106t-262.5 106t-98.5 260t98.5 260t262.5 106zM399 634q-114 0 -185 -72t-80 -182h529q-9 110 -79.5 182t-184.5 72zM399 66q114 0 184.5 72.5t79.5 182.5h-529q9 -110 80 -182.5t185 -72.5z" />
    <glyph glyph-name="uni04E9" unicode="&#x4e9;" horiz-adv-x="556" 
d="M278 473q109 0 174.5 -69.5t65.5 -172.5q0 -104 -65.5 -173.5t-174.5 -69.5q-110 0 -175 69.5t-65 173.5t65 173t175 69zM278 395q-63 0 -103.5 -37.5t-48.5 -97.5h303q-9 61 -48.5 98t-102.5 37zM278 66q63 0 102.5 37.5t48.5 97.5h-303q9 -60 49 -97.5t103 -37.5z" />
    <glyph glyph-name="uni04EA" unicode="&#x4ea;" horiz-adv-x="797" 
d="M280 747q-28 0 -47 19.5t-19 47.5t19 47.5t47 19.5q29 0 48.5 -19.5t19.5 -47.5t-20 -47.5t-48 -19.5zM517 747q-28 0 -47.5 19.5t-19.5 47.5t19.5 47.5t47.5 19.5t47.5 -19.5t19.5 -47.5t-19.5 -47.5t-47.5 -19.5zM399 716q164 0 262.5 -106t98.5 -260t-98.5 -260
t-262.5 -106t-262.5 106t-98.5 260t98.5 260t262.5 106zM399 634q-114 0 -185 -72t-80 -182h529q-9 110 -79.5 182t-184.5 72zM399 66q114 0 184.5 72.5t79.5 182.5h-529q9 -110 80 -182.5t185 -72.5z" />
    <glyph glyph-name="uni04EB" unicode="&#x4eb;" horiz-adv-x="556" 
d="M178 539q-28 0 -47.5 19.5t-19.5 47.5t19.5 47.5t47.5 19.5t47.5 -19.5t19.5 -47.5t-19.5 -47.5t-47.5 -19.5zM378 539q-28 0 -47.5 19.5t-19.5 47.5t19.5 47.5t47.5 19.5t47.5 -19.5t19.5 -47.5t-19.5 -47.5t-47.5 -19.5zM278 473q109 0 174.5 -69.5t65.5 -172.5
q0 -104 -65.5 -173.5t-174.5 -69.5q-110 0 -175 69.5t-65 173.5t65 173t175 69zM278 395q-63 0 -103.5 -37.5t-48.5 -97.5h303q-9 61 -48.5 98t-102.5 37zM278 66q63 0 102.5 37.5t48.5 97.5h-303q9 -60 49 -97.5t103 -37.5z" />
    <glyph glyph-name="uni04EC" unicode="&#x4ec;" horiz-adv-x="739" 
d="M231 747q-28 0 -47 19.5t-19 47.5t19 47.5t47 19.5q29 0 48.5 -19.5t19.5 -47.5t-20 -47.5t-48 -19.5zM468 747q-28 0 -47.5 19.5t-19.5 47.5t19.5 47.5t47.5 19.5t47.5 -19.5t19.5 -47.5t-19.5 -47.5t-47.5 -19.5zM351 716q156 0 253 -101t97 -265t-97 -265t-253 -101
q-125 0 -210 64.5t-105 170.5h99q15 -69 73 -111t143 -42q105 0 173 65.5t80 177.5h-346v83h346q-12 111 -80.5 176.5t-172.5 65.5q-84 0 -142 -41.5t-74 -109.5h-99q22 107 107.5 170t207.5 63z" />
    <glyph glyph-name="uni04ED" unicode="&#x4ed;" horiz-adv-x="530" 
d="M158 539q-28 0 -47.5 19.5t-19.5 47.5t19.5 47.5t47.5 19.5t47.5 -19.5t19.5 -47.5t-19.5 -47.5t-47.5 -19.5zM358 539q-28 0 -47.5 19.5t-19.5 47.5t19.5 47.5t47.5 19.5t47.5 -19.5t19.5 -47.5t-19.5 -47.5t-47.5 -19.5zM126 293h-87q3 76 61.5 128t156.5 52
q115 0 175 -70t60 -172t-60.5 -172.5t-174.5 -70.5q-97 0 -156 48t-63 122h87q16 -92 136 -92q67 0 103 36t39 96h-193v65h193q-3 59 -39 95.5t-103 36.5q-62 0 -95.5 -28.5t-39.5 -73.5z" />
    <glyph glyph-name="uni04EE" unicode="&#x4ee;" horiz-adv-x="552" 
d="M474 837v-69h-372v69h372zM467 700h100l-352 -700h-101l141 278l-265 422h106l205 -328z" />
    <glyph glyph-name="uni04EF" unicode="&#x4ef;" horiz-adv-x="567" 
d="M118 555v70h318v-70h-318zM405 461h87v-470q0 -109 -63 -166q-56 -50 -151 -50q-100 0 -156 48q-51 43 -52 119h88q5 -94 119 -94q128 0 128 149v86q-46 -95 -160 -95q-87 0 -131 53.5t-44 144.5v275h87v-257q0 -67 26.5 -102.5t90.5 -35.5q63 0 97 45.5t34 112.5v237z
" />
    <glyph glyph-name="uni04F0" unicode="&#x4f0;" horiz-adv-x="552" 
d="M169 747q-28 0 -47 19.5t-19 47.5t19 47.5t47 19.5q29 0 48.5 -19.5t19.5 -47.5t-20 -47.5t-48 -19.5zM406 747q-28 0 -47.5 19.5t-19.5 47.5t19.5 47.5t47.5 19.5t47.5 -19.5t19.5 -47.5t-19.5 -47.5t-47.5 -19.5zM467 700h100l-352 -700h-101l141 278l-265 422h106
l205 -328z" />
    <glyph glyph-name="uni04F1" unicode="&#x4f1;" horiz-adv-x="567" 
d="M177 539q-28 0 -47.5 19.5t-19.5 47.5t19.5 47.5t47.5 19.5q29 0 48 -19.5t19 -47.5t-19.5 -47.5t-47.5 -19.5zM377 539q-28 0 -47.5 19.5t-19.5 47.5t19.5 47.5t47.5 19.5q29 0 48 -19.5t19 -47.5t-19.5 -47.5t-47.5 -19.5zM405 461h87v-470q0 -109 -63 -166
q-56 -50 -151 -50q-100 0 -156 48q-51 43 -52 119h88q5 -94 119 -94q128 0 128 149v86q-46 -95 -160 -95q-87 0 -131 53.5t-44 144.5v275h87v-257q0 -67 26.5 -102.5t90.5 -35.5q63 0 97 45.5t34 112.5v237z" />
    <glyph glyph-name="uni04F2" unicode="&#x4f2;" horiz-adv-x="552" 
d="M356 858l-156 -122l-49 21l127 131zM378 735l-48 22l127 131l77 -32zM467 700h100l-352 -700h-101l141 278l-265 422h106l205 -328z" />
    <glyph glyph-name="uni04F3" unicode="&#x4f3;" horiz-adv-x="567" 
d="M167 497l-43 23l125 166l76 -38zM357 497l-43 23l125 166l76 -38zM405 461h87v-470q0 -109 -63 -166q-56 -50 -151 -50q-100 0 -156 48q-51 43 -52 119h88q5 -94 119 -94q128 0 128 149v86q-46 -95 -160 -95q-87 0 -131 53.5t-44 144.5v275h87v-257q0 -67 26.5 -102.5
t90.5 -35.5q63 0 97 45.5t34 112.5v237z" />
    <glyph glyph-name="uni04F4" unicode="&#x4f4;" horiz-adv-x="579" 
d="M152 747q-28 0 -47 19.5t-19 47.5t19 47.5t47 19.5q29 0 48.5 -19.5t19.5 -47.5t-20 -47.5t-48 -19.5zM389 747q-28 0 -47.5 19.5t-19.5 47.5t19.5 47.5t47.5 19.5t47.5 -19.5t19.5 -47.5t-19.5 -47.5t-47.5 -19.5zM408 0v259q-60 -37 -152 -37q-100 0 -155.5 61
t-55.5 157v260h91v-237q0 -159 144 -159q82 0 128 37v359h91v-700h-91z" />
    <glyph glyph-name="uni04F5" unicode="&#x4f5;" horiz-adv-x="503" 
d="M136 539q-28 0 -47.5 19.5t-19.5 47.5t19.5 47.5t47.5 19.5t47.5 -19.5t19.5 -47.5t-19.5 -47.5t-47.5 -19.5zM336 539q-28 0 -47.5 19.5t-19.5 47.5t19.5 47.5t47.5 19.5t47.5 -19.5t19.5 -47.5t-19.5 -47.5t-47.5 -19.5zM341 0v171q-53 -30 -124 -30q-174 0 -174 158
v162h86v-152q0 -95 107 -95q68 0 105 32v215h87v-461h-87z" />
    <glyph glyph-name="uni04F6" unicode="&#x4f6;" horiz-adv-x="479" 
d="M473 614h-302v-532h45v-202h-87v120h-49v700h393v-86z" />
    <glyph glyph-name="uni04F7" unicode="&#x4f7;" horiz-adv-x="375" 
d="M353 380h-191v-298h45v-202h-87v120h-45v461h278v-81z" />
    <glyph glyph-name="uni04F8" unicode="&#x4f8;" horiz-adv-x="775" 
d="M278 747q-28 0 -47 19.5t-19 47.5t19 47.5t47 19.5q29 0 48.5 -19.5t19.5 -47.5t-20 -47.5t-48 -19.5zM515 747q-28 0 -47.5 19.5t-19.5 47.5t19.5 47.5t47.5 19.5t47.5 -19.5t19.5 -47.5t-19.5 -47.5t-47.5 -19.5zM80 0v700h91v-300h169q86 0 141.5 -58.5t55.5 -141.5
t-56 -141.5t-142 -58.5h-259zM604 0v700h91v-700h-91zM171 82h168q46 0 76.5 34.5t30.5 83.5t-30 83.5t-76 34.5h-169v-236z" />
    <glyph glyph-name="uni04F9" unicode="&#x4f9;" horiz-adv-x="669" 
d="M227 539q-28 0 -47.5 19.5t-19.5 47.5t19.5 47.5t47.5 19.5q29 0 48 -19.5t19 -47.5t-19.5 -47.5t-47.5 -19.5zM427 539q-28 0 -47.5 19.5t-19.5 47.5t19.5 47.5t47.5 19.5q29 0 48 -19.5t19 -47.5t-19.5 -47.5t-47.5 -19.5zM75 461h87v-161h120q73 0 117 -43t44 -107
q0 -62 -46.5 -106t-115.5 -44h-206v461zM507 0v461h87v-461h-87zM162 231v-161h109q38 0 60 22.5t22 57.5q0 36 -21.5 58.5t-58.5 22.5h-111z" />
    <glyph glyph-name="uni04FC" unicode="&#x4fc;" horiz-adv-x="604" 
d="M433 -216q-39 0 -63 11v82q21 -7 50 -7q35 0 50.5 16t15.5 50q0 35 -16 69t-55 94l-113 175l-179 -274h-103l230 350l-230 350h103l179 -275l179 275h103l-230 -350l134 -204q52 -80 70.5 -126t18.5 -91q0 -145 -144 -145z" />
    <glyph glyph-name="uni04FD" unicode="&#x4fd;" horiz-adv-x="476" 
d="M335 -219q-41 0 -62 11v70q22 -7 45 -7q56 0 56 65q0 57 -83 173l-52 76l-117 -169h-107l173 232l-171 229h107l115 -165l114 165h107l-171 -229l78 -108q54 -75 72 -122.5t18 -96.5q0 -58 -31.5 -91t-90.5 -33z" />
    <glyph glyph-name="uni0510" unicode="&#x510;" horiz-adv-x="564" 
d="M430 214h91q0 -107 -67.5 -168.5t-176.5 -61.5q-105 0 -168 58.5t-63 153.5q0 68 37 113t95 55q-53 12 -86.5 55t-33.5 104q0 91 63.5 142t161.5 51q104 0 169 -59.5t65 -154.5h-92q0 61 -40.5 96.5t-104.5 35.5q-59 0 -95 -33.5t-36 -84.5q0 -50 32.5 -83t98.5 -33h54
v-81h-54q-142 0 -142 -123q0 -55 38 -92.5t103 -37.5q68 0 109.5 40t41.5 108z" />
    <glyph glyph-name="uni0511" unicode="&#x511;" horiz-adv-x="478" 
d="M345 137h87q0 -67 -52 -108t-141 -41q-83 0 -138 36.5t-55 98.5q0 49 30.5 79t79.5 35q-46 7 -73 35.5t-27 73.5q0 56 49.5 91.5t130.5 35.5q84 0 135.5 -40t51.5 -105h-87q0 34 -25.5 54.5t-75.5 20.5q-43 0 -68.5 -19.5t-25.5 -49.5q0 -32 22.5 -50.5t58.5 -18.5h65
v-65h-69q-41 0 -64 -19t-23 -48q0 -73 102 -73q53 0 82.5 21t29.5 56z" />
    <glyph glyph-name="uni0512" unicode="&#x512;" horiz-adv-x="674" 
d="M150 700h444v-782q0 -66 -36.5 -101.5t-104.5 -35.5q-42 0 -66 11v82q21 -7 52 -7q33 0 48.5 18.5t15.5 59.5v674h-262v-357q0 -268 -180 -268h-40v86h26q51 0 77 41.5t26 142.5v436z" />
    <glyph glyph-name="uni0513" unicode="&#x513;" horiz-adv-x="550" 
d="M475 56h1v-154q0 -58 -31.5 -89.5t-89.5 -31.5q-42 0 -63 11v79q18 -7 46 -7q51 0 51 62v454h-180v-182q0 -98 -37.5 -150t-105.5 -52h-36v83h18q75 0 75 115v267h352v-405z" />
    <glyph glyph-name="uni051C" unicode="&#x51c;" horiz-adv-x="958" 
d="M242 0l-239 700h96l179 -550l167 550h69l166 -550l180 550h96l-240 -700h-67l-170 542l-169 -542h-68z" />
    <glyph glyph-name="uni051D" unicode="&#x51d;" horiz-adv-x="745" 
d="M178 0l-170 461h95l111 -336l112 336h93l112 -336l111 336h96l-171 -461h-74l-121 354l-120 -354h-74z" />
    <glyph glyph-name="uni0524" unicode="&#x524;" horiz-adv-x="665" 
d="M585 82h46v-202h-87v120h-50v618h-323v-618h-91v700h505v-618z" />
    <glyph glyph-name="uni0525" unicode="&#x525;" horiz-adv-x="575" 
d="M486 82h46v-202h-87v120h-46v388h-237v-388h-87v461h411v-379z" />
    <glyph glyph-name="uni0526" unicode="&#x526;" horiz-adv-x="621" 
d="M534 82h46v-202h-87v120h-50v237q0 159 -144 159q-82 0 -128 -37v-359h-91v700h91v-259q59 37 153 37q100 0 155 -60.5t55 -157.5v-178z" />
    <glyph glyph-name="uni0527" unicode="&#x527;" horiz-adv-x="585" 
d="M496 82h45v-202h-87v120h-45v246q0 78 -27.5 115t-88.5 37q-63 0 -96.5 -41t-33.5 -113v-244h-87v700h87v-324q19 45 60.5 71t100.5 26q172 0 172 -189v-202z" />
    <glyph glyph-name="uni0E3F" unicode="&#xe3f;" horiz-adv-x="582" 
d="M537 186q0 -86 -58 -136t-158 -50v-99h-67v99h-174v681h174v99h67v-99q97 -3 152 -49.5t55 -127.5q0 -67 -35 -107t-97 -50q60 -6 100.5 -49.5t40.5 -111.5zM307 601h-136v-216h142q57 0 90.5 29t33.5 79q0 51 -34.5 79.5t-95.5 28.5zM319 81q59 0 93 30t34 84
q0 49 -33.5 80t-86.5 31h-155v-225h148z" />
    <glyph glyph-name="Wgrave" unicode="&#x1e80;" horiz-adv-x="958" 
d="M568 731l-217 104l31 59l218 -103zM242 0l-239 700h96l179 -550l167 550h69l166 -550l180 550h96l-240 -700h-67l-170 542l-169 -542h-68z" />
    <glyph glyph-name="wgrave" unicode="&#x1e81;" horiz-adv-x="745" 
d="M489 505l-274 117l29 65l274 -114zM178 0l-170 461h95l111 -336l112 336h93l112 -336l111 336h96l-171 -461h-74l-121 354l-120 -354h-74z" />
    <glyph glyph-name="Wacute" unicode="&#x1e82;" horiz-adv-x="958" 
d="M391 731l-32 60l218 103l31 -59zM242 0l-239 700h96l179 -550l167 550h69l166 -550l180 550h96l-240 -700h-67l-170 542l-169 -542h-68z" />
    <glyph glyph-name="wacute" unicode="&#x1e83;" horiz-adv-x="745" 
d="M242 506l-29 68l274 114l29 -65zM178 0l-170 461h95l111 -336l112 336h93l112 -336l111 336h96l-171 -461h-74l-121 354l-120 -354h-74z" />
    <glyph glyph-name="Wdieresis" unicode="&#x1e84;" horiz-adv-x="958" 
d="M361 747q-28 0 -47 19.5t-19 47.5t19 47.5t47 19.5q29 0 48.5 -19.5t19.5 -47.5t-20 -47.5t-48 -19.5zM598 747q-28 0 -47.5 19.5t-19.5 47.5t19.5 47.5t47.5 19.5t47.5 -19.5t19.5 -47.5t-19.5 -47.5t-47.5 -19.5zM242 0l-239 700h96l179 -550l167 550h69l166 -550
l180 550h96l-240 -700h-67l-170 542l-169 -542h-68z" />
    <glyph glyph-name="wdieresis" unicode="&#x1e85;" horiz-adv-x="745" 
d="M273 539q-28 0 -47.5 19.5t-19.5 47.5t19.5 47.5t47.5 19.5q29 0 48 -19.5t19 -47.5t-19.5 -47.5t-47.5 -19.5zM473 539q-28 0 -47.5 19.5t-19.5 47.5t19.5 47.5t47.5 19.5q29 0 48 -19.5t19 -47.5t-19.5 -47.5t-47.5 -19.5zM178 0l-170 461h95l111 -336l112 336h93
l112 -336l111 336h96l-171 -461h-74l-121 354l-120 -354h-74z" />
    <glyph glyph-name="Ygrave" unicode="&#x1ef2;" horiz-adv-x="552" 
d="M408 791l-32 -60l-217 104l31 59zM467 700h100l-352 -700h-101l141 278l-265 422h106l205 -328z" />
    <glyph glyph-name="ygrave" unicode="&#x1ef3;" horiz-adv-x="567" 
d="M393 505l-274 117l29 65l274 -114zM405 461h87v-470q0 -109 -63 -166q-56 -50 -151 -50q-100 0 -156 48q-51 43 -52 119h88q5 -94 119 -94q128 0 128 149v86q-46 -95 -160 -95q-87 0 -131 53.5t-44 144.5v275h87v-257q0 -67 26.5 -102.5t90.5 -35.5q63 0 97 45.5
t34 112.5v237z" />
    <glyph glyph-name="uni2002" unicode="&#x2002;" horiz-adv-x="500" 
 />
    <glyph glyph-name="uni2003" unicode="&#x2003;" horiz-adv-x="1000" 
 />
    <glyph glyph-name="uni2004" unicode="&#x2004;" horiz-adv-x="0" 
 />
    <glyph glyph-name="uni2005" unicode="&#x2005;" horiz-adv-x="250" 
 />
    <glyph glyph-name="uni2009" unicode="&#x2009;" horiz-adv-x="135" 
 />
    <glyph glyph-name="uni200A" unicode="&#x200a;" horiz-adv-x="75" 
 />
    <glyph glyph-name="endash" unicode="&#x2013;" horiz-adv-x="611" 
d="M53 235v70h506v-70h-506z" />
    <glyph glyph-name="emdash" unicode="&#x2014;" horiz-adv-x="798" 
d="M53 237v70h692v-70h-692z" />
    <glyph glyph-name="quoteleft" unicode="&#x2018;" horiz-adv-x="276" 
d="M150 498q-33 0 -59 28t-26 80q0 59 32 96t89 37q19 0 31 -3v-40q-11 2 -31 2q-40 0 -55 -33q-14 -21 -14 -50q12 15 38 15q27 0 45.5 -18t18.5 -47t-19 -48t-50 -19z" />
    <glyph glyph-name="quoteright" unicode="&#x2019;" horiz-adv-x="276" 
d="M126 718q33 0 59 -28t26 -80q0 -59 -32 -96t-89 -37q-19 0 -31 3v40q11 -2 31 -2q40 0 55 33q14 21 14 50q-12 -15 -38 -15q-27 0 -45.5 18t-18.5 47t19 48t50 19z" />
    <glyph glyph-name="quotesinglbase" unicode="&#x201a;" horiz-adv-x="276" 
d="M126 124q33 0 59 -28t26 -80q0 -59 -32 -96t-89 -37q-19 0 -31 3v40q11 -2 31 -2q40 0 55 33q14 21 14 50q-12 -15 -38 -15q-27 0 -45.5 18t-18.5 47t19 48t50 19z" />
    <glyph glyph-name="quotedblleft" unicode="&#x201c;" horiz-adv-x="460" 
d="M150 498q-33 0 -59 28t-26 80q0 59 32 96t89 37q19 0 31 -3v-40q-11 2 -31 2q-40 0 -55 -33q-14 -21 -14 -50q12 15 38 15q27 0 45.5 -18t18.5 -47t-19 -48t-50 -19zM334 498q-33 0 -59 28t-26 80q0 59 32 96t89 37q19 0 31 -3v-40q-11 2 -31 2q-40 0 -55 -33
q-14 -21 -14 -50q12 15 38 15q27 0 45.5 -18t18.5 -47t-19 -48t-50 -19z" />
    <glyph glyph-name="quotedblright" unicode="&#x201d;" horiz-adv-x="460" 
d="M126 718q33 0 59 -28t26 -80q0 -59 -32 -96t-89 -37q-19 0 -31 3v40q11 -2 31 -2q40 0 55 33q14 21 14 50q-12 -15 -38 -15q-27 0 -45.5 18t-18.5 47t19 48t50 19zM310 718q33 0 59 -28t26 -80q0 -59 -32 -96t-89 -37q-19 0 -31 3v40q11 -2 31 -2q40 0 55 33q14 21 14 50
q-12 -15 -38 -15q-27 0 -45.5 18t-18.5 47t19 48t50 19z" />
    <glyph glyph-name="quotedblbase" unicode="&#x201e;" horiz-adv-x="460" 
d="M126 124q33 0 59 -28t26 -80q0 -59 -32 -96t-89 -37q-19 0 -31 3v40q11 -2 31 -2q40 0 55 33q14 21 14 50q-12 -15 -38 -15q-27 0 -45.5 18t-18.5 47t19 48t50 19zM310 124q33 0 59 -28t26 -80q0 -59 -32 -96t-89 -37q-19 0 -31 3v40q11 -2 31 -2q40 0 55 33q14 21 14 50
q-12 -15 -38 -15q-27 0 -45.5 18t-18.5 47t19 48t50 19z" />
    <glyph glyph-name="dagger" unicode="&#x2020;" horiz-adv-x="435" 
d="M174 -182v561h-124v77h124v261h87v-261h124v-77h-124v-561h-87z" />
    <glyph glyph-name="daggerdbl" unicode="&#x2021;" horiz-adv-x="435" 
d="M174 -182v191h-124v76h124v296h-124v75h124v261h87v-261h124v-75h-124v-296h124v-76h-124v-191h-87z" />
    <glyph glyph-name="bullet" unicode="&#x2022;" horiz-adv-x="358" 
d="M179 196q-48 0 -82 34t-34 82q0 49 34 83t82 34q49 0 83 -34t34 -83q0 -48 -34 -82t-83 -34z" />
    <glyph glyph-name="ellipsis" unicode="&#x2026;" horiz-adv-x="771" 
d="M143 -11q-31 0 -52 21.5t-21 51.5t21 51.5t52 21.5q30 0 51.5 -21.5t21.5 -51.5t-21.5 -51.5t-51.5 -21.5zM384 -11q-31 0 -52 21.5t-21 51.5t21 51.5t52 21.5q30 0 51.5 -21.5t21.5 -51.5t-21.5 -51.5t-51.5 -21.5zM628 -11q-31 0 -52 21.5t-21 51.5t21 51.5t52 21.5
q30 0 51.5 -21.5t21.5 -51.5t-21.5 -51.5t-51.5 -21.5z" />
    <glyph glyph-name="perthousand" unicode="&#x2030;" horiz-adv-x="1159" 
d="M182 -15l-59 33l472 682l57 -32zM196 348q-80 0 -128 49.5t-48 120.5t48 120.5t128 49.5t128 -49.5t48 -120.5t-48 -120.5t-128 -49.5zM196 416q46 0 73 29t27 73t-27 73t-73 29t-72.5 -29t-26.5 -73t26.5 -73t72.5 -29zM583 -5q-80 0 -128 49.5t-48 120.5t48 120.5
t128 49.5t128 -49.5t48 -120.5t-48 -120.5t-128 -49.5zM962 -5q-80 0 -128 49.5t-48 120.5t48 120.5t128 49.5t128 -49.5t48 -120.5t-48 -120.5t-128 -49.5zM583 63q46 0 73 29t27 73t-27 73t-73 29t-72.5 -29t-26.5 -73t26.5 -73t72.5 -29zM962 63q46 0 73 29t27 73t-27 73
t-73 29t-72.5 -29t-26.5 -73t26.5 -73t72.5 -29z" />
    <glyph glyph-name="guilsinglleft" unicode="&#x2039;" horiz-adv-x="276" 
d="M213 69l-207 192l207 192l49 -50l-152 -142l152 -141z" />
    <glyph glyph-name="guilsinglright" unicode="&#x203a;" horiz-adv-x="276" 
d="M63 69l-49 51l152 141l-152 142l49 50l207 -192z" />
    <glyph glyph-name="fraction" unicode="&#x2044;" horiz-adv-x="155" 
d="M-129 -20l-59 38l473 682l58 -38z" />
    <glyph glyph-name="uni2070" unicode="&#x2070;" horiz-adv-x="414" 
d="M207 392q-81 0 -123.5 52.5t-42.5 152.5q0 101 42.5 153.5t123.5 52.5t123.5 -52.5t42.5 -153.5q0 -100 -42.5 -152.5t-123.5 -52.5zM207 455q91 0 91 142q0 143 -91 143t-91 -143q0 -142 91 -142z" />
    <glyph glyph-name="uni2074" unicode="&#x2074;" horiz-adv-x="390" 
d="M355 584v-64h-57v-120h-74v120h-171v274h74v-210h97v109h74v-109h57z" />
    <glyph glyph-name="uni2075" unicode="&#x2075;" horiz-adv-x="395" 
d="M200 392q-66 0 -106 30.5t-43 84.5h74q1 -25 22 -39.5t53 -14.5q38 0 60 22.5t22 59.5q0 36 -21 57t-56 21q-56 0 -77 -43h-67v224h269v-58h-202v-105q31 37 96 37q59 0 95 -36t36 -95q0 -66 -42 -105.5t-113 -39.5z" />
    <glyph glyph-name="uni2076" unicode="&#x2076;" horiz-adv-x="390" 
d="M195 683q70 0 112 -41t42 -105q0 -63 -42 -104.5t-112 -41.5t-112 41.5t-42 104.5q0 47 25 85l125 172h87l-88 -111h5zM195 452q37 0 59 24t22 61t-22 61t-59 24q-38 0 -60.5 -24t-22.5 -61t22.5 -61t60.5 -24z" />
    <glyph glyph-name="uni2077" unicode="&#x2077;" horiz-adv-x="352" 
d="M50 400l183 331h-194v63h304l-208 -394h-85z" />
    <glyph glyph-name="uni2078" unicode="&#x2078;" horiz-adv-x="396" 
d="M198 392q-70 0 -112 30t-42 83q0 38 20.5 64t60.5 35q-35 9 -54.5 34t-19.5 58q0 48 40.5 77t106.5 29t106 -29t40 -77q0 -34 -19.5 -58.5t-54.5 -33.5q82 -18 82 -99q0 -53 -42 -83t-112 -30zM198 631q33 0 53.5 16.5t20.5 42.5q0 28 -20.5 44.5t-53.5 16.5t-53.5 -16.5
t-20.5 -44.5q0 -26 20.5 -42.5t53.5 -16.5zM198 446q36 0 57.5 18.5t21.5 47.5q0 30 -21.5 47.5t-57.5 17.5t-57.5 -17.5t-21.5 -47.5q0 -29 21.5 -47.5t57.5 -18.5z" />
    <glyph glyph-name="uni2079" unicode="&#x2079;" horiz-adv-x="390" 
d="M349 657q0 -47 -25 -85l-125 -172h-87l88 111h-5q-70 0 -112 41t-42 105q0 63 42 104.5t112 41.5t112 -41.5t42 -104.5zM114 657q0 -37 22 -61t59 -24q38 0 60.5 24t22.5 61t-22.5 61t-60.5 24q-37 0 -59 -24t-22 -61z" />
    <glyph glyph-name="uni207A" unicode="&#x207a;" horiz-adv-x="399" 
d="M170 453v106h-107v56h107v106h58v-106h107v-56h-107v-106h-58z" />
    <glyph glyph-name="uni207B" unicode="&#x207b;" horiz-adv-x="399" 
d="M63 559v56h272v-56h-272z" />
    <glyph glyph-name="uni207C" unicode="&#x207c;" horiz-adv-x="398" 
d="M58 628v56h283v-56h-283zM58 494v55h283v-55h-283z" />
    <glyph glyph-name="uni207D" unicode="&#x207d;" horiz-adv-x="243" 
d="M175 327q-59 58 -91.5 123t-32.5 154t32.5 153.5t91.5 122.5l52 -43q-56 -54 -81.5 -106.5t-25.5 -126.5q0 -75 25.5 -127.5t81.5 -106.5z" />
    <glyph glyph-name="uni207E" unicode="&#x207e;" horiz-adv-x="243" 
d="M68 327l-52 43q56 54 81.5 106.5t25.5 127.5q0 74 -25.5 126.5t-81.5 106.5l52 43q59 -58 91.5 -122.5t32.5 -153.5t-32.5 -154t-91.5 -123z" />
    <glyph glyph-name="uni2080" unicode="&#x2080;" horiz-adv-x="414" 
d="M207 -86q-81 0 -123.5 52.5t-42.5 152.5q0 101 42.5 153.5t123.5 52.5t123.5 -52.5t42.5 -153.5q0 -100 -42.5 -152.5t-123.5 -52.5zM207 -23q91 0 91 142q0 143 -91 143t-91 -143q0 -142 91 -142z" />
    <glyph glyph-name="uni2081" unicode="&#x2081;" horiz-adv-x="276" 
d="M123 -78v267h-92v57q59 0 80 16t21 54h63v-394h-72z" />
    <glyph glyph-name="uni2082" unicode="&#x2082;" horiz-adv-x="380" 
d="M34 -78q0 70 24 111.5t81 70.5l67 32q52 24 52 72q0 26 -17 41.5t-45 15.5q-36 0 -55.5 -20.5t-19.5 -58.5h-77q0 63 41.5 100.5t109.5 37.5q65 0 103 -30t38 -82q0 -79 -81 -119l-63 -32q-33 -16 -47 -33t-18 -44h207v-62h-300z" />
    <glyph glyph-name="uni2083" unicode="&#x2083;" horiz-adv-x="387" 
d="M191 -86q-73 0 -113 35t-40 97h76q0 -34 21 -53t58 -19q34 0 53.5 16.5t19.5 44.5q0 63 -77 63h-38v58h39q71 0 71 57q0 25 -19 40t-49 15q-33 0 -52.5 -17t-19.5 -47h-75q0 55 40 87.5t109 32.5q64 0 103 -29t39 -78q0 -72 -80 -90q39 -5 62.5 -31t23.5 -64
q0 -53 -41.5 -85.5t-110.5 -32.5z" />
    <glyph glyph-name="uni2084" unicode="&#x2084;" horiz-adv-x="390" 
d="M355 106v-64h-57v-120h-74v120h-171v274h74v-210h97v109h74v-109h57z" />
    <glyph glyph-name="uni2085" unicode="&#x2085;" horiz-adv-x="395" 
d="M200 -86q-66 0 -106 30.5t-43 84.5h74q1 -25 22 -39.5t53 -14.5q38 0 60 22.5t22 59.5q0 36 -21 57t-56 21q-56 0 -77 -43h-67v224h269v-58h-202v-105q31 37 96 37q59 0 95 -36t36 -95q0 -66 -42 -105.5t-113 -39.5z" />
    <glyph glyph-name="uni2086" unicode="&#x2086;" horiz-adv-x="390" 
d="M195 205q70 0 112 -41t42 -105q0 -63 -42 -104.5t-112 -41.5t-112 41.5t-42 104.5q0 47 25 85l125 172h87l-88 -111h5zM195 -26q37 0 59 24t22 61t-22 61t-59 24q-38 0 -60.5 -24t-22.5 -61t22.5 -61t60.5 -24z" />
    <glyph glyph-name="uni2087" unicode="&#x2087;" horiz-adv-x="352" 
d="M50 -78l183 331h-194v63h304l-208 -394h-85z" />
    <glyph glyph-name="uni2088" unicode="&#x2088;" horiz-adv-x="396" 
d="M198 -86q-70 0 -112 30t-42 83q0 38 20.5 64t60.5 35q-35 9 -54.5 34t-19.5 58q0 48 40.5 77t106.5 29t106 -29t40 -77q0 -34 -19.5 -58.5t-54.5 -33.5q82 -18 82 -99q0 -53 -42 -83t-112 -30zM198 153q33 0 53.5 16.5t20.5 42.5q0 28 -20.5 44.5t-53.5 16.5t-53.5 -16.5
t-20.5 -44.5q0 -26 20.5 -42.5t53.5 -16.5zM198 -32q36 0 57.5 18.5t21.5 47.5q0 30 -21.5 47.5t-57.5 17.5t-57.5 -17.5t-21.5 -47.5q0 -29 21.5 -47.5t57.5 -18.5z" />
    <glyph glyph-name="uni2089" unicode="&#x2089;" horiz-adv-x="390" 
d="M349 179q0 -47 -25 -85l-125 -172h-87l88 111h-5q-70 0 -112 41t-42 105q0 63 42 104.5t112 41.5t112 -41.5t42 -104.5zM114 179q0 -37 22 -61t59 -24q38 0 60.5 24t22.5 61t-22.5 61t-60.5 24q-37 0 -59 -24t-22 -61z" />
    <glyph glyph-name="uni208A" unicode="&#x208a;" horiz-adv-x="399" 
d="M170 -33v106h-107v56h107v106h58v-106h107v-56h-107v-106h-58z" />
    <glyph glyph-name="uni208B" unicode="&#x208b;" horiz-adv-x="399" 
d="M63 73v56h272v-56h-272z" />
    <glyph glyph-name="uni208C" unicode="&#x208c;" horiz-adv-x="398" 
d="M58 142v56h283v-56h-283zM58 8v55h283v-55h-283z" />
    <glyph glyph-name="uni208D" unicode="&#x208d;" horiz-adv-x="243" 
d="M175 -159q-59 58 -91.5 123t-32.5 154t32.5 153.5t91.5 122.5l52 -43q-56 -54 -81.5 -106.5t-25.5 -126.5q0 -75 25.5 -127.5t81.5 -106.5z" />
    <glyph glyph-name="uni208E" unicode="&#x208e;" horiz-adv-x="243" 
d="M68 -159l-52 43q56 54 81.5 106.5t25.5 127.5q0 74 -25.5 126.5t-81.5 106.5l52 43q59 -58 91.5 -122.5t32.5 -153.5t-32.5 -154t-91.5 -123z" />
    <glyph glyph-name="uni20A9" unicode="&#x20a9;" horiz-adv-x="758" 
d="M742 381h-86l-16 -81h102v-67h-115l-47 -233h-86l-115 540l-115 -540h-86l-47 233h-115v67h102l-16 81h-86v66h73l-47 233h93l90 -546l118 546h72l118 -546l90 546h93l-47 -233h73v-66z" />
    <glyph glyph-name="Euro" unicode="&#x20ac;" horiz-adv-x="595" 
d="M325 69q57 0 91 34t42 92h89q-12 -90 -69.5 -148t-152.5 -58q-207 0 -237 254h-67l17 61h45q-1 12 -1 37q0 24 1 36h-60l16 61h48q32 254 238 254q95 0 152.5 -57.5t69.5 -148.5h-89q-9 58 -42.5 92t-90.5 34q-70 0 -105 -45t-45 -129h206l-16 -61h-194q-1 -12 -1 -36
q0 -25 1 -37h209l-16 -61h-189q10 -84 45.5 -129t104.5 -45z" />
    <glyph glyph-name="uni20AE" unicode="&#x20ae;" horiz-adv-x="521" 
d="M515 598h-209v-143l123 59v-70l-123 -59v-66l123 59v-70l-123 -59v-249h-91v206l-123 -59v69l123 59v67l-123 -59v70l123 59v186h-209v82h509v-82z" />
    <glyph glyph-name="uni20B4" unicode="&#x20b4;" horiz-adv-x="562" 
d="M362 335l-64 -30h234l-17 -50h-319q-29 -17 -41.5 -36.5t-12.5 -50.5q0 -47 33.5 -73.5t94.5 -26.5q70 0 110 30t40 82h84q0 -86 -62.5 -139t-172.5 -53q-97 0 -155.5 46.5t-58.5 126.5q0 57 24 94h-49l17 50h79q19 14 51 29l98 44h-245l17 50h319q35 31 35 89
q0 45 -31.5 71t-85.5 26q-62 0 -96 -27t-34 -76h-84q0 83 58 132t154 49q93 0 148.5 -45.5t55.5 -125.5q0 -53 -22 -93h68l-17 -50h-89q-26 -25 -64 -43z" />
    <glyph glyph-name="uni20B8" unicode="&#x20b8;" horiz-adv-x="521" 
d="M6 598v82h509v-82h-509zM215 0v441h-209v82h509v-82h-209v-441h-91z" />
    <glyph glyph-name="uni20B9" unicode="&#x20b9;" horiz-adv-x="524" 
d="M377 619q62 -59 71 -150h82l-17 -61h-65q-7 -71 -47.5 -123t-103.5 -74l143 -211h-105l-133 197h-144v82h151q57 0 97.5 36t50.5 93h-299v61h299q-10 58 -50.5 93.5t-97.5 35.5h-151v82h472l-17 -61h-136z" />
    <glyph glyph-name="uni20BA" unicode="&#x20ba;" horiz-adv-x="479" 
d="M380 264h89q0 -134 -79.5 -199t-221.5 -65h-88v219l-51 -25v69l51 25v68l-51 -25v69l51 25v255h91v-210l156 76v-69l-156 -76v-68l156 76v-69l-156 -76v-182q209 0 209 182z" />
    <glyph glyph-name="uni20BD" unicode="&#x20bd;" horiz-adv-x="594" 
d="M345 197h-155v-59h170v-59h-170v-79h-91v79h-100v59h100v59h-100v82h100v401h246q103 0 169 -68t66 -174q0 -105 -66 -173t-169 -68zM190 598v-319h150q65 0 107 45t42 114q0 70 -42 115t-107 45h-150z" />
    <glyph glyph-name="uni2113" unicode="&#x2113;" horiz-adv-x="411" 
d="M263 -11q-21 0 -37.5 2t-41 11.5t-40 27.5t-27.5 53t-12 83v7l-64 -52l-40 66l104 77v243q0 103 33.5 156.5t107.5 53.5q66 0 102.5 -47.5t36.5 -127.5q0 -82 -53 -156.5t-152 -155.5v-69q0 -33 8.5 -54.5t24.5 -29.5t28.5 -10.5t31.5 -2.5q46 0 78 19l5 -71
q-34 -23 -93 -23zM180 325q70 65 99.5 115t29.5 105q0 103 -60 103q-69 0 -69 -126v-197z" />
    <glyph glyph-name="uni2116" unicode="&#x2116;" horiz-adv-x="1113" 
d="M80 0v700h97l315 -548v548h87v-700h-96l-315 548v-548h-88zM832 115q-90 0 -144.5 56.5t-54.5 137.5q0 82 54.5 138.5t144.5 56.5q91 0 146 -56.5t55 -138.5t-55 -138t-146 -56zM832 190q51 0 83 34.5t32 84.5t-32 84.5t-83 34.5q-50 0 -81.5 -34.5t-31.5 -84.5
t31.5 -84.5t81.5 -34.5zM633 0v78h400v-78h-400z" />
    <glyph glyph-name="trademark" unicode="&#x2122;" horiz-adv-x="832" 
d="M105 293v348h-99v59h264v-59h-99v-348h-66zM336 293v407h107l101 -294l101 294h107v-407h-65v334l-114 -334h-58l-114 334v-334h-65z" />
    <glyph glyph-name="uni2126" unicode="&#x2126;" horiz-adv-x="702" 
d="M58 0v82h183v28q-93 32 -148 110.5t-55 178.5q0 131 85.5 222t227.5 91t227.5 -91t85.5 -222q0 -100 -55 -179t-148 -110v-28h183v-82h-255v160q88 17 136 85t48 158q0 96 -59 161.5t-163 65.5t-163 -65.5t-59 -161.5q0 -90 48 -158t136 -85v-160h-255z" />
    <glyph glyph-name="estimated" unicode="&#x212e;" horiz-adv-x="516" 
d="M268 -12q-110 0 -170 70.5t-60 172.5q0 107 60.5 174.5t166.5 67.5q90 0 152 -60t62 -148q0 -16 -1 -29h-339v-184q53 -42 129 -42q68 0 116 33t64 82h23q-16 -58 -70.5 -97.5t-132.5 -39.5zM139 259h241v155q-49 37 -115 37q-73 0 -126 -40v-152z" />
    <glyph glyph-name="uni2153" unicode="&#x2153;" horiz-adv-x="785" 
d="M144 -20l-59 38l473 682l58 -38zM123 286v267h-92v57q59 0 80 16t21 54h63v-394h-72zM589 -8q-73 0 -113 35t-40 97h76q0 -34 21 -53t58 -19q34 0 53.5 16.5t19.5 44.5q0 63 -77 63h-38v58h39q71 0 71 57q0 25 -19 40t-49 15q-33 0 -52.5 -17t-19.5 -47h-75q0 55 40 87.5
t109 32.5q64 0 103 -29t39 -78q0 -72 -80 -90q39 -5 62.5 -31t23.5 -64q0 -53 -41.5 -85.5t-110.5 -32.5z" />
    <glyph glyph-name="uni2154" unicode="&#x2154;" horiz-adv-x="892" 
d="M251 -20l-59 38l473 682l58 -38zM34 286q0 70 24 111.5t81 70.5l67 32q52 24 52 72q0 26 -17 41.5t-45 15.5q-36 0 -55.5 -20.5t-19.5 -58.5h-77q0 63 41.5 100.5t109.5 37.5q65 0 103 -30t38 -82q0 -79 -81 -119l-63 -32q-33 -16 -47 -33t-18 -44h207v-62h-300zM696 -8
q-73 0 -113 35t-40 97h76q0 -34 21 -53t58 -19q34 0 53.5 16.5t19.5 44.5q0 63 -77 63h-38v58h39q71 0 71 57q0 25 -19 40t-49 15q-33 0 -52.5 -17t-19.5 -47h-75q0 55 40 87.5t109 32.5q64 0 103 -29t39 -78q0 -72 -80 -90q39 -5 62.5 -31t23.5 -64q0 -53 -41.5 -85.5
t-110.5 -32.5z" />
    <glyph glyph-name="arrowleft" unicode="&#x2190;" horiz-adv-x="720" 
d="M247 134l-237 216l237 216l48 -52l-144 -128h559v-72h-558l143 -127z" />
    <glyph glyph-name="arrowup" unicode="&#x2191;" horiz-adv-x="487" 
d="M207 0v557l-127 -142l-52 49l216 236l216 -236l-53 -49l-128 144v-559h-72z" />
    <glyph glyph-name="arrowright" unicode="&#x2192;" horiz-adv-x="720" 
d="M474 134l-49 52l144 128h-559v72h557l-142 127l49 53l236 -216z" />
    <glyph glyph-name="arrowdown" unicode="&#x2193;" horiz-adv-x="487" 
d="M244 0l-216 237l52 48l128 -144v559h72v-558l127 143l53 -48z" />
    <glyph glyph-name="uni2196" unicode="&#x2196;" horiz-adv-x="570" 
d="M494 77l-394 394l11 -190l-72 -4l-14 320l320 -14l-3 -72l-192 11l395 -394z" />
    <glyph glyph-name="uni2197" unicode="&#x2197;" horiz-adv-x="570" 
d="M76 77l-51 51l394 394l-190 -11l-4 72l320 14l-14 -320l-72 4l12 191z" />
    <glyph glyph-name="uni2198" unicode="&#x2198;" horiz-adv-x="570" 
d="M545 103l-320 14l4 72l191 -11l-395 394l51 51l394 -394l-11 191l72 3z" />
    <glyph glyph-name="uni2199" unicode="&#x2199;" horiz-adv-x="570" 
d="M25 103l14 320l72 -3l-11 -192l394 395l51 -51l-394 -394l191 11l3 -72z" />
    <glyph glyph-name="partialdiff" unicode="&#x2202;" horiz-adv-x="577" 
d="M278 716q121 0 185 -89t64 -286q0 -185 -60.5 -271.5t-182.5 -86.5q-116 0 -175 65.5t-59 160.5q0 101 62.5 167t163.5 66q102 0 164 -69q-4 145 -42 204t-117 59q-68 0 -102.5 -38t-34.5 -97h-91q0 93 60 154t165 61zM281 64q81 0 117 55t41 172q-54 71 -153 71
q-75 0 -113 -43.5t-38 -109.5q0 -62 35.5 -103.5t110.5 -41.5z" />
    <glyph glyph-name="emptyset" unicode="&#x2205;" 
d="M553 516l-57 -57q46 -59 46 -142q0 -99 -62.5 -160.5t-159.5 -61.5q-82 0 -142 46l-56 -56l-34 34l56 56q-46 59 -46 142q0 99 62.5 160.5t159.5 61.5q82 0 142 -46l57 57zM155 317q0 -60 30 -101l238 238q-43 31 -102 31q-74 0 -120 -46t-46 -122zM486 317q0 59 -30 102
l-238 -238q43 -31 103 -31q73 0 119 45.5t46 121.5z" />
    <glyph glyph-name="uni2206" unicode="&#x2206;" horiz-adv-x="584" 
d="M18 0l241 700h66l242 -700h-549zM144 82h296l-148 469z" />
    <glyph glyph-name="product" unicode="&#x220f;" horiz-adv-x="720" 
d="M113 -213v926h-63v81h620v-81h-62v-926h-91v926h-313v-926h-91z" />
    <glyph glyph-name="summation" unicode="&#x2211;" horiz-adv-x="620" 
d="M50 -213v82l358 422l-358 422v81h520v-85h-404l357 -418l-357 -418h404v-86h-520z" />
    <glyph glyph-name="minus" unicode="&#x2212;" horiz-adv-x="504" 
d="M53 276v77h399v-77h-399z" />
    <glyph glyph-name="radical" unicode="&#x221a;" horiz-adv-x="780" 
d="M305 -213l-137 389h-118v78h182l106 -317l296 857h96l-359 -1007h-66z" />
    <glyph glyph-name="infinity" unicode="&#x221e;" horiz-adv-x="878" 
d="M254 87q-96 0 -150 59.5t-54 142.5t53.5 142.5t150.5 59.5q110 0 185 -119q36 59 85 89t100 30q96 0 150 -58t54 -144t-54 -144t-150 -58q-112 0 -185 119q-74 -119 -185 -119zM254 165q38 0 76 31.5t64 92.5q-26 61 -64 92.5t-76 31.5q-57 0 -89.5 -36t-32.5 -88
t32.5 -88t89.5 -36zM624 165q57 0 89.5 36t32.5 88t-32.5 88t-89.5 36q-38 0 -76 -31.5t-64 -92.5q26 -61 63.5 -92.5t76.5 -31.5z" />
    <glyph glyph-name="integral" unicode="&#x222b;" horiz-adv-x="366" 
d="M129 -217q-50 0 -79 12v73q27 -9 44 -9q46 0 46 62v741q0 69 27.5 100.5t69.5 31.5q54 0 79 -11v-74q-26 9 -44 9q-46 0 -46 -62v-740q0 -69 -27.5 -101t-69.5 -32z" />
    <glyph glyph-name="approxequal" unicode="&#x2248;" horiz-adv-x="530" 
d="M368 319q-39 0 -103 34t-108 34q-51 0 -104 -53v76q43 55 108 55q35 0 108.5 -34t99.5 -34q52 0 108 54v-76q-46 -56 -109 -56zM368 160q-38 0 -102 34t-108 34q-51 0 -104 -53v76q43 55 107 55q35 0 109 -34t99 -34q51 0 109 54v-76q-45 -56 -110 -56z" />
    <glyph glyph-name="notequal" unicode="&#x2260;" horiz-adv-x="529" 
d="M477 363h-154l-44 -99h198v-78h-234l-47 -104h-72l47 104h-118v78h153l45 99h-198v78h233l47 104h73l-47 -104h118v-78z" />
    <glyph glyph-name="lessequal" unicode="&#x2264;" horiz-adv-x="504" 
d="M449 217l-394 118v63l394 118v-83l-259 -66l259 -68v-82zM451 81h-399v78h399v-78z" />
    <glyph glyph-name="greaterequal" unicode="&#x2265;" horiz-adv-x="504" 
d="M55 217v82l259 68l-259 66v83l394 -118v-63zM53 81v78h399v-78h-399z" />
    <glyph glyph-name="uni2460" unicode="&#x2460;" horiz-adv-x="797" 
d="M398 -17q-164 0 -262 105t-98 262t98 262t262 105t262.5 -105t98.5 -262t-98.5 -262t-262.5 -105zM398 44q131 0 210.5 88t79.5 218t-79.5 218t-210.5 88t-210 -88t-79 -218t79 -218t210 -88zM381 171v243h-84v52q54 0 73 14.5t19 48.5h57v-358h-65z" />
    <glyph glyph-name="uni2461" unicode="&#x2461;" horiz-adv-x="797" 
d="M398 -17q-164 0 -262 105t-98 262t98 262t262 105t262.5 -105t98.5 -262t-98.5 -262t-262.5 -105zM398 44q131 0 210.5 88t79.5 218t-79.5 218t-210.5 88t-210 -88t-79 -218t79 -218t210 -88zM252 176q0 64 21.5 102t73.5 63l61 30q48 21 48 65q0 24 -15.5 38t-41.5 14
q-32 0 -50 -19t-18 -53h-70q0 57 37.5 91t99.5 34q59 0 93.5 -27t34.5 -74q0 -72 -73 -109l-57 -29q-30 -14 -43 -29.5t-17 -40.5h189v-56h-273z" />
    <glyph glyph-name="uni2462" unicode="&#x2462;" horiz-adv-x="797" 
d="M398 -17q-164 0 -262 105t-98 262t98 262t262 105t262.5 -105t98.5 -262t-98.5 -262t-262.5 -105zM398 44q131 0 210.5 88t79.5 218t-79.5 218t-210.5 88t-210 -88t-79 -218t79 -218t210 -88zM399 164q-67 0 -103 31.5t-36 88.5h69q0 -31 19 -48.5t52 -17.5q31 0 49 15
t18 41q0 57 -70 57h-35v53h36q64 0 64 52q0 22 -17 36t-45 14q-30 0 -47.5 -16t-17.5 -43h-68q0 50 36 79.5t99 29.5q59 0 94 -26t35 -71q0 -65 -72 -82q35 -4 56.5 -28t21.5 -58q0 -48 -37.5 -77.5t-100.5 -29.5z" />
    <glyph glyph-name="uni2463" unicode="&#x2463;" horiz-adv-x="797" 
d="M398 717q164 0 262.5 -105t98.5 -262t-98.5 -262t-262.5 -105t-262 105t-98 262t98 262t262 105zM398 44q131 0 210.5 88t79.5 218t-79.5 218t-210.5 88t-210 -88t-79 -218t79 -218t210 -88zM491 437v-99h52v-58h-52v-109h-67v109h-156v249h67v-191h89v99h67z" />
    <glyph glyph-name="uni2464" unicode="&#x2464;" horiz-adv-x="797" 
d="M398 -17q-164 0 -262 105t-98 262t98 262t262 105t262.5 -105t98.5 -262t-98.5 -262t-262.5 -105zM398 44q131 0 210.5 88t79.5 218t-79.5 218t-210.5 88t-210 -88t-79 -218t79 -218t210 -88zM396 158q-60 0 -96.5 27.5t-39.5 76.5h68q1 -23 20 -36t48 -13q34 0 54 20.5
t20 54.5q0 32 -19 51.5t-51 19.5q-50 0 -70 -39h-61v203h245v-53h-184v-95q29 34 88 34q53 0 86 -33t33 -86q0 -60 -38.5 -96t-102.5 -36z" />
    <glyph glyph-name="uni2465" unicode="&#x2465;" horiz-adv-x="797" 
d="M398 717q164 0 262.5 -105t98.5 -262t-98.5 -262t-262.5 -105t-262 105t-98 262t98 262t262 105zM398 44q131 0 210.5 88t79.5 218t-79.5 218t-210.5 88t-210 -88t-79 -218t79 -218t210 -88zM394 433q64 0 102 -37t38 -95t-38 -95.5t-102 -37.5q-63 0 -101.5 38t-38.5 95
q0 45 23 77l114 156h79l-80 -101h4zM394 223q34 0 54 22t20 56q0 33 -20 55t-54 22t-54.5 -22t-20.5 -55q0 -34 20.5 -56t54.5 -22z" />
    <glyph glyph-name="uni2466" unicode="&#x2466;" horiz-adv-x="797" 
d="M398 -17q-164 0 -262 105t-98 262t98 262t262 105t262.5 -105t98.5 -262t-98.5 -262t-262.5 -105zM398 44q131 0 210.5 88t79.5 218t-79.5 218t-210.5 88t-210 -88t-79 -218t79 -218t210 -88zM285 170l167 301h-177v57h277l-189 -358h-78z" />
    <glyph glyph-name="uni2467" unicode="&#x2467;" horiz-adv-x="797" 
d="M398 -17q-164 0 -262 105t-98 262t98 262t262 105t262.5 -105t98.5 -262t-98.5 -262t-262.5 -105zM398 44q131 0 210.5 88t79.5 218t-79.5 218t-210.5 88t-210 -88t-79 -218t79 -218t210 -88zM398 164q-64 0 -102 27t-38 75q0 35 19 59t55 31q-32 8 -50 31t-18 53
q0 44 37 70t97 26t96.5 -26t36.5 -70q0 -31 -18 -53.5t-50 -30.5q37 -7 56 -31t19 -59q0 -48 -38 -75t-102 -27zM398 381q30 0 48.5 15t18.5 39q0 25 -18.5 40t-48.5 15t-48.5 -15t-18.5 -40q0 -24 18.5 -39t48.5 -15zM398 213q33 0 52.5 16.5t19.5 43.5t-19.5 43t-52.5 16
t-52.5 -16t-19.5 -43t19.5 -43.5t52.5 -16.5z" />
    <glyph glyph-name="uni2468" unicode="&#x2468;" horiz-adv-x="797" 
d="M398 717q164 0 262.5 -105t98.5 -262t-98.5 -262t-262.5 -105t-262 105t-98 262t98 262t262 105zM398 44q131 0 210.5 88t79.5 218t-79.5 218t-210.5 88t-210 -88t-79 -218t79 -218t210 -88zM404 533q64 0 102 -37.5t38 -94.5q0 -45 -23 -79l1 1l-114 -156h-79l80 101h-5
q-63 0 -101.5 37.5t-38.5 95.5q0 57 38.5 94.5t101.5 37.5zM331 401q0 -34 19.5 -56t53.5 -22q35 0 55.5 22t20.5 56q0 33 -20.5 55t-55.5 22q-34 0 -53.5 -22t-19.5 -55z" />
    <glyph glyph-name="uni24EA" unicode="&#x24ea;" horiz-adv-x="797" 
d="M398 -17q-164 0 -262 105t-98 262t98 262t262 105t262.5 -105t98.5 -262t-98.5 -262t-262.5 -105zM398 44q131 0 210.5 88t79.5 218t-79.5 218t-210.5 88t-210 -88t-79 -218t79 -218t210 -88zM398 164q-74 0 -112.5 47.5t-38.5 138.5t38.5 139t112.5 48t112.5 -48
t38.5 -139t-38.5 -138.5t-112.5 -47.5zM398 221q83 0 83 129q0 130 -83 130t-83 -130q0 -129 83 -129z" />
    <glyph glyph-name="uni24FF" unicode="&#x24ff;" horiz-adv-x="797" 
d="M398 -17q-164 0 -262 105t-98 262t98 262t262 105t262.5 -105t98.5 -262t-98.5 -262t-262.5 -105zM398 164q74 0 112.5 47.5t38.5 138.5t-38.5 139t-112.5 48t-112.5 -48t-38.5 -139t38.5 -138.5t112.5 -47.5zM398 221q-83 0 -83 129q0 130 83 130t83 -130
q0 -129 -83 -129z" />
    <glyph glyph-name="lozenge" unicode="&#x25ca;" horiz-adv-x="565" 
d="M244 0l-194 396l194 398h78l193 -398l-193 -396h-78zM282 92l143 304l-142 304l-143 -304z" />
    <glyph glyph-name="uni2776" unicode="&#x2776;" horiz-adv-x="797" 
d="M398 -17q-164 0 -262 105t-98 262t98 262t262 105t262.5 -105t98.5 -262t-98.5 -262t-262.5 -105zM375 171h66v358h-58q0 -35 -19 -49t-72 -14v-52h83v-243z" />
    <glyph glyph-name="uni2777" unicode="&#x2777;" horiz-adv-x="797" 
d="M398 -17q-164 0 -262 105t-98 262t98 262t262 105t262.5 -105t98.5 -262t-98.5 -262t-262.5 -105zM251 176h273v57h-188q4 25 17 40t42 30l58 28q73 37 73 108q0 48 -34.5 75.5t-93.5 27.5q-62 0 -99.5 -34.5t-37.5 -91.5h69q0 34 18 53t50 19q26 0 41.5 -14t15.5 -38
q0 -42 -47 -65l-61 -30q-52 -26 -74 -63.5t-22 -101.5z" />
    <glyph glyph-name="uni2778" unicode="&#x2778;" horiz-adv-x="797" 
d="M398 -17q-164 0 -262 105t-98 262t98 262t262 105t262.5 -105t98.5 -262t-98.5 -262t-262.5 -105zM399 164q63 0 100.5 29.5t37.5 77.5q0 34 -22 58t-57 29q73 16 73 81q0 45 -35 71.5t-94 26.5q-62 0 -99 -30t-37 -79h69q0 26 18 41.5t47 15.5q28 0 45 -13.5t17 -35.5
q0 -53 -65 -53h-35v-52h35q70 0 70 -57q0 -26 -18 -41t-49 -15q-33 0 -52 17.5t-19 48.5h-70q0 -57 36.5 -88.5t103.5 -31.5z" />
    <glyph glyph-name="uni2779" unicode="&#x2779;" horiz-adv-x="797" 
d="M398 -17q-164 0 -262 105t-98 262t98 262t262 105t262.5 -105t98.5 -262t-98.5 -262t-262.5 -105zM416 171h68v109h51v59h-51v99h-68v-99h-88v190h-67v-249h155v-109z" />
    <glyph glyph-name="uni277A" unicode="&#x277a;" horiz-adv-x="797" 
d="M398 -17q-164 0 -262 105t-98 262t98 262t262 105t262.5 -105t98.5 -262t-98.5 -262t-262.5 -105zM395 158q65 0 103.5 36t38.5 95q0 55 -33 87.5t-87 32.5q-59 0 -87 -34v95h184v53h-245v-203h61q19 38 70 38q32 0 51 -19t19 -51q0 -34 -20 -54.5t-54 -20.5
q-30 0 -49 13t-20 36h-67q2 -49 38.5 -76.5t96.5 -27.5z" />
    <glyph glyph-name="uni277B" unicode="&#x277b;" horiz-adv-x="797" 
d="M398 -17q-164 0 -262 105t-98 262t98 262t262 105t262.5 -105t98.5 -262t-98.5 -262t-262.5 -105zM395 168q63 0 101.5 37.5t38.5 94.5q0 56 -36 93.5t-97 39.5q-8 0 -14 -3l82 104h-79l-101 -139q-35 -48 -35 -95q0 -57 38.5 -94.5t101.5 -37.5zM395 223q-35 0 -55 22
t-20 55q0 34 20 56t55 22q34 0 54 -22t20 -56q0 -33 -20 -55t-54 -22z" />
    <glyph glyph-name="uni277C" unicode="&#x277c;" horiz-adv-x="797" 
d="M398 -17q-164 0 -262 105t-98 262t98 262t262 105t262.5 -105t98.5 -262t-98.5 -262t-262.5 -105zM286 170h77l189 358h-277v-58h177z" />
    <glyph glyph-name="uni277D" unicode="&#x277d;" horiz-adv-x="797" 
d="M398 -17q-164 0 -262 105t-98 262t98 262t262 105t262.5 -105t98.5 -262t-98.5 -262t-262.5 -105zM397 164q65 0 102.5 27t37.5 76q0 74 -74 89q32 8 49.5 30.5t17.5 53.5q0 44 -36.5 70.5t-96.5 26.5t-96.5 -26.5t-36.5 -70.5q0 -31 17.5 -53.5t49.5 -30.5
q-36 -7 -55 -31t-19 -58q0 -49 38 -76t102 -27zM397 381q-30 0 -48.5 15t-18.5 39q0 25 18.5 40t48.5 15t49 -15t19 -40q0 -24 -18.5 -39t-49.5 -15zM397 213q-33 0 -52.5 16.5t-19.5 43.5t20 43t52 16q33 0 52.5 -16t19.5 -43t-19.5 -43.5t-52.5 -16.5z" />
    <glyph glyph-name="uni277E" unicode="&#x277e;" horiz-adv-x="797" 
d="M398 -17q-164 0 -262 105t-98 262t98 262t262 105t262.5 -105t98.5 -262t-98.5 -262t-262.5 -105zM323 167h78l109 147q28 40 28 87q0 57 -38.5 94t-101.5 37t-101.5 -37t-38.5 -94t36.5 -94.5t96.5 -39.5q8 0 14 3zM398 323q-34 0 -54 22t-20 56q0 33 20 54.5t54 21.5
t54.5 -21.5t20.5 -54.5q0 -34 -20.5 -56t-54.5 -22z" />
    <glyph glyph-name="uniF8FF" unicode="&#xf8ff;" horiz-adv-x="800" 
d="M400 -17q-109 0 -193.5 52.5t-127.5 135.5t-43 179t43 179t127.5 135.5t193.5 52.5t193.5 -52.5t127.5 -135.5t43 -179t-43 -179t-127.5 -135.5t-193.5 -52.5zM400 6q140 0 239.5 100.5t99.5 243.5q0 138 -98 241.5t-241 103.5t-241.5 -103t-98.5 -242q0 -143 99 -243.5
t241 -100.5zM243 457q-17 0 -29.5 13t-12.5 30q0 18 12.5 30.5t29.5 12.5q18 0 30.5 -12.5t12.5 -30.5q0 -17 -12.5 -30t-30.5 -13zM540 457q-17 0 -29.5 13t-12.5 30q0 18 12.5 30.5t29.5 12.5q18 0 30.5 -12.5t12.5 -30.5q0 -17 -12.5 -30t-30.5 -13zM219 259l179 268
l-110 -243h178v-25h-247zM132 207q0 38 26 52l23 13q11 6 13 17.5t2 39.5h17q0 -57 -20 -69l-22 -13q-23 -13 -23 -40h-16zM616 157l-16 4q5 17 3 26t-16 15l-41 20q-55 27 -31 98l15 -5q-20 -61 27 -82l40 -19q20 -9 22.5 -26.5t-3.5 -30.5zM366 66q-102 0 -198 162
q82 -49 116 -60q35 -11 72 -11q148 0 220 37q1 0 3 2q-22 -49 -88 -89.5t-125 -40.5zM366 92q31 0 71.5 16.5t62.5 30t32 21.5q-9 -2 -40.5 -9.5t-45 -10t-39 -5.5t-49.5 -3q-30 0 -69.5 11.5t-63.5 30.5q26 -42 69 -62t72 -20z" />
    <glyph glyph-name="dollar.tf" 
d="M554 177q0 -80 -51.5 -131.5t-139.5 -60.5v-85h-66v86q-101 9 -156.5 71t-55.5 164h91q0 -72 41 -114.5t114 -42.5q63 0 97.5 29t34.5 82q0 42 -24.5 68.5t-77.5 43.5l-113 31q-69 20 -105.5 68t-36.5 119q0 72 52.5 125t138.5 60v90h66v-92q81 -12 128 -67t48 -140h-91
q-1 63 -35 97.5t-95 34.5q-57 0 -88.5 -28.5t-31.5 -74.5q0 -45 26 -74t85 -46l117 -36q128 -39 128 -177z" />
    <glyph glyph-name="cent.tf" 
d="M327 175q109 0 128 90h87q-8 -69 -55 -113.5t-125 -52.5v-99h-67v99q-92 10 -144.5 75t-52.5 165t52.5 165t144.5 75v101h67v-101q78 -8 125 -53t55 -116h-87q-18 93 -128 93q-67 0 -105 -43.5t-38 -120.5t38 -120.5t105 -43.5z" />
    <glyph glyph-name="sterling.tf" 
d="M240 258q0 -60 -14.5 -107.5t-35.5 -68.5h335v-82h-436v61q60 56 60 179v91h-63v67h63v78q0 109 55.5 162.5t147.5 53.5q94 0 147.5 -51.5t53.5 -142.5h-91q0 57 -28 88t-82 31q-56 0 -84 -34t-28 -109v-76h170v-67h-170v-73z" />
    <glyph glyph-name="florin.tf" 
d="M509 614q-41 0 -63.5 -21t-32.5 -76l-11 -63h129l-13 -73h-129l-78 -434q-30 -166 -169 -166q-44 0 -75 12l12 74q21 -8 50 -8q41 0 63.5 19t31.5 68l78 435h-99l13 73h99l12 64q30 173 177 173q44 0 68 -11l-13 -74q-24 8 -50 8z" />
    <glyph glyph-name="yen.tf" 
d="M585 680l-216 -404h143v-61h-145v-68h145v-61h-145v-86h-93v86h-145v61h145v68h-145v61h143l-216 404h102l163 -330l162 330h102z" />
    <glyph glyph-name="Euro.tf" 
d="M361 69q57 0 90.5 34t42.5 92h89q-13 -91 -70 -148.5t-152 -57.5q-206 0 -238 254h-66l16 61h45q-1 12 -1 37q0 24 1 36h-60l17 61h48q30 254 238 254q95 0 152 -57.5t70 -148.5h-89q-9 58 -42.5 92t-90.5 34q-70 0 -105 -45t-45 -129h206l-16 -61h-194q-1 -12 -1 -36
q0 -25 1 -37h209l-16 -61h-189q10 -84 45.5 -129t104.5 -45z" />
    <glyph glyph-name="uni20A9.tf" 
d="M623 381h-61l-14 -81h75v-67h-86l-39 -233h-87l-90 541l-90 -541h-87l-39 233h-88v67h76l-13 81h-63v66h51l-39 233h91l72 -546l91 546h75l91 -546l73 546h90l-39 -233h50v-66z" />
    <glyph glyph-name="uni20B4.tf" 
d="M466 378q-24 -24 -64 -43l-64 -30h224v-50h-326q-29 -17 -41.5 -36.5t-12.5 -50.5q0 -47 34 -73.5t95 -26.5q70 0 110 30t40 82h83q0 -86 -62 -139t-172 -53q-97 0 -156 46.5t-59 126.5q0 57 24 94h-55v50h102q17 12 52 29l98 44h-252v50h343q35 31 35 89q0 45 -31.5 71
t-86.5 26q-62 0 -95.5 -27t-33.5 -76h-84q0 83 58 132t154 49q93 0 148.5 -45.5t55.5 -125.5q0 -51 -22 -93h57v-50h-96z" />
    <glyph glyph-name="uni20B8.tf" 
d="M65 598v82h509v-82h-509zM274 0v441h-209v82h509v-82h-209v-441h-91z" />
    <glyph glyph-name="uni20AE.tf" 
d="M574 598h-209v-143l123 59v-70l-123 -59v-66l123 59v-70l-123 -59v-249h-91v206l-123 -59v69l123 59v67l-123 -59v70l123 59v186h-209v82h509v-82z" />
    <glyph glyph-name="perthousand.tf" 
d="M367 687l24 -12l-307 -692l-24 12zM247 511q0 -75 -32.5 -122.5t-88.5 -47.5t-88.5 47.5t-32.5 122.5t32.5 122.5t88.5 47.5t88.5 -47.5t32.5 -122.5zM65 511q0 -50 16 -80t45 -30t45 30t16 80t-16 79.5t-45 29.5t-45 -29.5t-16 -79.5zM514 337q56 0 88.5 -47.5
t32.5 -122.5t-32.5 -122.5t-88.5 -47.5q-58 0 -91 52q-34 -52 -92 -52q-56 0 -88.5 47.5t-32.5 122.5t32.5 122.5t88.5 47.5q58 0 92 -53q32 53 91 53zM331 57q29 0 45.5 30t16.5 80t-16.5 79.5t-45.5 29.5q-28 0 -44 -30t-16 -79q0 -50 16 -80t44 -30zM514 57q29 0 45 30
t16 80t-16 79.5t-45 29.5t-45 -29.5t-16 -79.5t16 -80t45 -30z" />
    <glyph glyph-name="zero.zero" horiz-adv-x="610" 
d="M305 692q126 0 191.5 -89.5t65.5 -261.5q0 -173 -65.5 -262.5t-191.5 -89.5t-191.5 89.5t-65.5 262.5q0 172 65.5 261.5t191.5 89.5zM134 341q0 -147 49 -214l200 466q-32 19 -78 19q-171 0 -171 -271zM305 69q170 0 170 272q0 148 -50 214l-200 -466q34 -20 80 -20z" />
    <glyph glyph-name="zero.tf.zero" 
d="M320 691q108 0 179 -71t71 -177v-214q0 -103 -71 -172t-179 -69t-178.5 69t-70.5 172v214q0 106 70.5 177t178.5 71zM162 443v-214q0 -56 32 -99l199 462q-34 17 -73 17q-69 0 -113.5 -47.5t-44.5 -118.5zM478 229v214q0 62 -35 107l-198 -463q32 -17 75 -17
q70 0 114 45.5t44 113.5z" />
    <glyph glyph-name="zero.tf" 
d="M320 -12q-108 0 -178.5 69t-70.5 172v214q0 106 70.5 177t178.5 71t179 -71t71 -177v-214q0 -103 -71 -172t-179 -69zM320 70q70 0 114 45.5t44 113.5v214q0 71 -44 118.5t-114 47.5q-69 0 -113.5 -47.5t-44.5 -118.5v-214q0 -68 44.5 -113.5t113.5 -45.5z" />
    <glyph glyph-name="one.tf" 
d="M368 82h205v-82h-505v82h209v405h-182v77h23q83 0 123.5 26.5t47.5 89.5h79v-598z" />
    <glyph glyph-name="two.tf" 
d="M61 0q0 114 44 183.5t147 117.5l119 54q107 48 107 142q0 51 -39 83t-101 32q-76 0 -120 -41.5t-44 -116.5h-96q0 109 70.5 173.5t189.5 64.5q109 0 173.5 -51.5t64.5 -139.5q0 -66 -37.5 -120.5t-109.5 -88.5l-118 -56q-75 -35 -104 -66t-36 -88h414v-82h-524z" />
    <glyph glyph-name="three.tf" 
d="M326 -11q-124 0 -195 60t-71 165h95q0 -69 45.5 -108t125.5 -39q72 0 115.5 33.5t43.5 89.5q0 60 -42.5 92.5t-121.5 32.5h-56v79h57q70 0 108 29t38 84q0 48 -40 78.5t-104 30.5q-71 0 -113 -34.5t-42 -94.5h-92q0 94 67 149.5t180 55.5q107 0 173 -51t66 -134
q0 -58 -36 -96.5t-104 -54.5q69 -8 112.5 -54t43.5 -112q0 -89 -70.5 -145t-182.5 -56z" />
    <glyph glyph-name="four.tf" 
d="M578 302v-82h-140v-220h-93v220h-282v460h92v-378h190v201h93v-201h140z" />
    <glyph glyph-name="five.tf" 
d="M311 -11q-106 0 -174.5 50t-73.5 138h93q4 -50 47.5 -78.5t109.5 -28.5q80 0 125.5 43t45.5 116q0 71 -42.5 112t-117.5 41q-117 0 -160 -83h-87v381h474v-81h-389v-209q53 70 176 70q110 0 174.5 -62t64.5 -166q0 -110 -72 -176.5t-194 -66.5z" />
    <glyph glyph-name="six.tf" 
d="M321 473q118 0 189.5 -69t71.5 -174t-71.5 -173.5t-190.5 -68.5q-118 0 -189.5 68.5t-71.5 173.5q0 86 48 149l-1 -1l233 302h111l-169 -209q26 2 40 2zM320 66q79 0 126 46t47 119q0 72 -47 118t-126 46t-126 -46t-47 -118q0 -73 47 -119t126 -46z" />
    <glyph glyph-name="seven.tf" 
d="M91 0l354 596h-383v84h526l-395 -680h-102z" />
    <glyph glyph-name="eight.tf" 
d="M320 -11q-116 0 -185.5 54t-69.5 144q0 63 35.5 106t102.5 59q-60 16 -93.5 59t-33.5 100q0 80 67.5 130t176.5 50t177 -50t68 -130q0 -57 -34.5 -100t-95.5 -59q67 -16 104 -59.5t37 -105.5q0 -90 -70 -144t-186 -54zM320 389q69 0 109.5 31t40.5 82q0 53 -40.5 84
t-109.5 31t-109.5 -31t-40.5 -84q0 -51 41.5 -82t108.5 -31zM320 67q73 0 117.5 34t44.5 91t-44.5 91t-117.5 34q-71 0 -116 -34.5t-45 -90.5q0 -57 44 -91t117 -34z" />
    <glyph glyph-name="nine.tf" 
d="M581 450q0 -86 -48 -149l1 1l-233 -302h-111l169 209q-26 -2 -40 -2q-118 0 -189.5 69t-71.5 174t71.5 173.5t190.5 68.5q118 0 189.5 -68.5t71.5 -173.5zM147 449q0 -72 47 -118t126 -46t126 46t47 118q0 73 -47 119t-126 46t-126 -46t-47 -119z" />
    <glyph glyph-name="Jacute" horiz-adv-x="536" 
d="M340 731l-32 60l218 103l31 -59zM249 -16q-104 0 -165 64.5t-61 173.5h91q0 -72 36.5 -114t98.5 -42q63 0 98.5 42.5t35.5 115.5v476h91v-476q0 -110 -60 -175t-165 -65z" />
    <glyph glyph-name="uni0243.case" horiz-adv-x="582" 
d="M537 191q0 -78 -46 -127.5t-127 -60.5v-105h-66v102h-60v-102h-66v102h-92v700h92v103h66v-103h60v103h66v-107q78 -12 121 -58t43 -119q0 -69 -35 -110.5t-97 -51.5q60 -7 100.5 -51t40.5 -115zM307 620h-136v-225h142q57 0 90.5 30.5t33.5 82.5q0 53 -34.5 82.5
t-95.5 29.5zM319 82q59 0 93 31t34 87q0 51 -33.5 83t-86.5 32h-155v-233h148z" />
    <glyph glyph-name="uni0243.tf" 
d="M549 186q0 -76 -46 -124t-127 -59v-102h-67v99h-60v-99h-66v99h-92v681h92v99h66v-99h60v99h67v-103q77 -12 120.5 -57t43.5 -116q0 -67 -35.5 -107t-97.5 -50q60 -6 101 -49.5t41 -111.5zM318 601h-135v-216h141q57 0 90.5 29t33.5 79q0 51 -34.5 79.5t-95.5 28.5z
M330 81q59 0 93 30t34 84q0 49 -33.5 80t-86.5 31h-154v-225h147z" />
    <glyph glyph-name="uni0243.tf.tf.case" 
d="M549 191q0 -78 -46 -127.5t-127 -60.5v-105h-67v102h-60v-102h-66v102h-92v700h92v103h66v-103h60v103h67v-107q77 -12 120.5 -58t43.5 -119q0 -70 -35.5 -111t-97.5 -51q60 -7 101 -51.5t41 -114.5zM318 620h-135v-225h141q57 0 90.5 30.5t33.5 82.5q0 53 -34.5 82.5
t-95.5 29.5zM330 82q60 0 93.5 31t33.5 87q0 51 -33.5 83t-86.5 32h-154v-233h147z" />
    <glyph glyph-name="Y.ss02" horiz-adv-x="597" 
d="M252 0v285l-256 415h106l196 -328l197 328h105l-255 -415v-285h-93z" />
    <glyph glyph-name="Yacute.ss02" horiz-adv-x="597" 
d="M209 731l-32 60l218 103l31 -59zM252 0v285l-256 415h106l196 -328l197 328h105l-255 -415v-285h-93z" />
    <glyph glyph-name="Ycircumflex.ss02" horiz-adv-x="597" 
d="M295 892l135 -116l-46 -41l-89 81l-90 -81l-46 41zM252 0v285l-256 415h106l196 -328l197 328h105l-255 -415v-285h-93z" />
    <glyph glyph-name="Ydieresis.ss02" horiz-adv-x="597" 
d="M179 747q-28 0 -47 19.5t-19 47.5t19 47.5t47 19.5q29 0 48.5 -19.5t19.5 -47.5t-20 -47.5t-48 -19.5zM416 747q-28 0 -47.5 19.5t-19.5 47.5t19.5 47.5t47.5 19.5t47.5 -19.5t19.5 -47.5t-19.5 -47.5t-47.5 -19.5zM252 0v285l-256 415h106l196 -328l197 328h105
l-255 -415v-285h-93z" />
    <glyph glyph-name="Ygrave.ss02" horiz-adv-x="597" 
d="M386 731l-217 104l31 59l218 -103zM252 0v285l-256 415h106l196 -328l197 328h105l-255 -415v-285h-93z" />
    <glyph glyph-name="Adieresis.ss05" horiz-adv-x="590" 
d="M345 845l-87 -111h-73l87 111h73zM387 734h-72l87 111h72zM474 0l-33 107h-291l-33 -107h-99l237 700h81l237 -700h-99zM176 190h239l-120 384z" />
    <glyph glyph-name="Edieresis.ss05" horiz-adv-x="545" 
d="M247 734h-73l87 111h73zM376 734h-72l87 111h72zM80 0v700h398v-82h-307v-229h307v-82h-307v-225h307v-82h-398z" />
    <glyph glyph-name="Odieresis.ss05" horiz-adv-x="797" 
d="M361 734h-73l87 111h73zM490 734h-72l87 111h72zM399 -16q-164 0 -262.5 106t-98.5 260t98.5 260t262.5 106t262.5 -106t98.5 -260t-98.5 -260t-262.5 -106zM399 66q122 0 194 82t71 202q1 120 -71 202t-194 82t-194 -82t-72 -202t72 -202t194 -82z" />
    </font>
</defs>
</svg>
