<?xml version="1.0" standalone="no"?>
<!DOCTYPE svg PUBLIC "-//W3C//DTD SVG 1.1//EN" "http://www.w3.org/Graphics/SVG/1.1/DTD/svg11.dtd" >
<svg xmlns="http://www.w3.org/2000/svg" xmlns:xlink="http://www.w3.org/1999/xlink" version="1.1">
<metadata>
Created by FontForge 20170731 at Fri May  5 00:27:53 2017
 By Aleksey,,,
Copyright (c) 2015 by Noel Leu. All rights reserved.
</metadata>
<defs>
<font id="GTWalsheimPro-Medium" horiz-adv-x="640" >
  <font-face 
    font-family="GT Walsheim Pro Medium"
    font-weight="500"
    font-stretch="normal"
    units-per-em="1000"
    panose-1="0 0 6 0 0 0 0 0 0 0"
    ascent="800"
    descent="-200"
    x-height="466"
    cap-height="700"
    bbox="-524 -223 1153 907"
    underline-thickness="50"
    underline-position="-250"
    unicode-range="U+000D-FB02"
  />
<missing-glyph horiz-adv-x="800" 
d="M400 -17q-109 0 -193.5 52.5t-127.5 135.5t-43 179t43 179t127.5 135.5t193.5 52.5t193.5 -52.5t127.5 -135.5t43 -179t-43 -179t-127.5 -135.5t-193.5 -52.5zM400 6q140 0 239.5 100.5t99.5 243.5q0 138 -98 241.5t-241 103.5t-241.5 -103t-98.5 -242q0 -143 99 -243.5
t241 -100.5zM243 457q-17 0 -29.5 13t-12.5 30q0 18 12.5 30.5t29.5 12.5q18 0 30.5 -12.5t12.5 -30.5q0 -17 -12.5 -30t-30.5 -13zM540 457q-17 0 -29.5 13t-12.5 30q0 18 12.5 30.5t29.5 12.5q18 0 30.5 -12.5t12.5 -30.5q0 -17 -12.5 -30t-30.5 -13zM219 259l179 268
l-110 -243h178v-25h-247zM132 207q0 38 26 52l23 13q11 6 13 17.5t2 39.5h17q0 -57 -20 -69l-22 -13q-23 -13 -23 -40h-16zM616 157l-16 4q5 17 3 26t-16 15l-41 20q-55 27 -31 98l15 -5q-20 -61 27 -82l40 -19q20 -9 22.5 -26.5t-3.5 -30.5zM366 66q-102 0 -198 162
q82 -49 116 -60q35 -11 72 -11q148 0 220 37q1 0 3 2q-22 -49 -88 -89.5t-125 -40.5zM366 92q31 0 71.5 16.5t62.5 30t32 21.5q-9 -2 -40.5 -9.5t-45 -10t-39 -5.5t-49.5 -3q-30 0 -69.5 11.5t-63.5 30.5q26 -42 69 -62t72 -20z" />
    <glyph glyph-name="fi" unicode="fi" horiz-adv-x="610" 
d="M115 534q0 53 17 89.5t44.5 53t50.5 23t46 6.5q46 0 73 -9v-92q-5 0 -19.5 2t-23.5 2q-15 0 -26.5 -2t-25 -8.5t-20.5 -22.5t-7 -40v-70h122v-91h-122v-375h-109v375h-95v91h95v68zM486 695q35 0 58 -23.5t23 -57.5t-23 -57.5t-58 -23.5t-58 23.5t-23 57.5t23 57.5
t58 23.5zM431 0v466h109v-466h-109z" />
    <glyph glyph-name="fl" unicode="fl" horiz-adv-x="610" 
d="M115 534q0 53 17 89.5t44.5 53t50.5 23t46 6.5q46 0 73 -9v-92q-5 0 -19.5 2t-23.5 2q-15 0 -26.5 -2t-25 -8.5t-20.5 -22.5t-7 -40v-70h122v-91h-122v-375h-109v375h-95v91h95v68zM431 700h109v-700h-109v700z" />
    <glyph glyph-name="f_f" unicode="ff" horiz-adv-x="742" 
d="M115 534q0 53 17 89.5t44.5 53t50.5 23t46 6.5q46 0 73 -9v-92q-5 0 -19.5 2t-23.5 2q-15 0 -26.5 -2t-25 -8.5t-20.5 -22.5t-7 -40v-70h122v-91h-122v-375h-109v375h-95v91h95v68zM684 609q-15 0 -26.5 -2t-25 -8.5t-20.5 -22.5t-7 -40v-70h122v-91h-122v-375h-109v375
h-95v91h95v68q0 53 17 89.5t44.5 53t50.5 23t46 6.5q46 0 73 -9v-92q-5 0 -19.5 2t-23.5 2z" />
    <glyph glyph-name="f_f_i" unicode="ffi" horiz-adv-x="991" 
d="M115 534q0 53 17 89.5t44.5 53t50.5 23t46 6.5q46 0 73 -9v-92q-5 0 -19.5 2t-23.5 2q-15 0 -26.5 -2t-25 -8.5t-20.5 -22.5t-7 -40v-70h122v-91h-122v-375h-109v375h-95v91h95v68zM496 534q0 53 17 89.5t44.5 53t50.5 23t46 6.5q46 0 73 -9v-92q-5 0 -19.5 2t-23.5 2
q-15 0 -26.5 -2t-25 -8.5t-20.5 -22.5t-7 -40v-70h122v-91h-122v-375h-109v375h-95v91h95v68zM867 695q35 0 58 -23.5t23 -57.5t-23 -57.5t-58 -23.5t-58 23.5t-23 57.5t23 57.5t58 23.5zM812 0v466h109v-466h-109z" />
    <glyph glyph-name="f_f_l" unicode="ffl" horiz-adv-x="991" 
d="M115 534q0 53 17 89.5t44.5 53t50.5 23t46 6.5q46 0 73 -9v-92q-5 0 -19.5 2t-23.5 2q-15 0 -26.5 -2t-25 -8.5t-20.5 -22.5t-7 -40v-70h122v-91h-122v-375h-109v375h-95v91h95v68zM496 534q0 53 17 89.5t44.5 53t50.5 23t46 6.5q46 0 73 -9v-92q-5 0 -19.5 2t-23.5 2
q-15 0 -26.5 -2t-25 -8.5t-20.5 -22.5t-7 -40v-70h122v-91h-122v-375h-109v375h-95v91h95v68zM812 700h109v-700h-109v700z" />
    <glyph glyph-name=".notdef" horiz-adv-x="800" 
d="M400 -17q-109 0 -193.5 52.5t-127.5 135.5t-43 179t43 179t127.5 135.5t193.5 52.5t193.5 -52.5t127.5 -135.5t43 -179t-43 -179t-127.5 -135.5t-193.5 -52.5zM400 6q140 0 239.5 100.5t99.5 243.5q0 138 -98 241.5t-241 103.5t-241.5 -103t-98.5 -242q0 -143 99 -243.5
t241 -100.5zM243 457q-17 0 -29.5 13t-12.5 30q0 18 12.5 30.5t29.5 12.5q18 0 30.5 -12.5t12.5 -30.5q0 -17 -12.5 -30t-30.5 -13zM540 457q-17 0 -29.5 13t-12.5 30q0 18 12.5 30.5t29.5 12.5q18 0 30.5 -12.5t12.5 -30.5q0 -17 -12.5 -30t-30.5 -13zM219 259l179 268
l-110 -243h178v-25h-247zM132 207q0 38 26 52l23 13q11 6 13 17.5t2 39.5h17q0 -57 -20 -69l-22 -13q-23 -13 -23 -40h-16zM616 157l-16 4q5 17 3 26t-16 15l-41 20q-55 27 -31 98l15 -5q-20 -61 27 -82l40 -19q20 -9 22.5 -26.5t-3.5 -30.5zM366 66q-102 0 -198 162
q82 -49 116 -60q35 -11 72 -11q148 0 220 37q1 0 3 2q-22 -49 -88 -89.5t-125 -40.5zM366 92q31 0 71.5 16.5t62.5 30t32 21.5q-9 -2 -40.5 -9.5t-45 -10t-39 -5.5t-49.5 -3q-30 0 -69.5 11.5t-63.5 30.5q26 -42 69 -62t72 -20z" />
    <glyph glyph-name=".null" horiz-adv-x="0" 
 />
    <glyph glyph-name="nonmarkingreturn" horiz-adv-x="333" 
 />
    <glyph glyph-name="CR" unicode="&#xd;" horiz-adv-x="250" 
 />
    <glyph glyph-name="space" unicode=" " horiz-adv-x="250" 
 />
    <glyph glyph-name="exclam" unicode="!" horiz-adv-x="281" 
d="M86 223v477h109v-477h-109zM140 -8q-35 0 -59.5 25t-24.5 60t24.5 59.5t59.5 24.5t60 -24.5t25 -59.5t-25 -60t-60 -25z" />
    <glyph glyph-name="quotedbl" unicode="&#x22;" horiz-adv-x="439" 
d="M204 616q0 -12 -3 -24l-48 -190h-52l-48 190q-3 12 -3 24q0 32 22.5 54t54.5 22t54.5 -22t22.5 -54zM389 616q0 -12 -3 -24l-48 -190h-52l-48 190q-3 12 -3 24q0 32 22.5 54t54.5 22t54.5 -22t22.5 -54z" />
    <glyph glyph-name="numbersign" unicode="#" horiz-adv-x="532" 
d="M81 0l28 204h-89v84h101l17 124h-88v84h100l28 204h89l-28 -204h102l28 204h89l-28 -204h82v-84h-94l-17 -124h81v-84h-93l-29 -204h-88l28 204h-102l-29 -204h-88zM210 288h102l17 124h-102z" />
    <glyph glyph-name="dollar" unicode="$" horiz-adv-x="532" 
d="M497 180q0 -79 -49.5 -131.5t-133.5 -63.5v-85h-82v85q-97 12 -149.5 75t-52.5 169h115q0 -68 34 -107t95 -39q52 0 80 24.5t28 69.5q0 34 -20 57t-70 41l-108 35q-66 23 -100 73.5t-34 119.5q0 71 50.5 124t131.5 63v90h82v-93q77 -14 122 -70.5t45 -140.5h-115
q0 57 -27.5 87.5t-78.5 30.5q-44 0 -69 -22.5t-25 -61.5t21.5 -65.5t76.5 -45.5l113 -40q120 -42 120 -179z" />
    <glyph glyph-name="percent" unicode="%" horiz-adv-x="794" 
d="M197 -18l-73 40l472 682l71 -40zM199 346q-81 0 -129.5 49.5t-48.5 120.5t48.5 120.5t129.5 49.5t129.5 -49.5t48.5 -120.5t-48.5 -120.5t-129.5 -49.5zM199 430q39 0 61 24.5t22 61.5t-22 61.5t-61 24.5t-61 -24.5t-22 -61.5t22 -61.5t61 -24.5zM595 -5
q-81 0 -129.5 49.5t-48.5 120.5t48.5 120.5t129.5 49.5t129.5 -49.5t48.5 -120.5t-48.5 -120.5t-129.5 -49.5zM595 79q39 0 61 24.5t22 61.5t-22 61.5t-61 24.5t-61 -24.5t-22 -61.5t22 -61.5t61 -24.5z" />
    <glyph glyph-name="ampersand" unicode="&#x26;" horiz-adv-x="597" 
d="M587 328v-101h-51q-3 -120 -74 -182t-178 -62q-106 0 -175 60.5t-69 154.5q0 64 39.5 110.5t92.5 60.5q-115 41 -115 153q0 88 63.5 141.5t166.5 53.5q104 0 169 -57t65 -166h-120q0 56 -28 90.5t-86 34.5q-46 0 -78.5 -25.5t-32.5 -71.5q0 -50 25.5 -77t85.5 -27h26
v-104h-24q-131 0 -131 -117q0 -47 34 -80.5t92 -33.5q54 0 92.5 36t40.5 108h-60v101h230z" />
    <glyph glyph-name="quotesingle" unicode="'" horiz-adv-x="254" 
d="M204 616q0 -12 -3 -24l-48 -190h-52l-48 190q-3 12 -3 24q0 32 22.5 54t54.5 22t54.5 -22t22.5 -54z" />
    <glyph glyph-name="parenleft" unicode="(" horiz-adv-x="325" 
d="M273 -195q-223 192 -223 468t223 468l67 -61q-90 -90 -135.5 -187t-45.5 -220t45.5 -220t135.5 -187z" />
    <glyph glyph-name="parenright" unicode=")" horiz-adv-x="325" 
d="M52 -195l-67 61q90 90 135.5 187t45.5 220t-45.5 220t-135.5 187l67 61q223 -192 223 -468t-223 -468z" />
    <glyph glyph-name="asterisk" unicode="*" horiz-adv-x="412" 
d="M126 348l-70 49l101 121l-137 34l26 76l130 -54l-12 143h84l-12 -143l130 54l26 -76l-137 -34l101 -121l-70 -49l-80 133z" />
    <glyph glyph-name="plus" unicode="+" horiz-adv-x="504" 
d="M200 113v153h-150v97h150v154h104v-154h150v-97h-150v-153h-104z" />
    <glyph glyph-name="comma" unicode="," horiz-adv-x="301" 
d="M99 -121q-24 0 -39 3v49q15 -2 44 -2q37 0 56 24q19 22 22 58q-14 -17 -45 -17q-33 0 -55 21.5t-22 57.5t23.5 59t59.5 23q37 0 67.5 -30.5t30.5 -90.5q0 -69 -36.5 -112t-105.5 -43z" />
    <glyph glyph-name="hyphen" unicode="-" horiz-adv-x="409" 
d="M50 216v97h309v-97h-309z" />
    <glyph glyph-name="period" unicode="." horiz-adv-x="289" 
d="M144 -8q-35 0 -59.5 25t-24.5 60t24.5 59.5t59.5 24.5t60 -24.5t25 -59.5t-25 -60t-60 -25z" />
    <glyph glyph-name="slash" unicode="/" horiz-adv-x="451" 
d="M98 -69l-88 38l343 795l88 -38z" />
    <glyph glyph-name="zero" unicode="0" horiz-adv-x="612" 
d="M306 -12q-128 0 -194.5 89.5t-66.5 262.5t66.5 262.5t194.5 89.5t194.5 -89.5t66.5 -262.5t-66.5 -262.5t-194.5 -89.5zM306 88q152 0 152 252t-152 252t-152 -252t152 -252z" />
    <glyph glyph-name="one" unicode="1" horiz-adv-x="398" 
d="M179 0v468h-144v96q92 0 123 25.5t31 90.5h104v-680h-114z" />
    <glyph glyph-name="two" unicode="2" horiz-adv-x="580" 
d="M50 0q0 113 40 185.5t128 121.5l100 55q85 47 85 129q0 45 -28 73t-72 28q-57 0 -88 -37t-31 -106h-119q0 111 64.5 177t173.5 66q103 0 162.5 -52.5t59.5 -142.5q0 -62 -35 -117t-98 -91l-98 -56q-56 -32 -77.5 -58t-30.5 -72h337v-103h-473z" />
    <glyph glyph-name="three" unicode="3" horiz-adv-x="572" 
d="M287 -12q-119 0 -185.5 63t-66.5 176h117q0 -68 35 -105t100 -37q53 0 86 30t33 79q0 112 -128 112h-48v99h49q109 0 109 100q0 41 -29.5 66.5t-75.5 25.5q-55 0 -86.5 -31.5t-31.5 -86.5h-113q0 98 62.5 155.5t168.5 57.5q100 0 161 -51.5t61 -135.5q0 -110 -115 -147
q60 -11 96 -55t36 -108q0 -91 -65.5 -149t-169.5 -58z" />
    <glyph glyph-name="four" unicode="4" horiz-adv-x="580" 
d="M540 313v-103h-97v-210h-114v210h-269v470h114v-367h155v190h114v-190h97z" />
    <glyph glyph-name="five" unicode="5" horiz-adv-x="584" 
d="M294 -12q-96 0 -162 54.5t-72 139.5h116q3 -43 37 -67.5t83 -24.5q62 0 97.5 38t35.5 102q0 63 -32.5 101t-87.5 38q-97 0 -132 -79h-105v390h427v-102h-323v-176q52 60 149 60q98 0 156 -62.5t58 -165.5q0 -105 -67 -175.5t-178 -70.5z" />
    <glyph glyph-name="six" unicode="6" horiz-adv-x="572" 
d="M286 478q113 0 179.5 -69.5t66.5 -175.5t-66.5 -175.5t-179.5 -69.5t-179.5 69.5t-66.5 175.5q0 92 51 158l214 289h137l-158 -202h2zM286 85q64 0 100.5 41t36.5 107t-36.5 107t-100.5 41t-100.5 -41t-36.5 -107t36.5 -107t100.5 -41z" />
    <glyph glyph-name="seven" unicode="7" horiz-adv-x="527" 
d="M57 0l298 575h-310v105h482l-343 -680h-127z" />
    <glyph glyph-name="eight" unicode="8" horiz-adv-x="590" 
d="M295 -12q-112 0 -178.5 55t-66.5 147q0 60 27.5 102.5t78.5 60.5q-44 18 -70 60.5t-26 96.5q0 81 65.5 131.5t169.5 50.5t169.5 -50.5t65.5 -131.5q0 -53 -27 -96t-71 -61q51 -18 79.5 -60.5t28.5 -102.5q0 -92 -66.5 -147t-178.5 -55zM295 399q54 0 85.5 27.5t31.5 72.5
q0 47 -31.5 74t-85.5 27t-85.5 -27t-31.5 -74q0 -45 33 -72.5t84 -27.5zM295 85q58 0 93 30.5t35 81.5t-35 81.5t-93 30.5q-56 0 -92 -31t-36 -81q0 -51 35 -81.5t93 -30.5z" />
    <glyph glyph-name="nine" unicode="9" horiz-adv-x="567" 
d="M527 447q0 -92 -51 -158l-214 -289h-137l158 202h-2q-113 0 -179.5 69.5t-66.5 175.5t66.5 175.5t179.5 69.5t179.5 -69.5t66.5 -175.5zM144 447q0 -66 36.5 -107t100.5 -41t100.5 41t36.5 107t-36.5 107t-100.5 41t-100.5 -41t-36.5 -107z" />
    <glyph glyph-name="colon" unicode=":" horiz-adv-x="289" 
d="M144 309q-35 0 -59.5 25t-24.5 60t24.5 59.5t59.5 24.5t60 -24.5t25 -59.5t-25 -60t-60 -25zM144 -8q-35 0 -59.5 25t-24.5 60t24.5 59.5t59.5 24.5t60 -24.5t25 -59.5t-25 -60t-60 -25z" />
    <glyph glyph-name="semicolon" unicode=";" horiz-adv-x="301" 
d="M144 308q-35 0 -59.5 25t-24.5 60t24.5 59.5t59.5 24.5t60 -24.5t25 -59.5t-25 -60t-60 -25zM99 -121q-24 0 -39 3v49q15 -2 44 -2q37 0 56 24q19 22 22 58q-14 -17 -45 -17q-33 0 -55 21.5t-22 57.5t23.5 59t59.5 23q37 0 67.5 -30.5t30.5 -90.5q0 -69 -36.5 -112
t-105.5 -43z" />
    <glyph glyph-name="less" unicode="&#x3c;" horiz-adv-x="498" 
d="M448 99l-398 176v78l398 176v-103l-247 -112l247 -112v-103z" />
    <glyph glyph-name="equal" unicode="=" horiz-adv-x="524" 
d="M50 353v97h424v-97h-424zM50 177v97h424v-97h-424z" />
    <glyph glyph-name="greater" unicode="&#x3e;" horiz-adv-x="498" 
d="M50 99v103l247 112l-247 112v103l398 -176v-78z" />
    <glyph glyph-name="question" unicode="?" horiz-adv-x="468" 
d="M156 223v11q0 50 11.5 79t52.5 59l46 34q63 46 63 115q0 44 -25.5 70t-67.5 26q-53 0 -84.5 -31t-31.5 -92h-115q0 106 63 164.5t173 58.5q97 0 152 -53t55 -139q0 -60 -26 -101t-78 -82l-36 -28q-26 -20 -34.5 -36t-8.5 -41v-14h-109zM210 -8q-35 0 -59.5 25t-24.5 60
t24.5 59.5t59.5 24.5t60 -24.5t25 -59.5t-25 -60t-60 -25z" />
    <glyph glyph-name="at" unicode="@" horiz-adv-x="884" 
d="M457 -193q-134 0 -231 55.5t-144 148t-47 209.5q0 185 112 294.5t299 109.5q185 0 294 -102t109 -300q0 -126 -44.5 -189.5t-128.5 -63.5q-116 0 -143 105q-40 -63 -129 -63q-85 0 -139 60t-54 144q0 86 55 146.5t140 60.5q87 0 127 -63v53h91v-271q0 -100 56 -100
q83 0 83 171q0 336 -318 336q-149 0 -236.5 -89t-87.5 -241q0 -149 88 -241t250 -92q94 0 179 41l33 -72q-99 -47 -214 -47zM417 93q51 0 83.5 35.5t32.5 87.5t-32.5 88t-83.5 36t-82.5 -36t-31.5 -88t31.5 -87.5t82.5 -35.5z" />
    <glyph glyph-name="A" unicode="A" horiz-adv-x="603" 
d="M463 0l-27 89h-269l-27 -89h-125l236 700h101l236 -700h-125zM197 192h208l-104 347z" />
    <glyph glyph-name="B" unicode="B" horiz-adv-x="585" 
d="M401 360q61 -6 102.5 -49.5t41.5 -115.5q0 -91 -59.5 -143t-163.5 -52h-247v700h234q105 0 165 -48.5t60 -133.5q0 -132 -133 -158zM304 599h-114v-192h114q54 0 84.5 25.5t30.5 70.5q0 46 -30 71t-85 25zM320 101q52 0 81 28t29 78q0 44 -30 71.5t-79 27.5h-131v-205
h130z" />
    <glyph glyph-name="C" unicode="C" horiz-adv-x="769" 
d="M399 -17q-168 0 -266 102t-98 265t98 265t266 102q141 0 232 -71.5t107 -185.5h-126q-17 72 -71.5 113t-140.5 41q-115 0 -179.5 -71.5t-64.5 -192.5t64.5 -192.5t179.5 -71.5q86 0 140.5 41t71.5 113h126q-16 -114 -107 -185.5t-232 -71.5z" />
    <glyph glyph-name="D" unicode="D" horiz-adv-x="695" 
d="M75 0v700h237q166 0 259.5 -102.5t93.5 -247.5t-93.5 -247.5t-259.5 -102.5h-237zM190 103h112q120 0 182.5 72t62.5 175t-62.5 175t-182.5 72h-112v-494z" />
    <glyph glyph-name="E" unicode="E" horiz-adv-x="544" 
d="M75 0v700h404v-103h-289v-198h289v-103h-289v-193h289v-103h-404z" />
    <glyph glyph-name="F" unicode="F" horiz-adv-x="529" 
d="M75 0v700h404v-103h-289v-222h289v-103h-289v-272h-115z" />
    <glyph glyph-name="G" unicode="G" horiz-adv-x="833" 
d="M813 351v-103h-77q-27 -124 -115.5 -194.5t-225.5 -70.5q-163 0 -262 102.5t-98 259.5q1 156 98.5 264t271.5 108q126 0 210.5 -65t93.5 -162h-126q-12 55 -59 89.5t-119 34.5q-122 0 -186 -76.5t-63 -192.5q-1 -111 64.5 -185t174.5 -74q179 0 220 162h-135v103h333z
" />
    <glyph glyph-name="H" unicode="H" horiz-adv-x="669" 
d="M75 0v700h115v-301h289v301h115v-700h-115v296h-289v-296h-115z" />
    <glyph glyph-name="I" unicode="I" horiz-adv-x="265" 
d="M75 0v700h115v-700h-115z" />
    <glyph glyph-name="J" unicode="J" horiz-adv-x="536" 
d="M247 -17q-107 0 -167 67t-60 178h115q0 -65 28.5 -103.5t83.5 -38.5t84.5 38.5t29.5 102.5v473h115v-473q0 -111 -60.5 -177.5t-168.5 -66.5z" />
    <glyph glyph-name="K" unicode="K" horiz-adv-x="606" 
d="M596 700l-301 -345l301 -355h-146l-260 314v-314h-115v700h115v-316l261 316h145z" />
    <glyph glyph-name="L" unicode="L" horiz-adv-x="511" 
d="M75 0v700h115v-592h281v-108h-396z" />
    <glyph glyph-name="M" unicode="M" horiz-adv-x="817" 
d="M75 0v700h110l224 -536l223 536h110v-700h-110v463l-180 -463h-87l-180 468v-468h-110z" />
    <glyph glyph-name="N" unicode="N" horiz-adv-x="658" 
d="M75 0v700h121l277 -508v508h110v-700h-121l-277 508v-508h-110z" />
    <glyph glyph-name="O" unicode="O" horiz-adv-x="794" 
d="M397 -17q-165 0 -263.5 106t-98.5 261t98.5 261t263.5 106t263.5 -106t98.5 -261t-98.5 -261t-263.5 -106zM397 86q113 0 177.5 75.5t63.5 188.5q1 113 -63.5 188.5t-177.5 75.5t-177.5 -75.5t-63.5 -188.5q-1 -113 63.5 -188.5t177.5 -75.5z" />
    <glyph glyph-name="P" unicode="P" horiz-adv-x="583" 
d="M333 700q105 0 172.5 -69t67.5 -176t-67.5 -176t-172.5 -69h-143v-210h-115v700h258zM326 313q57 0 94.5 40.5t37.5 101.5t-37.5 101.5t-94.5 40.5h-136v-284h136z" />
    <glyph glyph-name="Q" unicode="Q" horiz-adv-x="794" 
d="M759 350q0 -121 -62.5 -215.5t-172.5 -131.5l75 -99l-101 -51l-99 130h-2q-165 0 -263.5 106t-98.5 261t98.5 261t263.5 106t263.5 -106t98.5 -261zM397 86q113 0 177.5 75.5t63.5 188.5q1 113 -63.5 188.5t-177.5 75.5t-177.5 -75.5t-63.5 -188.5q-1 -113 63.5 -188.5
t177.5 -75.5z" />
    <glyph glyph-name="R" unicode="R" horiz-adv-x="608" 
d="M573 455q0 -81 -40.5 -142t-108.5 -87l138 -226h-131l-128 210h-113v-210h-115v700h258q105 0 172.5 -69t67.5 -176zM190 597v-284h136q57 0 94.5 40.5t37.5 101.5t-37.5 101.5t-94.5 40.5h-136z" />
    <glyph glyph-name="S" unicode="S" horiz-adv-x="552" 
d="M285 -17q-122 0 -188.5 64t-66.5 182h115q0 -68 37 -107t102 -39q57 0 87.5 25.5t30.5 72.5q0 40 -22.5 64t-81.5 48l-114 46q-134 52 -134 186q0 85 62.5 138.5t161.5 53.5q104 0 167.5 -60t63.5 -159h-115q0 58 -31 89.5t-89 31.5q-49 0 -76.5 -23.5t-27.5 -63.5
q0 -36 27 -62t89 -51l103 -42q132 -54 132 -193q0 -90 -64 -145.5t-168 -55.5z" />
    <glyph glyph-name="T" unicode="T" horiz-adv-x="532" 
d="M208 0v592h-203v108h522v-108h-204v-592h-115z" />
    <glyph glyph-name="U" unicode="U" 
d="M320 -17q-120 0 -190 64.5t-70 184.5v468h115v-461q0 -74 39 -113.5t106 -39.5t106 39.5t39 113.5v461h115v-468q0 -120 -70 -184.5t-190 -64.5z" />
    <glyph glyph-name="V" unicode="V" horiz-adv-x="574" 
d="M232 0l-232 700h125l162 -519l162 519h125l-232 -700h-110z" />
    <glyph glyph-name="W" unicode="W" horiz-adv-x="973" 
d="M242 0l-242 700h121l166 -509l157 509h85l157 -509l166 509h121l-242 -700h-83l-161 499l-162 -499h-83z" />
    <glyph glyph-name="X" unicode="X" horiz-adv-x="616" 
d="M15 0l228 350l-228 350h130l163 -256l163 256h130l-228 -350l228 -350h-130l-163 255l-163 -255h-130z" />
    <glyph glyph-name="Y" unicode="Y" horiz-adv-x="561" 
d="M455 700h126l-347 -700h-126l139 281l-262 419h133l188 -301z" />
    <glyph glyph-name="Z" unicode="Z" horiz-adv-x="581" 
d="M20 0l347 597h-304v103h493l-342 -597h330v-103h-524z" />
    <glyph glyph-name="bracketleft" unicode="[" horiz-adv-x="292" 
d="M75 -193v926h202v-87h-103v-753h103v-86h-202z" />
    <glyph glyph-name="backslash" unicode="\" horiz-adv-x="451" 
d="M353 -69l-343 795l88 38l343 -795z" />
    <glyph glyph-name="bracketright" unicode="]" horiz-adv-x="292" 
d="M217 -193h-202v86h103v753h-103v87h202v-926z" />
    <glyph glyph-name="asciicircum" unicode="^" horiz-adv-x="568" 
d="M50 303l194 397h76l198 -397h-123l-112 259l-114 -259h-119z" />
    <glyph glyph-name="underscore" unicode="_" horiz-adv-x="520" 
d="M0 -210v75h520v-75h-520z" />
    <glyph glyph-name="grave" unicode="`" horiz-adv-x="600" 
d="M296 502l-282 110l35 81l282 -107z" />
    <glyph glyph-name="a" unicode="a" horiz-adv-x="592" 
d="M264 -12q-109 0 -169 69t-60 176q0 106 63 175.5t169 69.5q47 0 86 -20t60 -55v63h109v-466h-109v63q-20 -34 -62.5 -54.5t-86.5 -20.5zM280 85q67 0 102.5 42t35.5 106t-35.5 106t-102.5 42q-63 0 -99.5 -41.5t-36.5 -106.5t36.5 -106.5t99.5 -41.5z" />
    <glyph glyph-name="b" unicode="b" horiz-adv-x="592" 
d="M335 478q100 0 161 -67.5t61 -177.5q0 -108 -64 -176.5t-165 -68.5q-46 0 -87 20.5t-62 54.5v-63h-109v700h109v-297q21 34 64 54.5t92 20.5zM312 85q60 0 98 41.5t38 106.5t-38 106.5t-98 41.5q-62 0 -100 -41t-38 -107t38 -107t100 -41z" />
    <glyph glyph-name="c" unicode="c" horiz-adv-x="523" 
d="M267 -12q-107 0 -169.5 67.5t-62.5 177.5t62.5 177.5t169.5 67.5q96 0 154.5 -48.5t66.5 -129.5h-109q-18 81 -112 81q-58 0 -90.5 -38.5t-32.5 -109.5t32.5 -109.5t90.5 -38.5q93 0 112 76h109q-8 -79 -66.5 -126t-154.5 -47z" />
    <glyph glyph-name="d" unicode="d" horiz-adv-x="592" 
d="M413 700h109v-700h-109v63q-20 -34 -62.5 -54.5t-86.5 -20.5q-109 0 -169 69t-60 176q0 106 63 175.5t169 69.5q47 0 86 -20t60 -55v297zM280 85q67 0 102.5 42t35.5 106t-35.5 106t-102.5 42q-63 0 -99.5 -41.5t-36.5 -106.5t36.5 -106.5t99.5 -41.5z" />
    <glyph glyph-name="e" unicode="e" horiz-adv-x="527" 
d="M492 257q0 -18 -3 -60h-346q2 -55 36 -84.5t94 -29.5q77 0 104 53h110q-11 -65 -70.5 -106.5t-143.5 -41.5q-110 0 -174 66t-64 179q0 112 63.5 178.5t170.5 66.5q100 0 161.5 -61.5t61.5 -159.5zM143 280h242q-1 54 -31.5 83t-86.5 29q-57 0 -90 -31t-34 -81z" />
    <glyph glyph-name="f" unicode="f" horiz-adv-x="361" 
d="M303 609q-15 0 -26.5 -2t-25 -8.5t-20.5 -22.5t-7 -40v-70h122v-91h-122v-375h-109v375h-95v91h95v68q0 53 17 89.5t44.5 53t50.5 23t46 6.5q46 0 73 -9v-92q-5 0 -19.5 2t-23.5 2z" />
    <glyph glyph-name="g" unicode="g" horiz-adv-x="592" 
d="M413 466h109v-446q0 -140 -84 -201q-55 -41 -160 -41q-102 0 -164 42q-71 48 -74 127h114q15 -79 123 -79q69 0 102.5 33.5t33.5 110.5v51q-20 -34 -62.5 -54.5t-86.5 -20.5q-106 0 -167.5 69.5t-61.5 175.5q0 105 64.5 175t167.5 70q47 0 86 -20t60 -55v63zM280 85
q64 0 101 42.5t37 105.5t-37 105.5t-101 42.5q-61 0 -98.5 -41.5t-37.5 -106.5t37.5 -106.5t98.5 -41.5z" />
    <glyph glyph-name="h" unicode="h" horiz-adv-x="566" 
d="M331 478q170 0 170 -185v-293h-109v243q0 76 -23 109t-79 33q-53 0 -82 -33.5t-29 -95.5v-256h-109v700h109v-299q45 77 152 77z" />
    <glyph glyph-name="i" unicode="i" horiz-adv-x="249" 
d="M125 533q-35 0 -58 23.5t-23 57.5t23 57.5t58 23.5t58 -23.5t23 -57.5t-23 -57.5t-58 -23.5zM70 0v466h109v-466h-109z" />
    <glyph glyph-name="j" unicode="j" horiz-adv-x="252" 
d="M128 533q-35 0 -58 23.5t-23 57.5t23 57.5t58 23.5t58 -23.5t23 -57.5t-23 -57.5t-58 -23.5zM54 -216q-45 0 -64 10v97q19 -4 41 -4q42 0 42 48v531h109v-563q0 -58 -33 -88.5t-95 -30.5z" />
    <glyph glyph-name="k" unicode="k" horiz-adv-x="518" 
d="M493 466l-202 -223l202 -243h-143l-171 212v-212h-109v700h109v-438l176 204h138z" />
    <glyph glyph-name="l" unicode="l" horiz-adv-x="249" 
d="M70 0v700h109v-700h-109z" />
    <glyph glyph-name="m" unicode="m" horiz-adv-x="832" 
d="M70 0v466h109v-65q16 34 51 55.5t79 21.5q111 0 147 -83q17 36 56 59.5t87 23.5q168 0 168 -183v-295h-109v274q0 111 -87 111q-46 0 -72 -30.5t-26 -107.5v-247h-109v275q0 110 -85 110q-47 0 -73.5 -30.5t-26.5 -107.5v-247h-109z" />
    <glyph glyph-name="n" unicode="n" horiz-adv-x="566" 
d="M70 0v466h109v-65q45 77 152 77q170 0 170 -185v-293h-109v243q0 76 -23 109t-79 33q-53 0 -82 -33.5t-29 -95.5v-256h-109z" />
    <glyph glyph-name="o" unicode="o" horiz-adv-x="562" 
d="M281 -12q-113 0 -179.5 69.5t-66.5 175.5t66.5 175.5t179.5 69.5t179.5 -69.5t66.5 -175.5t-66.5 -175.5t-179.5 -69.5zM281 85q64 0 100.5 41t36.5 107t-36.5 107t-100.5 41t-100.5 -41t-36.5 -107t36.5 -107t100.5 -41z" />
    <glyph glyph-name="p" unicode="p" horiz-adv-x="592" 
d="M335 478q100 0 161 -67.5t61 -177.5q0 -108 -64 -176.5t-165 -68.5q-46 0 -87 20.5t-62 54.5v-273h-109v676h109v-63q21 34 64 54.5t92 20.5zM312 85q60 0 98 41.5t38 106.5t-38 106.5t-98 41.5q-62 0 -100 -41t-38 -107t38 -107t100 -41z" />
    <glyph glyph-name="q" unicode="q" horiz-adv-x="592" 
d="M413 466h109v-676h-109v273q-20 -34 -62.5 -54.5t-86.5 -20.5q-109 0 -169 69t-60 176q0 106 63 175.5t169 69.5q47 0 86 -20t60 -55v63zM280 85q67 0 102.5 42t35.5 106t-35.5 106t-102.5 42q-63 0 -99.5 -41.5t-36.5 -106.5t36.5 -106.5t99.5 -41.5z" />
    <glyph glyph-name="r" unicode="r" horiz-adv-x="366" 
d="M70 0v466h109v-90q12 47 47 71.5t77 24.5q27 0 43 -4v-100q-17 2 -43 2q-58 0 -91 -42.5t-33 -121.5v-206h-109z" />
    <glyph glyph-name="s" unicode="s" horiz-adv-x="457" 
d="M233 -12q-88 0 -143 45t-55 110h109q0 -30 26.5 -49t68.5 -19q31 0 49 15t18 40q0 40 -35 49l-120 33q-101 28 -101 129q0 58 50 97.5t129 39.5q89 0 136.5 -40t47.5 -105h-107q0 29 -21.5 45.5t-59.5 16.5q-29 0 -48 -13.5t-19 -34.5q0 -38 40 -50l111 -32
q48 -14 78 -47.5t30 -77.5q0 -68 -48.5 -110t-135.5 -42z" />
    <glyph glyph-name="t" unicode="t" horiz-adv-x="366" 
d="M281 92q33 0 55 4v-96q-34 -6 -81 -6q-27 0 -47 4t-47 18.5t-42 50.5t-15 91v217h-79v91h79v141h109v-141h107v-91h-107v-192q0 -56 16 -73.5t52 -17.5z" />
    <glyph glyph-name="u" unicode="u" horiz-adv-x="561" 
d="M238 -12q-79 0 -126 47t-47 138v293h109v-266q0 -59 22 -89t73 -30q59 0 86 33.5t27 88.5v263h109v-466h-109v65q-43 -77 -144 -77z" />
    <glyph glyph-name="v" unicode="v" horiz-adv-x="492" 
d="M202 0l-202 466h117l129 -320l129 320h117l-202 -466h-88z" />
    <glyph glyph-name="w" unicode="w" horiz-adv-x="764" 
d="M177 0l-172 466h120l97 -308l101 308h118l101 -308l97 308h120l-172 -466h-92l-113 332l-113 -332h-92z" />
    <glyph glyph-name="x" unicode="x" horiz-adv-x="490" 
d="M10 0l172 235l-169 231h135l97 -151l97 151h135l-169 -231l172 -235h-135l-100 156l-100 -156h-135z" />
    <glyph glyph-name="y" unicode="y" horiz-adv-x="566" 
d="M387 466h109v-468q0 -107 -61 -166q-59 -54 -158 -54q-103 0 -160 48q-50 44 -52 121h110q4 -40 26.5 -59.5t73.5 -19.5q52 0 82 33.5t30 104.5v59q-45 -77 -150 -77q-83 0 -127.5 53.5t-44.5 140.5v284h109v-261q0 -121 101 -121q55 0 83.5 39t28.5 102v241z" />
    <glyph glyph-name="z" unicode="z" horiz-adv-x="443" 
d="M5 0l252 374h-231v92h412l-253 -375h235v-91h-415z" />
    <glyph glyph-name="braceleft" unicode="{" horiz-adv-x="319" 
d="M249 -193q-54 0 -95.5 36.5t-41.5 102.5v190q0 44 -30.5 66.5t-61.5 22.5v90q31 0 61.5 22.5t30.5 66.5v190q0 66 41.5 102.5t95.5 36.5h65v-86h-49q-54 0 -54 -75v-183q0 -33 -11 -57t-28 -36.5t-31.5 -18t-28.5 -7.5q14 -2 28.5 -7.5t31.5 -18t28 -36.5t11 -57v-183
q0 -75 54 -75h49v-86h-65z" />
    <glyph glyph-name="bar" unicode="|" horiz-adv-x="234" 
d="M75 -192v925h84v-925h-84z" />
    <glyph glyph-name="braceright" unicode="}" horiz-adv-x="319" 
d="M70 -193h-65v86h49q54 0 54 75v183q0 33 11 57t28 36.5t31.5 18t28.5 7.5q-14 2 -28.5 7.5t-31.5 18t-28 36.5t-11 57v183q0 75 -54 75h-49v86h65q54 0 95.5 -36.5t41.5 -102.5v-190q0 -44 30.5 -66.5t61.5 -22.5v-90q-31 0 -61.5 -22.5t-30.5 -66.5v-190
q0 -66 -41.5 -102.5t-95.5 -36.5z" />
    <glyph glyph-name="asciitilde" unicode="~" horiz-adv-x="547" 
d="M386 180q-44 0 -108 33q-66 35 -122 35q-49 0 -106 -55v93q44 59 111 59q41 0 118 -32q7 -3 23 -9.5t24.5 -10t21 -8t22 -6.5t17.5 -2q53 0 110 55v-93q-44 -59 -111 -59z" />
    <glyph glyph-name="uni00A0" unicode="&#xa0;" horiz-adv-x="260" 
 />
    <glyph glyph-name="exclamdown" unicode="&#xa1;" horiz-adv-x="281" 
d="M140 498q35 0 60 -25t25 -60t-25 -59.5t-60 -24.5t-59.5 24.5t-24.5 59.5t24.5 60t59.5 25zM86 267h109v-477h-109v477z" />
    <glyph glyph-name="cent" unicode="&#xa2;" horiz-adv-x="523" 
d="M267 190q93 0 112 76h109q-7 -70 -53.5 -115t-123.5 -55v-96h-82v95q-91 13 -142.5 78t-51.5 165t51.5 165t142.5 78v99h82v-100q77 -10 123.5 -57t53.5 -118h-109q-18 81 -112 81q-58 0 -90.5 -38.5t-32.5 -109.5t32.5 -109.5t90.5 -38.5z" />
    <glyph glyph-name="sterling" unicode="&#xa3;" horiz-adv-x="512" 
d="M208 274q0 -57 -13.5 -106t-29.5 -65h311v-103h-438v75q23 21 39 66.5t16 108.5v68h-58v82h58v75q0 112 57 164.5t148 52.5q96 0 150 -52t54 -147h-115q0 106 -90 106q-89 0 -89 -121v-78h153v-82h-153v-44z" />
    <glyph glyph-name="currency" unicode="&#xa4;" horiz-adv-x="593" 
d="M94 100l-69 68l65 65q-39 62 -39 137t39 136l-64 65l68 69l64 -65q61 40 138 40q78 0 139 -40l64 64l69 -68l-65 -65q40 -60 40 -136q0 -77 -40 -137l64 -64l-68 -69l-64 64q-59 -39 -139 -39q-78 0 -137 39zM296 222q61 0 99.5 43t38.5 105t-38.5 105t-99.5 43
q-60 0 -98 -43t-38 -105t38 -105t98 -43z" />
    <glyph glyph-name="yen" unicode="&#xa5;" horiz-adv-x="560" 
d="M555 680l-214 -401h131v-75h-134v-50h134v-75h-134v-79h-116v79h-134v75h134v50h-134v75h131l-214 401h128l147 -308l147 308h128z" />
    <glyph glyph-name="brokenbar" unicode="&#xa6;" horiz-adv-x="234" 
d="M75 324v409h84v-409h-84zM75 -192v424h84v-424h-84z" />
    <glyph glyph-name="section" unicode="&#xa7;" horiz-adv-x="564" 
d="M506 234q0 -86 -89 -131q73 -57 73 -151q0 -81 -59.5 -127.5t-158.5 -46.5q-108 0 -165 53t-57 140h118q0 -46 26.5 -72t78.5 -26q46 0 72 21t26 56q0 42 -32.5 72t-78.5 49t-92 40.5t-78.5 62t-32.5 98.5q0 85 85 129q-68 53 -68 142q0 76 60 125t156 49
q109 0 166.5 -53t57.5 -140h-119q0 46 -26.5 72t-78.5 26q-46 0 -71.5 -21t-25.5 -56q0 -30 17.5 -53.5t45 -38.5t61 -29t66.5 -30t60.5 -35.5t45 -51.5t17.5 -73zM171 278q0 -17 7.5 -31.5t15.5 -24t28 -21t31 -16.5t39.5 -17t38.5 -16q62 23 62 76q0 16 -7.5 30.5
t-16.5 24t-28.5 20t-33 16.5t-40 16.5t-39.5 16.5q-57 -24 -57 -74z" />
    <glyph glyph-name="dieresis" unicode="&#xa8;" horiz-adv-x="600" 
d="M129 532q-31 0 -53.5 22t-22.5 54t22 54.5t54 22.5t54.5 -22.5t22.5 -54.5t-22.5 -54t-54.5 -22zM332 532q-32 0 -54 22t-22 54t22 54.5t54 22.5t54.5 -22.5t22.5 -54.5t-22.5 -54t-54.5 -22z" />
    <glyph glyph-name="copyright" unicode="&#xa9;" horiz-adv-x="794" 
d="M397 -17q-165 0 -263.5 105t-98.5 262t98.5 262t263.5 105t263.5 -105t98.5 -262t-98.5 -262t-263.5 -105zM397 58q124 0 199 84t75 208t-75 208t-199 84t-199 -84t-75 -208t75 -208t199 -84zM403 146q-92 0 -147 59.5t-55 144.5t55 144.5t147 59.5q76 0 122.5 -40
t55.5 -103h-75q-7 35 -34 57t-70 22q-58 0 -93 -41t-35 -99t35 -99t93 -41q43 0 70 22t34 57h75q-9 -63 -55.5 -103t-122.5 -40z" />
    <glyph glyph-name="ordfeminine" unicode="&#xaa;" horiz-adv-x="372" 
d="M157 394q-62 0 -99 39.5t-37 102.5q0 62 38 103t99 41q65 0 93 -47v39h88v-272h-88v39q-26 -45 -94 -45zM182 466q33 0 52.5 20t19.5 50t-19.5 50t-52.5 20q-32 0 -51.5 -20t-19.5 -50t19.5 -50t51.5 -20z" />
    <glyph glyph-name="guillemotleft" unicode="&#xab;" horiz-adv-x="515" 
d="M213 65l-208 196l208 196l61 -63l-141 -133l141 -133zM444 65l-208 196l208 196l61 -63l-141 -133l141 -133z" />
    <glyph glyph-name="logicalnot" unicode="&#xac;" horiz-adv-x="504" 
d="M345 190v153h-295v97h404v-250h-109z" />
    <glyph glyph-name="uni00AD" unicode="&#xad;" horiz-adv-x="409" 
d="M50 216v97h309v-97h-309z" />
    <glyph glyph-name="registered" unicode="&#xae;" horiz-adv-x="614" 
d="M307 165q-124 0 -198 79t-74 197t74 197t198 79t198 -79t74 -197t-74 -197t-198 -79zM307 222q94 0 150 63t56 156t-56 156t-150 63q-93 0 -149.5 -63t-56.5 -156t56.5 -156t149.5 -63zM209 303v283h115q44 0 71.5 -29t27.5 -71q0 -30 -16 -54.5t-44 -36.5l57 -92h-60
l-51 85h-47v-85h-53zM264 434h56q22 0 35 15t13 37t-13 37.5t-35 15.5h-56v-105z" />
    <glyph glyph-name="macron" unicode="&#xaf;" horiz-adv-x="600" 
d="M60 556v86h318v-86h-318z" />
    <glyph glyph-name="degree" unicode="&#xb0;" horiz-adv-x="355" 
d="M178 377q-67 0 -112.5 45.5t-45.5 111.5q0 67 45.5 112.5t112.5 45.5q66 0 111.5 -45.5t45.5 -112.5q0 -66 -45.5 -111.5t-111.5 -45.5zM178 459q33 0 52.5 22t19.5 53q0 32 -19.5 53.5t-52.5 21.5q-34 0 -53.5 -21.5t-19.5 -53.5t19.5 -53.5t53.5 -21.5z" />
    <glyph glyph-name="plusminus" unicode="&#xb1;" horiz-adv-x="504" 
d="M197 286v103h-147v97h147v104h109v-104h148v-97h-148v-103h-109zM50 130v97h404v-97h-404z" />
    <glyph glyph-name="uni00B2" unicode="&#xb2;" horiz-adv-x="386" 
d="M29 400q0 71 25 114.5t81 72.5l66 33q46 22 46 63q0 22 -13.5 34.5t-36.5 12.5q-62 0 -62 -68h-96q0 64 43 102.5t114 38.5q69 0 108.5 -31t39.5 -85q0 -78 -81 -120l-61 -32q-28 -15 -39.5 -26.5t-16.5 -31.5h195v-77h-312z" />
    <glyph glyph-name="uni00B3" unicode="&#xb3;" horiz-adv-x="392" 
d="M193 391q-77 0 -118.5 36t-41.5 103h95q0 -31 17.5 -48t49.5 -17q28 0 44 14t16 37q0 53 -66 53h-40v72h41q60 0 60 48q0 19 -15.5 31.5t-39.5 12.5q-27 0 -43.5 -14.5t-16.5 -40.5h-94q0 57 42 91t114 34q67 0 107.5 -29.5t40.5 -79.5q0 -69 -77 -88q39 -7 61.5 -32
t22.5 -62q0 -54 -43.5 -87.5t-115.5 -33.5z" />
    <glyph glyph-name="acute" unicode="&#xb4;" horiz-adv-x="600" 
d="M111 502l-35 84l282 107l35 -81z" />
    <glyph glyph-name="uni00B5" unicode="&#xb5;" horiz-adv-x="566" 
d="M387 466h109v-466h-109v65q-43 -77 -144 -77q-36 0 -64 9v-207h-109v676h109v-266q0 -59 22 -89t73 -30q59 0 86 33.5t27 88.5v263z" />
    <glyph glyph-name="paragraph" unicode="&#xb6;" horiz-adv-x="680" 
d="M266 -148v477q-97 0 -156.5 48.5t-59.5 142.5q0 50 18 87.5t44 58t62.5 32.5t65 15.5t59.5 3.5h331v-90h-53v-775h-103v774h-105v-774h-103z" />
    <glyph glyph-name="periodcentered" unicode="&#xb7;" horiz-adv-x="289" 
d="M144 228q-35 0 -59.5 25t-24.5 60t24.5 59.5t59.5 24.5t60 -24.5t25 -59.5t-25 -60t-60 -25z" />
    <glyph glyph-name="cedilla" unicode="&#xb8;" horiz-adv-x="600" 
d="M140 -216q-38 0 -62 19t-28 55h55q1 -13 11 -20.5t23 -7.5q36 0 36 42q0 40 -35 40q-21 0 -32 -16h-49v104h57v-59q13 11 41 11q32 0 54 -20.5t22 -58.5q0 -39 -24 -64t-69 -25z" />
    <glyph glyph-name="uni00B9" unicode="&#xb9;" horiz-adv-x="285" 
d="M120 400v252h-93v71q61 0 83 16.5t22 54.5h79v-394h-91z" />
    <glyph glyph-name="ordmasculine" unicode="&#xba;" horiz-adv-x="365" 
d="M182 393q-73 0 -116.5 40.5t-43.5 103.5t43.5 103t116.5 40t117 -40t44 -103t-44 -103.5t-117 -40.5zM182 466q33 0 52.5 20t19.5 51t-19.5 50t-52.5 19t-53 -19.5t-20 -49.5q0 -31 20 -51t53 -20z" />
    <glyph glyph-name="guillemotright" unicode="&#xbb;" horiz-adv-x="515" 
d="M71 65l-61 63l141 133l-141 133l61 63l208 -196zM302 65l-61 63l141 133l-141 133l61 63l208 -196z" />
    <glyph glyph-name="onequarter" unicode="&#xbc;" horiz-adv-x="845" 
d="M567 704l72 -47l-472 -682l-72 47zM120 286v252h-93v71q61 0 83 16.5t22 54.5h79v-394h-91zM810 192v-80h-50v-112h-93v112h-170v282h92v-202h78v102h93v-102h50z" />
    <glyph glyph-name="onehalf" unicode="&#xbd;" horiz-adv-x="825" 
d="M167 -25l-72 47l472 682l72 -47zM120 286v252h-93v71q61 0 83 16.5t22 54.5h79v-394h-91zM468 0q0 71 25 114.5t81 72.5l66 33q46 22 46 63q0 22 -13.5 34.5t-36.5 12.5q-62 0 -62 -68h-96q0 64 43 102.5t114 38.5q69 0 108.5 -31t39.5 -85q0 -78 -81 -120l-61 -32
q-28 -15 -39.5 -26.5t-16.5 -31.5h195v-77h-312z" />
    <glyph glyph-name="threequarters" unicode="&#xbe;" horiz-adv-x="932" 
d="M654 704l72 -47l-472 -682l-72 47zM352 398q0 -54 -43.5 -87.5t-115.5 -33.5q-77 0 -118.5 36t-41.5 103h95q0 -31 17.5 -48t49.5 -17q28 0 44 14t16 37q0 53 -66 53h-40v72h41q60 0 60 48q0 19 -15.5 31.5t-39.5 12.5q-27 0 -43.5 -14.5t-16.5 -40.5h-94q0 57 42 91
t114 34q67 0 107.5 -29.5t40.5 -79.5q0 -69 -77 -88q39 -7 61.5 -32t22.5 -62zM897 192v-80h-50v-112h-93v112h-170v282h92v-202h78v102h93v-102h50z" />
    <glyph glyph-name="questiondown" unicode="&#xbf;" horiz-adv-x="468" 
d="M258 529q35 0 59.5 -25t24.5 -60t-24.5 -59.5t-59.5 -24.5t-60 24.5t-25 59.5t25 60t60 25zM312 298v-11q0 -50 -11.5 -79t-52.5 -59l-46 -34q-63 -46 -63 -115q0 -44 25.5 -70t67.5 -26q53 0 84.5 31t31.5 92h115q0 -106 -63 -164.5t-173 -58.5q-97 0 -152 53t-55 139
q0 60 26 101t78 82l36 28q26 20 34.5 36t8.5 41v14h109z" />
    <glyph glyph-name="Agrave" unicode="&#xc0;" horiz-adv-x="603" 
d="M419 805l-39 -74l-206 93l38 73zM463 0l-27 89h-269l-27 -89h-125l236 700h101l236 -700h-125zM197 192h208l-104 347z" />
    <glyph glyph-name="Aacute" unicode="&#xc1;" horiz-adv-x="603" 
d="M429 824l-206 -93l-39 74l207 92zM463 0l-27 89h-269l-27 -89h-125l236 700h101l236 -700h-125zM197 192h208l-104 347z" />
    <glyph glyph-name="Acircumflex" unicode="&#xc2;" horiz-adv-x="603" 
d="M298 809l-84 -76l-57 50l141 119l141 -119l-57 -50zM463 0l-27 89h-269l-27 -89h-125l236 700h101l236 -700h-125zM197 192h208l-104 347z" />
    <glyph glyph-name="Atilde" unicode="&#xc3;" horiz-adv-x="603" 
d="M218 790q-22 0 -36.5 -9t-34.5 -34l-45 43q48 82 108 82q38 0 89.5 -31.5t76.5 -31.5q45 0 82 47l43 -49q-42 -76 -117 -80q-41 -3 -93 30t-73 33zM463 0l-27 89h-269l-27 -89h-125l236 700h101l236 -700h-125zM197 192h208l-104 347z" />
    <glyph glyph-name="Adieresis" unicode="&#xc4;" horiz-adv-x="603" 
d="M182 738q-32 0 -54 22t-22 54t22 54.5t54 22.5t54.5 -22.5t22.5 -54.5t-22.5 -54t-54.5 -22zM421 738q-31 0 -53.5 22t-22.5 54t22 54.5t54 22.5t54.5 -22.5t22.5 -54.5t-22.5 -54t-54.5 -22zM463 0l-27 89h-269l-27 -89h-125l236 700h101l236 -700h-125zM197 192h208
l-104 347z" />
    <glyph glyph-name="Aring" unicode="&#xc5;" horiz-adv-x="603" 
d="M463 0l-27 89h-269l-27 -89h-125l224 663q-30 17 -48 46t-18 63q0 53 37.5 90t91.5 37q55 0 94.5 -38t39.5 -89q0 -35 -19.5 -64.5t-51.5 -45.5l223 -662h-125zM302 835q-25 0 -43 -18.5t-18 -44.5q0 -25 18 -42.5t43 -17.5q27 0 45 17.5t18 43.5q0 27 -17.5 44.5
t-45.5 17.5zM197 192h208l-104 347z" />
    <glyph glyph-name="AE" unicode="&#xc6;" horiz-adv-x="863" 
d="M798 597h-269v-198h269v-103h-269v-193h269v-103h-384v94h-235l-44 -94h-125l345 700h443v-103zM224 192h190v410z" />
    <glyph glyph-name="Ccedilla" unicode="&#xc7;" horiz-adv-x="769" 
d="M400 86q86 0 140.5 41t71.5 113h126q-15 -107 -98 -178t-212 -78v-43q13 11 41 11q32 0 54 -20.5t22 -58.5q0 -39 -24 -64t-69 -25q-38 0 -62 19t-28 55h55q1 -13 11 -20.5t23 -7.5q36 0 36 42q0 40 -35 40q-21 0 -32 -16h-49v88q-156 9 -246 109.5t-90 256.5
q0 163 98 265t266 102q141 0 232 -71.5t107 -185.5h-126q-17 72 -71.5 113t-140.5 41q-115 0 -179.5 -71.5t-64.5 -192.5t64.5 -192.5t179.5 -71.5z" />
    <glyph glyph-name="Egrave" unicode="&#xc8;" horiz-adv-x="544" 
d="M360 731l-206 93l38 73l207 -92zM75 0v700h404v-103h-289v-198h289v-103h-289v-193h289v-103h-404z" />
    <glyph glyph-name="Eacute" unicode="&#xc9;" horiz-adv-x="544" 
d="M203 731l-39 74l207 92l38 -73zM75 0v700h404v-103h-289v-198h289v-103h-289v-193h289v-103h-404z" />
    <glyph glyph-name="Ecircumflex" unicode="&#xca;" horiz-adv-x="544" 
d="M278 902l141 -119l-57 -50l-84 76l-84 -76l-57 50zM75 0v700h404v-103h-289v-198h289v-103h-289v-193h289v-103h-404z" />
    <glyph glyph-name="Edieresis" unicode="&#xcb;" horiz-adv-x="544" 
d="M162 738q-32 0 -54 22t-22 54t22 54.5t54 22.5t54.5 -22.5t22.5 -54.5t-22.5 -54t-54.5 -22zM401 738q-31 0 -53.5 22t-22.5 54t22 54.5t54 22.5t54.5 -22.5t22.5 -54.5t-22.5 -54t-54.5 -22zM75 0v700h404v-103h-289v-198h289v-103h-289v-193h289v-103h-404z" />
    <glyph glyph-name="Igrave" unicode="&#xcc;" horiz-adv-x="265" 
d="M186 731l-156 93l49 73l156 -93zM75 0v700h115v-700h-115z" />
    <glyph glyph-name="Iacute" unicode="&#xcd;" horiz-adv-x="265" 
d="M71 730l-49 70l172 107l50 -70zM75 0v700h115v-700h-115z" />
    <glyph glyph-name="Icircumflex" unicode="&#xce;" horiz-adv-x="265" 
d="M199 738l-67 56l-67 -56l-49 54l116 94l116 -94zM75 0v700h115v-700h-115z" />
    <glyph glyph-name="Idieresis" unicode="&#xcf;" horiz-adv-x="265" 
d="M54 743q-30 0 -50 19.5t-20 50.5t20 50.5t50 19.5t50 -19.5t20 -50.5t-20 -50.5t-50 -19.5zM212 743q-30 0 -50 19.5t-20 50.5t20 50.5t50 19.5t50 -19.5t20 -50.5t-20 -50.5t-50 -19.5zM75 0v700h115v-700h-115z" />
    <glyph glyph-name="Eth" unicode="&#xd0;" horiz-adv-x="695" 
d="M312 700q166 0 259.5 -102.5t93.5 -247.5t-93.5 -247.5t-259.5 -102.5h-237v302h-78v97h78v301h237zM302 103q120 0 182.5 72t62.5 175t-62.5 175t-182.5 72h-112v-198h122v-97h-122v-199h112z" />
    <glyph glyph-name="Ntilde" unicode="&#xd1;" horiz-adv-x="658" 
d="M411 727q-41 -3 -93 30t-73 33q-22 0 -36.5 -9t-34.5 -34l-45 43q48 82 108 82q38 0 89.5 -31.5t76.5 -31.5q45 0 82 47l43 -49q-42 -76 -117 -80zM75 0v700h121l277 -508v508h110v-700h-121l-277 508v-508h-110z" />
    <glyph glyph-name="Ograve" unicode="&#xd2;" horiz-adv-x="794" 
d="M475 731l-206 93l38 73l207 -92zM397 -17q-165 0 -263.5 106t-98.5 261t98.5 261t263.5 106t263.5 -106t98.5 -261t-98.5 -261t-263.5 -106zM397 86q113 0 177.5 75.5t63.5 188.5q1 113 -63.5 188.5t-177.5 75.5t-177.5 -75.5t-63.5 -188.5q-1 -113 63.5 -188.5
t177.5 -75.5z" />
    <glyph glyph-name="Oacute" unicode="&#xd3;" horiz-adv-x="794" 
d="M318 731l-39 74l207 92l38 -73zM397 -17q-165 0 -263.5 106t-98.5 261t98.5 261t263.5 106t263.5 -106t98.5 -261t-98.5 -261t-263.5 -106zM397 86q113 0 177.5 75.5t63.5 188.5q1 113 -63.5 188.5t-177.5 75.5t-177.5 -75.5t-63.5 -188.5q-1 -113 63.5 -188.5
t177.5 -75.5z" />
    <glyph glyph-name="Ocircumflex" unicode="&#xd4;" horiz-adv-x="794" 
d="M393 902l141 -119l-57 -50l-84 76l-84 -76l-57 50zM397 -17q-165 0 -263.5 106t-98.5 261t98.5 261t263.5 106t263.5 -106t98.5 -261t-98.5 -261t-263.5 -106zM397 86q113 0 177.5 75.5t63.5 188.5q1 113 -63.5 188.5t-177.5 75.5t-177.5 -75.5t-63.5 -188.5
q-1 -113 63.5 -188.5t177.5 -75.5z" />
    <glyph glyph-name="Otilde" unicode="&#xd5;" horiz-adv-x="794" 
d="M479 727q-41 -3 -93 30t-73 33q-22 0 -36.5 -9t-34.5 -34l-45 43q48 82 108 82q38 0 89.5 -31.5t76.5 -31.5q45 0 82 47l43 -49q-42 -76 -117 -80zM397 -17q-165 0 -263.5 106t-98.5 261t98.5 261t263.5 106t263.5 -106t98.5 -261t-98.5 -261t-263.5 -106zM397 86
q113 0 177.5 75.5t63.5 188.5q1 113 -63.5 188.5t-177.5 75.5t-177.5 -75.5t-63.5 -188.5q-1 -113 63.5 -188.5t177.5 -75.5z" />
    <glyph glyph-name="Odieresis" unicode="&#xd6;" horiz-adv-x="794" 
d="M277 738q-31 0 -53.5 22t-22.5 54t22 54.5t54 22.5t54.5 -22.5t22.5 -54.5t-22.5 -54t-54.5 -22zM516 738q-32 0 -54 22t-22 54t22 54.5t54 22.5t54.5 -22.5t22.5 -54.5t-22.5 -54t-54.5 -22zM397 -17q-165 0 -263.5 106t-98.5 261t98.5 261t263.5 106t263.5 -106
t98.5 -261t-98.5 -261t-263.5 -106zM397 86q113 0 177.5 75.5t63.5 188.5q1 113 -63.5 188.5t-177.5 75.5t-177.5 -75.5t-63.5 -188.5q-1 -113 63.5 -188.5t177.5 -75.5z" />
    <glyph glyph-name="multiply" unicode="&#xd7;" horiz-adv-x="495" 
d="M445 444l-129 -129l128 -129l-68 -69l-129 129l-128 -128l-69 68l129 129l-129 128l68 69l129 -129l129 129z" />
    <glyph glyph-name="Oslash" unicode="&#xd8;" horiz-adv-x="794" 
d="M584 671q83 -47 129 -132t46 -189q0 -155 -98.5 -261t-263.5 -106q-55 0 -102 12l-38 -88l-76 34l36 84q-86 46 -134 133t-48 192q0 155 98.5 261t263.5 106q61 0 110 -15l37 86l75 -34zM156 350q-1 -71 26.5 -130.5t77.5 -93.5l206 479q-32 9 -69 9q-113 0 -177.5 -75.5
t-63.5 -188.5zM397 86q113 0 177.5 75.5t63.5 188.5q1 69 -24.5 126.5t-73.5 93.5l-204 -477q27 -7 61 -7z" />
    <glyph glyph-name="Ugrave" unicode="&#xd9;" 
d="M398 731l-206 93l38 73l207 -92zM320 -17q-120 0 -190 64.5t-70 184.5v468h115v-461q0 -74 39 -113.5t106 -39.5t106 39.5t39 113.5v461h115v-468q0 -120 -70 -184.5t-190 -64.5z" />
    <glyph glyph-name="Uacute" unicode="&#xda;" 
d="M241 731l-39 74l207 92l38 -73zM320 -17q-120 0 -190 64.5t-70 184.5v468h115v-461q0 -74 39 -113.5t106 -39.5t106 39.5t39 113.5v461h115v-468q0 -120 -70 -184.5t-190 -64.5z" />
    <glyph glyph-name="Ucircumflex" unicode="&#xdb;" 
d="M316 902l141 -119l-57 -50l-84 76l-84 -76l-57 50zM320 -17q-120 0 -190 64.5t-70 184.5v468h115v-461q0 -74 39 -113.5t106 -39.5t106 39.5t39 113.5v461h115v-468q0 -120 -70 -184.5t-190 -64.5z" />
    <glyph glyph-name="Udieresis" unicode="&#xdc;" 
d="M200 738q-32 0 -54 22t-22 54t22 54.5t54 22.5t54.5 -22.5t22.5 -54.5t-22.5 -54t-54.5 -22zM439 738q-31 0 -53.5 22t-22.5 54t22 54.5t54 22.5t54.5 -22.5t22.5 -54.5t-22.5 -54t-54.5 -22zM320 -17q-120 0 -190 64.5t-70 184.5v468h115v-461q0 -74 39 -113.5
t106 -39.5t106 39.5t39 113.5v461h115v-468q0 -120 -70 -184.5t-190 -64.5z" />
    <glyph glyph-name="Yacute" unicode="&#xdd;" horiz-adv-x="561" 
d="M419 824l-206 -93l-39 74l207 92zM455 700h126l-347 -700h-126l139 281l-262 419h133l188 -301z" />
    <glyph glyph-name="Thorn" unicode="&#xde;" horiz-adv-x="584" 
d="M334 595q109 0 174.5 -71t65.5 -174t-65.5 -174t-174.5 -71h-144v-105h-115v700h115v-105h144zM327 208q59 0 95.5 41.5t36.5 100.5t-36.5 100.5t-95.5 41.5h-137v-284h137z" />
    <glyph glyph-name="germandbls" unicode="&#xdf;" horiz-adv-x="567" 
d="M310 -12q-54 0 -92 12v94q35 -9 82 -9q53 0 85.5 28t32.5 85q0 45 -29 82.5t-98 37.5h-59v97h46q123 0 123 103q0 44 -29.5 73t-78.5 29q-55 0 -84.5 -34.5t-29.5 -92.5v-493h-109v493q0 101 59.5 162.5t163.5 61.5q102 0 159.5 -52t57.5 -137q0 -64 -37 -106t-92 -52
q63 -5 104.5 -60.5t41.5 -126.5q0 -96 -62.5 -145.5t-154.5 -49.5z" />
    <glyph glyph-name="agrave" unicode="&#xe0;" horiz-adv-x="592" 
d="M396 502l-282 110l35 81l282 -107zM264 -12q-109 0 -169 69t-60 176q0 106 63 175.5t169 69.5q47 0 86 -20t60 -55v63h109v-466h-109v63q-20 -34 -62.5 -54.5t-86.5 -20.5zM280 85q67 0 102.5 42t35.5 106t-35.5 106t-102.5 42q-63 0 -99.5 -41.5t-36.5 -106.5
t36.5 -106.5t99.5 -41.5z" />
    <glyph glyph-name="aacute" unicode="&#xe1;" horiz-adv-x="592" 
d="M148 502l-35 84l282 107l35 -81zM264 -12q-109 0 -169 69t-60 176q0 106 63 175.5t169 69.5q47 0 86 -20t60 -55v63h109v-466h-109v63q-20 -34 -62.5 -54.5t-86.5 -20.5zM280 85q67 0 102.5 42t35.5 106t-35.5 106t-102.5 42q-63 0 -99.5 -41.5t-36.5 -106.5t36.5 -106.5
t99.5 -41.5z" />
    <glyph glyph-name="acircumflex" unicode="&#xe2;" horiz-adv-x="592" 
d="M282 708l180 -147l-58 -64l-122 105l-121 -104l-59 63zM264 -12q-109 0 -169 69t-60 176q0 106 63 175.5t169 69.5q47 0 86 -20t60 -55v63h109v-466h-109v63q-20 -34 -62.5 -54.5t-86.5 -20.5zM280 85q67 0 102.5 42t35.5 106t-35.5 106t-102.5 42q-63 0 -99.5 -41.5
t-36.5 -106.5t36.5 -106.5t99.5 -41.5z" />
    <glyph glyph-name="atilde" unicode="&#xe3;" horiz-adv-x="592" 
d="M356 521q-29 0 -74.5 28t-66.5 28q-31 0 -68 -38l-39 59q40 68 100 68q29 0 74 -28t67 -28q33 0 68 38l39 -59q-40 -68 -100 -68zM264 -12q-109 0 -169 69t-60 176q0 106 63 175.5t169 69.5q47 0 86 -20t60 -55v63h109v-466h-109v63q-20 -34 -62.5 -54.5t-86.5 -20.5z
M280 85q67 0 102.5 42t35.5 106t-35.5 106t-102.5 42q-63 0 -99.5 -41.5t-36.5 -106.5t36.5 -106.5t99.5 -41.5z" />
    <glyph glyph-name="adieresis" unicode="&#xe4;" horiz-adv-x="592" 
d="M180 532q-32 0 -54 22t-22 54t22 54.5t54 22.5t54.5 -22.5t22.5 -54.5t-22.5 -54t-54.5 -22zM383 532q-31 0 -53.5 22t-22.5 54t22 54.5t54 22.5t54.5 -22.5t22.5 -54.5t-22.5 -54t-54.5 -22zM264 -12q-109 0 -169 69t-60 176q0 106 63 175.5t169 69.5q47 0 86 -20
t60 -55v63h109v-466h-109v63q-20 -34 -62.5 -54.5t-86.5 -20.5zM280 85q67 0 102.5 42t35.5 106t-35.5 106t-102.5 42q-63 0 -99.5 -41.5t-36.5 -106.5t36.5 -106.5t99.5 -41.5z" />
    <glyph glyph-name="aring" unicode="&#xe5;" horiz-adv-x="592" 
d="M282 503q-48 0 -80.5 31t-32.5 79t32.5 79t80.5 31t80.5 -31t32.5 -79t-32.5 -79t-80.5 -31zM282 556q23 0 38 16t15 41t-15 41t-38 16t-38 -16t-15 -41t15 -41t38 -16zM264 -12q-109 0 -169 69t-60 176q0 106 63 175.5t169 69.5q47 0 86 -20t60 -55v63h109v-466h-109v63
q-20 -34 -62.5 -54.5t-86.5 -20.5zM280 85q67 0 102.5 42t35.5 106t-35.5 106t-102.5 42q-63 0 -99.5 -41.5t-36.5 -106.5t36.5 -106.5t99.5 -41.5z" />
    <glyph glyph-name="ae" unicode="&#xe6;" horiz-adv-x="863" 
d="M828 255q0 -18 -3 -60h-346q2 -55 36 -84.5t94 -29.5q78 0 104 61h110q-10 -69 -70 -112.5t-144 -43.5q-121 0 -185 88q-64 -86 -196 -86q-84 0 -136 37.5t-52 100.5q0 78 56 116q29 21 70 27.5t128 6.5h85v41q0 32 -24.5 53t-80.5 21q-103 0 -108 -76h-109
q5 74 65 118.5t154 44.5q118 0 169 -66q64 64 160 64q100 0 161.5 -61.5t61.5 -159.5zM479 277h242q0 54 -30.5 84.5t-85.5 30.5t-90 -32t-36 -83zM379 179v15v1h-121q-108 0 -108 -60q0 -61 96 -61q52 0 92.5 25.5t40.5 79.5z" />
    <glyph glyph-name="ccedilla" unicode="&#xe7;" horiz-adv-x="523" 
d="M267 85q93 0 112 76h109q-7 -73 -58.5 -119t-136.5 -53v-48q13 11 41 11q32 0 54 -20.5t22 -58.5q0 -39 -24 -64t-69 -25q-38 0 -62 19t-28 55h55q1 -13 11 -20.5t23 -7.5q36 0 36 42q0 40 -35 40q-21 0 -32 -16h-49v94q-94 10 -147.5 76t-53.5 167q0 110 62.5 177.5
t169.5 67.5q96 0 154.5 -48.5t66.5 -129.5h-109q-18 81 -112 81q-58 0 -90.5 -38.5t-32.5 -109.5t32.5 -109.5t90.5 -38.5z" />
    <glyph glyph-name="egrave" unicode="&#xe8;" horiz-adv-x="527" 
d="M418 586l-35 -84l-282 110l35 81zM492 257q0 -18 -3 -60h-346q2 -55 36 -84.5t94 -29.5q77 0 104 53h110q-11 -65 -70.5 -106.5t-143.5 -41.5q-110 0 -174 66t-64 179q0 112 63.5 178.5t170.5 66.5q100 0 161.5 -61.5t61.5 -159.5zM143 280h242q-1 54 -31.5 83t-86.5 29
q-57 0 -90 -31t-34 -81z" />
    <glyph glyph-name="eacute" unicode="&#xe9;" horiz-adv-x="527" 
d="M417 612l-282 -110l-35 84l282 107zM492 257q0 -18 -3 -60h-346q2 -55 36 -84.5t94 -29.5q77 0 104 53h110q-11 -65 -70.5 -106.5t-143.5 -41.5q-110 0 -174 66t-64 179q0 112 63.5 178.5t170.5 66.5q100 0 161.5 -61.5t61.5 -159.5zM143 280h242q-1 54 -31.5 83
t-86.5 29q-57 0 -90 -31t-34 -81z" />
    <glyph glyph-name="ecircumflex" unicode="&#xea;" horiz-adv-x="527" 
d="M269 602l-121 -104l-59 63l180 147l180 -147l-58 -64zM492 257q0 -18 -3 -60h-346q2 -55 36 -84.5t94 -29.5q77 0 104 53h110q-11 -65 -70.5 -106.5t-143.5 -41.5q-110 0 -174 66t-64 179q0 112 63.5 178.5t170.5 66.5q100 0 161.5 -61.5t61.5 -159.5zM143 280h242
q-1 54 -31.5 83t-86.5 29q-57 0 -90 -31t-34 -81z" />
    <glyph glyph-name="edieresis" unicode="&#xeb;" horiz-adv-x="527" 
d="M167 532q-31 0 -53.5 22t-22.5 54t22 54.5t54 22.5t54.5 -22.5t22.5 -54.5t-22.5 -54t-54.5 -22zM370 532q-32 0 -54 22t-22 54t22 54.5t54 22.5t54.5 -22.5t22.5 -54.5t-22.5 -54t-54.5 -22zM492 257q0 -18 -3 -60h-346q2 -55 36 -84.5t94 -29.5q77 0 104 53h110
q-11 -65 -70.5 -106.5t-143.5 -41.5q-110 0 -174 66t-64 179q0 112 63.5 178.5t170.5 66.5q100 0 161.5 -61.5t61.5 -159.5zM143 280h242q-1 54 -31.5 83t-86.5 29q-57 0 -90 -31t-34 -81z" />
    <glyph glyph-name="igrave" unicode="&#xec;" horiz-adv-x="249" 
d="M175 512l-151 107l50 74l151 -107zM70 0v466h109v-466h-109z" />
    <glyph glyph-name="iacute" unicode="&#xed;" horiz-adv-x="249" 
d="M74 512l-50 74l151 107l50 -74zM70 0v466h109v-466h-109z" />
    <glyph glyph-name="icircumflex" unicode="&#xee;" horiz-adv-x="249" 
d="M54 513l-59 63l130 114l130 -114l-58 -64l-72 67zM70 0v466h109v-466h-109z" />
    <glyph glyph-name="idieresis" unicode="&#xef;" horiz-adv-x="249" 
d="M54 542q-26 0 -44.5 18.5t-18.5 44.5q0 27 18.5 45.5t44.5 18.5t45 -18.5t19 -45.5q0 -26 -19 -44.5t-45 -18.5zM195 542q-25 0 -44 19t-19 44q0 27 18.5 45.5t44.5 18.5q27 0 45.5 -18.5t18.5 -45.5q0 -26 -18.5 -44.5t-45.5 -18.5zM70 0v466h109v-466h-109z" />
    <glyph glyph-name="eth" unicode="&#xf0;" horiz-adv-x="562" 
d="M477 389q50 -66 50 -156q0 -106 -66.5 -175.5t-179.5 -69.5t-179.5 69.5t-66.5 175.5t66 175t179 70l-49 67l-79 -43l-31 57l73 39l-74 102h137l35 -50l74 40l31 -55l-68 -37zM281 85q64 0 100.5 41t36.5 107t-36.5 107t-100.5 41t-100.5 -41t-36.5 -107t36.5 -107
t100.5 -41z" />
    <glyph glyph-name="ntilde" unicode="&#xf1;" horiz-adv-x="566" 
d="M357 521q-29 0 -74.5 28t-66.5 28q-31 0 -68 -38l-39 59q40 68 100 68q29 0 74 -28t67 -28q33 0 68 38l39 -59q-40 -68 -100 -68zM70 0v466h109v-65q45 77 152 77q170 0 170 -185v-293h-109v243q0 76 -23 109t-79 33q-53 0 -82 -33.5t-29 -95.5v-256h-109z" />
    <glyph glyph-name="ograve" unicode="&#xf2;" horiz-adv-x="562" 
d="M395 502l-282 110l35 81l282 -107zM281 -12q-113 0 -179.5 69.5t-66.5 175.5t66.5 175.5t179.5 69.5t179.5 -69.5t66.5 -175.5t-66.5 -175.5t-179.5 -69.5zM281 85q64 0 100.5 41t36.5 107t-36.5 107t-100.5 41t-100.5 -41t-36.5 -107t36.5 -107t100.5 -41z" />
    <glyph glyph-name="oacute" unicode="&#xf3;" horiz-adv-x="562" 
d="M147 502l-35 84l282 107l35 -81zM281 -12q-113 0 -179.5 69.5t-66.5 175.5t66.5 175.5t179.5 69.5t179.5 -69.5t66.5 -175.5t-66.5 -175.5t-179.5 -69.5zM281 85q64 0 100.5 41t36.5 107t-36.5 107t-100.5 41t-100.5 -41t-36.5 -107t36.5 -107t100.5 -41z" />
    <glyph glyph-name="ocircumflex" unicode="&#xf4;" horiz-adv-x="562" 
d="M281 708l180 -147l-58 -64l-122 105l-121 -104l-59 63zM281 -12q-113 0 -179.5 69.5t-66.5 175.5t66.5 175.5t179.5 69.5t179.5 -69.5t66.5 -175.5t-66.5 -175.5t-179.5 -69.5zM281 85q64 0 100.5 41t36.5 107t-36.5 107t-100.5 41t-100.5 -41t-36.5 -107t36.5 -107
t100.5 -41z" />
    <glyph glyph-name="otilde" unicode="&#xf5;" horiz-adv-x="562" 
d="M355 521q-29 0 -74.5 28t-66.5 28q-31 0 -68 -38l-39 59q40 68 100 68q29 0 74 -28t67 -28q33 0 68 38l39 -59q-40 -68 -100 -68zM281 -12q-113 0 -179.5 69.5t-66.5 175.5t66.5 175.5t179.5 69.5t179.5 -69.5t66.5 -175.5t-66.5 -175.5t-179.5 -69.5zM281 85
q64 0 100.5 41t36.5 107t-36.5 107t-100.5 41t-100.5 -41t-36.5 -107t36.5 -107t100.5 -41z" />
    <glyph glyph-name="odieresis" unicode="&#xf6;" horiz-adv-x="562" 
d="M179 532q-31 0 -53.5 22t-22.5 54t22 54.5t54 22.5t54.5 -22.5t22.5 -54.5t-22.5 -54t-54.5 -22zM382 532q-32 0 -54 22t-22 54t22 54.5t54 22.5t54.5 -22.5t22.5 -54.5t-22.5 -54t-54.5 -22zM281 -12q-113 0 -179.5 69.5t-66.5 175.5t66.5 175.5t179.5 69.5t179.5 -69.5
t66.5 -175.5t-66.5 -175.5t-179.5 -69.5zM281 85q64 0 100.5 41t36.5 107t-36.5 107t-100.5 41t-100.5 -41t-36.5 -107t36.5 -107t100.5 -41z" />
    <glyph glyph-name="divide" unicode="&#xf7;" horiz-adv-x="504" 
d="M252 399q-33 0 -56.5 23.5t-23.5 56.5q0 34 23.5 57.5t56.5 23.5q34 0 57.5 -23.5t23.5 -57.5q0 -33 -23.5 -56.5t-57.5 -23.5zM50 262v97h404v-97h-404zM252 70q-33 0 -56.5 23.5t-23.5 56.5q0 34 23.5 57.5t56.5 23.5q34 0 57.5 -23.5t23.5 -57.5q0 -33 -23.5 -56.5
t-57.5 -23.5z" />
    <glyph glyph-name="oslash" unicode="&#xf8;" horiz-adv-x="562" 
d="M414 444q54 -31 83.5 -86.5t29.5 -124.5q0 -106 -66.5 -175.5t-179.5 -69.5q-32 0 -62 6l-33 -77l-61 28l31 72q-57 31 -89 88t-32 128q0 106 66.5 175.5t179.5 69.5q36 0 71 -8l35 80l61 -28zM144 233q0 -83 53 -122l116 267q-15 3 -32 3q-64 0 -100.5 -41t-36.5 -107z
M281 85q64 0 100.5 41t36.5 107q0 74 -45 116l-114 -263q7 -1 22 -1z" />
    <glyph glyph-name="ugrave" unicode="&#xf9;" horiz-adv-x="561" 
d="M395 502l-282 110l35 81l282 -107zM238 -12q-79 0 -126 47t-47 138v293h109v-266q0 -59 22 -89t73 -30q59 0 86 33.5t27 88.5v263h109v-466h-109v65q-43 -77 -144 -77z" />
    <glyph glyph-name="uacute" unicode="&#xfa;" horiz-adv-x="561" 
d="M147 502l-35 84l282 107l35 -81zM238 -12q-79 0 -126 47t-47 138v293h109v-266q0 -59 22 -89t73 -30q59 0 86 33.5t27 88.5v263h109v-466h-109v65q-43 -77 -144 -77z" />
    <glyph glyph-name="ucircumflex" unicode="&#xfb;" horiz-adv-x="561" 
d="M281 708l180 -147l-58 -64l-122 105l-121 -104l-59 63zM238 -12q-79 0 -126 47t-47 138v293h109v-266q0 -59 22 -89t73 -30q59 0 86 33.5t27 88.5v263h109v-466h-109v65q-43 -77 -144 -77z" />
    <glyph glyph-name="udieresis" unicode="&#xfc;" horiz-adv-x="561" 
d="M179 532q-31 0 -53.5 22t-22.5 54t22 54.5t54 22.5t54.5 -22.5t22.5 -54.5t-22.5 -54t-54.5 -22zM382 532q-32 0 -54 22t-22 54t22 54.5t54 22.5t54.5 -22.5t22.5 -54.5t-22.5 -54t-54.5 -22zM238 -12q-79 0 -126 47t-47 138v293h109v-266q0 -59 22 -89t73 -30
q59 0 86 33.5t27 88.5v263h109v-466h-109v65q-43 -77 -144 -77z" />
    <glyph glyph-name="yacute" unicode="&#xfd;" horiz-adv-x="566" 
d="M140 502l-35 84l282 107l35 -81zM387 466h109v-468q0 -107 -61 -166q-59 -54 -158 -54q-103 0 -160 48q-50 44 -52 121h110q4 -40 26.5 -59.5t73.5 -19.5q52 0 82 33.5t30 104.5v59q-45 -77 -150 -77q-83 0 -127.5 53.5t-44.5 140.5v284h109v-261q0 -121 101 -121
q55 0 83.5 39t28.5 102v241z" />
    <glyph glyph-name="thorn" unicode="&#xfe;" horiz-adv-x="592" 
d="M335 478q100 0 161 -67.5t61 -177.5q0 -108 -64 -176.5t-165 -68.5q-46 0 -87 20.5t-62 54.5v-273h-109v910h109v-297q21 34 64 54.5t92 20.5zM312 85q60 0 98 41.5t38 106.5t-38 106.5t-98 41.5q-62 0 -100 -41t-38 -107t38 -107t100 -41z" />
    <glyph glyph-name="ydieresis" unicode="&#xff;" horiz-adv-x="566" 
d="M172 532q-32 0 -54 22t-22 54t22 54.5t54 22.5t54.5 -22.5t22.5 -54.5t-22.5 -54t-54.5 -22zM375 532q-31 0 -53.5 22t-22.5 54t22 54.5t54 22.5t54.5 -22.5t22.5 -54.5t-22.5 -54t-54.5 -22zM387 466h109v-468q0 -107 -61 -166q-59 -54 -158 -54q-103 0 -160 48
q-50 44 -52 121h110q4 -40 26.5 -59.5t73.5 -19.5q52 0 82 33.5t30 104.5v59q-45 -77 -150 -77q-83 0 -127.5 53.5t-44.5 140.5v284h109v-261q0 -121 101 -121q55 0 83.5 39t28.5 102v241z" />
    <glyph glyph-name="Amacron" unicode="&#x100;" horiz-adv-x="603" 
d="M497 850v-86h-390v86h390zM463 0l-27 89h-269l-27 -89h-125l236 700h101l236 -700h-125zM197 192h208l-104 347z" />
    <glyph glyph-name="amacron" unicode="&#x101;" horiz-adv-x="592" 
d="M123 556v86h318v-86h-318zM264 -12q-109 0 -169 69t-60 176q0 106 63 175.5t169 69.5q47 0 86 -20t60 -55v63h109v-466h-109v63q-20 -34 -62.5 -54.5t-86.5 -20.5zM280 85q67 0 102.5 42t35.5 106t-35.5 106t-102.5 42q-63 0 -99.5 -41.5t-36.5 -106.5t36.5 -106.5
t99.5 -41.5z" />
    <glyph glyph-name="Abreve" unicode="&#x102;" horiz-adv-x="603" 
d="M302 732q-71 0 -119 41t-53 101h89q9 -65 83 -65t83 65h89q-5 -60 -53 -101t-119 -41zM463 0l-27 89h-269l-27 -89h-125l236 700h101l236 -700h-125zM197 192h208l-104 347z" />
    <glyph glyph-name="abreve" unicode="&#x103;" horiz-adv-x="592" 
d="M282 507q-80 0 -129 41.5t-53 114.5h92q2 -38 26 -57.5t64 -19.5t64 19.5t26 57.5h92q-4 -73 -53 -114.5t-129 -41.5zM264 -12q-109 0 -169 69t-60 176q0 106 63 175.5t169 69.5q47 0 86 -20t60 -55v63h109v-466h-109v63q-20 -34 -62.5 -54.5t-86.5 -20.5zM280 85
q67 0 102.5 42t35.5 106t-35.5 106t-102.5 42q-63 0 -99.5 -41.5t-36.5 -106.5t36.5 -106.5t99.5 -41.5z" />
    <glyph glyph-name="Aogonek" unicode="&#x104;" horiz-adv-x="603" 
d="M555 -131q26 0 51 12v-78q-39 -15 -81 -15q-56 0 -90.5 29.5t-34.5 72.5q0 64 79 110h-16l-27 89h-269l-27 -89h-125l236 700h101l236 -700q-47 -7 -68 -28.5t-21 -48.5q0 -23 16 -38.5t40 -15.5zM197 192h208l-104 347z" />
    <glyph glyph-name="aogonek" unicode="&#x105;" horiz-adv-x="592" 
d="M497 -131q26 0 51 12v-78q-39 -15 -81 -15q-56 0 -90.5 29.5t-34.5 72.5q0 64 79 110h-8v63q-20 -34 -62.5 -54.5t-86.5 -20.5q-109 0 -169 69t-60 176q0 106 63 175.5t169 69.5q47 0 86 -20t60 -55v63h109v-466h8q-47 -7 -68 -28.5t-21 -48.5q0 -23 16 -38.5t40 -15.5z
M280 85q67 0 102.5 42t35.5 106t-35.5 106t-102.5 42q-63 0 -99.5 -41.5t-36.5 -106.5t36.5 -106.5t99.5 -41.5z" />
    <glyph glyph-name="Cacute" unicode="&#x106;" horiz-adv-x="769" 
d="M321 731l-39 74l207 92l38 -73zM399 -17q-168 0 -266 102t-98 265t98 265t266 102q141 0 232 -71.5t107 -185.5h-126q-17 72 -71.5 113t-140.5 41q-115 0 -179.5 -71.5t-64.5 -192.5t64.5 -192.5t179.5 -71.5q86 0 140.5 41t71.5 113h126q-16 -114 -107 -185.5
t-232 -71.5z" />
    <glyph glyph-name="cacute" unicode="&#x107;" horiz-adv-x="523" 
d="M131 502l-35 84l282 107l35 -81zM267 -12q-107 0 -169.5 67.5t-62.5 177.5t62.5 177.5t169.5 67.5q96 0 154.5 -48.5t66.5 -129.5h-109q-18 81 -112 81q-58 0 -90.5 -38.5t-32.5 -109.5t32.5 -109.5t90.5 -38.5q93 0 112 76h109q-8 -79 -66.5 -126t-154.5 -47z" />
    <glyph glyph-name="Ccircumflex" unicode="&#x108;" horiz-adv-x="769" 
d="M396 902l141 -119l-57 -50l-84 76l-84 -76l-57 50zM399 -17q-168 0 -266 102t-98 265t98 265t266 102q141 0 232 -71.5t107 -185.5h-126q-17 72 -71.5 113t-140.5 41q-115 0 -179.5 -71.5t-64.5 -192.5t64.5 -192.5t179.5 -71.5q86 0 140.5 41t71.5 113h126
q-16 -114 -107 -185.5t-232 -71.5z" />
    <glyph glyph-name="ccircumflex" unicode="&#x109;" horiz-adv-x="523" 
d="M265 708l180 -147l-58 -64l-122 105l-121 -104l-59 63zM267 -12q-107 0 -169.5 67.5t-62.5 177.5t62.5 177.5t169.5 67.5q96 0 154.5 -48.5t66.5 -129.5h-109q-18 81 -112 81q-58 0 -90.5 -38.5t-32.5 -109.5t32.5 -109.5t90.5 -38.5q93 0 112 76h109q-8 -79 -66.5 -126
t-154.5 -47z" />
    <glyph glyph-name="Cdotaccent" unicode="&#x10a;" horiz-adv-x="769" 
d="M400 734q-34 0 -55.5 22t-21.5 55t21.5 55t55.5 22t55.5 -22t21.5 -55t-21.5 -55t-55.5 -22zM399 -17q-168 0 -266 102t-98 265t98 265t266 102q141 0 232 -71.5t107 -185.5h-126q-17 72 -71.5 113t-140.5 41q-115 0 -179.5 -71.5t-64.5 -192.5t64.5 -192.5t179.5 -71.5
q86 0 140.5 41t71.5 113h126q-16 -114 -107 -185.5t-232 -71.5z" />
    <glyph glyph-name="cdotaccent" unicode="&#x10b;" horiz-adv-x="523" 
d="M265 533q-35 0 -58 23.5t-23 57.5t23 57.5t58 23.5t58 -23.5t23 -57.5t-23 -57.5t-58 -23.5zM267 -12q-107 0 -169.5 67.5t-62.5 177.5t62.5 177.5t169.5 67.5q96 0 154.5 -48.5t66.5 -129.5h-109q-18 81 -112 81q-58 0 -90.5 -38.5t-32.5 -109.5t32.5 -109.5t90.5 -38.5
q93 0 112 76h109q-8 -79 -66.5 -126t-154.5 -47z" />
    <glyph glyph-name="Ccaron" unicode="&#x10c;" horiz-adv-x="769" 
d="M400 734l-141 119l57 50l84 -76l84 76l57 -50zM399 -17q-168 0 -266 102t-98 265t98 265t266 102q141 0 232 -71.5t107 -185.5h-126q-17 72 -71.5 113t-140.5 41q-115 0 -179.5 -71.5t-64.5 -192.5t64.5 -192.5t179.5 -71.5q86 0 140.5 41t71.5 113h126
q-16 -114 -107 -185.5t-232 -71.5z" />
    <glyph glyph-name="ccaron" unicode="&#x10d;" horiz-adv-x="523" 
d="M265 496l-180 147l59 63l121 -104l122 105l58 -64zM267 -12q-107 0 -169.5 67.5t-62.5 177.5t62.5 177.5t169.5 67.5q96 0 154.5 -48.5t66.5 -129.5h-109q-18 81 -112 81q-58 0 -90.5 -38.5t-32.5 -109.5t32.5 -109.5t90.5 -38.5q93 0 112 76h109q-8 -79 -66.5 -126
t-154.5 -47z" />
    <glyph glyph-name="Dcaron" unicode="&#x10e;" horiz-adv-x="695" 
d="M323 734l-141 119l57 50l84 -76l84 76l57 -50zM75 0v700h237q166 0 259.5 -102.5t93.5 -247.5t-93.5 -247.5t-259.5 -102.5h-237zM190 103h112q120 0 182.5 72t62.5 175t-62.5 175t-182.5 72h-112v-494z" />
    <glyph glyph-name="dcaron" unicode="&#x10f;" horiz-adv-x="734" 
d="M644 717q38 0 61.5 -26.5t23.5 -76.5q0 -58 -30.5 -91.5t-84.5 -33.5q-14 0 -21 1v47q7 -1 19 -1q33 0 50 17q12 15 12 44q-13 -16 -42 -16q-26 0 -43 19t-17 48q0 31 20 50t52 19zM413 700h109v-700h-109v63q-20 -34 -62.5 -54.5t-86.5 -20.5q-109 0 -169 69t-60 176
q0 106 63 175.5t169 69.5q47 0 86 -20t60 -55v297zM280 85q67 0 102.5 42t35.5 106t-35.5 106t-102.5 42q-63 0 -99.5 -41.5t-36.5 -106.5t36.5 -106.5t99.5 -41.5z" />
    <glyph glyph-name="Dcroat" unicode="&#x110;" horiz-adv-x="695" 
d="M312 700q166 0 259.5 -102.5t93.5 -247.5t-93.5 -247.5t-259.5 -102.5h-237v302h-78v97h78v301h237zM302 103q120 0 182.5 72t62.5 175t-62.5 175t-182.5 72h-112v-198h122v-97h-122v-199h112z" />
    <glyph glyph-name="dcroat" unicode="&#x111;" horiz-adv-x="597" 
d="M570 602v-72h-48v-530h-109v63q-20 -34 -62.5 -54.5t-86.5 -20.5q-109 0 -169 69t-60 176q0 106 63 175.5t169 69.5q47 0 86 -20t60 -55v127h-136v72h136v98h109v-98h48zM280 85q67 0 102.5 42t35.5 106t-35.5 106t-102.5 42q-63 0 -99.5 -41.5t-36.5 -106.5t36.5 -106.5
t99.5 -41.5z" />
    <glyph glyph-name="Emacron" unicode="&#x112;" horiz-adv-x="544" 
d="M87 764v86h390v-86h-390zM75 0v700h404v-103h-289v-198h289v-103h-289v-193h289v-103h-404z" />
    <glyph glyph-name="emacron" unicode="&#x113;" horiz-adv-x="527" 
d="M428 642v-86h-318v86h318zM492 257q0 -18 -3 -60h-346q2 -55 36 -84.5t94 -29.5q77 0 104 53h110q-11 -65 -70.5 -106.5t-143.5 -41.5q-110 0 -174 66t-64 179q0 112 63.5 178.5t170.5 66.5q100 0 161.5 -61.5t61.5 -159.5zM143 280h242q-1 54 -31.5 83t-86.5 29
q-57 0 -90 -31t-34 -81z" />
    <glyph glyph-name="Ebreve" unicode="&#x114;" horiz-adv-x="544" 
d="M282 732q-71 0 -119 41t-53 101h89q9 -65 83 -65t83 65h89q-5 -60 -53 -101t-119 -41zM75 0v700h404v-103h-289v-198h289v-103h-289v-193h289v-103h-404z" />
    <glyph glyph-name="ebreve" unicode="&#x115;" horiz-adv-x="527" 
d="M269 507q-80 0 -129 41.5t-53 114.5h92q2 -38 26 -57.5t64 -19.5t64 19.5t26 57.5h92q-4 -73 -53 -114.5t-129 -41.5zM492 257q0 -18 -3 -60h-346q2 -55 36 -84.5t94 -29.5q77 0 104 53h110q-11 -65 -70.5 -106.5t-143.5 -41.5q-110 0 -174 66t-64 179q0 112 63.5 178.5
t170.5 66.5q100 0 161.5 -61.5t61.5 -159.5zM143 280h242q-1 54 -31.5 83t-86.5 29q-57 0 -90 -31t-34 -81z" />
    <glyph glyph-name="Edotaccent" unicode="&#x116;" horiz-adv-x="544" 
d="M282 734q-34 0 -55.5 22t-21.5 55t21.5 55t55.5 22t55.5 -22t21.5 -55t-21.5 -55t-55.5 -22zM75 0v700h404v-103h-289v-198h289v-103h-289v-193h289v-103h-404z" />
    <glyph glyph-name="edotaccent" unicode="&#x117;" horiz-adv-x="527" 
d="M269 533q-35 0 -58 23.5t-23 57.5t23 57.5t58 23.5t58 -23.5t23 -57.5t-23 -57.5t-58 -23.5zM492 257q0 -18 -3 -60h-346q2 -55 36 -84.5t94 -29.5q77 0 104 53h110q-11 -65 -70.5 -106.5t-143.5 -41.5q-110 0 -174 66t-64 179q0 112 63.5 178.5t170.5 66.5
q100 0 161.5 -61.5t61.5 -159.5zM143 280h242q-1 54 -31.5 83t-86.5 29q-57 0 -90 -31t-34 -81z" />
    <glyph glyph-name="Eogonek" unicode="&#x118;" horiz-adv-x="544" 
d="M446 -131q26 0 51 12v-78q-39 -15 -81 -15q-56 0 -90.5 29.5t-34.5 72.5q0 64 79 110h-295v700h404v-103h-289v-198h289v-103h-289v-193h289v-103q-47 -7 -68 -28.5t-21 -48.5q0 -23 16 -38.5t40 -15.5z" />
    <glyph glyph-name="eogonek" unicode="&#x119;" horiz-adv-x="527" 
d="M492 257q0 -18 -3 -60h-346q2 -55 36 -84.5t94 -29.5q77 0 104 53h110q-9 -55 -54.5 -94t-112.5 -50q-55 -20 -55 -69q0 -23 16 -38.5t40 -15.5q26 0 51 12v-78q-39 -15 -81 -15q-56 0 -90.5 29.5t-34.5 72.5q0 58 64 101q-91 12 -143 76t-52 166q0 112 63.5 178.5
t170.5 66.5q100 0 161.5 -61.5t61.5 -159.5zM143 280h242q-1 54 -31.5 83t-86.5 29q-57 0 -90 -31t-34 -81z" />
    <glyph glyph-name="Ecaron" unicode="&#x11a;" horiz-adv-x="544" 
d="M282 734l-141 119l57 50l84 -76l84 76l57 -50zM75 0v700h404v-103h-289v-198h289v-103h-289v-193h289v-103h-404z" />
    <glyph glyph-name="ecaron" unicode="&#x11b;" horiz-adv-x="527" 
d="M449 643l-180 -147l-180 147l59 63l121 -104l122 105zM492 257q0 -18 -3 -60h-346q2 -55 36 -84.5t94 -29.5q77 0 104 53h110q-11 -65 -70.5 -106.5t-143.5 -41.5q-110 0 -174 66t-64 179q0 112 63.5 178.5t170.5 66.5q100 0 161.5 -61.5t61.5 -159.5zM143 280h242
q-1 54 -31.5 83t-86.5 29q-57 0 -90 -31t-34 -81z" />
    <glyph glyph-name="Gcircumflex" unicode="&#x11c;" horiz-adv-x="833" 
d="M403 809l-84 -76l-57 50l141 119l141 -119l-57 -50zM813 351v-103h-77q-27 -124 -115.5 -194.5t-225.5 -70.5q-163 0 -262 102.5t-98 259.5q1 156 98.5 264t271.5 108q126 0 210.5 -65t93.5 -162h-126q-12 55 -59 89.5t-119 34.5q-122 0 -186 -76.5t-63 -192.5
q-1 -111 64.5 -185t174.5 -74q179 0 220 162h-135v103h333z" />
    <glyph glyph-name="gcircumflex" unicode="&#x11d;" horiz-adv-x="592" 
d="M288 602l-121 -104l-59 63l180 147l180 -147l-58 -64zM413 466h109v-446q0 -140 -84 -201q-55 -41 -160 -41q-102 0 -164 42q-71 48 -74 127h114q15 -79 123 -79q69 0 102.5 33.5t33.5 110.5v51q-20 -34 -62.5 -54.5t-86.5 -20.5q-106 0 -167.5 69.5t-61.5 175.5
q0 105 64.5 175t167.5 70q47 0 86 -20t60 -55v63zM280 85q64 0 101 42.5t37 105.5t-37 105.5t-101 42.5q-61 0 -98.5 -41.5t-37.5 -106.5t37.5 -106.5t98.5 -41.5z" />
    <glyph glyph-name="Gbreve" unicode="&#x11e;" horiz-adv-x="833" 
d="M407 732q-71 0 -119 41t-53 101h89q9 -65 83 -65t83 65h89q-5 -60 -53 -101t-119 -41zM813 351v-103h-77q-27 -124 -115.5 -194.5t-225.5 -70.5q-163 0 -262 102.5t-98 259.5q1 156 98.5 264t271.5 108q126 0 210.5 -65t93.5 -162h-126q-12 55 -59 89.5t-119 34.5
q-122 0 -186 -76.5t-63 -192.5q-1 -111 64.5 -185t174.5 -74q179 0 220 162h-135v103h333z" />
    <glyph glyph-name="gbreve" unicode="&#x11f;" horiz-adv-x="592" 
d="M288 507q-80 0 -129 41.5t-53 114.5h92q2 -38 26 -57.5t64 -19.5t64 19.5t26 57.5h92q-4 -73 -53 -114.5t-129 -41.5zM413 466h109v-446q0 -140 -84 -201q-55 -41 -160 -41q-102 0 -164 42q-71 48 -74 127h114q15 -79 123 -79q69 0 102.5 33.5t33.5 110.5v51
q-20 -34 -62.5 -54.5t-86.5 -20.5q-106 0 -167.5 69.5t-61.5 175.5q0 105 64.5 175t167.5 70q47 0 86 -20t60 -55v63zM280 85q64 0 101 42.5t37 105.5t-37 105.5t-101 42.5q-61 0 -98.5 -41.5t-37.5 -106.5t37.5 -106.5t98.5 -41.5z" />
    <glyph glyph-name="Gdotaccent" unicode="&#x120;" horiz-adv-x="833" 
d="M407 734q-34 0 -55.5 22t-21.5 55t21.5 55t55.5 22t55.5 -22t21.5 -55t-21.5 -55t-55.5 -22zM813 351v-103h-77q-27 -124 -115.5 -194.5t-225.5 -70.5q-163 0 -262 102.5t-98 259.5q1 156 98.5 264t271.5 108q126 0 210.5 -65t93.5 -162h-126q-12 55 -59 89.5t-119 34.5
q-122 0 -186 -76.5t-63 -192.5q-1 -111 64.5 -185t174.5 -74q179 0 220 162h-135v103h333z" />
    <glyph glyph-name="gdotaccent" unicode="&#x121;" horiz-adv-x="592" 
d="M288 533q-35 0 -58 23.5t-23 57.5t23 57.5t58 23.5t58 -23.5t23 -57.5t-23 -57.5t-58 -23.5zM413 466h109v-446q0 -140 -84 -201q-55 -41 -160 -41q-102 0 -164 42q-71 48 -74 127h114q15 -79 123 -79q69 0 102.5 33.5t33.5 110.5v51q-20 -34 -62.5 -54.5t-86.5 -20.5
q-106 0 -167.5 69.5t-61.5 175.5q0 105 64.5 175t167.5 70q47 0 86 -20t60 -55v63zM280 85q64 0 101 42.5t37 105.5t-37 105.5t-101 42.5q-61 0 -98.5 -41.5t-37.5 -106.5t37.5 -106.5t98.5 -41.5z" />
    <glyph glyph-name="Gcommaaccent" unicode="&#x122;" horiz-adv-x="833" 
d="M813 351v-103h-77q-27 -124 -115.5 -194.5t-225.5 -70.5q-163 0 -262 102.5t-98 259.5q1 156 98.5 264t271.5 108q126 0 210.5 -65t93.5 -162h-126q-12 55 -59 89.5t-119 34.5q-122 0 -186 -76.5t-63 -192.5q-1 -111 64.5 -185t174.5 -74q179 0 220 162h-135v103h333z
M402 -30q30 0 47.5 -19t17.5 -50q0 -108 -108 -110v34q31 0 49 13q11 9 13 30q-4 -4 -14 -4q-26 0 -42 15t-16 37q0 23 15.5 38.5t37.5 15.5z" />
    <glyph glyph-name="gcommaaccent" unicode="&#x123;" horiz-adv-x="592" 
d="M270 508q-27 0 -45 23t-18 59q0 47 31 75.5t84 29.5v-35q-31 0 -50 -14q-18 -12 -18 -33q4 6 19 6q23 0 38 -16t15 -39q0 -24 -16.5 -40t-39.5 -16zM413 466h109v-446q0 -140 -84 -201q-55 -41 -160 -41q-102 0 -164 42q-71 48 -74 127h114q15 -79 123 -79
q69 0 102.5 33.5t33.5 110.5v51q-20 -34 -62.5 -54.5t-86.5 -20.5q-106 0 -167.5 69.5t-61.5 175.5q0 105 64.5 175t167.5 70q47 0 86 -20t60 -55v63zM280 85q64 0 101 42.5t37 105.5t-37 105.5t-101 42.5q-61 0 -98.5 -41.5t-37.5 -106.5t37.5 -106.5t98.5 -41.5z" />
    <glyph glyph-name="Hcircumflex" unicode="&#x124;" horiz-adv-x="669" 
d="M331 902l141 -119l-57 -50l-84 76l-84 -76l-57 50zM75 0v700h115v-301h289v301h115v-700h-115v296h-289v-296h-115z" />
    <glyph glyph-name="hcircumflex" unicode="&#x125;" horiz-adv-x="566" 
d="M191 738l-67 56l-67 -56l-49 54l116 94l116 -94zM331 478q170 0 170 -185v-293h-109v243q0 76 -23 109t-79 33q-53 0 -82 -33.5t-29 -95.5v-256h-109v700h109v-299q45 77 152 77z" />
    <glyph glyph-name="Hbar" unicode="&#x126;" horiz-adv-x="669" 
d="M629 573v-72h-35v-501h-115v296h-289v-296h-115v501h-35v72h35v127h115v-127h289v127h115v-127h35zM479 399v102h-289v-102h289z" />
    <glyph glyph-name="hbar" unicode="&#x127;" horiz-adv-x="566" 
d="M331 478q170 0 170 -185v-293h-109v243q0 76 -23 109t-79 33q-53 0 -82 -33.5t-29 -95.5v-256h-109v530h-37v72h37v98h109v-98h147v-72h-147v-129q45 77 152 77z" />
    <glyph glyph-name="Itilde" unicode="&#x128;" horiz-adv-x="265" 
d="M175 751q-23 0 -47.5 18.5t-35.5 18.5q-22 0 -41 -27l-24 51q24 49 66 49q23 0 47.5 -18.5t35.5 -18.5q22 0 41 27l24 -51q-24 -49 -66 -49zM75 0v700h115v-700h-115z" />
    <glyph glyph-name="itilde" unicode="&#x129;" horiz-adv-x="249" 
d="M163 521q-22 0 -47 26.5t-39 26.5q-23 0 -40 -31l-22 58q25 65 68 65q25 0 54.5 -26.5t39.5 -26.5q20 0 37 27l20 -59q-18 -60 -71 -60zM70 0v466h109v-466h-109z" />
    <glyph glyph-name="Imacron" unicode="&#x12a;" horiz-adv-x="265" 
d="M33 764v76h200v-76h-200zM75 0v700h115v-700h-115z" />
    <glyph glyph-name="imacron" unicode="&#x12b;" horiz-adv-x="249" 
d="M21 556v86h208v-86h-208zM70 0v466h109v-466h-109z" />
    <glyph glyph-name="Ibreve" unicode="&#x12c;" horiz-adv-x="265" 
d="M133 732q-127 0 -127 142h83q3 -65 44 -65t44 65h83q0 -142 -127 -142zM75 0v700h115v-700h-115z" />
    <glyph glyph-name="ibreve" unicode="&#x12d;" horiz-adv-x="249" 
d="M125 507q-117 0 -117 136h73q3 -68 44 -68t44 68h73q0 -136 -117 -136zM70 0v466h109v-466h-109z" />
    <glyph glyph-name="Iogonek" unicode="&#x12e;" horiz-adv-x="265" 
d="M157 -131q26 0 51 12v-78q-39 -15 -81 -15q-56 0 -90.5 29.5t-34.5 72.5q0 64 79 110h-6v700h115v-700q-47 -7 -68 -28.5t-21 -48.5q0 -23 16 -38.5t40 -15.5z" />
    <glyph glyph-name="iogonek" unicode="&#x12f;" horiz-adv-x="249" 
d="M125 533q-35 0 -58 23.5t-23 57.5t23 57.5t58 23.5t58 -23.5t23 -57.5t-23 -57.5t-58 -23.5zM90 -77q0 -23 16 -38.5t40 -15.5q26 0 51 12v-78q-39 -15 -81 -15q-56 0 -90.5 29.5t-34.5 72.5q0 64 79 110v466h109v-466q-47 -7 -68 -28.5t-21 -48.5z" />
    <glyph glyph-name="Idotaccent" unicode="&#x130;" horiz-adv-x="265" 
d="M133 734q-34 0 -55.5 22t-21.5 55t21.5 55t55.5 22t55.5 -22t21.5 -55t-21.5 -55t-55.5 -22zM75 0v700h115v-700h-115z" />
    <glyph glyph-name="dotlessi" unicode="&#x131;" horiz-adv-x="249" 
d="M70 0v466h109v-466h-109z" />
    <glyph glyph-name="IJ" unicode="&#x132;" horiz-adv-x="801" 
d="M75 0v700h115v-700h-115zM512 -17q-107 0 -167 67t-60 178h115q0 -65 28.5 -103.5t83.5 -38.5t84.5 38.5t29.5 102.5v473h115v-473q0 -111 -60.5 -177.5t-168.5 -66.5z" />
    <glyph glyph-name="ij" unicode="&#x133;" horiz-adv-x="501" 
d="M125 533q-35 0 -58 23.5t-23 57.5t23 57.5t58 23.5t58 -23.5t23 -57.5t-23 -57.5t-58 -23.5zM377 533q-35 0 -58 23.5t-23 57.5t23 57.5t58 23.5t58 -23.5t23 -57.5t-23 -57.5t-58 -23.5zM70 0v466h109v-466h-109zM303 -216q-45 0 -64 10v97q19 -4 41 -4q42 0 42 48v531
h109v-563q0 -58 -33 -88.5t-95 -30.5z" />
    <glyph glyph-name="Jcircumflex" unicode="&#x134;" horiz-adv-x="536" 
d="M485 738l-67 56l-67 -56l-49 54l116 94l116 -94zM247 -17q-107 0 -167 67t-60 178h115q0 -65 28.5 -103.5t83.5 -38.5t84.5 38.5t29.5 102.5v473h115v-473q0 -111 -60.5 -177.5t-168.5 -66.5z" />
    <glyph glyph-name="jcircumflex" unicode="&#x135;" horiz-adv-x="252" 
d="M57 513l-59 63l130 114l130 -114l-58 -64l-72 67zM54 -216q-45 0 -64 10v97q19 -4 41 -4q42 0 42 48v531h109v-563q0 -58 -33 -88.5t-95 -30.5z" />
    <glyph glyph-name="Kcommaaccent" unicode="&#x136;" horiz-adv-x="606" 
d="M596 700l-301 -345l301 -355h-146l-260 314v-314h-115v700h115v-316l261 316h145zM291 -30q30 0 47.5 -19t17.5 -50q0 -108 -108 -110v34q31 0 49 13q11 9 13 30q-4 -4 -14 -4q-26 0 -42 15t-16 37q0 23 15.5 38.5t37.5 15.5z" />
    <glyph glyph-name="kcommaaccent" unicode="&#x137;" horiz-adv-x="518" 
d="M493 466l-202 -223l202 -243h-143l-171 212v-212h-109v700h109v-438l176 204h138zM264 -30q30 0 47.5 -19t17.5 -50q0 -108 -108 -110v34q31 0 49 13q11 9 13 30q-4 -4 -14 -4q-26 0 -42 15t-16 37q0 23 15.5 38.5t37.5 15.5z" />
    <glyph glyph-name="kgreenlandic" unicode="&#x138;" horiz-adv-x="518" 
d="M493 466l-202 -223l202 -243h-143l-171 212v-212h-109v466h109v-204l176 204h138z" />
    <glyph glyph-name="Lacute" unicode="&#x139;" horiz-adv-x="511" 
d="M71 730l-49 70l172 107l50 -70zM75 0v700h115v-592h281v-108h-396z" />
    <glyph glyph-name="lacute" unicode="&#x13a;" horiz-adv-x="249" 
d="M63 730l-49 70l172 107l50 -70zM70 0v700h109v-700h-109z" />
    <glyph glyph-name="Lcommaaccent" unicode="&#x13b;" horiz-adv-x="511" 
d="M75 0v700h115v-592h281v-108h-396zM232 -209v34q31 0 49 13q11 9 13 30q-4 -4 -14 -4q-26 0 -42 15t-16 37q0 23 15.5 38.5t37.5 15.5q30 0 47.5 -19t17.5 -50q0 -108 -108 -110z" />
    <glyph glyph-name="lcommaaccent" unicode="&#x13c;" horiz-adv-x="249" 
d="M70 0v700h109v-700h-109zM77 -209v34q31 0 49 13q11 9 13 30q-4 -4 -14 -4q-26 0 -42 15t-16 37q0 23 15.5 38.5t37.5 15.5q30 0 47.5 -19t17.5 -50q0 -108 -108 -110z" />
    <glyph glyph-name="Lcaron" unicode="&#x13d;" horiz-adv-x="511" 
d="M331 489q-14 0 -21 1v47q7 -1 19 -1q33 0 50 17q12 15 12 44q-13 -16 -42 -16q-26 0 -43 19t-17 48q0 31 20 50t52 19q38 0 61.5 -26.5t23.5 -76.5q0 -58 -30.5 -91.5t-84.5 -33.5zM75 0v700h115v-592h281v-108h-396z" />
    <glyph glyph-name="lcaron" unicode="&#x13e;" horiz-adv-x="395" 
d="M285 489q-14 0 -21 1v47q7 -1 19 -1q33 0 50 17q12 15 12 44q-13 -16 -42 -16q-26 0 -43 19t-17 48q0 31 20 50t52 19q38 0 61.5 -26.5t23.5 -76.5q0 -58 -30.5 -91.5t-84.5 -33.5zM70 0v700h109v-700h-109z" />
    <glyph glyph-name="Ldot" unicode="&#x13f;" horiz-adv-x="511" 
d="M75 0v700h115v-592h281v-108h-396zM357 316q-35 0 -59.5 25t-24.5 60t24.5 59.5t59.5 24.5t60 -24.5t25 -59.5t-25 -60t-60 -25z" />
    <glyph glyph-name="ldot" unicode="&#x140;" horiz-adv-x="393" 
d="M70 0v700h109v-700h-109zM303 266q-35 0 -59.5 25t-24.5 60t24.5 59.5t59.5 24.5t60 -24.5t25 -59.5t-25 -60t-60 -25z" />
    <glyph glyph-name="Lslash" unicode="&#x141;" horiz-adv-x="499" 
d="M190 108h281v-108h-396v256l-47 -20v90l47 20v354h115v-307l165 69v-90l-165 -69v-195z" />
    <glyph glyph-name="lslash" unicode="&#x142;" horiz-adv-x="249" 
d="M246 470v-82l-70 -37v-351h-109v292l-64 -34v82l64 34v326h109v-267z" />
    <glyph glyph-name="Nacute" unicode="&#x143;" horiz-adv-x="658" 
d="M250 731l-39 74l207 92l38 -73zM75 0v700h121l277 -508v508h110v-700h-121l-277 508v-508h-110z" />
    <glyph glyph-name="nacute" unicode="&#x144;" horiz-adv-x="566" 
d="M149 502l-35 84l282 107l35 -81zM70 0v466h109v-65q45 77 152 77q170 0 170 -185v-293h-109v243q0 76 -23 109t-79 33q-53 0 -82 -33.5t-29 -95.5v-256h-109z" />
    <glyph glyph-name="Ncommaaccent" unicode="&#x145;" horiz-adv-x="658" 
d="M75 0v700h121l277 -508v508h110v-700h-121l-277 508v-508h-110zM281 -209v34q31 0 49 13q11 9 13 30q-4 -4 -14 -4q-26 0 -42 15t-16 37q0 23 15.5 38.5t37.5 15.5q30 0 47.5 -19t17.5 -50q0 -108 -108 -110z" />
    <glyph glyph-name="ncommaaccent" unicode="&#x146;" horiz-adv-x="566" 
d="M70 0v466h109v-65q45 77 152 77q170 0 170 -185v-293h-109v243q0 76 -23 109t-79 33q-53 0 -82 -33.5t-29 -95.5v-256h-109zM235 -209v34q31 0 49 13q11 9 13 30q-4 -4 -14 -4q-26 0 -42 15t-16 37q0 23 15.5 38.5t37.5 15.5q30 0 47.5 -19t17.5 -50q0 -108 -108 -110z
" />
    <glyph glyph-name="Ncaron" unicode="&#x147;" horiz-adv-x="658" 
d="M329 734l-141 119l57 50l84 -76l84 76l57 -50zM75 0v700h121l277 -508v508h110v-700h-121l-277 508v-508h-110z" />
    <glyph glyph-name="ncaron" unicode="&#x148;" horiz-adv-x="566" 
d="M283 496l-180 147l59 63l121 -104l122 105l58 -64zM70 0v466h109v-65q45 77 152 77q170 0 170 -185v-293h-109v243q0 76 -23 109t-79 33q-53 0 -82 -33.5t-29 -95.5v-256h-109z" />
    <glyph glyph-name="napostrophe" unicode="&#x149;" horiz-adv-x="592" 
d="M57 489q-14 0 -21 1v47q7 -1 19 -1q33 0 50 17q12 15 12 44q-13 -16 -42 -16q-26 0 -43 19t-17 48q0 31 20 50t52 19q38 0 61.5 -26.5t23.5 -76.5q0 -58 -30.5 -91.5t-84.5 -33.5zM96 0v466h109v-65q45 77 152 77q170 0 170 -185v-293h-109v243q0 76 -23 109t-79 33
q-53 0 -82 -33.5t-29 -95.5v-256h-109z" />
    <glyph glyph-name="Eng" unicode="&#x14a;" horiz-adv-x="658" 
d="M473 700h110v-776q0 -68 -40.5 -104t-115.5 -36q-44 0 -67 10v102q20 -4 49 -4q32 0 45.5 15t13.5 54v39h-6l-277 508v-508h-110v700h121l277 -508v508z" />
    <glyph glyph-name="eng" unicode="&#x14b;" horiz-adv-x="566" 
d="M331 478q170 0 170 -185v-390q0 -58 -33 -88.5t-95 -30.5q-45 0 -64 10v97q19 -4 41 -4q42 0 42 48v308q0 76 -23 109t-79 33q-53 0 -82 -33.5t-29 -95.5v-256h-109v466h109v-65q45 77 152 77z" />
    <glyph glyph-name="Omacron" unicode="&#x14c;" horiz-adv-x="794" 
d="M202 764v86h390v-86h-390zM397 -17q-165 0 -263.5 106t-98.5 261t98.5 261t263.5 106t263.5 -106t98.5 -261t-98.5 -261t-263.5 -106zM397 86q113 0 177.5 75.5t63.5 188.5q1 113 -63.5 188.5t-177.5 75.5t-177.5 -75.5t-63.5 -188.5q-1 -113 63.5 -188.5t177.5 -75.5z
" />
    <glyph glyph-name="omacron" unicode="&#x14d;" horiz-adv-x="562" 
d="M122 556v86h318v-86h-318zM281 -12q-113 0 -179.5 69.5t-66.5 175.5t66.5 175.5t179.5 69.5t179.5 -69.5t66.5 -175.5t-66.5 -175.5t-179.5 -69.5zM281 85q64 0 100.5 41t36.5 107t-36.5 107t-100.5 41t-100.5 -41t-36.5 -107t36.5 -107t100.5 -41z" />
    <glyph glyph-name="Obreve" unicode="&#x14e;" horiz-adv-x="794" 
d="M397 732q-71 0 -119 41t-53 101h89q9 -65 83 -65t83 65h89q-5 -60 -53 -101t-119 -41zM397 -17q-165 0 -263.5 106t-98.5 261t98.5 261t263.5 106t263.5 -106t98.5 -261t-98.5 -261t-263.5 -106zM397 86q113 0 177.5 75.5t63.5 188.5q1 113 -63.5 188.5t-177.5 75.5
t-177.5 -75.5t-63.5 -188.5q-1 -113 63.5 -188.5t177.5 -75.5z" />
    <glyph glyph-name="obreve" unicode="&#x14f;" horiz-adv-x="562" 
d="M281 507q-80 0 -129 41.5t-53 114.5h92q2 -38 26 -57.5t64 -19.5t64 19.5t26 57.5h92q-4 -73 -53 -114.5t-129 -41.5zM281 -12q-113 0 -179.5 69.5t-66.5 175.5t66.5 175.5t179.5 69.5t179.5 -69.5t66.5 -175.5t-66.5 -175.5t-179.5 -69.5zM281 85q64 0 100.5 41
t36.5 107t-36.5 107t-100.5 41t-100.5 -41t-36.5 -107t36.5 -107t100.5 -41z" />
    <glyph glyph-name="Ohungarumlaut" unicode="&#x150;" horiz-adv-x="794" 
d="M315 735l-59 25l124 132l98 -38zM487 734l-58 26l124 132l97 -40zM397 -17q-165 0 -263.5 106t-98.5 261t98.5 261t263.5 106t263.5 -106t98.5 -261t-98.5 -261t-263.5 -106zM397 86q113 0 177.5 75.5t63.5 188.5q1 113 -63.5 188.5t-177.5 75.5t-177.5 -75.5
t-63.5 -188.5q-1 -113 63.5 -188.5t177.5 -75.5z" />
    <glyph glyph-name="ohungarumlaut" unicode="&#x151;" horiz-adv-x="562" 
d="M165 491l-52 28l125 166l96 -48zM360 491l-52 28l125 166l96 -48zM281 -12q-113 0 -179.5 69.5t-66.5 175.5t66.5 175.5t179.5 69.5t179.5 -69.5t66.5 -175.5t-66.5 -175.5t-179.5 -69.5zM281 85q64 0 100.5 41t36.5 107t-36.5 107t-100.5 41t-100.5 -41t-36.5 -107
t36.5 -107t100.5 -41z" />
    <glyph glyph-name="OE" unicode="&#x152;" horiz-adv-x="894" 
d="M829 597h-270v-198h270v-103h-270v-193h270v-103h-452q-156 0 -249 101t-93 249t93 249t249 101h452v-103zM377 103h67v494h-67q-103 0 -162 -70.5t-59 -176.5t59 -176.5t162 -70.5z" />
    <glyph glyph-name="oe" unicode="&#x153;" horiz-adv-x="910" 
d="M875 257q0 -18 -3 -60h-346q2 -55 36 -84.5t94 -29.5q78 0 104 53h110q-11 -65 -70.5 -106.5t-143.5 -41.5q-122 0 -186 80q-70 -80 -189 -80q-113 0 -179.5 69.5t-66.5 175.5t66.5 175.5t179.5 69.5q120 0 189 -80q64 80 182 80q100 0 161.5 -61.5t61.5 -159.5zM526 280
h242q-1 54 -31.5 83t-86.5 29q-57 0 -90 -31t-34 -81zM281 85q64 0 100.5 41t36.5 107t-36.5 107t-100.5 41t-100.5 -41t-36.5 -107t36.5 -107t100.5 -41z" />
    <glyph glyph-name="Racute" unicode="&#x154;" horiz-adv-x="608" 
d="M429 824l-206 -93l-39 74l207 92zM573 455q0 -81 -40.5 -142t-108.5 -87l138 -226h-131l-128 210h-113v-210h-115v700h258q105 0 172.5 -69t67.5 -176zM190 597v-284h136q57 0 94.5 40.5t37.5 101.5t-37.5 101.5t-94.5 40.5h-136z" />
    <glyph glyph-name="racute" unicode="&#x155;" horiz-adv-x="366" 
d="M42 502l-35 84l282 107l35 -81zM70 0v466h109v-90q12 47 47 71.5t77 24.5q27 0 43 -4v-100q-17 2 -43 2q-58 0 -91 -42.5t-33 -121.5v-206h-109z" />
    <glyph glyph-name="Rcommaaccent" unicode="&#x156;" horiz-adv-x="608" 
d="M573 455q0 -81 -40.5 -142t-108.5 -87l138 -226h-131l-128 210h-113v-210h-115v700h258q105 0 172.5 -69t67.5 -176zM190 597v-284h136q57 0 94.5 40.5t37.5 101.5t-37.5 101.5t-94.5 40.5h-136zM297 -30q30 0 47.5 -19t17.5 -50q0 -108 -108 -110v34q31 0 49 13
q11 9 13 30q-4 -4 -14 -4q-26 0 -42 15t-16 37q0 23 15.5 38.5t37.5 15.5z" />
    <glyph glyph-name="rcommaaccent" unicode="&#x157;" horiz-adv-x="366" 
d="M70 0v466h109v-90q12 47 47 71.5t77 24.5q27 0 43 -4v-100q-17 2 -43 2q-58 0 -91 -42.5t-33 -121.5v-206h-109zM84 -209v34q31 0 49 13q11 9 13 30q-4 -4 -14 -4q-26 0 -42 15t-16 37q0 23 15.5 38.5t37.5 15.5q30 0 47.5 -19t17.5 -50q0 -108 -108 -110z" />
    <glyph glyph-name="Rcaron" unicode="&#x158;" horiz-adv-x="608" 
d="M443 853l-141 -119l-141 119l57 50l84 -76l84 76zM573 455q0 -81 -40.5 -142t-108.5 -87l138 -226h-131l-128 210h-113v-210h-115v700h258q105 0 172.5 -69t67.5 -176zM190 597v-284h136q57 0 94.5 40.5t37.5 101.5t-37.5 101.5t-94.5 40.5h-136z" />
    <glyph glyph-name="rcaron" unicode="&#x159;" horiz-adv-x="366" 
d="M176 496l-180 147l59 63l121 -104l122 105l58 -64zM70 0v466h109v-90q12 47 47 71.5t77 24.5q27 0 43 -4v-100q-17 2 -43 2q-58 0 -91 -42.5t-33 -121.5v-206h-109z" />
    <glyph glyph-name="Sacute" unicode="&#x15a;" horiz-adv-x="552" 
d="M197 731l-39 74l207 92l38 -73zM285 -17q-122 0 -188.5 64t-66.5 182h115q0 -68 37 -107t102 -39q57 0 87.5 25.5t30.5 72.5q0 40 -22.5 64t-81.5 48l-114 46q-134 52 -134 186q0 85 62.5 138.5t161.5 53.5q104 0 167.5 -60t63.5 -159h-115q0 58 -31 89.5t-89 31.5
q-49 0 -76.5 -23.5t-27.5 -63.5q0 -36 27 -62t89 -51l103 -42q132 -54 132 -193q0 -90 -64 -145.5t-168 -55.5z" />
    <glyph glyph-name="sacute" unicode="&#x15b;" horiz-adv-x="457" 
d="M92 502l-35 84l282 107l35 -81zM233 -12q-88 0 -143 45t-55 110h109q0 -30 26.5 -49t68.5 -19q31 0 49 15t18 40q0 40 -35 49l-120 33q-101 28 -101 129q0 58 50 97.5t129 39.5q89 0 136.5 -40t47.5 -105h-107q0 29 -21.5 45.5t-59.5 16.5q-29 0 -48 -13.5t-19 -34.5
q0 -38 40 -50l111 -32q48 -14 78 -47.5t30 -77.5q0 -68 -48.5 -110t-135.5 -42z" />
    <glyph glyph-name="Scircumflex" unicode="&#x15c;" horiz-adv-x="552" 
d="M272 902l141 -119l-57 -50l-84 76l-84 -76l-57 50zM285 -17q-122 0 -188.5 64t-66.5 182h115q0 -68 37 -107t102 -39q57 0 87.5 25.5t30.5 72.5q0 40 -22.5 64t-81.5 48l-114 46q-134 52 -134 186q0 85 62.5 138.5t161.5 53.5q104 0 167.5 -60t63.5 -159h-115
q0 58 -31 89.5t-89 31.5q-49 0 -76.5 -23.5t-27.5 -63.5q0 -36 27 -62t89 -51l103 -42q132 -54 132 -193q0 -90 -64 -145.5t-168 -55.5z" />
    <glyph glyph-name="scircumflex" unicode="&#x15d;" horiz-adv-x="457" 
d="M226 708l180 -147l-58 -64l-122 105l-121 -104l-59 63zM233 -12q-88 0 -143 45t-55 110h109q0 -30 26.5 -49t68.5 -19q31 0 49 15t18 40q0 40 -35 49l-120 33q-101 28 -101 129q0 58 50 97.5t129 39.5q89 0 136.5 -40t47.5 -105h-107q0 29 -21.5 45.5t-59.5 16.5
q-29 0 -48 -13.5t-19 -34.5q0 -38 40 -50l111 -32q48 -14 78 -47.5t30 -77.5q0 -68 -48.5 -110t-135.5 -42z" />
    <glyph glyph-name="Scedilla" unicode="&#x15e;" horiz-adv-x="552" 
d="M517 184q0 -85 -58.5 -140t-154.5 -60v-43q13 11 41 11q32 0 54 -20.5t22 -58.5q0 -39 -24 -64t-69 -25q-38 0 -62 19t-28 55h55q1 -13 11 -20.5t23 -7.5q36 0 36 42q0 40 -35 40q-21 0 -32 -16h-49v89q-104 10 -160.5 73t-56.5 171h115q0 -68 37 -107t102 -39
q57 0 87.5 25.5t30.5 72.5q0 40 -22.5 64t-81.5 48l-114 46q-134 52 -134 186q0 85 62.5 138.5t161.5 53.5q104 0 167.5 -60t63.5 -159h-115q0 58 -31 89.5t-89 31.5q-49 0 -76.5 -23.5t-27.5 -63.5q0 -36 27 -62t89 -51l103 -42q132 -54 132 -193z" />
    <glyph glyph-name="scedilla" unicode="&#x15f;" horiz-adv-x="457" 
d="M417 140q0 -64 -42.5 -105t-120.5 -46v-48q13 11 41 11q32 0 54 -20.5t22 -58.5q0 -39 -24 -64t-69 -25q-38 0 -62 19t-28 55h55q1 -13 11 -20.5t23 -7.5q36 0 36 42q0 40 -35 40q-21 0 -32 -16h-49v94q-73 10 -117.5 52.5t-44.5 100.5h109q0 -30 26.5 -49t68.5 -19
q31 0 49 15t18 40q0 40 -35 49l-120 33q-101 28 -101 129q0 58 50 97.5t129 39.5q89 0 136.5 -40t47.5 -105h-107q0 29 -21.5 45.5t-59.5 16.5q-29 0 -48 -13.5t-19 -34.5q0 -38 40 -50l111 -32q48 -14 78 -47.5t30 -77.5z" />
    <glyph glyph-name="Scaron" unicode="&#x160;" horiz-adv-x="552" 
d="M276 734l-141 119l57 50l84 -76l84 76l57 -50zM285 -17q-122 0 -188.5 64t-66.5 182h115q0 -68 37 -107t102 -39q57 0 87.5 25.5t30.5 72.5q0 40 -22.5 64t-81.5 48l-114 46q-134 52 -134 186q0 85 62.5 138.5t161.5 53.5q104 0 167.5 -60t63.5 -159h-115q0 58 -31 89.5
t-89 31.5q-49 0 -76.5 -23.5t-27.5 -63.5q0 -36 27 -62t89 -51l103 -42q132 -54 132 -193q0 -90 -64 -145.5t-168 -55.5z" />
    <glyph glyph-name="scaron" unicode="&#x161;" horiz-adv-x="457" 
d="M226 496l-180 147l59 63l121 -104l122 105l58 -64zM233 -12q-88 0 -143 45t-55 110h109q0 -30 26.5 -49t68.5 -19q31 0 49 15t18 40q0 40 -35 49l-120 33q-101 28 -101 129q0 58 50 97.5t129 39.5q89 0 136.5 -40t47.5 -105h-107q0 29 -21.5 45.5t-59.5 16.5
q-29 0 -48 -13.5t-19 -34.5q0 -38 40 -50l111 -32q48 -14 78 -47.5t30 -77.5q0 -68 -48.5 -110t-135.5 -42z" />
    <glyph glyph-name="uni0162" unicode="&#x162;" horiz-adv-x="532" 
d="M323 0h-29v-59q13 11 41 11q32 0 54 -20.5t22 -58.5q0 -39 -24 -64t-69 -25q-38 0 -62 19t-28 55h55q1 -13 11 -20.5t23 -7.5q36 0 36 42q0 40 -35 40q-21 0 -32 -16h-49v104h-29v592h-203v108h522v-108h-204v-592z" />
    <glyph glyph-name="uni0163" unicode="&#x163;" horiz-adv-x="366" 
d="M307 -48q32 0 54 -20.5t22 -58.5q0 -39 -24 -64t-69 -25q-38 0 -62 19t-28 55h55q1 -13 11 -20.5t23 -7.5q36 0 36 42q0 40 -35 40q-21 0 -32 -16h-49v102q-105 19 -105 160v217h-79v91h79v141h109v-141h107v-91h-107v-192q0 -56 16 -73.5t52 -17.5q33 0 55 4v-96
q-21 -4 -70 -6v-53q13 11 41 11z" />
    <glyph glyph-name="Tcaron" unicode="&#x164;" horiz-adv-x="532" 
d="M266 734l-141 119l57 50l84 -76l84 76l57 -50zM208 0v592h-203v108h522v-108h-204v-592h-115z" />
    <glyph glyph-name="tcaron" unicode="&#x165;" horiz-adv-x="388" 
d="M319 715q35 0 56 -24t21 -69q0 -53 -27.5 -83t-76.5 -30q-12 0 -19 1v42h17q31 0 46 15q10 13 10 40q-12 -15 -38 -15q-23 0 -38.5 17.5t-15.5 43.5q0 28 18 45t47 17zM213 183q0 -56 16 -73.5t52 -17.5q33 0 55 4v-96q-34 -6 -81 -6q-27 0 -47 4t-47 18.5t-42 50.5
t-15 91v217h-79v91h79v141h109v-141h107v-91h-107v-192z" />
    <glyph glyph-name="Tbar" unicode="&#x166;" horiz-adv-x="532" 
d="M527 592h-204v-151h142v-82h-142v-359h-115v359h-140v82h140v151h-203v108h522v-108z" />
    <glyph glyph-name="tbar" unicode="&#x167;" horiz-adv-x="371" 
d="M286 92q33 0 55 4v-96q-34 -6 -81 -6q-27 0 -47 4t-47 18.5t-42 50.5t-15 91v54h-84v72h84v91h-79v91h79v141h109v-141h107v-91h-107v-91h102v-72h-102v-29q0 -56 16 -73.5t52 -17.5z" />
    <glyph glyph-name="Utilde" unicode="&#x168;" 
d="M402 727q-41 -3 -93 30t-73 33q-22 0 -36.5 -9t-34.5 -34l-45 43q48 82 108 82q38 0 89.5 -31.5t76.5 -31.5q45 0 82 47l43 -49q-42 -76 -117 -80zM320 -17q-120 0 -190 64.5t-70 184.5v468h115v-461q0 -74 39 -113.5t106 -39.5t106 39.5t39 113.5v461h115v-468
q0 -120 -70 -184.5t-190 -64.5z" />
    <glyph glyph-name="utilde" unicode="&#x169;" horiz-adv-x="561" 
d="M355 521q-29 0 -74.5 28t-66.5 28q-31 0 -68 -38l-39 59q40 68 100 68q29 0 74 -28t67 -28q33 0 68 38l39 -59q-40 -68 -100 -68zM238 -12q-79 0 -126 47t-47 138v293h109v-266q0 -59 22 -89t73 -30q59 0 86 33.5t27 88.5v263h109v-466h-109v65q-43 -77 -144 -77z" />
    <glyph glyph-name="Umacron" unicode="&#x16a;" 
d="M125 764v86h390v-86h-390zM320 -17q-120 0 -190 64.5t-70 184.5v468h115v-461q0 -74 39 -113.5t106 -39.5t106 39.5t39 113.5v461h115v-468q0 -120 -70 -184.5t-190 -64.5z" />
    <glyph glyph-name="umacron" unicode="&#x16b;" horiz-adv-x="561" 
d="M122 556v86h318v-86h-318zM238 -12q-79 0 -126 47t-47 138v293h109v-266q0 -59 22 -89t73 -30q59 0 86 33.5t27 88.5v263h109v-466h-109v65q-43 -77 -144 -77z" />
    <glyph glyph-name="Ubreve" unicode="&#x16c;" 
d="M320 732q-71 0 -119 41t-53 101h89q9 -65 83 -65t83 65h89q-5 -60 -53 -101t-119 -41zM320 -17q-120 0 -190 64.5t-70 184.5v468h115v-461q0 -74 39 -113.5t106 -39.5t106 39.5t39 113.5v461h115v-468q0 -120 -70 -184.5t-190 -64.5z" />
    <glyph glyph-name="ubreve" unicode="&#x16d;" horiz-adv-x="561" 
d="M281 507q-80 0 -129 41.5t-53 114.5h92q2 -38 26 -57.5t64 -19.5t64 19.5t26 57.5h92q-4 -73 -53 -114.5t-129 -41.5zM238 -12q-79 0 -126 47t-47 138v293h109v-266q0 -59 22 -89t73 -30q59 0 86 33.5t27 88.5v263h109v-466h-109v65q-43 -77 -144 -77z" />
    <glyph glyph-name="Uring" unicode="&#x16e;" 
d="M320 647q-55 0 -93.5 37t-38.5 89t38.5 89t93.5 37t93.5 -37t38.5 -89t-38.5 -89t-93.5 -37zM320 711q26 0 44 18t18 44t-18 44t-44 18t-44 -18t-18 -44t18 -44t44 -18zM320 -17q-120 0 -190 64.5t-70 184.5v468h115v-461q0 -74 39 -113.5t106 -39.5t106 39.5t39 113.5
v461h115v-468q0 -120 -70 -184.5t-190 -64.5z" />
    <glyph glyph-name="uring" unicode="&#x16f;" horiz-adv-x="561" 
d="M281 503q-48 0 -80.5 31t-32.5 79t32.5 79t80.5 31t80.5 -31t32.5 -79t-32.5 -79t-80.5 -31zM281 556q23 0 38 16t15 41t-15 41t-38 16t-38 -16t-15 -41t15 -41t38 -16zM238 -12q-79 0 -126 47t-47 138v293h109v-266q0 -59 22 -89t73 -30q59 0 86 33.5t27 88.5v263h109
v-466h-109v65q-43 -77 -144 -77z" />
    <glyph glyph-name="Uhungarumlaut" unicode="&#x170;" 
d="M238 735l-59 25l124 132l98 -38zM410 734l-58 26l124 132l97 -40zM320 -17q-120 0 -190 64.5t-70 184.5v468h115v-461q0 -74 39 -113.5t106 -39.5t106 39.5t39 113.5v461h115v-468q0 -120 -70 -184.5t-190 -64.5z" />
    <glyph glyph-name="uhungarumlaut" unicode="&#x171;" horiz-adv-x="561" 
d="M165 491l-52 28l125 166l96 -48zM360 491l-52 28l125 166l96 -48zM238 -12q-79 0 -126 47t-47 138v293h109v-266q0 -59 22 -89t73 -30q59 0 86 33.5t27 88.5v263h109v-466h-109v65q-43 -77 -144 -77z" />
    <glyph glyph-name="Uogonek" unicode="&#x172;" 
d="M465 700h115v-468q0 -102 -51.5 -164.5t-143.5 -79.5q-47 -20 -47 -65q0 -23 16 -38.5t40 -15.5q26 0 51 12v-78q-39 -15 -81 -15q-56 0 -90.5 29.5t-34.5 72.5q0 52 55 94q-109 7 -171.5 71t-62.5 177v468h115v-461q0 -74 39 -113.5t106 -39.5t106 39.5t39 113.5v461z
" />
    <glyph glyph-name="uogonek" unicode="&#x173;" horiz-adv-x="561" 
d="M458 -131q26 0 51 12v-78q-39 -15 -81 -15q-56 0 -90.5 29.5t-34.5 72.5q0 64 79 110v65q-43 -77 -144 -77q-79 0 -126 47t-47 138v293h109v-266q0 -59 22 -89t73 -30q59 0 86 33.5t27 88.5v263h109v-466q-47 -7 -68 -28.5t-21 -48.5q0 -23 16 -38.5t40 -15.5z" />
    <glyph glyph-name="Wcircumflex" unicode="&#x174;" horiz-adv-x="973" 
d="M483 902l141 -119l-57 -50l-84 76l-84 -76l-57 50zM242 0l-242 700h121l166 -509l157 509h85l157 -509l166 509h121l-242 -700h-83l-161 499l-162 -499h-83z" />
    <glyph glyph-name="wcircumflex" unicode="&#x175;" horiz-adv-x="764" 
d="M382 708l180 -147l-58 -64l-122 105l-121 -104l-59 63zM177 0l-172 466h120l97 -308l101 308h118l101 -308l97 308h120l-172 -466h-92l-113 332l-113 -332h-92z" />
    <glyph glyph-name="Ycircumflex" unicode="&#x176;" horiz-adv-x="561" 
d="M288 809l-84 -76l-57 50l141 119l141 -119l-57 -50zM455 700h126l-347 -700h-126l139 281l-262 419h133l188 -301z" />
    <glyph glyph-name="ycircumflex" unicode="&#x177;" horiz-adv-x="566" 
d="M274 708l180 -147l-58 -64l-122 105l-121 -104l-59 63zM387 466h109v-468q0 -107 -61 -166q-59 -54 -158 -54q-103 0 -160 48q-50 44 -52 121h110q4 -40 26.5 -59.5t73.5 -19.5q52 0 82 33.5t30 104.5v59q-45 -77 -150 -77q-83 0 -127.5 53.5t-44.5 140.5v284h109v-261
q0 -121 101 -121q55 0 83.5 39t28.5 102v241z" />
    <glyph glyph-name="Ydieresis" unicode="&#x178;" horiz-adv-x="561" 
d="M172 738q-32 0 -54 22t-22 54t22 54.5t54 22.5t54.5 -22.5t22.5 -54.5t-22.5 -54t-54.5 -22zM411 738q-31 0 -53.5 22t-22.5 54t22 54.5t54 22.5t54.5 -22.5t22.5 -54.5t-22.5 -54t-54.5 -22zM455 700h126l-347 -700h-126l139 281l-262 419h133l188 -301z" />
    <glyph glyph-name="Zacute" unicode="&#x179;" horiz-adv-x="581" 
d="M234 731l-39 74l207 92l38 -73zM20 0l347 597h-304v103h493l-342 -597h330v-103h-524z" />
    <glyph glyph-name="zacute" unicode="&#x17a;" horiz-adv-x="443" 
d="M83 502l-35 84l282 107l35 -81zM5 0l252 374h-231v92h412l-253 -375h235v-91h-415z" />
    <glyph glyph-name="Zdotaccent" unicode="&#x17b;" horiz-adv-x="581" 
d="M313 734q-34 0 -55.5 22t-21.5 55t21.5 55t55.5 22t55.5 -22t21.5 -55t-21.5 -55t-55.5 -22zM20 0l347 597h-304v103h493l-342 -597h330v-103h-524z" />
    <glyph glyph-name="zdotaccent" unicode="&#x17c;" horiz-adv-x="443" 
d="M217 533q-35 0 -58 23.5t-23 57.5t23 57.5t58 23.5t58 -23.5t23 -57.5t-23 -57.5t-58 -23.5zM5 0l252 374h-231v92h412l-253 -375h235v-91h-415z" />
    <glyph glyph-name="Zcaron" unicode="&#x17d;" horiz-adv-x="581" 
d="M313 734l-141 119l57 50l84 -76l84 76l57 -50zM20 0l347 597h-304v103h493l-342 -597h330v-103h-524z" />
    <glyph glyph-name="zcaron" unicode="&#x17e;" horiz-adv-x="443" 
d="M217 496l-180 147l59 63l121 -104l122 105l58 -64zM5 0l252 374h-231v92h412l-253 -375h235v-91h-415z" />
    <glyph glyph-name="florin" unicode="&#x192;" horiz-adv-x="431" 
d="M378 595q-41 0 -60.5 -18.5t-28.5 -68.5l-8 -42h120l-16 -91h-120l-76 -417q-31 -173 -178 -173q-48 0 -81 12l16 92q21 -7 47 -7q40 0 60 17t27 57l76 419h-97l16 91h97l8 44q17 94 64 138t126 44q45 0 71 -12l-16 -92q-21 7 -47 7z" />
    <glyph glyph-name="AEacute" unicode="&#x1fc;" horiz-adv-x="863" 
d="M736 824l-206 -93l-39 74l207 92zM798 597h-269v-198h269v-103h-269v-193h269v-103h-384v94h-235l-44 -94h-125l345 700h443v-103zM224 192h190v410z" />
    <glyph glyph-name="aeacute" unicode="&#x1fd;" horiz-adv-x="863" 
d="M590 612l-282 -110l-35 84l282 107zM828 255q0 -18 -3 -60h-346q2 -55 36 -84.5t94 -29.5q78 0 104 61h110q-10 -69 -70 -112.5t-144 -43.5q-121 0 -185 88q-64 -86 -196 -86q-84 0 -136 37.5t-52 100.5q0 78 56 116q29 21 70 27.5t128 6.5h85v41q0 32 -24.5 53t-80.5 21
q-103 0 -108 -76h-109q5 74 65 118.5t154 44.5q118 0 169 -66q64 64 160 64q100 0 161.5 -61.5t61.5 -159.5zM479 277h242q0 54 -30.5 84.5t-85.5 30.5t-90 -32t-36 -83zM379 179v15v1h-121q-108 0 -108 -60q0 -61 96 -61q52 0 92.5 25.5t40.5 79.5z" />
    <glyph glyph-name="Oslashacute" unicode="&#x1fe;" horiz-adv-x="794" 
d="M529 824l-206 -93l-39 74l207 92zM584 671q83 -47 129 -132t46 -189q0 -155 -98.5 -261t-263.5 -106q-55 0 -102 12l-38 -88l-76 34l36 84q-86 46 -134 133t-48 192q0 155 98.5 261t263.5 106q61 0 110 -15l37 86l75 -34zM156 350q-1 -71 26.5 -130.5t77.5 -93.5l206 479
q-32 9 -69 9q-113 0 -177.5 -75.5t-63.5 -188.5zM397 86q113 0 177.5 75.5t63.5 188.5q1 69 -24.5 126.5t-73.5 93.5l-204 -477q27 -7 61 -7z" />
    <glyph glyph-name="oslashacute" unicode="&#x1ff;" horiz-adv-x="562" 
d="M429 612l-282 -110l-35 84l282 107zM414 444q54 -31 83.5 -86.5t29.5 -124.5q0 -106 -66.5 -175.5t-179.5 -69.5q-32 0 -62 6l-33 -77l-61 28l31 72q-57 31 -89 88t-32 128q0 106 66.5 175.5t179.5 69.5q36 0 71 -8l35 80l61 -28zM144 233q0 -83 53 -122l116 267
q-15 3 -32 3q-64 0 -100.5 -41t-36.5 -107zM281 85q64 0 100.5 41t36.5 107q0 74 -45 116l-114 -263q7 -1 22 -1z" />
    <glyph glyph-name="Scommaaccent" unicode="&#x218;" horiz-adv-x="552" 
d="M285 -17q-122 0 -188.5 64t-66.5 182h115q0 -68 37 -107t102 -39q57 0 87.5 25.5t30.5 72.5q0 40 -22.5 64t-81.5 48l-114 46q-134 52 -134 186q0 85 62.5 138.5t161.5 53.5q104 0 167.5 -60t63.5 -159h-115q0 58 -31 89.5t-89 31.5q-49 0 -76.5 -23.5t-27.5 -63.5
q0 -36 27 -62t89 -51l103 -42q132 -54 132 -193q0 -90 -64 -145.5t-168 -55.5zM228 -209v34q31 0 49 13q11 9 13 30q-4 -4 -14 -4q-26 0 -42 15t-16 37q0 23 15.5 38.5t37.5 15.5q30 0 47.5 -19t17.5 -50q0 -108 -108 -110z" />
    <glyph glyph-name="scommaaccent" unicode="&#x219;" horiz-adv-x="457" 
d="M233 -12q-88 0 -143 45t-55 110h109q0 -30 26.5 -49t68.5 -19q31 0 49 15t18 40q0 40 -35 49l-120 33q-101 28 -101 129q0 58 50 97.5t129 39.5q89 0 136.5 -40t47.5 -105h-107q0 29 -21.5 45.5t-59.5 16.5q-29 0 -48 -13.5t-19 -34.5q0 -38 40 -50l111 -32
q48 -14 78 -47.5t30 -77.5q0 -68 -48.5 -110t-135.5 -42zM178 -209v34q31 0 49 13q11 9 13 30q-4 -4 -14 -4q-26 0 -42 15t-16 37q0 23 15.5 38.5t37.5 15.5q30 0 47.5 -19t17.5 -50q0 -108 -108 -110z" />
    <glyph glyph-name="uni021A" unicode="&#x21a;" horiz-adv-x="532" 
d="M208 0v592h-203v108h522v-108h-204v-592h-115zM218 -209v34q31 0 49 13q11 9 13 30q-4 -4 -14 -4q-26 0 -42 15t-16 37q0 23 15.5 38.5t37.5 15.5q30 0 47.5 -19t17.5 -50q0 -108 -108 -110z" />
    <glyph glyph-name="uni021B" unicode="&#x21b;" horiz-adv-x="366" 
d="M281 92q33 0 55 4v-96q-34 -6 -81 -6q-27 0 -47 4t-47 18.5t-42 50.5t-15 91v217h-79v91h79v141h109v-141h107v-91h-107v-192q0 -56 16 -73.5t52 -17.5zM233 -30q30 0 47.5 -19t17.5 -50q0 -108 -108 -110v34q31 0 49 13q11 9 13 30q-4 -4 -14 -4q-26 0 -42 15t-16 37
q0 23 15.5 38.5t37.5 15.5z" />
    <glyph glyph-name="uni0237" unicode="&#x237;" horiz-adv-x="252" 
d="M54 -216q-45 0 -64 10v97q19 -4 41 -4q42 0 42 48v531h109v-563q0 -58 -33 -88.5t-95 -30.5z" />
    <glyph glyph-name="uni0243" unicode="&#x243;" horiz-adv-x="585" 
d="M545 189q0 -76 -45 -124.5t-126 -60.5v-104h-82v100h-48v-100h-82v100h-87v680h87v100h82v-100h48v100h82v-105q76 -14 118 -58.5t42 -113.5q0 -133 -133 -154q60 -5 102 -47.5t42 -112.5zM419 488q0 44 -30 68t-85 24h-114v-184h114q54 0 84.5 24.5t30.5 67.5zM320 101
q52 0 81 26.5t29 74.5q0 42 -30 68.5t-79 26.5h-131v-196h130z" />
    <glyph glyph-name="uni02BC" unicode="&#x2bc;" horiz-adv-x="284" 
d="M138 739q35 0 63 -28.5t28 -84.5q0 -64 -34.5 -104.5t-98.5 -40.5q-22 0 -36 3v46q14 -2 36 -2q34 0 55 23q20 20 23 53q-13 -16 -42 -16q-30 0 -51 20.5t-21 53.5q0 34 22 55.5t56 21.5z" />
    <glyph glyph-name="circumflex" unicode="&#x2c6;" horiz-adv-x="600" 
d="M220 708l180 -147l-58 -64l-122 105l-121 -104l-59 63z" />
    <glyph glyph-name="caron" unicode="&#x2c7;" horiz-adv-x="600" 
d="M220 496l-180 147l59 63l121 -104l122 105l58 -64z" />
    <glyph glyph-name="breve" unicode="&#x2d8;" horiz-adv-x="600" 
d="M232 507q-80 0 -129 41.5t-53 114.5h92q2 -38 26 -57.5t64 -19.5t64 19.5t26 57.5h92q-4 -73 -53 -114.5t-129 -41.5z" />
    <glyph glyph-name="dotaccent" unicode="&#x2d9;" horiz-adv-x="600" 
d="M300 533q-35 0 -58 23.5t-23 57.5t23 57.5t58 23.5t58 -23.5t23 -57.5t-23 -57.5t-58 -23.5z" />
    <glyph glyph-name="ring" unicode="&#x2da;" horiz-adv-x="600" 
d="M155 479q-48 0 -80.5 31t-32.5 79t32.5 79t80.5 31t80.5 -31t32.5 -79t-32.5 -79t-80.5 -31zM155 532q23 0 38 16t15 41t-15 41t-38 16t-38 -16t-15 -41t15 -41t38 -16z" />
    <glyph glyph-name="ogonek" unicode="&#x2db;" horiz-adv-x="600" 
d="M165 -212q-56 0 -90.5 29.5t-34.5 72.5q0 64 79 110h109q-47 -7 -68 -28.5t-21 -48.5q0 -23 16 -38.5t40 -15.5q26 0 51 12v-78q-39 -15 -81 -15z" />
    <glyph glyph-name="tilde" unicode="&#x2dc;" horiz-adv-x="600" 
d="M292 521q-29 0 -74.5 28t-66.5 28q-31 0 -68 -38l-39 59q40 68 100 68q29 0 74 -28t67 -28q33 0 68 38l39 -59q-40 -68 -100 -68z" />
    <glyph glyph-name="hungarumlaut" unicode="&#x2dd;" horiz-adv-x="600" 
d="M92 491l-52 28l125 166l96 -48zM287 491l-52 28l125 166l96 -48z" />
    <glyph glyph-name="gravecomb" unicode="&#x300;" horiz-adv-x="0" 
d="M-111 502l-282 110l35 81l282 -107z" />
    <glyph glyph-name="acutecomb" unicode="&#x301;" horiz-adv-x="0" 
d="M-296 502l-35 84l282 107l35 -81z" />
    <glyph glyph-name="uni0302" unicode="&#x302;" horiz-adv-x="0" 
d="M-220 708l180 -147l-58 -64l-122 105l-121 -104l-59 63z" />
    <glyph glyph-name="tildecomb" unicode="&#x303;" horiz-adv-x="0" 
d="M-143 521q-29 0 -74.5 28t-66.5 28q-31 0 -68 -38l-39 59q40 68 100 68q29 0 74 -28t67 -28q33 0 68 38l39 -59q-40 -68 -100 -68z" />
    <glyph glyph-name="uni0304" unicode="&#x304;" horiz-adv-x="0" 
d="M-378 556v86h318v-86h-318z" />
    <glyph glyph-name="uni0306" unicode="&#x306;" horiz-adv-x="0" 
d="M-232 507q-80 0 -129 41.5t-53 114.5h92q2 -38 26 -57.5t64 -19.5t64 19.5t26 57.5h92q-4 -73 -53 -114.5t-129 -41.5z" />
    <glyph glyph-name="uni0307" unicode="&#x307;" horiz-adv-x="0" 
d="M-120 533q-35 0 -58 23.5t-23 57.5t23 57.5t58 23.5t58 -23.5t23 -57.5t-23 -57.5t-58 -23.5z" />
    <glyph glyph-name="uni0308" unicode="&#x308;" horiz-adv-x="0" 
d="M-333 532q-31 0 -53.5 22t-22.5 54t22 54.5t54 22.5t54.5 -22.5t22.5 -54.5t-22.5 -54t-54.5 -22zM-130 532q-32 0 -54 22t-22 54t22 54.5t54 22.5t54.5 -22.5t22.5 -54.5t-22.5 -54t-54.5 -22z" />
    <glyph glyph-name="uni030A" unicode="&#x30a;" horiz-adv-x="0" 
d="M-154 479q-48 0 -80.5 31t-32.5 79t32.5 79t80.5 31t80.5 -31t32.5 -79t-32.5 -79t-80.5 -31zM-154 532q23 0 38 16t15 41t-15 41t-38 16t-38 -16t-15 -41t15 -41t38 -16z" />
    <glyph glyph-name="uni030B" unicode="&#x30b;" horiz-adv-x="0" 
d="M-404 491l-52 28l125 166l96 -48zM-209 491l-52 28l125 166l96 -48z" />
    <glyph glyph-name="uni030C" unicode="&#x30c;" horiz-adv-x="0" 
d="M-220 496l-180 147l59 63l121 -104l122 105l58 -64z" />
    <glyph glyph-name="uni0312" unicode="&#x312;" horiz-adv-x="0" 
d="M-409 695v-35q-31 0 -50 -14q-18 -12 -18 -33q5 6 19 6q23 0 38 -16t15 -39q0 -24 -16.5 -40t-39.5 -16q-27 0 -45 23t-18 59q0 47 31 75.5t84 29.5z" />
    <glyph glyph-name="uni0326" unicode="&#x326;" horiz-adv-x="0" 
d="M-154 -209v34q31 0 49 13q11 9 13 30q-4 -4 -14 -4q-26 0 -42 15t-16 37q0 23 15.5 38.5t37.5 15.5q30 0 47.5 -19t17.5 -50q0 -108 -108 -110z" />
    <glyph glyph-name="uni0327" unicode="&#x327;" horiz-adv-x="0" 
d="M-143 -216q-38 0 -62 19t-28 55h55q1 -13 11 -20.5t23 -7.5q36 0 36 42q0 40 -35 40q-21 0 -32 -16h-49v104h57v-59q13 11 41 11q32 0 54 -20.5t22 -58.5q0 -39 -24 -64t-69 -25z" />
    <glyph glyph-name="uni0328" unicode="&#x328;" horiz-adv-x="0" 
d="M-121 -212q-56 0 -90.5 29.5t-34.5 72.5q0 64 79 110h109q-47 -7 -68 -28.5t-21 -48.5q0 -23 16 -38.5t40 -15.5q26 0 51 12v-78q-39 -15 -81 -15z" />
    <glyph glyph-name="uni0394" unicode="&#x394;" horiz-adv-x="595" 
d="M15 0l242 700h81l242 -700h-565zM174 103h247l-123 406z" />
    <glyph glyph-name="uni03A9" unicode="&#x3a9;" horiz-adv-x="696" 
d="M53 0v103h165v18q-86 34 -134.5 108.5t-48.5 169.5q0 129 86 221t227 92t227 -92t86 -221q0 -95 -48.5 -170t-134.5 -109v-17h165v-103h-255v181q80 18 119 78.5t39 144.5q0 86 -52 145.5t-146 59.5t-146 -59.5t-52 -145.5q0 -84 39 -144.5t119 -78.5v-181h-255z" />
    <glyph glyph-name="uni03BC" unicode="&#x3bc;" horiz-adv-x="566" 
d="M387 466h109v-466h-109v65q-43 -77 -144 -77q-36 0 -64 9v-207h-109v676h109v-266q0 -59 22 -89t73 -30q59 0 86 33.5t27 88.5v263z" />
    <glyph glyph-name="pi" unicode="&#x3c0;" horiz-adv-x="656" 
d="M140 0v369h-70v97h516v-97h-70v-369h-109v369h-158v-369h-109z" />
    <glyph glyph-name="uni0401" unicode="&#x401;" horiz-adv-x="544" 
d="M162 738q-32 0 -54 22t-22 54t22 54.5t54 22.5t54.5 -22.5t22.5 -54.5t-22.5 -54t-54.5 -22zM401 738q-31 0 -53.5 22t-22.5 54t22 54.5t54 22.5t54.5 -22.5t22.5 -54.5t-22.5 -54t-54.5 -22zM75 0v700h404v-103h-289v-198h289v-103h-289v-193h289v-103h-404z" />
    <glyph glyph-name="uni0402" unicode="&#x402;" horiz-adv-x="720" 
d="M455 490q97 0 163.5 -65.5t66.5 -175.5q0 -132 -64 -195.5t-182 -63.5q-24 0 -44 4v100q21 -3 31 -3q68 0 106 37.5t38 113.5t-38 110.5t-100 34.5q-65 0 -109 -30v-357h-115v592h-203v108h522v-108h-204v-134q54 32 132 32z" />
    <glyph glyph-name="uni0403" unicode="&#x403;" horiz-adv-x="484" 
d="M205 731l-39 74l207 92l38 -73zM75 700h404v-108h-289v-592h-115v700z" />
    <glyph glyph-name="uni0404" unicode="&#x404;" horiz-adv-x="727" 
d="M383 86q76 0 127 38.5t61 100.5h125q-16 -108 -100.5 -175t-212.5 -67q-156 0 -252 100.5t-96 266.5t96 266.5t252 100.5q124 0 209.5 -65t103.5 -175h-126q-10 61 -61 99t-126 38q-91 0 -150.5 -56.5t-73.5 -155.5h314v-104h-314q14 -99 73.5 -155.5t150.5 -56.5z" />
    <glyph glyph-name="uni0405" unicode="&#x405;" horiz-adv-x="552" 
d="M285 -17q-122 0 -188.5 64t-66.5 182h115q0 -68 37 -107t102 -39q57 0 87.5 25.5t30.5 72.5q0 40 -22.5 64t-81.5 48l-114 46q-134 52 -134 186q0 85 62.5 138.5t161.5 53.5q104 0 167.5 -60t63.5 -159h-115q0 58 -31 89.5t-89 31.5q-49 0 -76.5 -23.5t-27.5 -63.5
q0 -36 27 -62t89 -51l103 -42q132 -54 132 -193q0 -90 -64 -145.5t-168 -55.5z" />
    <glyph glyph-name="uni0406" unicode="&#x406;" horiz-adv-x="265" 
d="M75 0v700h115v-700h-115z" />
    <glyph glyph-name="uni0407" unicode="&#x407;" horiz-adv-x="265" 
d="M54 743q-30 0 -50 19.5t-20 50.5t20 50.5t50 19.5t50 -19.5t20 -50.5t-20 -50.5t-50 -19.5zM212 743q-30 0 -50 19.5t-20 50.5t20 50.5t50 19.5t50 -19.5t20 -50.5t-20 -50.5t-50 -19.5zM75 0v700h115v-700h-115z" />
    <glyph glyph-name="uni0408" unicode="&#x408;" horiz-adv-x="536" 
d="M247 -17q-107 0 -167 67t-60 178h115q0 -65 28.5 -103.5t83.5 -38.5t84.5 38.5t29.5 102.5v473h115v-473q0 -111 -60.5 -177.5t-168.5 -66.5z" />
    <glyph glyph-name="uni0409" unicode="&#x409;" horiz-adv-x="982" 
d="M747 406q91 0 148 -59t57 -144t-57 -144t-148 -59h-265v599h-224v-326q0 -144 -51.5 -212.5t-144.5 -68.5h-42v108h24q49 0 74 39.5t25 136.5v424h454v-294h150zM747 102q40 0 65 29.5t25 71.5t-25 71.5t-65 29.5h-150v-202h150z" />
    <glyph glyph-name="uni040A" unicode="&#x40a;" horiz-adv-x="979" 
d="M744 406q91 0 148 -59t57 -144t-57 -144t-148 -59h-265v296h-289v-296h-115v700h115v-301h289v301h115v-294h150zM744 102q40 0 65 29.5t25 71.5t-25 71.5t-65 29.5h-150v-202h150z" />
    <glyph glyph-name="uni040B" unicode="&#x40b;" horiz-adv-x="741" 
d="M466 490q96 0 153 -62t57 -153v-275h-115v245q0 72 -33.5 107t-93.5 35q-25 0 -38.5 -1t-34.5 -8.5t-38 -21.5v-356h-115v592h-203v108h522v-108h-204v-134q56 32 143 32z" />
    <glyph glyph-name="uni040C" unicode="&#x40c;" horiz-adv-x="608" 
d="M425 824l-206 -93l-39 74l207 92zM299 357l299 -357h-144l-264 333v-333h-115v700h115v-293h20q37 0 60 39l104 159q35 54 63 77t70 23h59v-104h-33q-19 0 -34.5 -11t-36.5 -43l-102 -159q-21 -31 -53 -31h-8z" />
    <glyph glyph-name="uni040E" unicode="&#x40e;" horiz-adv-x="561" 
d="M292 732q-71 0 -119 41t-53 101h89q9 -65 83 -65t83 65h89q-5 -60 -53 -101t-119 -41zM455 700h126l-347 -700h-126l139 281l-262 419h133l188 -301z" />
    <glyph glyph-name="uni040F" unicode="&#x40f;" horiz-adv-x="654" 
d="M579 700v-700h-195v-120h-115v120h-194v700h115v-597h274v597h115z" />
    <glyph glyph-name="uni0410" unicode="&#x410;" horiz-adv-x="603" 
d="M463 0l-27 89h-269l-27 -89h-125l236 700h101l236 -700h-125zM197 192h208l-104 347z" />
    <glyph glyph-name="uni0411" unicode="&#x411;" horiz-adv-x="575" 
d="M75 0v700h409v-103h-294v-191h150q91 0 148 -59t57 -144t-57 -144t-148 -59h-265zM190 102h150q40 0 65 29.5t25 71.5t-25 71.5t-65 29.5h-150v-202z" />
    <glyph glyph-name="uni0412" unicode="&#x412;" horiz-adv-x="585" 
d="M401 360q61 -6 102.5 -49.5t41.5 -115.5q0 -91 -59.5 -143t-163.5 -52h-247v700h234q105 0 165 -48.5t60 -133.5q0 -132 -133 -158zM304 599h-114v-192h114q54 0 84.5 25.5t30.5 70.5q0 46 -30 71t-85 25zM320 101q52 0 81 28t29 78q0 44 -30 71.5t-79 27.5h-131v-205
h130z" />
    <glyph glyph-name="uni0413" unicode="&#x413;" horiz-adv-x="484" 
d="M75 700h404v-108h-289v-592h-115v700z" />
    <glyph glyph-name="uni0414" unicode="&#x414;" horiz-adv-x="654" 
d="M570 103h54v-223h-109v120h-380v-120h-115v223h39q34 0 51.5 38.5t17.5 134.5v424h442v-597zM208 103h246v494h-208v-319q0 -107 -38 -175z" />
    <glyph glyph-name="uni0415" unicode="&#x415;" horiz-adv-x="544" 
d="M75 0v700h404v-103h-289v-198h289v-103h-289v-193h289v-103h-404z" />
    <glyph glyph-name="uni0416" unicode="&#x416;" horiz-adv-x="951" 
d="M642 357l299 -357h-144l-264 333v-333h-115v333l-264 -333h-144l299 357h-8q-32 0 -53 31l-102 159q-21 32 -36.5 43t-34.5 11h-33v104h59q42 0 70 -23t63 -77l104 -159q23 -39 60 -39h20v293h115v-293h20q37 0 60 39l104 159q35 54 63 77t70 23h59v-104h-33
q-19 0 -34.5 -11t-36.5 -43l-102 -159q-21 -31 -53 -31h-8z" />
    <glyph glyph-name="uni0417" unicode="&#x417;" horiz-adv-x="572" 
d="M155 224q0 -65 37 -101.5t99 -36.5q57 0 89 33t32 81q0 52 -29 79.5t-97 27.5h-52v102h53q60 0 86.5 29t26.5 72q0 44 -31 74t-82 30q-55 0 -91 -32t-36 -89h-115q0 99 66.5 161.5t171.5 62.5q99 0 165.5 -51.5t66.5 -145.5q0 -59 -31.5 -101t-79.5 -55q53 -10 88 -53
t35 -110q0 -98 -64 -158t-170 -60q-112 0 -182.5 64t-70.5 177h115z" />
    <glyph glyph-name="uni0418" unicode="&#x418;" horiz-adv-x="668" 
d="M478 484l-288 -436v-48h-115v700h115v-484l288 436v48h115v-700h-115v484z" />
    <glyph glyph-name="uni0419" unicode="&#x419;" horiz-adv-x="668" 
d="M335 712q-77 0 -127.5 33t-54.5 89h89q11 -50 93 -50t93 50h89q-4 -56 -54.5 -89t-127.5 -33zM478 484l-288 -436v-48h-115v700h115v-484l288 436v48h115v-700h-115v484z" />
    <glyph glyph-name="uni041A" unicode="&#x41a;" horiz-adv-x="608" 
d="M299 357l299 -357h-144l-264 333v-333h-115v700h115v-293h20q37 0 60 39l104 159q35 54 63 77t70 23h59v-104h-33q-19 0 -34.5 -11t-36.5 -43l-102 -159q-21 -31 -53 -31h-8z" />
    <glyph glyph-name="uni041B" unicode="&#x41b;" horiz-adv-x="672" 
d="M20 100h24q49 0 74 39.5t25 136.5v424h454v-700h-115v599h-224v-326q0 -144 -51.5 -212.5t-144.5 -68.5h-42v108z" />
    <glyph glyph-name="uni041C" unicode="&#x41c;" horiz-adv-x="817" 
d="M75 0v700h110l224 -536l223 536h110v-700h-110v463l-180 -463h-87l-180 468v-468h-110z" />
    <glyph glyph-name="uni041D" unicode="&#x41d;" horiz-adv-x="669" 
d="M75 0v700h115v-301h289v301h115v-700h-115v296h-289v-296h-115z" />
    <glyph glyph-name="uni041E" unicode="&#x41e;" horiz-adv-x="794" 
d="M397 -17q-165 0 -263.5 106t-98.5 261t98.5 261t263.5 106t263.5 -106t98.5 -261t-98.5 -261t-263.5 -106zM397 86q113 0 177.5 75.5t63.5 188.5q1 113 -63.5 188.5t-177.5 75.5t-177.5 -75.5t-63.5 -188.5q-1 -113 63.5 -188.5t177.5 -75.5z" />
    <glyph glyph-name="uni041F" unicode="&#x41f;" horiz-adv-x="668" 
d="M190 597v-597h-115v700h518v-700h-115v597h-288z" />
    <glyph glyph-name="uni0420" unicode="&#x420;" horiz-adv-x="583" 
d="M333 700q105 0 172.5 -69t67.5 -176t-67.5 -176t-172.5 -69h-143v-210h-115v700h258zM326 313q57 0 94.5 40.5t37.5 101.5t-37.5 101.5t-94.5 40.5h-136v-284h136z" />
    <glyph glyph-name="uni0421" unicode="&#x421;" horiz-adv-x="769" 
d="M399 -17q-168 0 -266 102t-98 265t98 265t266 102q141 0 232 -71.5t107 -185.5h-126q-17 72 -71.5 113t-140.5 41q-115 0 -179.5 -71.5t-64.5 -192.5t64.5 -192.5t179.5 -71.5q86 0 140.5 41t71.5 113h126q-16 -114 -107 -185.5t-232 -71.5z" />
    <glyph glyph-name="uni0422" unicode="&#x422;" horiz-adv-x="532" 
d="M208 0v592h-203v108h522v-108h-204v-592h-115z" />
    <glyph glyph-name="uni0423" unicode="&#x423;" horiz-adv-x="561" 
d="M455 700h126l-347 -700h-126l139 281l-262 419h133l188 -301z" />
    <glyph glyph-name="uni0424" unicode="&#x424;" horiz-adv-x="705" 
d="M448 609q110 0 178.5 -75t68.5 -184t-68.5 -184t-178.5 -75h-38v-91h-115v91h-38q-110 0 -178.5 75t-68.5 184t68.5 184t178.5 75h38v91h115v-91h38zM125 350q0 -66 36.5 -111t95.5 -45h38v312h-38q-59 0 -95.5 -45t-36.5 -111zM448 194q59 0 95.5 45t36.5 111t-36.5 111
t-95.5 45h-38v-312h38z" />
    <glyph glyph-name="uni0425" unicode="&#x425;" horiz-adv-x="616" 
d="M15 0l228 350l-228 350h130l163 -256l163 256h130l-228 -350l228 -350h-130l-163 255l-163 -255h-130z" />
    <glyph glyph-name="uni0426" unicode="&#x426;" horiz-adv-x="663" 
d="M579 103h54v-223h-109v120h-449v700h115v-597h274v597h115v-597z" />
    <glyph glyph-name="uni0427" unicode="&#x427;" horiz-adv-x="583" 
d="M393 0v242q-56 -32 -143 -32q-96 0 -153 62t-57 153v275h115v-245q0 -72 33.5 -107t93.5 -35q25 0 38.5 1t34.5 8.5t38 21.5v356h115v-700h-115z" />
    <glyph glyph-name="uni0428" unicode="&#x428;" horiz-adv-x="909" 
d="M75 0v700h115v-597h207v597h115v-597h207v597h115v-700h-759z" />
    <glyph glyph-name="uni0429" unicode="&#x429;" horiz-adv-x="918" 
d="M834 103h54v-223h-109v120h-704v700h115v-597h207v597h115v-597h207v597h115v-597z" />
    <glyph glyph-name="uni042A" unicode="&#x42a;" horiz-adv-x="690" 
d="M455 406q91 0 148 -59t57 -144t-57 -144t-148 -59h-265v597h-185v103h300v-294h150zM455 102q40 0 65 29.5t25 71.5t-25 71.5t-65 29.5h-150v-202h150z" />
    <glyph glyph-name="uni042B" unicode="&#x42b;" horiz-adv-x="789" 
d="M75 0v700h115v-294h150q91 0 148 -59t57 -144t-57 -144t-148 -59h-265zM599 0v700h115v-700h-115zM190 102h150q40 0 65 29.5t25 71.5t-25 71.5t-65 29.5h-150v-202z" />
    <glyph glyph-name="uni042C" unicode="&#x42c;" horiz-adv-x="575" 
d="M75 0v700h115v-294h150q91 0 148 -59t57 -144t-57 -144t-148 -59h-265zM190 102h150q40 0 65 29.5t25 71.5t-25 71.5t-65 29.5h-150v-202z" />
    <glyph glyph-name="uni042D" unicode="&#x42d;" horiz-adv-x="727" 
d="M344 717q156 0 252 -100.5t96 -266.5t-96 -266.5t-252 -100.5q-128 0 -212.5 67t-100.5 175h125q10 -62 61 -100.5t127 -38.5q91 0 150.5 56.5t73.5 155.5h-314v104h314q-14 99 -73.5 155.5t-150.5 56.5q-75 0 -126 -38t-61 -99h-126q18 110 103.5 175t209.5 65z" />
    <glyph glyph-name="uni042E" unicode="&#x42e;" horiz-adv-x="1039" 
d="M642 717q165 0 263.5 -106t98.5 -261t-98.5 -261t-263.5 -106q-150 0 -246 88.5t-113 224.5h-93v-296h-115v700h115v-301h93q16 138 112 228t247 90zM642 86q113 0 177.5 75.5t63.5 188.5q1 113 -63.5 188.5t-177.5 75.5t-177.5 -75.5t-63.5 -188.5q-1 -113 63.5 -188.5
t177.5 -75.5z" />
    <glyph glyph-name="uni042F" unicode="&#x42f;" horiz-adv-x="608" 
d="M275 700h258v-700h-115v210h-113l-128 -210h-131l138 226q-68 26 -108.5 87t-40.5 142q0 107 67.5 176t172.5 69zM282 313h136v284h-136q-57 0 -94.5 -40.5t-37.5 -101.5t37.5 -101.5t94.5 -40.5z" />
    <glyph glyph-name="uni0430" unicode="&#x430;" horiz-adv-x="592" 
d="M264 -12q-109 0 -169 69t-60 176q0 106 63 175.5t169 69.5q47 0 86 -20t60 -55v63h109v-466h-109v63q-20 -34 -62.5 -54.5t-86.5 -20.5zM280 85q67 0 102.5 42t35.5 106t-35.5 106t-102.5 42q-63 0 -99.5 -41.5t-36.5 -106.5t36.5 -106.5t99.5 -41.5z" />
    <glyph glyph-name="uni0431" unicode="&#x431;" horiz-adv-x="577" 
d="M303 -13q-128 0 -193 91.5t-65 239.5q0 193 87 287.5t267 94.5h95v-105h-124q-108 0 -160.5 -55.5t-61.5 -172.5q18 53 67 82t103 29q105 0 164.5 -70.5t59.5 -174.5q0 -102 -67.5 -174t-171.5 -72zM297 84q63 0 99.5 42.5t36.5 105.5t-36.5 105.5t-99.5 42.5
q-66 0 -102 -41t-36 -107t36 -107t102 -41z" />
    <glyph glyph-name="uni0432" unicode="&#x432;" horiz-adv-x="487" 
d="M70 466h214q47 0 79.5 -12t47.5 -32.5t21 -39t6 -39.5q0 -41 -32 -70t-76 -32q48 -2 82.5 -31.5t34.5 -80.5q0 -20 -7.5 -40t-24.5 -41.5t-52.5 -34.5t-85.5 -13h-207v466zM275 275q24 0 39 16.5t15 40.5q0 25 -15 41.5t-39 16.5h-99v-115h99zM176 199v-123h103
q25 0 42 18t17 43t-17 43.5t-42 18.5h-103z" />
    <glyph glyph-name="uni0433" unicode="&#x433;" horiz-adv-x="376" 
d="M356 466v-101h-177v-365h-109v466h286z" />
    <glyph glyph-name="uni0434" unicode="&#x434;" horiz-adv-x="573" 
d="M484 103h54v-223h-109v120h-294v-120h-115v223h48q39 25 39 104v259h377v-363zM184 90h191v286h-159v-164q0 -71 -32 -122z" />
    <glyph glyph-name="uni0435" unicode="&#x435;" horiz-adv-x="527" 
d="M492 257q0 -18 -3 -60h-346q2 -55 36 -84.5t94 -29.5q77 0 104 53h110q-11 -65 -70.5 -106.5t-143.5 -41.5q-110 0 -174 66t-64 179q0 112 63.5 178.5t170.5 66.5q100 0 161.5 -61.5t61.5 -159.5zM143 280h242q-1 54 -31.5 83t-86.5 29q-57 0 -90 -31t-34 -81z" />
    <glyph glyph-name="uni0436" unicode="&#x436;" horiz-adv-x="793" 
d="M758 0h-134l-173 213v-213h-109v213l-173 -213h-134l205 246h-7q-22 0 -37 8.5t-35 37.5l-38 53q-20 28 -52 28h-16v98h37q37 0 58.5 -11.5t46.5 -45.5l82 -112q23 -31 53 -31h10v195h109v-195h10q30 0 53 31l82 112q25 34 46.5 45.5t58.5 11.5h37v-98h-16q-32 0 -52 -28
l-38 -53q-20 -29 -35 -37.5t-37 -8.5h-7z" />
    <glyph glyph-name="uni0437" unicode="&#x437;" horiz-adv-x="479" 
d="M148 144q0 -31 25.5 -49t73.5 -18q86 0 86 62q0 24 -19.5 39.5t-55.5 15.5h-69v80h63q31 0 50.5 15.5t19.5 43.5q0 25 -22.5 42t-58.5 17q-44 0 -65 -18.5t-21 -48.5h-108q0 69 53 111t140 42q85 0 136.5 -36t51.5 -93q0 -47 -27.5 -74.5t-75.5 -33.5q50 -6 82 -35.5
t32 -79.5q0 -65 -57.5 -101.5t-142.5 -36.5q-93 0 -146 42.5t-53 113.5h108z" />
    <glyph glyph-name="uni0438" unicode="&#x438;" horiz-adv-x="565" 
d="M386 300l-207 -261v-39h-109v466h109v-305l207 263v42h109v-466h-109v300z" />
    <glyph glyph-name="uni0439" unicode="&#x439;" horiz-adv-x="565" 
d="M278 495q-80 0 -128.5 39.5t-53.5 107.5h92q4 -68 90 -68t90 68h92q-5 -68 -53.5 -107.5t-128.5 -39.5zM386 300l-207 -261v-39h-109v466h109v-305l207 263v42h109v-466h-109v300z" />
    <glyph glyph-name="uni043A" unicode="&#x43a;" horiz-adv-x="521" 
d="M486 0h-134l-173 213v-213h-109v466h109v-195h10q30 0 53 31l82 112q25 34 46.5 45.5t58.5 11.5h37v-98h-16q-32 0 -52 -28l-38 -53q-20 -29 -35 -37.5t-37 -8.5h-7z" />
    <glyph glyph-name="uni043B" unicode="&#x43b;" horiz-adv-x="556" 
d="M30 98h18q73 0 73 101v267h365v-466h-109v365h-147v-161q0 -97 -42 -153t-118 -56h-40v103z" />
    <glyph glyph-name="uni043C" unicode="&#x43c;" horiz-adv-x="722" 
d="M70 0v466h163l128 -319l128 319h163v-466h-104v359l-150 -359h-74l-150 359v-359h-104z" />
    <glyph glyph-name="uni043D" unicode="&#x43d;" horiz-adv-x="571" 
d="M70 0v466h109v-184h213v184h109v-466h-109v191h-213v-191h-109z" />
    <glyph glyph-name="uni043E" unicode="&#x43e;" horiz-adv-x="562" 
d="M281 -12q-113 0 -179.5 69.5t-66.5 175.5t66.5 175.5t179.5 69.5t179.5 -69.5t66.5 -175.5t-66.5 -175.5t-179.5 -69.5zM281 85q64 0 100.5 41t36.5 107t-36.5 107t-100.5 41t-100.5 -41t-36.5 -107t36.5 -107t100.5 -41z" />
    <glyph glyph-name="uni043F" unicode="&#x43f;" horiz-adv-x="561" 
d="M491 0h-109v375h-203v-375h-109v466h421v-466z" />
    <glyph glyph-name="uni0440" unicode="&#x440;" horiz-adv-x="592" 
d="M335 478q100 0 161 -67.5t61 -177.5q0 -108 -64 -176.5t-165 -68.5q-46 0 -87 20.5t-62 54.5v-273h-109v676h109v-63q21 34 64 54.5t92 20.5zM312 85q60 0 98 41.5t38 106.5t-38 106.5t-98 41.5q-62 0 -100 -41t-38 -107t38 -107t100 -41z" />
    <glyph glyph-name="uni0441" unicode="&#x441;" horiz-adv-x="523" 
d="M267 -12q-107 0 -169.5 67.5t-62.5 177.5t62.5 177.5t169.5 67.5q96 0 154.5 -48.5t66.5 -129.5h-109q-18 81 -112 81q-58 0 -90.5 -38.5t-32.5 -109.5t32.5 -109.5t90.5 -38.5q93 0 112 76h109q-8 -79 -66.5 -126t-154.5 -47z" />
    <glyph glyph-name="uni0442" unicode="&#x442;" horiz-adv-x="437" 
d="M407 466v-101h-135v-365h-109v365h-133v101h377z" />
    <glyph glyph-name="uni0443" unicode="&#x443;" horiz-adv-x="566" 
d="M387 466h109v-468q0 -107 -61 -166q-59 -54 -158 -54q-103 0 -160 48q-50 44 -52 121h110q4 -40 26.5 -59.5t73.5 -19.5q52 0 82 33.5t30 104.5v59q-45 -77 -150 -77q-83 0 -127.5 53.5t-44.5 140.5v284h109v-261q0 -121 101 -121q55 0 83.5 39t28.5 102v241z" />
    <glyph glyph-name="uni0444" unicode="&#x444;" horiz-adv-x="638" 
d="M603 233q0 -96 -65 -168t-164 -76v-199h-110v199q-99 4 -164 76t-65 168q0 95 65 167.5t164 76.5v223h110v-223q99 -4 164 -76.5t65 -167.5zM144 233q0 -62 34 -107t93 -46v306q-59 -1 -93 -45.5t-34 -107.5zM367 80q59 1 93 46t34 107q0 63 -34 107.5t-93 45.5v-306z
" />
    <glyph glyph-name="uni0445" unicode="&#x445;" horiz-adv-x="490" 
d="M10 0l172 235l-169 231h135l97 -151l97 151h135l-169 -231l172 -235h-135l-100 156l-100 -156h-135z" />
    <glyph glyph-name="uni0446" unicode="&#x446;" horiz-adv-x="575" 
d="M486 103h54v-223h-109v120h-361v466h109v-375h198v375h109v-363z" />
    <glyph glyph-name="uni0447" unicode="&#x447;" horiz-adv-x="509" 
d="M330 0v162q-49 -28 -116 -28q-174 0 -174 157v175h109v-161q0 -80 90 -80q20 0 31 1t28.5 8t31.5 21v211h109v-466h-109z" />
    <glyph glyph-name="uni0448" unicode="&#x448;" horiz-adv-x="777" 
d="M443 91h155v375h109v-466h-637v466h109v-375h155v375h109v-375z" />
    <glyph glyph-name="uni0449" unicode="&#x449;" horiz-adv-x="796" 
d="M707 103h54v-223h-109v120h-582v466h109v-375h155v375h109v-375h155v375h109v-363z" />
    <glyph glyph-name="uni044A" unicode="&#x44a;" horiz-adv-x="541" 
d="M341 316q80 0 127.5 -45.5t47.5 -112.5q0 -65 -49.5 -111.5t-125.5 -46.5h-216v368h-105v98h214v-150h107zM328 86q36 0 55 19.5t19 52.5t-19 52.5t-55 19.5h-94v-144h94z" />
    <glyph glyph-name="uni044B" unicode="&#x44b;" horiz-adv-x="695" 
d="M70 466h109v-150h107q80 0 127.5 -45.5t47.5 -112.5q0 -65 -49.5 -111.5t-125.5 -46.5h-216v466zM516 0v466h109v-466h-109zM179 230v-144h94q36 0 55 19.5t19 52.5t-19 52.5t-55 19.5h-94z" />
    <glyph glyph-name="uni044C" unicode="&#x44c;" horiz-adv-x="486" 
d="M70 466h109v-150h107q80 0 127.5 -45.5t47.5 -112.5q0 -65 -49.5 -111.5t-125.5 -46.5h-216v466zM179 230v-144h94q36 0 55 19.5t19 52.5t-19 52.5t-55 19.5h-94z" />
    <glyph glyph-name="uni044D" unicode="&#x44d;" horiz-adv-x="534" 
d="M145 296h-109q2 78 63.5 130t159.5 52q117 0 178.5 -71t61.5 -174t-61.5 -174t-178.5 -71q-99 0 -160.5 49t-63.5 123h109q14 -75 120 -75q116 0 124 107h-181v81h181q-4 50 -34.5 79t-89.5 29q-105 0 -119 -85z" />
    <glyph glyph-name="uni044E" unicode="&#x44e;" horiz-adv-x="763" 
d="M482 478q113 0 179.5 -69.5t66.5 -175.5t-66.5 -175.5t-179.5 -69.5q-100 0 -164.5 55.5t-78.5 144.5h-60v-188h-109v466h109v-187h61q14 88 78.5 143.5t163.5 55.5zM482 85q64 0 100.5 41t36.5 107t-36.5 107t-100.5 41t-100.5 -41t-36.5 -107t36.5 -107t100.5 -41z" />
    <glyph glyph-name="uni044F" unicode="&#x44f;" horiz-adv-x="531" 
d="M48 0l101 155q-47 16 -75.5 58t-28.5 92q0 68 46 114.5t119 46.5h251v-466h-107v143h-94l-86 -143h-126zM234 233h120v145h-120q-35 0 -56.5 -21.5t-21.5 -51.5t21.5 -51t56.5 -21z" />
    <glyph glyph-name="uni0451" unicode="&#x451;" horiz-adv-x="527" 
d="M167 532q-31 0 -53.5 22t-22.5 54t22 54.5t54 22.5t54.5 -22.5t22.5 -54.5t-22.5 -54t-54.5 -22zM370 532q-32 0 -54 22t-22 54t22 54.5t54 22.5t54.5 -22.5t22.5 -54.5t-22.5 -54t-54.5 -22zM492 257q0 -18 -3 -60h-346q2 -55 36 -84.5t94 -29.5q77 0 104 53h110
q-11 -65 -70.5 -106.5t-143.5 -41.5q-110 0 -174 66t-64 179q0 112 63.5 178.5t170.5 66.5q100 0 161.5 -61.5t61.5 -159.5zM143 280h242q-1 54 -31.5 83t-86.5 29q-57 0 -90 -31t-34 -81z" />
    <glyph glyph-name="uni0452" unicode="&#x452;" horiz-adv-x="566" 
d="M331 478q170 0 170 -185v-390q0 -58 -33 -88.5t-95 -30.5q-45 0 -64 10v97q19 -4 41 -4q42 0 42 48v308q0 76 -23 109t-79 33q-53 0 -82 -33.5t-29 -95.5v-256h-109v541h-37v87h37v72h109v-72h182v-87h-182v-140q45 77 152 77z" />
    <glyph glyph-name="uni0453" unicode="&#x453;" horiz-adv-x="376" 
d="M120 502l-35 84l282 107l35 -81zM356 466v-101h-177v-365h-109v466h286z" />
    <glyph glyph-name="uni0454" unicode="&#x454;" horiz-adv-x="534" 
d="M389 296q-14 85 -119 85q-59 0 -89.5 -29t-34.5 -79h181v-81h-181q8 -107 124 -107q106 0 120 75h109q-2 -74 -63.5 -123t-160.5 -49q-117 0 -178.5 71t-61.5 174t61.5 174t178.5 71q98 0 159.5 -52t63.5 -130h-109z" />
    <glyph glyph-name="uni0455" unicode="&#x455;" horiz-adv-x="457" 
d="M233 -12q-88 0 -143 45t-55 110h109q0 -30 26.5 -49t68.5 -19q31 0 49 15t18 40q0 40 -35 49l-120 33q-101 28 -101 129q0 58 50 97.5t129 39.5q89 0 136.5 -40t47.5 -105h-107q0 29 -21.5 45.5t-59.5 16.5q-29 0 -48 -13.5t-19 -34.5q0 -38 40 -50l111 -32
q48 -14 78 -47.5t30 -77.5q0 -68 -48.5 -110t-135.5 -42z" />
    <glyph glyph-name="uni0456" unicode="&#x456;" horiz-adv-x="249" 
d="M125 533q-35 0 -58 23.5t-23 57.5t23 57.5t58 23.5t58 -23.5t23 -57.5t-23 -57.5t-58 -23.5zM70 0v466h109v-466h-109z" />
    <glyph glyph-name="uni0457" unicode="&#x457;" horiz-adv-x="249" 
d="M54 542q-26 0 -44.5 18.5t-18.5 44.5q0 27 18.5 45.5t44.5 18.5t45 -18.5t19 -45.5q0 -26 -19 -44.5t-45 -18.5zM195 542q-25 0 -44 19t-19 44q0 27 18.5 45.5t44.5 18.5q27 0 45.5 -18.5t18.5 -45.5q0 -26 -18.5 -44.5t-45.5 -18.5zM70 0v466h109v-466h-109z" />
    <glyph glyph-name="uni0458" unicode="&#x458;" horiz-adv-x="252" 
d="M128 533q-35 0 -58 23.5t-23 57.5t23 57.5t58 23.5t58 -23.5t23 -57.5t-23 -57.5t-58 -23.5zM54 -216q-45 0 -64 10v97q19 -4 41 -4q42 0 42 48v531h109v-563q0 -58 -33 -88.5t-95 -30.5z" />
    <glyph glyph-name="uni0459" unicode="&#x459;" horiz-adv-x="794" 
d="M594 316q80 0 127.5 -45.5t47.5 -112.5q0 -65 -49.5 -111.5t-125.5 -46.5h-217v365h-147v-161q0 -97 -42 -153t-118 -56h-40v103h18q73 0 73 101v267h366v-150h107zM581 86q36 0 55 19.5t19 52.5t-19 52.5t-55 19.5h-94v-144h94z" />
    <glyph glyph-name="uni045A" unicode="&#x45a;" horiz-adv-x="808" 
d="M608 316q80 0 127.5 -45.5t47.5 -112.5q0 -65 -49.5 -111.5t-125.5 -46.5h-216v191h-213v-191h-109v466h109v-184h213v184h109v-150h107zM595 86q36 0 55 19.5t19 52.5t-19 52.5t-55 19.5h-94v-144h94z" />
    <glyph glyph-name="uni045B" unicode="&#x45b;" horiz-adv-x="566" 
d="M331 478q170 0 170 -185v-293h-109v243q0 76 -23 109t-79 33q-53 0 -82 -33.5t-29 -95.5v-256h-109v541h-37v87h37v72h109v-72h182v-87h-182v-140q45 77 152 77z" />
    <glyph glyph-name="uni045C" unicode="&#x45c;" horiz-adv-x="521" 
d="M426 612l-282 -110l-35 84l282 107zM486 0h-134l-173 213v-213h-109v466h109v-195h10q30 0 53 31l82 112q25 34 46.5 45.5t58.5 11.5h37v-98h-16q-32 0 -52 -28l-38 -53q-20 -29 -35 -37.5t-37 -8.5h-7z" />
    <glyph glyph-name="uni045E" unicode="&#x45e;" horiz-adv-x="566" 
d="M274 505q-80 0 -128.5 39.5t-53.5 107.5h92q4 -68 90 -68t90 68h92q-5 -68 -53.5 -107.5t-128.5 -39.5zM387 466h109v-468q0 -107 -61 -166q-59 -54 -158 -54q-103 0 -160 48q-50 44 -52 121h110q4 -40 26.5 -59.5t73.5 -19.5q52 0 82 33.5t30 104.5v59q-45 -77 -150 -77
q-83 0 -127.5 53.5t-44.5 140.5v284h109v-261q0 -121 101 -121q55 0 83.5 39t28.5 102v241z" />
    <glyph glyph-name="uni045F" unicode="&#x45f;" horiz-adv-x="556" 
d="M486 466v-466h-150v-91h-109v91h-157v466h109v-375h198v375h109z" />
    <glyph glyph-name="uni0462" unicode="&#x462;" horiz-adv-x="708" 
d="M473 406q91 0 148 -59t57 -144t-57 -144t-148 -59h-265v592h-203v108h522v-108h-204v-186h150zM473 102q40 0 65 29.5t25 71.5t-25 71.5t-65 29.5h-150v-202h150z" />
    <glyph glyph-name="uni0463" unicode="&#x463;" horiz-adv-x="486" 
d="M286 316q80 0 127.5 -45.5t47.5 -112.5q0 -65 -49.5 -111.5t-125.5 -46.5h-216v421h-53v87h53v192h109v-192h96v-87h-96v-105h107zM273 86q36 0 55 19.5t19 52.5t-19 52.5t-55 19.5h-94v-144h94z" />
    <glyph glyph-name="uni0472" unicode="&#x472;" horiz-adv-x="794" 
d="M397 717q165 0 263.5 -106t98.5 -261t-98.5 -261t-263.5 -106t-263.5 106t-98.5 261t98.5 261t263.5 106zM397 614q-103 0 -166 -63.5t-73 -163.5h478q-10 100 -73 163.5t-166 63.5zM397 86q103 0 166.5 64t72.5 165h-478q9 -101 72.5 -165t166.5 -64z" />
    <glyph glyph-name="uni0473" unicode="&#x473;" horiz-adv-x="562" 
d="M281 478q113 0 179.5 -69.5t66.5 -175.5t-66.5 -175.5t-179.5 -69.5t-179.5 69.5t-66.5 175.5t66.5 175.5t179.5 69.5zM281 381q-55 0 -90 -30.5t-44 -81.5h268q-9 51 -44 81.5t-90 30.5zM281 85q55 0 90 30.5t44 81.5h-268q9 -51 44 -81.5t90 -30.5z" />
    <glyph glyph-name="uni0474" unicode="&#x474;" horiz-adv-x="590" 
d="M323 0h-81l-242 700h121l162 -519l128 412q19 61 47 86.5t82 25.5h45v-103h-18q-37 0 -54 -51z" />
    <glyph glyph-name="uni0475" unicode="&#x475;" horiz-adv-x="489" 
d="M281 0h-73l-208 466h117l128 -320l87 217q21 58 47.5 83t74.5 25h35v-103h-14q-19 0 -30 -10.5t-23 -43.5z" />
    <glyph glyph-name="uni048A" unicode="&#x48a;" horiz-adv-x="677" 
d="M335 712q-77 0 -127.5 33t-54.5 89h89q11 -50 93 -50t93 50h89q-4 -56 -54.5 -89t-127.5 -33zM593 103h54v-223h-109v120h-60v484l-288 -436v-48h-115v700h115v-484l288 436v48h115v-597z" />
    <glyph glyph-name="uni048B" unicode="&#x48b;" horiz-adv-x="584" 
d="M278 495q-80 0 -128.5 39.5t-53.5 107.5h92q4 -68 90 -68t90 68h92q-5 -68 -53.5 -107.5t-128.5 -39.5zM495 103h54v-223h-109v120h-54v300l-207 -261v-39h-109v466h109v-305l207 263v42h109v-363z" />
    <glyph glyph-name="uni048C" unicode="&#x48c;" horiz-adv-x="575" 
d="M340 406q91 0 148 -59t57 -144t-57 -144t-148 -59h-265v529h-40v87h40v84h115v-84h173v-87h-173v-123h150zM340 102q40 0 65 29.5t25 71.5t-25 71.5t-65 29.5h-150v-202h150z" />
    <glyph glyph-name="uni048D" unicode="&#x48d;" horiz-adv-x="486" 
d="M286 316q80 0 127.5 -45.5t47.5 -112.5q0 -65 -49.5 -111.5t-125.5 -46.5h-216v421h-53v87h53v192h109v-192h96v-87h-96v-105h107zM273 86q36 0 55 19.5t19 52.5t-19 52.5t-55 19.5h-94v-144h94z" />
    <glyph glyph-name="uni048E" unicode="&#x48e;" horiz-adv-x="583" 
d="M573 455q0 -135 -102 -205l51 -50l-51 -51l-70 70q-31 -9 -68 -9h-143v-210h-115v700h258q105 0 172.5 -69t67.5 -176zM190 313h116l-48 48l51 51l82 -82q67 38 67 125q0 61 -37.5 101.5t-94.5 40.5h-136v-284z" />
    <glyph glyph-name="uni048F" unicode="&#x48f;" horiz-adv-x="592" 
d="M557 233q0 -99 -56 -168l44 -44l-51 -51l-49 48q-52 -30 -117 -30q-46 0 -87 20.5t-62 54.5v-273h-109v676h109v-63q21 34 64 54.5t92 20.5q100 0 161 -67.5t61 -177.5zM312 85q30 0 55 11l-86 86l51 51l91 -90q25 37 25 90q0 65 -38 106.5t-98 41.5q-62 0 -100 -41
t-38 -107t38 -107t100 -41z" />
    <glyph glyph-name="uni0490" unicode="&#x490;" horiz-adv-x="484" 
d="M364 791h115v-199h-289v-592h-115v700h289v91z" />
    <glyph glyph-name="uni0491" unicode="&#x491;" horiz-adv-x="376" 
d="M241 557h115v-192h-177v-365h-109v466h171v91z" />
    <glyph glyph-name="uni0492" unicode="&#x492;" horiz-adv-x="484" 
d="M479 592h-289v-174h153v-87h-153v-331h-115v331h-60v87h60v282h404v-108z" />
    <glyph glyph-name="uni0493" unicode="&#x493;" horiz-adv-x="376" 
d="M356 365h-177v-77h109v-87h-109v-201h-109v201h-40v87h40v178h286v-101z" />
    <glyph glyph-name="uni0494" unicode="&#x494;" horiz-adv-x="608" 
d="M333 430q96 0 153 -62t57 -153v-291q0 -68 -40.5 -104t-115.5 -36q-44 0 -67 10v102q20 -4 49 -4q32 0 45.5 15t13.5 54v224q0 72 -33.5 107t-93.5 35q-25 0 -38.5 -1t-34.5 -8.5t-38 -21.5v-296h-115v700h404v-108h-289v-194q56 32 143 32z" />
    <glyph glyph-name="uni0495" unicode="&#x495;" horiz-adv-x="525" 
d="M311 279q84 0 139 -58t55 -158q0 -111 -59 -168t-171 -57q-24 0 -44 4v98q21 -3 31 -3q134 0 134 124q0 59 -30.5 90t-77.5 31q-57 0 -109 -24v-158h-109v466h286v-101h-177v-107q61 21 132 21z" />
    <glyph glyph-name="uni0496" unicode="&#x496;" horiz-adv-x="970" 
d="M855 103h105v-223h-109v120h-54l-264 333v-333h-115v333l-264 -333h-144l299 357h-8q-32 0 -53 31l-102 159q-21 32 -36.5 43t-34.5 11h-33v104h59q42 0 70 -23t63 -77l104 -159q23 -39 60 -39h20v293h115v-293h20q37 0 60 39l104 159q35 54 63 77t70 23h59v-104h-33
q-19 0 -34.5 -11t-36.5 -43l-102 -159q-21 -31 -53 -31h-8z" />
    <glyph glyph-name="uni0497" unicode="&#x497;" horiz-adv-x="793" 
d="M758 0h-26v-120h-109v121l-172 212v-213h-109v213l-173 -213h-134l205 246h-7q-22 0 -37 8.5t-35 37.5l-38 53q-20 28 -52 28h-16v98h37q37 0 58.5 -11.5t46.5 -45.5l82 -112q23 -31 53 -31h10v195h109v-195h10q30 0 53 31l82 112q25 34 46.5 45.5t58.5 11.5h37v-98h-16
q-32 0 -52 -28l-38 -53q-20 -29 -35 -37.5t-37 -8.5h-7l119 -143h60v-72z" />
    <glyph glyph-name="uni0498" unicode="&#x498;" horiz-adv-x="572" 
d="M527 201q0 -91 -56 -150t-150 -67v-43q13 11 41 11q32 0 54 -20.5t22 -58.5q0 -39 -24 -64t-69 -25q-38 0 -62 19t-28 55h55q1 -13 11 -20.5t23 -7.5q36 0 36 42q0 40 -35 40q-21 0 -32 -16h-49v88q-101 8 -162.5 71.5t-61.5 168.5h115q0 -65 37 -101.5t99 -36.5
q57 0 89 33t32 81q0 52 -29 79.5t-97 27.5h-52v102h53q60 0 86.5 29t26.5 72q0 44 -31 74t-82 30q-55 0 -91 -32t-36 -89h-115q0 99 66.5 161.5t171.5 62.5q99 0 165.5 -51.5t66.5 -145.5q0 -59 -31.5 -101t-79.5 -55q53 -10 88 -53t35 -110z" />
    <glyph glyph-name="uni0499" unicode="&#x499;" horiz-adv-x="479" 
d="M439 126q0 -60 -50.5 -96t-126.5 -41v-48q13 11 41 11q32 0 54 -20.5t22 -58.5q0 -39 -24 -64t-69 -25q-38 0 -62 19t-28 55h55q1 -13 11 -20.5t23 -7.5q36 0 36 42q0 40 -35 40q-21 0 -32 -16h-49v94q-78 7 -121.5 48.5t-43.5 105.5h108q0 -31 25.5 -49t73.5 -18
q86 0 86 62q0 24 -19.5 39.5t-55.5 15.5h-69v80h63q31 0 50.5 15.5t19.5 43.5q0 25 -22.5 42t-58.5 17q-44 0 -65 -18.5t-21 -48.5h-108q0 69 53 111t140 42q85 0 136.5 -36t51.5 -93q0 -47 -27.5 -74.5t-75.5 -33.5q50 -6 82 -35.5t32 -79.5z" />
    <glyph glyph-name="uni049A" unicode="&#x49a;" horiz-adv-x="621" 
d="M512 103h99v-223h-109v120h-48l-264 333v-333h-115v700h115v-293h20q37 0 60 39l104 159q35 54 63 77t70 23h59v-104h-33q-19 0 -34.5 -11t-36.5 -43l-102 -159q-21 -31 -53 -31h-8z" />
    <glyph glyph-name="uni049B" unicode="&#x49b;" horiz-adv-x="534" 
d="M400 103h99v-223h-109v120h-38l-173 213v-213h-109v466h109v-195h10q30 0 53 31l82 112q25 34 46.5 45.5t58.5 11.5h37v-98h-16q-32 0 -52 -28l-38 -53q-20 -29 -35 -37.5t-37 -8.5h-7z" />
    <glyph glyph-name="uni049C" unicode="&#x49c;" horiz-adv-x="668" 
d="M658 0h-144l-249 314v-128h-40v146h-35v-332h-115v700h115v-293h35v146h40v-146h5q35 0 60 39l104 159q36 55 63.5 77.5t69.5 22.5h59v-104h-33q-19 0 -34.5 -11t-36.5 -43l-102 -159q-21 -31 -53 -31h-8z" />
    <glyph glyph-name="uni049D" unicode="&#x49d;" horiz-adv-x="546" 
d="M511 0h-134l-150 192v-83h-25v105h-23v-214h-109v466h109v-195h23v105h25v-104q21 5 40 30l82 112q25 34 46.5 45.5t58.5 11.5h37v-98h-16q-32 0 -52 -28l-38 -53q-20 -29 -35 -37.5t-37 -8.5h-7z" />
    <glyph glyph-name="uni049E" unicode="&#x49e;" horiz-adv-x="650" 
d="M341 357l299 -357h-144l-264 333v-333h-115v529h-42v87h42v84h115v-84h91v-87h-91v-122h20q37 0 60 39l104 159q35 54 63 77t70 23h59v-104h-33q-19 0 -34.5 -11t-36.5 -43l-102 -159q-21 -31 -53 -31h-8z" />
    <glyph glyph-name="uni049F" unicode="&#x49f;" horiz-adv-x="521" 
d="M486 0h-134l-173 213v-213h-109v354h-37v62h37v50h109v-50h69v-62h-69v-83h10q30 0 53 31l82 112q25 34 46.5 45.5t58.5 11.5h37v-98h-16q-32 0 -52 -28l-38 -53q-20 -29 -35 -37.5t-37 -8.5h-7z" />
    <glyph glyph-name="uni04A0" unicode="&#x4a0;" horiz-adv-x="723" 
d="M414 357l299 -357h-144l-264 333v-333h-115v597h-185v103h300v-293h20q37 0 60 39l104 159q35 54 63 77t70 23h59v-104h-33q-19 0 -34.5 -11t-36.5 -43l-102 -159q-21 -31 -53 -31h-8z" />
    <glyph glyph-name="uni04A1" unicode="&#x4a1;" horiz-adv-x="576" 
d="M541 0h-134l-173 213v-213h-109v368h-105v98h214v-195h10q30 0 53 31l82 112q25 34 46.5 45.5t58.5 11.5h37v-98h-16q-32 0 -52 -28l-38 -53q-20 -29 -35 -37.5t-37 -8.5h-7z" />
    <glyph glyph-name="uni04A2" unicode="&#x4a2;" horiz-adv-x="678" 
d="M594 103h54v-223h-109v120h-60v296h-289v-296h-115v700h115v-301h289v301h115v-597z" />
    <glyph glyph-name="uni04A3" unicode="&#x4a3;" horiz-adv-x="590" 
d="M501 103h54v-223h-109v120h-54v191h-213v-191h-109v466h109v-184h213v184h109v-363z" />
    <glyph glyph-name="uni04A4" unicode="&#x4a4;" horiz-adv-x="888" 
d="M883 700v-108h-289v-592h-115v296h-289v-296h-115v700h115v-301h289v301h404z" />
    <glyph glyph-name="uni04A5" unicode="&#x4a5;" horiz-adv-x="698" 
d="M678 466v-101h-177v-365h-109v191h-213v-191h-109v466h109v-184h213v184h286z" />
    <glyph glyph-name="uni04A6" unicode="&#x4a6;" horiz-adv-x="1011" 
d="M736 480q96 0 153 -62t57 -153v-341q0 -68 -40.5 -104t-115.5 -36q-44 0 -67 10v102q20 -4 49 -4q32 0 45.5 15t13.5 54v274q0 72 -33.5 107t-93.5 35q-25 0 -38.5 -1t-34.5 -8.5t-38 -21.5v-346h-115v597h-288v-597h-115v700h518v-252q56 32 143 32z" />
    <glyph glyph-name="uni04A7" unicode="&#x4a7;" horiz-adv-x="837" 
d="M623 279q84 0 139 -58t55 -158q0 -111 -59 -168t-171 -57q-24 0 -44 4v98q21 -3 31 -3q134 0 134 124q0 59 -30.5 90t-77.5 31q-57 0 -109 -24v-158h-109v375h-203v-375h-109v466h421v-208q61 21 132 21z" />
    <glyph glyph-name="uni04A8" unicode="&#x4a8;" horiz-adv-x="784" 
d="M640 77q54 -3 104 20v-96q-52 -18 -107 -18q-74 0 -125 22q-50 -22 -133 -22q-160 0 -252 98t-92 257q0 176 111.5 277.5t314.5 101.5q81 0 147 -23v-106q-66 23 -147 23q-138 0 -221 -73t-83 -196q0 -113 61.5 -187.5t174.5 -74.5q-88 76 -88 213q0 113 63 175t160 62
q96 0 155 -57.5t59 -157.5q0 -65 -26.5 -130t-75.5 -108zM421 289q0 -124 99 -181q55 28 84.5 79.5t29.5 115.5q0 59 -28 90t-78 31t-78.5 -34.5t-28.5 -100.5z" />
    <glyph glyph-name="uni04A9" unicode="&#x4a9;" horiz-adv-x="587" 
d="M484 61q45 3 88 20v-76q-51 -20 -103 -20q-53 0 -90 21q-38 -21 -101 -21q-111 0 -177 62.5t-66 175.5q0 122 75.5 188t199.5 66q54 0 93 -10v-92q-40 9 -93 9q-74 0 -120 -39t-46 -122q0 -67 30.5 -107t91.5 -44q-37 49 -37 115q0 72 44.5 115.5t116.5 43.5t114.5 -40.5
t42.5 -118.5q0 -72 -63 -126zM389 261q-29 0 -45 -20t-16 -52q0 -71 45 -104q77 27 77 98q0 78 -61 78z" />
    <glyph glyph-name="uni04AA" unicode="&#x4aa;" horiz-adv-x="769" 
d="M400 86q86 0 140.5 41t71.5 113h126q-15 -107 -98 -178t-212 -78v-43q13 11 41 11q32 0 54 -20.5t22 -58.5q0 -39 -24 -64t-69 -25q-38 0 -62 19t-28 55h55q1 -13 11 -20.5t23 -7.5q36 0 36 42q0 40 -35 40q-21 0 -32 -16h-49v88q-156 9 -246 109.5t-90 256.5
q0 163 98 265t266 102q141 0 232 -71.5t107 -185.5h-126q-17 72 -71.5 113t-140.5 41q-115 0 -179.5 -71.5t-64.5 -192.5t64.5 -192.5t179.5 -71.5z" />
    <glyph glyph-name="uni04AB" unicode="&#x4ab;" horiz-adv-x="523" 
d="M267 85q93 0 112 76h109q-7 -73 -58.5 -119t-136.5 -53v-48q13 11 41 11q32 0 54 -20.5t22 -58.5q0 -39 -24 -64t-69 -25q-38 0 -62 19t-28 55h55q1 -13 11 -20.5t23 -7.5q36 0 36 42q0 40 -35 40q-21 0 -32 -16h-49v94q-94 10 -147.5 76t-53.5 167q0 110 62.5 177.5
t169.5 67.5q96 0 154.5 -48.5t66.5 -129.5h-109q-18 81 -112 81q-58 0 -90.5 -38.5t-32.5 -109.5t32.5 -109.5t90.5 -38.5z" />
    <glyph glyph-name="uni04AC" unicode="&#x4ac;" horiz-adv-x="532" 
d="M527 592h-204v-489h54v-223h-109v120h-60v592h-203v108h522v-108z" />
    <glyph glyph-name="uni04AD" unicode="&#x4ad;" horiz-adv-x="437" 
d="M407 365h-135v-262h54v-223h-109v120h-54v365h-133v101h377v-101z" />
    <glyph glyph-name="uni04AE" unicode="&#x4ae;" horiz-adv-x="620" 
d="M252 0v289l-257 411h133l182 -302l182 302h133l-257 -411v-289h-116z" />
    <glyph glyph-name="uni04AF" unicode="&#x4af;" horiz-adv-x="492" 
d="M492 466l-192 -443v-233h-109v235l-191 441h117l129 -320l129 320h117z" />
    <glyph glyph-name="uni04B0" unicode="&#x4b0;" horiz-adv-x="620" 
d="M368 289v-48h111v-87h-111v-154h-116v154h-110v87h110v48l-257 411h133l182 -302l182 302h133z" />
    <glyph glyph-name="uni04B1" unicode="&#x4b1;" horiz-adv-x="492" 
d="M300 23v-22h115v-87h-115v-124h-109v124h-113v87h113v24l-191 441h117l129 -320l129 320h117z" />
    <glyph glyph-name="uni04B2" unicode="&#x4b2;" horiz-adv-x="644" 
d="M534 103h80v-223h-109v120h-34l-163 255l-163 -255h-130l228 350l-228 350h130l163 -256l163 256h130l-228 -350z" />
    <glyph glyph-name="uni04B3" unicode="&#x4b3;" horiz-adv-x="559" 
d="M430 103h94v-223h-109v120h-45l-100 156l-100 -156h-135l172 235l-169 231h135l97 -151l97 151h135l-169 -231z" />
    <glyph glyph-name="uni04B4" unicode="&#x4b4;" horiz-adv-x="765" 
d="M681 103h54v-223h-109v120h-449v592h-172v108h462v-108h-174v-489h273v597h115v-597z" />
    <glyph glyph-name="uni04B5" unicode="&#x4b5;" horiz-adv-x="648" 
d="M559 103h54v-223h-109v120h-361v365h-113v101h337v-101h-115v-274h198v375h109v-363z" />
    <glyph glyph-name="uni04B6" unicode="&#x4b6;" horiz-adv-x="587" 
d="M508 103h49v-223h-109v120h-55v242q-56 -32 -143 -32q-96 0 -153 62t-57 153v275h115v-245q0 -72 33.5 -107t93.5 -35q25 0 38.5 1t34.5 8.5t38 21.5v356h115v-597z" />
    <glyph glyph-name="uni04B7" unicode="&#x4b7;" horiz-adv-x="528" 
d="M439 103h54v-223h-109v120h-54v162q-49 -28 -116 -28q-174 0 -174 157v175h109v-161q0 -80 90 -80q20 0 31 1t28.5 8t31.5 21v211h109v-363z" />
    <glyph glyph-name="uni04B8" unicode="&#x4b8;" horiz-adv-x="583" 
d="M393 700h115v-700h-115v242q-33 -19 -75 -27v-91h-72v86q-95 1 -150.5 63t-55.5 152v275h115v-245q0 -119 91 -138v106h72v-109q43 3 75 30v356z" />
    <glyph glyph-name="uni04B9" unicode="&#x4b9;" horiz-adv-x="509" 
d="M330 466h109v-466h-109v162q-24 -13 -57 -22v-101h-46v95h-13q-174 0 -174 157v175h109v-161q0 -74 78 -80v113h46v-111q32 3 57 28v211z" />
    <glyph glyph-name="uni04BA" unicode="&#x4ba;" horiz-adv-x="583" 
d="M190 700v-242q56 32 143 32q96 0 153 -62t57 -153v-275h-115v245q0 72 -33.5 107t-93.5 35q-25 0 -38.5 -1t-34.5 -8.5t-38 -21.5v-356h-115v700h115z" />
    <glyph glyph-name="uni04BB" unicode="&#x4bb;" horiz-adv-x="566" 
d="M331 478q170 0 170 -185v-293h-109v243q0 76 -23 109t-79 33q-53 0 -82 -33.5t-29 -95.5v-256h-109v700h109v-299q45 77 152 77z" />
    <glyph glyph-name="uni04BC" unicode="&#x4bc;" horiz-adv-x="923" 
d="M888 369v-71h-576q9 -95 64.5 -152.5t164.5 -57.5q91 0 138 32t69 89h135q-17 -94 -109 -160.5t-233 -66.5q-151 0 -243.5 88t-106.5 228h-23q-59 0 -96 38t-37 97v50h102v-48q0 -21 12 -34t32 -13h9q12 145 106.5 234.5t252.5 89.5q145 0 242 -96t97 -247zM312 388h455
q0 102 -61.5 162t-161.5 60q-102 0 -167 -58t-65 -164z" />
    <glyph glyph-name="uni04BD" unicode="&#x4bd;" horiz-adv-x="631" 
d="M596 257q0 -18 -3 -60h-346q2 -55 36 -84.5t94 -29.5q77 0 104 53h110q-11 -65 -70.5 -106.5t-143.5 -41.5q-101 0 -163.5 55.5t-72.5 153.5h-2q-60 0 -97 34.5t-37 90.5v49h93v-48q0 -21 12 -32.5t32 -11.5q13 92 74.5 145.5t156.5 53.5q100 0 161.5 -61.5t61.5 -159.5z
M247 280h242q-1 54 -31.5 83t-86.5 29q-57 0 -90 -31t-34 -81z" />
    <glyph glyph-name="uni04BE" unicode="&#x4be;" horiz-adv-x="923" 
d="M410 738q-32 0 -54 22t-22 54t22 54.5t54 22.5t54.5 -22.5t22.5 -54.5t-22.5 -54t-54.5 -22zM649 738q-31 0 -53.5 22t-22.5 54t22 54.5t54 22.5t54.5 -22.5t22.5 -54.5t-22.5 -54t-54.5 -22zM888 369v-71h-576q9 -95 64.5 -152.5t164.5 -57.5q91 0 138 32t69 89h135
q-17 -94 -109 -160.5t-233 -66.5q-151 0 -243.5 88t-106.5 228h-23q-59 0 -96 38t-37 97v50h102v-48q0 -21 12 -34t32 -13h9q12 145 106.5 234.5t252.5 89.5q145 0 242 -96t97 -247zM312 388h455q0 102 -61.5 162t-161.5 60q-102 0 -167 -58t-65 -164z" />
    <glyph glyph-name="uni04BF" unicode="&#x4bf;" horiz-adv-x="631" 
d="M596 257q0 -18 -3 -60h-346q2 -55 36 -84.5t94 -29.5q77 0 104 53h110q-9 -55 -54.5 -94t-112.5 -50q-55 -20 -55 -69q0 -23 16 -38.5t40 -15.5q26 0 51 12v-78q-39 -15 -81 -15q-56 0 -90.5 29.5t-34.5 72.5q0 58 64 101q-83 11 -133.5 65t-59.5 141h-2q-60 0 -97 34.5
t-37 90.5v49h93v-48q0 -21 12 -32.5t32 -11.5q13 92 74.5 145.5t156.5 53.5q100 0 161.5 -61.5t61.5 -159.5zM247 280h242q-1 54 -31.5 83t-86.5 29q-57 0 -90 -31t-34 -81z" />
    <glyph glyph-name="uni04C0" unicode="&#x4c0;" horiz-adv-x="265" 
d="M75 0v700h115v-700h-115z" />
    <glyph glyph-name="uni04C1" unicode="&#x4c1;" horiz-adv-x="951" 
d="M475 732q-77 0 -127.5 33t-54.5 89h89q11 -50 93 -50t93 50h89q-4 -56 -54.5 -89t-127.5 -33zM642 357l299 -357h-144l-264 333v-333h-115v333l-264 -333h-144l299 357h-8q-32 0 -53 31l-102 159q-21 32 -36.5 43t-34.5 11h-33v104h59q42 0 70 -23t63 -77l104 -159
q23 -39 60 -39h20v293h115v-293h20q37 0 60 39l104 159q35 54 63 77t70 23h59v-104h-33q-19 0 -34.5 -11t-36.5 -43l-102 -159q-21 -31 -53 -31h-8z" />
    <glyph glyph-name="uni04C2" unicode="&#x4c2;" horiz-adv-x="793" 
d="M397 505q-80 0 -128.5 39.5t-53.5 107.5h92q4 -68 90 -68t90 68h92q-5 -68 -53.5 -107.5t-128.5 -39.5zM758 0h-134l-173 213v-213h-109v213l-173 -213h-134l205 246h-7q-22 0 -37 8.5t-35 37.5l-38 53q-20 28 -52 28h-16v98h37q37 0 58.5 -11.5t46.5 -45.5l82 -112
q23 -31 53 -31h10v195h109v-195h10q30 0 53 31l82 112q25 34 46.5 45.5t58.5 11.5h37v-98h-16q-32 0 -52 -28l-38 -53q-20 -29 -35 -37.5t-37 -8.5h-7z" />
    <glyph glyph-name="uni04C3" unicode="&#x4c3;" horiz-adv-x="627" 
d="M388 432q87 -5 145.5 -66t58.5 -159q0 -110 -60 -166.5t-174 -56.5q-29 0 -52 4v95q20 -2 39 -2q138 0 138 124q0 65 -37.5 97.5t-94.5 32.5h-64h-1l-96 -1v-334h-115v700h115v-293h20q36 0 60 39l104 159q36 55 63.5 77.5t69.5 22.5h59v-104h-33q-19 0 -34.5 -11
t-36.5 -43z" />
    <glyph glyph-name="uni04C4" unicode="&#x4c4;" horiz-adv-x="507" 
d="M339 266q65 -14 106.5 -64t41.5 -124q0 -109 -59.5 -166t-171.5 -57q-24 0 -44 4v98q18 -3 41 -3q58 0 91.5 30.5t33.5 91.5q0 113 -118 113h-81v-189h-109v466h109v-195h10q30 0 53 31l82 112q25 34 46.5 45.5t58.5 11.5h37v-98h-16q-32 0 -52 -28l-38 -53
q-7 -10 -21 -26z" />
    <glyph glyph-name="uni04C5" unicode="&#x4c5;" horiz-adv-x="672" 
d="M597 103h62l-85 -223h-107l45 120h-30v599h-224v-326q0 -144 -51.5 -212.5t-144.5 -68.5h-42v108h24q49 0 74 39.5t25 136.5v424h454v-597z" />
    <glyph glyph-name="uni04C6" unicode="&#x4c6;" horiz-adv-x="556" 
d="M486 103h62l-85 -223h-107l45 120h-24v365h-147v-161q0 -97 -42 -153t-118 -56h-40v103h18q73 0 73 101v267h365v-363z" />
    <glyph glyph-name="uni04C7" unicode="&#x4c7;" horiz-adv-x="669" 
d="M479 700h115v-776q0 -68 -40.5 -104t-115.5 -36q-44 0 -67 10v102q20 -4 49 -4q32 0 45.5 15t13.5 54v335h-289v-296h-115v700h115v-301h289v301z" />
    <glyph glyph-name="uni04C8" unicode="&#x4c8;" horiz-adv-x="571" 
d="M392 466h109v-563q0 -58 -33 -88.5t-95 -30.5q-45 0 -64 10v97q19 -4 41 -4q42 0 42 48v256h-213v-191h-109v466h109v-184h213v184z" />
    <glyph glyph-name="uni04C9" unicode="&#x4c9;" horiz-adv-x="669" 
d="M594 103h62l-85 -223h-107l45 120h-30v296h-289v-296h-115v700h115v-301h289v301h115v-597z" />
    <glyph glyph-name="uni04CA" unicode="&#x4ca;" horiz-adv-x="571" 
d="M501 103h62l-85 -223h-107l45 120h-24v191h-213v-191h-109v466h109v-184h213v184h109v-363z" />
    <glyph glyph-name="uni04CB" unicode="&#x4cb;" horiz-adv-x="583" 
d="M508 700v-700h-58v-120h-115v223h58v139q-56 -32 -143 -32q-96 0 -153 62t-57 153v275h115v-245q0 -72 33.5 -107t93.5 -35q25 0 38.5 1t34.5 8.5t38 21.5v356h115z" />
    <glyph glyph-name="uni04CC" unicode="&#x4cc;" horiz-adv-x="509" 
d="M439 466v-466h-52v-120h-115v223h58v59q-49 -28 -116 -28q-174 0 -174 157v175h109v-161q0 -80 90 -80q20 0 31 1t28.5 8t31.5 21v211h109z" />
    <glyph glyph-name="uni04CD" unicode="&#x4cd;" horiz-adv-x="817" 
d="M742 103h62l-85 -223h-107l45 120h-25v463l-180 -463h-87l-180 468v-468h-110v700h110l224 -536l223 536h110v-597z" />
    <glyph glyph-name="uni04CE" unicode="&#x4ce;" horiz-adv-x="722" 
d="M652 103h62l-85 -223h-107l45 120h-19v359l-150 -359h-74l-150 359v-359h-104v466h163l128 -319l128 319h163v-363z" />
    <glyph glyph-name="uni04CF" unicode="&#x4cf;" horiz-adv-x="249" 
d="M70 0v466h109v-466h-109z" />
    <glyph glyph-name="uni04D0" unicode="&#x4d0;" horiz-adv-x="603" 
d="M302 732q-77 0 -127.5 33t-54.5 89h89q11 -50 93 -50t93 50h89q-4 -56 -54.5 -89t-127.5 -33zM463 0l-27 89h-269l-27 -89h-125l236 700h101l236 -700h-125zM197 192h208l-104 347z" />
    <glyph glyph-name="uni04D1" unicode="&#x4d1;" horiz-adv-x="592" 
d="M282 505q-80 0 -128.5 39.5t-53.5 107.5h92q4 -68 90 -68t90 68h92q-5 -68 -53.5 -107.5t-128.5 -39.5zM264 -12q-109 0 -169 69t-60 176q0 106 63 175.5t169 69.5q47 0 86 -20t60 -55v63h109v-466h-109v63q-20 -34 -62.5 -54.5t-86.5 -20.5zM280 85q67 0 102.5 42
t35.5 106t-35.5 106t-102.5 42q-63 0 -99.5 -41.5t-36.5 -106.5t36.5 -106.5t99.5 -41.5z" />
    <glyph glyph-name="uni04D2" unicode="&#x4d2;" horiz-adv-x="603" 
d="M182 738q-32 0 -54 22t-22 54t22 54.5t54 22.5t54.5 -22.5t22.5 -54.5t-22.5 -54t-54.5 -22zM421 738q-31 0 -53.5 22t-22.5 54t22 54.5t54 22.5t54.5 -22.5t22.5 -54.5t-22.5 -54t-54.5 -22zM463 0l-27 89h-269l-27 -89h-125l236 700h101l236 -700h-125zM197 192h208
l-104 347z" />
    <glyph glyph-name="uni04D3" unicode="&#x4d3;" horiz-adv-x="592" 
d="M180 532q-32 0 -54 22t-22 54t22 54.5t54 22.5t54.5 -22.5t22.5 -54.5t-22.5 -54t-54.5 -22zM383 532q-31 0 -53.5 22t-22.5 54t22 54.5t54 22.5t54.5 -22.5t22.5 -54.5t-22.5 -54t-54.5 -22zM264 -12q-109 0 -169 69t-60 176q0 106 63 175.5t169 69.5q47 0 86 -20
t60 -55v63h109v-466h-109v63q-20 -34 -62.5 -54.5t-86.5 -20.5zM280 85q67 0 102.5 42t35.5 106t-35.5 106t-102.5 42q-63 0 -99.5 -41.5t-36.5 -106.5t36.5 -106.5t99.5 -41.5z" />
    <glyph glyph-name="uni04D4" unicode="&#x4d4;" horiz-adv-x="863" 
d="M798 597h-269v-198h269v-103h-269v-193h269v-103h-384v94h-235l-44 -94h-125l345 700h443v-103zM224 192h190v410z" />
    <glyph glyph-name="uni04D5" unicode="&#x4d5;" horiz-adv-x="863" 
d="M828 255q0 -18 -3 -60h-346q2 -55 36 -84.5t94 -29.5q78 0 104 61h110q-10 -69 -70 -112.5t-144 -43.5q-121 0 -185 88q-64 -86 -196 -86q-84 0 -136 37.5t-52 100.5q0 78 56 116q29 21 70 27.5t128 6.5h85v41q0 32 -24.5 53t-80.5 21q-103 0 -108 -76h-109
q5 74 65 118.5t154 44.5q118 0 169 -66q64 64 160 64q100 0 161.5 -61.5t61.5 -159.5zM479 277h242q0 54 -30.5 84.5t-85.5 30.5t-90 -32t-36 -83zM379 179v15v1h-121q-108 0 -108 -60q0 -61 96 -61q52 0 92.5 25.5t40.5 79.5z" />
    <glyph glyph-name="uni04D6" unicode="&#x4d6;" horiz-adv-x="544" 
d="M282 732q-77 0 -127.5 33t-54.5 89h89q11 -50 93 -50t93 50h89q-4 -56 -54.5 -89t-127.5 -33zM75 0v700h404v-103h-289v-198h289v-103h-289v-193h289v-103h-404z" />
    <glyph glyph-name="uni04D7" unicode="&#x4d7;" horiz-adv-x="527" 
d="M269 505q-80 0 -128.5 39.5t-53.5 107.5h92q4 -68 90 -68t90 68h92q-5 -68 -53.5 -107.5t-128.5 -39.5zM492 257q0 -18 -3 -60h-346q2 -55 36 -84.5t94 -29.5q77 0 104 53h110q-11 -65 -70.5 -106.5t-143.5 -41.5q-110 0 -174 66t-64 179q0 112 63.5 178.5t170.5 66.5
q100 0 161.5 -61.5t61.5 -159.5zM143 280h242q-1 54 -31.5 83t-86.5 29q-57 0 -90 -31t-34 -81z" />
    <glyph glyph-name="uni04D8" unicode="&#x4d8;" horiz-adv-x="770" 
d="M374 -12q-145 0 -242 96t-97 247v71h576q-9 95 -64.5 152.5t-164.5 57.5q-91 0 -138 -32t-69 -89h-135q17 94 109 160.5t233 66.5q165 0 259 -103t94 -262q0 -161 -96 -263t-265 -102zM379 90q102 0 167 58t65 164h-455q0 -102 61.5 -162t161.5 -60z" />
    <glyph glyph-name="uni04D9" unicode="&#x4d9;" horiz-adv-x="527" 
d="M254 478q110 0 174 -66t64 -179q0 -112 -63.5 -178.5t-170.5 -66.5q-100 0 -161.5 61.5t-61.5 159.5q0 18 3 60h346q-2 55 -36 84.5t-94 29.5q-78 0 -104 -53h-110q11 65 70.5 106.5t143.5 41.5zM260 74q57 0 90 31t34 81h-242q1 -54 31.5 -83t86.5 -29z" />
    <glyph glyph-name="uni04DA" unicode="&#x4da;" horiz-adv-x="770" 
d="M254 738q-32 0 -54 22t-22 54t22 54.5t54 22.5t54.5 -22.5t22.5 -54.5t-22.5 -54t-54.5 -22zM493 738q-31 0 -53.5 22t-22.5 54t22 54.5t54 22.5t54.5 -22.5t22.5 -54.5t-22.5 -54t-54.5 -22zM374 -12q-145 0 -242 96t-97 247v71h576q-9 95 -64.5 152.5t-164.5 57.5
q-91 0 -138 -32t-69 -89h-135q17 94 109 160.5t233 66.5q165 0 259 -103t94 -262q0 -161 -96 -263t-265 -102zM379 90q102 0 167 58t65 164h-455q0 -102 61.5 -162t161.5 -60z" />
    <glyph glyph-name="uni04DB" unicode="&#x4db;" horiz-adv-x="527" 
d="M152 532q-32 0 -54 22t-22 54t22 54.5t54 22.5t54.5 -22.5t22.5 -54.5t-22.5 -54t-54.5 -22zM355 532q-31 0 -53.5 22t-22.5 54t22 54.5t54 22.5t54.5 -22.5t22.5 -54.5t-22.5 -54t-54.5 -22zM254 478q110 0 174 -66t64 -179q0 -112 -63.5 -178.5t-170.5 -66.5
q-100 0 -161.5 61.5t-61.5 159.5q0 18 3 60h346q-2 55 -36 84.5t-94 29.5q-78 0 -104 -53h-110q11 65 70.5 106.5t143.5 41.5zM260 74q57 0 90 31t34 81h-242q1 -54 31.5 -83t86.5 -29z" />
    <glyph glyph-name="uni04DC" unicode="&#x4dc;" horiz-adv-x="951" 
d="M355 738q-31 0 -53.5 22t-22.5 54t22 54.5t54 22.5t54.5 -22.5t22.5 -54.5t-22.5 -54t-54.5 -22zM594 738q-32 0 -54 22t-22 54t22 54.5t54 22.5t54.5 -22.5t22.5 -54.5t-22.5 -54t-54.5 -22zM642 357l299 -357h-144l-264 333v-333h-115v333l-264 -333h-144l299 357h-8
q-32 0 -53 31l-102 159q-21 32 -36.5 43t-34.5 11h-33v104h59q42 0 70 -23t63 -77l104 -159q23 -39 60 -39h20v293h115v-293h20q37 0 60 39l104 159q35 54 63 77t70 23h59v-104h-33q-19 0 -34.5 -11t-36.5 -43l-102 -159q-21 -31 -53 -31h-8z" />
    <glyph glyph-name="uni04DD" unicode="&#x4dd;" horiz-adv-x="793" 
d="M295 532q-31 0 -53.5 22t-22.5 54t22 54.5t54 22.5t54.5 -22.5t22.5 -54.5t-22.5 -54t-54.5 -22zM498 532q-32 0 -54 22t-22 54t22 54.5t54 22.5t54.5 -22.5t22.5 -54.5t-22.5 -54t-54.5 -22zM758 0h-134l-173 213v-213h-109v213l-173 -213h-134l205 246h-7
q-22 0 -37 8.5t-35 37.5l-38 53q-20 28 -52 28h-16v98h37q37 0 58.5 -11.5t46.5 -45.5l82 -112q23 -31 53 -31h10v195h109v-195h10q30 0 53 31l82 112q25 34 46.5 45.5t58.5 11.5h37v-98h-16q-32 0 -52 -28l-38 -53q-20 -29 -35 -37.5t-37 -8.5h-7z" />
    <glyph glyph-name="uni04DE" unicode="&#x4de;" horiz-adv-x="572" 
d="M163 738q-31 0 -53.5 22t-22.5 54t22 54.5t54 22.5t54.5 -22.5t22.5 -54.5t-22.5 -54t-54.5 -22zM402 738q-32 0 -54 22t-22 54t22 54.5t54 22.5t54.5 -22.5t22.5 -54.5t-22.5 -54t-54.5 -22zM155 224q0 -65 37 -101.5t99 -36.5q57 0 89 33t32 81q0 52 -29 79.5t-97 27.5
h-52v102h53q60 0 86.5 29t26.5 72q0 44 -31 74t-82 30q-55 0 -91 -32t-36 -89h-115q0 99 66.5 161.5t171.5 62.5q99 0 165.5 -51.5t66.5 -145.5q0 -59 -31.5 -101t-79.5 -55q53 -10 88 -53t35 -110q0 -98 -64 -158t-170 -60q-112 0 -182.5 64t-70.5 177h115z" />
    <glyph glyph-name="uni04DF" unicode="&#x4df;" horiz-adv-x="479" 
d="M132 532q-32 0 -54 22t-22 54t22 54.5t54 22.5t54.5 -22.5t22.5 -54.5t-22.5 -54t-54.5 -22zM335 532q-31 0 -53.5 22t-22.5 54t22 54.5t54 22.5t54.5 -22.5t22.5 -54.5t-22.5 -54t-54.5 -22zM148 144q0 -31 25.5 -49t73.5 -18q86 0 86 62q0 24 -19.5 39.5t-55.5 15.5
h-69v80h63q31 0 50.5 15.5t19.5 43.5q0 25 -22.5 42t-58.5 17q-44 0 -65 -18.5t-21 -48.5h-108q0 69 53 111t140 42q85 0 136.5 -36t51.5 -93q0 -47 -27.5 -74.5t-75.5 -33.5q50 -6 82 -35.5t32 -79.5q0 -65 -57.5 -101.5t-142.5 -36.5q-93 0 -146 42.5t-53 113.5h108z" />
    <glyph glyph-name="uni04E0" unicode="&#x4e0;" horiz-adv-x="575" 
d="M292 -12q-112 0 -182 64t-70 177h115q0 -64 40.5 -101t98.5 -37q54 0 85.5 35t31.5 84q0 63 -30 95t-101 32h-94l172 260h-259v103h446l-197 -284q77 -7 127.5 -62.5t50.5 -137.5q0 -99 -67 -163.5t-167 -64.5z" />
    <glyph glyph-name="uni04E1" unicode="&#x4e1;" horiz-adv-x="486" 
d="M213 -222q-99 0 -158 49.5t-60 142.5h107q3 -49 35.5 -75.5t77.5 -26.5q49 0 79.5 37.5t30.5 107.5q0 69 -39 102.5t-107 33.5h-84l175 225h-225v92h401l-185 -243q76 -11 124 -72t48 -140q0 -113 -60.5 -173t-159.5 -60z" />
    <glyph glyph-name="uni04E2" unicode="&#x4e2;" horiz-adv-x="668" 
d="M140 744v86h390v-86h-390zM478 484l-288 -436v-48h-115v700h115v-484l288 436v48h115v-700h-115v484z" />
    <glyph glyph-name="uni04E3" unicode="&#x4e3;" horiz-adv-x="565" 
d="M119 546v86h318v-86h-318zM386 300l-207 -261v-39h-109v466h109v-305l207 263v42h109v-466h-109v300z" />
    <glyph glyph-name="uni04E4" unicode="&#x4e4;" horiz-adv-x="668" 
d="M215 718q-31 0 -53.5 22t-22.5 54t22 54.5t54 22.5t54.5 -22.5t22.5 -54.5t-22.5 -54t-54.5 -22zM454 718q-32 0 -54 22t-22 54t22 54.5t54 22.5t54.5 -22.5t22.5 -54.5t-22.5 -54t-54.5 -22zM478 484l-288 -436v-48h-115v700h115v-484l288 436v48h115v-700h-115v484z
" />
    <glyph glyph-name="uni04E5" unicode="&#x4e5;" horiz-adv-x="565" 
d="M176 522q-32 0 -54 22t-22 54t22 54.5t54 22.5t54.5 -22.5t22.5 -54.5t-22.5 -54t-54.5 -22zM379 522q-31 0 -53.5 22t-22.5 54t22 54.5t54 22.5t54.5 -22.5t22.5 -54.5t-22.5 -54t-54.5 -22zM386 300l-207 -261v-39h-109v466h109v-305l207 263v42h109v-466h-109v300z
" />
    <glyph glyph-name="uni04E6" unicode="&#x4e6;" horiz-adv-x="794" 
d="M277 738q-31 0 -53.5 22t-22.5 54t22 54.5t54 22.5t54.5 -22.5t22.5 -54.5t-22.5 -54t-54.5 -22zM516 738q-32 0 -54 22t-22 54t22 54.5t54 22.5t54.5 -22.5t22.5 -54.5t-22.5 -54t-54.5 -22zM397 -17q-165 0 -263.5 106t-98.5 261t98.5 261t263.5 106t263.5 -106
t98.5 -261t-98.5 -261t-263.5 -106zM397 86q113 0 177.5 75.5t63.5 188.5q1 113 -63.5 188.5t-177.5 75.5t-177.5 -75.5t-63.5 -188.5q-1 -113 63.5 -188.5t177.5 -75.5z" />
    <glyph glyph-name="uni04E7" unicode="&#x4e7;" horiz-adv-x="562" 
d="M179 532q-31 0 -53.5 22t-22.5 54t22 54.5t54 22.5t54.5 -22.5t22.5 -54.5t-22.5 -54t-54.5 -22zM382 532q-32 0 -54 22t-22 54t22 54.5t54 22.5t54.5 -22.5t22.5 -54.5t-22.5 -54t-54.5 -22zM281 -12q-113 0 -179.5 69.5t-66.5 175.5t66.5 175.5t179.5 69.5t179.5 -69.5
t66.5 -175.5t-66.5 -175.5t-179.5 -69.5zM281 85q64 0 100.5 41t36.5 107t-36.5 107t-100.5 41t-100.5 -41t-36.5 -107t36.5 -107t100.5 -41z" />
    <glyph glyph-name="uni04E8" unicode="&#x4e8;" horiz-adv-x="794" 
d="M397 717q165 0 263.5 -106t98.5 -261t-98.5 -261t-263.5 -106t-263.5 106t-98.5 261t98.5 261t263.5 106zM397 614q-103 0 -166 -63.5t-73 -163.5h478q-10 100 -73 163.5t-166 63.5zM397 86q103 0 166.5 64t72.5 165h-478q9 -101 72.5 -165t166.5 -64z" />
    <glyph glyph-name="uni04E9" unicode="&#x4e9;" horiz-adv-x="562" 
d="M281 478q113 0 179.5 -69.5t66.5 -175.5t-66.5 -175.5t-179.5 -69.5t-179.5 69.5t-66.5 175.5t66.5 175.5t179.5 69.5zM281 381q-55 0 -90 -30.5t-44 -81.5h268q-9 51 -44 81.5t-90 30.5zM281 85q55 0 90 30.5t44 81.5h-268q9 -51 44 -81.5t90 -30.5z" />
    <glyph glyph-name="uni04EA" unicode="&#x4ea;" horiz-adv-x="794" 
d="M277 738q-31 0 -53.5 22t-22.5 54t22 54.5t54 22.5t54.5 -22.5t22.5 -54.5t-22.5 -54t-54.5 -22zM516 738q-32 0 -54 22t-22 54t22 54.5t54 22.5t54.5 -22.5t22.5 -54.5t-22.5 -54t-54.5 -22zM397 717q165 0 263.5 -106t98.5 -261t-98.5 -261t-263.5 -106t-263.5 106
t-98.5 261t98.5 261t263.5 106zM397 614q-103 0 -166 -63.5t-73 -163.5h478q-10 100 -73 163.5t-166 63.5zM397 86q103 0 166.5 64t72.5 165h-478q9 -101 72.5 -165t166.5 -64z" />
    <glyph glyph-name="uni04EB" unicode="&#x4eb;" horiz-adv-x="562" 
d="M179 532q-31 0 -53.5 22t-22.5 54t22 54.5t54 22.5t54.5 -22.5t22.5 -54.5t-22.5 -54t-54.5 -22zM382 532q-32 0 -54 22t-22 54t22 54.5t54 22.5t54.5 -22.5t22.5 -54.5t-22.5 -54t-54.5 -22zM281 478q113 0 179.5 -69.5t66.5 -175.5t-66.5 -175.5t-179.5 -69.5
t-179.5 69.5t-66.5 175.5t66.5 175.5t179.5 69.5zM281 381q-55 0 -90 -30.5t-44 -81.5h268q-9 51 -44 81.5t-90 30.5zM281 85q55 0 90 30.5t44 81.5h-268q9 -51 44 -81.5t90 -30.5z" />
    <glyph glyph-name="uni04EC" unicode="&#x4ec;" horiz-adv-x="727" 
d="M220 738q-32 0 -54 22t-22 54t22 54.5t54 22.5t54.5 -22.5t22.5 -54.5t-22.5 -54t-54.5 -22zM459 738q-31 0 -53.5 22t-22.5 54t22 54.5t54 22.5t54.5 -22.5t22.5 -54.5t-22.5 -54t-54.5 -22zM344 717q156 0 252 -100.5t96 -266.5t-96 -266.5t-252 -100.5
q-128 0 -212.5 67t-100.5 175h125q10 -62 61 -100.5t127 -38.5q91 0 150.5 56.5t73.5 155.5h-314v104h314q-14 99 -73.5 155.5t-150.5 56.5q-75 0 -126 -38t-61 -99h-126q18 110 103.5 175t209.5 65z" />
    <glyph glyph-name="uni04ED" unicode="&#x4ed;" horiz-adv-x="534" 
d="M157 532q-31 0 -53.5 22t-22.5 54t22 54.5t54 22.5t54.5 -22.5t22.5 -54.5t-22.5 -54t-54.5 -22zM360 532q-32 0 -54 22t-22 54t22 54.5t54 22.5t54.5 -22.5t22.5 -54.5t-22.5 -54t-54.5 -22zM145 296h-109q2 78 63.5 130t159.5 52q117 0 178.5 -71t61.5 -174t-61.5 -174
t-178.5 -71q-99 0 -160.5 49t-63.5 123h109q14 -75 120 -75q116 0 124 107h-181v81h181q-4 50 -34.5 79t-89.5 29q-105 0 -119 -85z" />
    <glyph glyph-name="uni04EE" unicode="&#x4ee;" horiz-adv-x="561" 
d="M487 850v-86h-390v86h390zM455 700h126l-347 -700h-126l139 281l-262 419h133l188 -301z" />
    <glyph glyph-name="uni04EF" unicode="&#x4ef;" horiz-adv-x="566" 
d="M115 556v86h318v-86h-318zM387 466h109v-468q0 -107 -61 -166q-59 -54 -158 -54q-103 0 -160 48q-50 44 -52 121h110q4 -40 26.5 -59.5t73.5 -19.5q52 0 82 33.5t30 104.5v59q-45 -77 -150 -77q-83 0 -127.5 53.5t-44.5 140.5v284h109v-261q0 -121 101 -121q55 0 83.5 39
t28.5 102v241z" />
    <glyph glyph-name="uni04F0" unicode="&#x4f0;" horiz-adv-x="561" 
d="M172 738q-32 0 -54 22t-22 54t22 54.5t54 22.5t54.5 -22.5t22.5 -54.5t-22.5 -54t-54.5 -22zM411 738q-31 0 -53.5 22t-22.5 54t22 54.5t54 22.5t54.5 -22.5t22.5 -54.5t-22.5 -54t-54.5 -22zM455 700h126l-347 -700h-126l139 281l-262 419h133l188 -301z" />
    <glyph glyph-name="uni04F1" unicode="&#x4f1;" horiz-adv-x="566" 
d="M172 532q-32 0 -54 22t-22 54t22 54.5t54 22.5t54.5 -22.5t22.5 -54.5t-22.5 -54t-54.5 -22zM375 532q-31 0 -53.5 22t-22.5 54t22 54.5t54 22.5t54.5 -22.5t22.5 -54.5t-22.5 -54t-54.5 -22zM387 466h109v-468q0 -107 -61 -166q-59 -54 -158 -54q-103 0 -160 48
q-50 44 -52 121h110q4 -40 26.5 -59.5t73.5 -19.5q52 0 82 33.5t30 104.5v59q-45 -77 -150 -77q-83 0 -127.5 53.5t-44.5 140.5v284h109v-261q0 -121 101 -121q55 0 83.5 39t28.5 102v241z" />
    <glyph glyph-name="uni04F2" unicode="&#x4f2;" horiz-adv-x="561" 
d="M373 854l-163 -119l-59 25l124 132zM382 734l-58 26l124 132l97 -40zM455 700h126l-347 -700h-126l139 281l-262 419h133l188 -301z" />
    <glyph glyph-name="uni04F3" unicode="&#x4f3;" horiz-adv-x="566" 
d="M158 491l-52 28l125 166l96 -48zM353 491l-52 28l125 166l96 -48zM387 466h109v-468q0 -107 -61 -166q-59 -54 -158 -54q-103 0 -160 48q-50 44 -52 121h110q4 -40 26.5 -59.5t73.5 -19.5q52 0 82 33.5t30 104.5v59q-45 -77 -150 -77q-83 0 -127.5 53.5t-44.5 140.5v284
h109v-261q0 -121 101 -121q55 0 83.5 39t28.5 102v241z" />
    <glyph glyph-name="uni04F4" unicode="&#x4f4;" horiz-adv-x="583" 
d="M150 738q-32 0 -54 22t-22 54t22 54.5t54 22.5t54.5 -22.5t22.5 -54.5t-22.5 -54t-54.5 -22zM389 738q-31 0 -53.5 22t-22.5 54t22 54.5t54 22.5t54.5 -22.5t22.5 -54.5t-22.5 -54t-54.5 -22zM393 0v242q-56 -32 -143 -32q-96 0 -153 62t-57 153v275h115v-245
q0 -72 33.5 -107t93.5 -35q25 0 38.5 1t34.5 8.5t38 21.5v356h115v-700h-115z" />
    <glyph glyph-name="uni04F5" unicode="&#x4f5;" horiz-adv-x="509" 
d="M138 532q-32 0 -54 22t-22 54t22 54.5t54 22.5t54.5 -22.5t22.5 -54.5t-22.5 -54t-54.5 -22zM341 532q-31 0 -53.5 22t-22.5 54t22 54.5t54 22.5t54.5 -22.5t22.5 -54.5t-22.5 -54t-54.5 -22zM330 0v162q-49 -28 -116 -28q-174 0 -174 157v175h109v-161q0 -80 90 -80
q20 0 31 1t28.5 8t31.5 21v211h109v-466h-109z" />
    <glyph glyph-name="uni04F6" unicode="&#x4f6;" horiz-adv-x="484" 
d="M479 592h-289v-489h54v-223h-109v120h-60v700h404v-108z" />
    <glyph glyph-name="uni04F7" unicode="&#x4f7;" horiz-adv-x="376" 
d="M356 365h-177v-262h54v-223h-109v120h-54v466h286v-101z" />
    <glyph glyph-name="uni04F8" unicode="&#x4f8;" horiz-adv-x="789" 
d="M285 738q-31 0 -53.5 22t-22.5 54t22 54.5t54 22.5t54.5 -22.5t22.5 -54.5t-22.5 -54t-54.5 -22zM524 738q-32 0 -54 22t-22 54t22 54.5t54 22.5t54.5 -22.5t22.5 -54.5t-22.5 -54t-54.5 -22zM75 0v700h115v-294h150q91 0 148 -59t57 -144t-57 -144t-148 -59h-265zM599 0
v700h115v-700h-115zM190 102h150q40 0 65 29.5t25 71.5t-25 71.5t-65 29.5h-150v-202z" />
    <glyph glyph-name="uni04F9" unicode="&#x4f9;" horiz-adv-x="695" 
d="M235 532q-31 0 -53.5 22t-22.5 54t22 54.5t54 22.5t54.5 -22.5t22.5 -54.5t-22.5 -54t-54.5 -22zM438 532q-32 0 -54 22t-22 54t22 54.5t54 22.5t54.5 -22.5t22.5 -54.5t-22.5 -54t-54.5 -22zM70 466h109v-150h107q80 0 127.5 -45.5t47.5 -112.5q0 -65 -49.5 -111.5
t-125.5 -46.5h-216v466zM516 0v466h109v-466h-109zM179 230v-144h94q36 0 55 19.5t19 52.5t-19 52.5t-55 19.5h-94z" />
    <glyph glyph-name="uni04FC" unicode="&#x4fc;" horiz-adv-x="616" 
d="M436 -212q-43 0 -66 10v102q20 -4 48 -4q33 0 46.5 12t13.5 38q0 29 -13.5 56t-49.5 83l-107 170l-163 -255h-130l228 350l-228 350h130l163 -256l163 256h130l-228 -350l134 -206q52 -79 69 -121.5t17 -84.5q0 -150 -157 -150z" />
    <glyph glyph-name="uni04FD" unicode="&#x4fd;" horiz-adv-x="487" 
d="M344 -216q-45 0 -64 10v86q19 -4 41 -4q47 0 47 51q0 47 -80 163l-43 66l-100 -156h-135l172 235l-169 231h135l97 -151l97 151h135l-169 -231l77 -109q55 -78 71 -123.5t16 -94.5q0 -58 -33 -91t-95 -33z" />
    <glyph glyph-name="uni0510" unicode="&#x510;" horiz-adv-x="572" 
d="M417 224h115q0 -113 -70.5 -177t-182.5 -64q-106 0 -170 60t-64 158q0 67 35 110t88 53q-48 13 -79.5 55t-31.5 101q0 94 66.5 145.5t165.5 51.5q105 0 171.5 -62.5t66.5 -161.5h-115q0 57 -36 89t-91 32q-51 0 -82 -30t-31 -74q0 -43 26.5 -72t86.5 -29h53v-102h-52
q-68 0 -97 -27.5t-29 -79.5q0 -48 32 -81t89 -33q62 0 99 36.5t37 101.5z" />
    <glyph glyph-name="uni0511" unicode="&#x511;" horiz-adv-x="479" 
d="M331 144h108q0 -71 -53 -113.5t-146 -42.5q-85 0 -142.5 36.5t-57.5 101.5q0 50 32 79.5t82 35.5q-48 6 -75.5 33.5t-27.5 74.5q0 57 51.5 93t136.5 36q87 0 140 -42t53 -111h-108q0 30 -21 48.5t-65 18.5q-36 0 -58.5 -17t-22.5 -42q0 -28 19.5 -43.5t50.5 -15.5h63v-80
h-69q-36 0 -55.5 -15.5t-19.5 -39.5q0 -62 86 -62q48 0 73.5 18t25.5 49z" />
    <glyph glyph-name="uni0512" unicode="&#x512;" horiz-adv-x="672" 
d="M143 700h454v-776q0 -68 -40.5 -104t-115.5 -36q-44 0 -67 10v102q20 -4 49 -4q32 0 45.5 15t13.5 54v638h-224v-326q0 -144 -51.5 -212.5t-144.5 -68.5h-42v108h24q49 0 74 39.5t25 136.5v424z" />
    <glyph glyph-name="uni0513" unicode="&#x513;" horiz-adv-x="556" 
d="M121 466h365v-563q0 -58 -33 -88.5t-95 -30.5q-45 0 -64 10v97q19 -4 41 -4q42 0 42 48v430h-147v-161q0 -97 -42 -153t-118 -56h-40v103h18q73 0 73 101v267z" />
    <glyph glyph-name="uni051C" unicode="&#x51c;" horiz-adv-x="973" 
d="M242 0l-242 700h121l166 -509l157 509h85l157 -509l166 509h121l-242 -700h-83l-161 499l-162 -499h-83z" />
    <glyph glyph-name="uni051D" unicode="&#x51d;" horiz-adv-x="764" 
d="M177 0l-172 466h120l97 -308l101 308h118l101 -308l97 308h120l-172 -466h-92l-113 332l-113 -332h-92z" />
    <glyph glyph-name="uni0524" unicode="&#x524;" horiz-adv-x="668" 
d="M593 103h54v-223h-109v120h-60v597h-288v-597h-115v700h518v-597z" />
    <glyph glyph-name="uni0525" unicode="&#x525;" horiz-adv-x="580" 
d="M491 103h54v-223h-109v120h-54v375h-203v-375h-109v466h421v-363z" />
    <glyph glyph-name="uni0526" unicode="&#x526;" horiz-adv-x="627" 
d="M543 103h54v-223h-109v120h-60v245q0 72 -33.5 107t-93.5 35q-25 0 -38.5 -1t-34.5 -8.5t-38 -21.5v-356h-115v700h115v-242q56 32 143 32q96 0 153 -62t57 -153v-172z" />
    <glyph glyph-name="uni0527" unicode="&#x527;" horiz-adv-x="590" 
d="M501 103h54v-223h-109v120h-54v243q0 76 -23 109t-79 33q-53 0 -82 -33.5t-29 -95.5v-256h-109v700h109v-299q45 77 152 77q170 0 170 -185v-190z" />
    <glyph glyph-name="uni0E3F" unicode="&#xe3f;" horiz-adv-x="585" 
d="M545 189q0 -86 -57 -136.5t-157 -52.5v-100h-82v100h-174v680h174v100h82v-101q95 -5 149 -51t54 -125q0 -133 -133 -154q60 -5 102 -47.5t42 -112.5zM304 580h-114v-184h114q54 0 84.5 24.5t30.5 67.5q0 44 -30 68t-85 24zM320 101q52 0 81 26.5t29 74.5q0 42 -30 68.5
t-79 26.5h-131v-196h130z" />
    <glyph glyph-name="Wgrave" unicode="&#x1e80;" horiz-adv-x="973" 
d="M565 731l-206 93l38 73l207 -92zM242 0l-242 700h121l166 -509l157 509h85l157 -509l166 509h121l-242 -700h-83l-161 499l-162 -499h-83z" />
    <glyph glyph-name="wgrave" unicode="&#x1e81;" horiz-adv-x="764" 
d="M496 502l-282 110l35 81l282 -107zM177 0l-172 466h120l97 -308l101 308h118l101 -308l97 308h120l-172 -466h-92l-113 332l-113 -332h-92z" />
    <glyph glyph-name="Wacute" unicode="&#x1e82;" horiz-adv-x="973" 
d="M408 731l-39 74l207 92l38 -73zM242 0l-242 700h121l166 -509l157 509h85l157 -509l166 509h121l-242 -700h-83l-161 499l-162 -499h-83z" />
    <glyph glyph-name="wacute" unicode="&#x1e83;" horiz-adv-x="764" 
d="M248 502l-35 84l282 107l35 -81zM177 0l-172 466h120l97 -308l101 308h118l101 -308l97 308h120l-172 -466h-92l-113 332l-113 -332h-92z" />
    <glyph glyph-name="Wdieresis" unicode="&#x1e84;" horiz-adv-x="973" 
d="M367 738q-31 0 -53.5 22t-22.5 54t22 54.5t54 22.5t54.5 -22.5t22.5 -54.5t-22.5 -54t-54.5 -22zM606 738q-32 0 -54 22t-22 54t22 54.5t54 22.5t54.5 -22.5t22.5 -54.5t-22.5 -54t-54.5 -22zM242 0l-242 700h121l166 -509l157 509h85l157 -509l166 509h121l-242 -700
h-83l-161 499l-162 -499h-83z" />
    <glyph glyph-name="wdieresis" unicode="&#x1e85;" horiz-adv-x="764" 
d="M280 532q-32 0 -54 22t-22 54t22 54.5t54 22.5t54.5 -22.5t22.5 -54.5t-22.5 -54t-54.5 -22zM483 532q-31 0 -53.5 22t-22.5 54t22 54.5t54 22.5t54.5 -22.5t22.5 -54.5t-22.5 -54t-54.5 -22zM177 0l-172 466h120l97 -308l101 308h118l101 -308l97 308h120l-172 -466h-92
l-113 332l-113 -332h-92z" />
    <glyph glyph-name="Ygrave" unicode="&#x1ef2;" horiz-adv-x="561" 
d="M409 805l-39 -74l-206 93l38 73zM455 700h126l-347 -700h-126l139 281l-262 419h133l188 -301z" />
    <glyph glyph-name="ygrave" unicode="&#x1ef3;" horiz-adv-x="566" 
d="M388 502l-282 110l35 81l282 -107zM387 466h109v-468q0 -107 -61 -166q-59 -54 -158 -54q-103 0 -160 48q-50 44 -52 121h110q4 -40 26.5 -59.5t73.5 -19.5q52 0 82 33.5t30 104.5v59q-45 -77 -150 -77q-83 0 -127.5 53.5t-44.5 140.5v284h109v-261q0 -121 101 -121
q55 0 83.5 39t28.5 102v241z" />
    <glyph glyph-name="uni2002" unicode="&#x2002;" horiz-adv-x="500" 
 />
    <glyph glyph-name="uni2003" unicode="&#x2003;" horiz-adv-x="1000" 
 />
    <glyph glyph-name="uni2004" unicode="&#x2004;" horiz-adv-x="0" 
 />
    <glyph glyph-name="uni2005" unicode="&#x2005;" horiz-adv-x="250" 
 />
    <glyph glyph-name="uni2009" unicode="&#x2009;" horiz-adv-x="135" 
 />
    <glyph glyph-name="uni200A" unicode="&#x200a;" horiz-adv-x="75" 
 />
    <glyph glyph-name="endash" unicode="&#x2013;" horiz-adv-x="628" 
d="M50 231v87h528v-87h-528z" />
    <glyph glyph-name="emdash" unicode="&#x2014;" horiz-adv-x="817" 
d="M50 231v87h717v-87h-717z" />
    <glyph glyph-name="quoteleft" unicode="&#x2018;" horiz-adv-x="284" 
d="M151 481q-35 0 -63 28.5t-28 84.5q0 64 34.5 104.5t98.5 40.5q23 0 36 -3v-46q-14 2 -36 2q-34 0 -55 -23q-20 -20 -23 -53q13 16 42 16q30 0 51 -20.5t21 -53.5q0 -34 -22 -55.5t-56 -21.5z" />
    <glyph glyph-name="quoteright" unicode="&#x2019;" horiz-adv-x="284" 
d="M133 719q35 0 63 -28.5t28 -84.5q0 -64 -34.5 -104.5t-98.5 -40.5q-23 0 -36 3v46q14 -2 36 -2q34 0 55 23q20 20 23 53q-13 -16 -42 -16q-30 0 -51 20.5t-21 53.5q0 34 22 55.5t56 21.5z" />
    <glyph glyph-name="quotesinglbase" unicode="&#x201a;" horiz-adv-x="284" 
d="M133 141q35 0 63 -28.5t28 -84.5q0 -64 -34.5 -104.5t-98.5 -40.5q-23 0 -36 3v46q14 -2 36 -2q34 0 55 23q20 20 23 53q-13 -16 -42 -16q-30 0 -51 20.5t-21 53.5q0 34 22 55.5t56 21.5z" />
    <glyph glyph-name="quotedblleft" unicode="&#x201c;" horiz-adv-x="483" 
d="M151 481q-35 0 -63 28.5t-28 84.5q0 64 34.5 104.5t98.5 40.5q23 0 36 -3v-46q-14 2 -36 2q-34 0 -55 -23q-20 -20 -23 -53q13 16 42 16q30 0 51 -20.5t21 -53.5q0 -34 -22 -55.5t-56 -21.5zM350 481q-35 0 -63 28.5t-28 84.5q0 64 34.5 104.5t98.5 40.5q22 0 36 -3v-46
q-14 2 -36 2q-34 0 -55 -23q-20 -20 -23 -53q13 16 42 16q30 0 51 -20.5t21 -53.5q0 -34 -22 -55.5t-56 -21.5z" />
    <glyph glyph-name="quotedblright" unicode="&#x201d;" horiz-adv-x="483" 
d="M133 719q35 0 63 -28.5t28 -84.5q0 -64 -34.5 -104.5t-98.5 -40.5q-23 0 -36 3v46q14 -2 36 -2q34 0 55 23q20 20 23 53q-13 -16 -42 -16q-30 0 -51 20.5t-21 53.5q0 34 22 55.5t56 21.5zM332 719q35 0 63 -28.5t28 -84.5q0 -64 -34.5 -104.5t-98.5 -40.5q-22 0 -36 3v46
q14 -2 36 -2q34 0 55 23q20 20 23 53q-13 -16 -42 -16q-30 0 -51 20.5t-21 53.5q0 34 22 55.5t56 21.5z" />
    <glyph glyph-name="quotedblbase" unicode="&#x201e;" horiz-adv-x="483" 
d="M133 141q35 0 63 -28.5t28 -84.5q0 -64 -34.5 -104.5t-98.5 -40.5q-23 0 -36 3v46q14 -2 36 -2q34 0 55 23q20 20 23 53q-13 -16 -42 -16q-30 0 -51 20.5t-21 53.5q0 34 22 55.5t56 21.5zM332 141q35 0 63 -28.5t28 -84.5q0 -64 -34.5 -104.5t-98.5 -40.5q-22 0 -36 3v46
q14 -2 36 -2q34 0 55 23q20 20 23 53q-13 -16 -42 -16q-30 0 -51 20.5t-21 53.5q0 34 22 55.5t56 21.5z" />
    <glyph glyph-name="dagger" unicode="&#x2020;" horiz-adv-x="440" 
d="M166 -182v551h-116v97h116v251h109v-251h115v-97h-115v-551h-109z" />
    <glyph glyph-name="daggerdbl" unicode="&#x2021;" horiz-adv-x="440" 
d="M166 -182v182h-116v94h116v278h-116v94h116v251h109v-251h115v-94h-115v-278h115v-94h-115v-182h-109z" />
    <glyph glyph-name="bullet" unicode="&#x2022;" horiz-adv-x="353" 
d="M176 196q-48 0 -82 34t-34 82q0 49 34 83t82 34q49 0 83 -34t34 -83q0 -48 -34 -82t-83 -34z" />
    <glyph glyph-name="ellipsis" unicode="&#x2026;" horiz-adv-x="790" 
d="M144 -12q-35 0 -59.5 25t-24.5 60t24.5 59.5t59.5 24.5t60 -24.5t25 -59.5t-25 -60t-60 -25zM393 -12q-35 0 -59.5 25t-24.5 60t24.5 59.5t59.5 24.5t60 -24.5t25 -59.5t-25 -60t-60 -25zM645 -12q-35 0 -59.5 25t-24.5 60t24.5 59.5t59.5 24.5t60 -24.5t25 -59.5
t-25 -60t-60 -25z" />
    <glyph glyph-name="perthousand" unicode="&#x2030;" horiz-adv-x="1174" 
d="M197 -18l-73 40l472 682l71 -40zM199 346q-81 0 -129.5 49.5t-48.5 120.5t48.5 120.5t129.5 49.5t129.5 -49.5t48.5 -120.5t-48.5 -120.5t-129.5 -49.5zM199 430q39 0 61 24.5t22 61.5t-22 61.5t-61 24.5t-61 -24.5t-22 -61.5t22 -61.5t61 -24.5zM595 -5
q-81 0 -129.5 49.5t-48.5 120.5t48.5 120.5t129.5 49.5t129.5 -49.5t48.5 -120.5t-48.5 -120.5t-129.5 -49.5zM975 -5q-81 0 -129.5 49.5t-48.5 120.5t48.5 120.5t129.5 49.5t129.5 -49.5t48.5 -120.5t-48.5 -120.5t-129.5 -49.5zM595 79q39 0 61 24.5t22 61.5t-22 61.5
t-61 24.5t-61 -24.5t-22 -61.5t22 -61.5t61 -24.5zM975 79q39 0 61 24.5t22 61.5t-22 61.5t-61 24.5t-61 -24.5t-22 -61.5t22 -61.5t61 -24.5z" />
    <glyph glyph-name="guilsinglleft" unicode="&#x2039;" horiz-adv-x="284" 
d="M213 65l-208 196l208 196l61 -63l-141 -133l141 -133z" />
    <glyph glyph-name="guilsinglright" unicode="&#x203a;" horiz-adv-x="284" 
d="M71 65l-61 63l141 133l-141 133l61 63l208 -196z" />
    <glyph glyph-name="fraction" unicode="&#x2044;" horiz-adv-x="164" 
d="M-118 -25l-72 47l472 682l72 -47z" />
    <glyph glyph-name="uni2070" unicode="&#x2070;" horiz-adv-x="415" 
d="M207 391q-83 0 -127 53t-44 153t44 153t127 53q84 0 128 -52.5t44 -153.5t-44 -153.5t-128 -52.5zM207 468q41 0 60 31t19 98t-19 98t-60 31q-40 0 -59 -31t-19 -98t19 -98t59 -31z" />
    <glyph glyph-name="uni2074" unicode="&#x2074;" horiz-adv-x="396" 
d="M361 592v-80h-50v-112h-93v112h-170v282h92v-202h78v102h93v-102h50z" />
    <glyph glyph-name="uni2075" unicode="&#x2075;" horiz-adv-x="399" 
d="M201 391q-69 0 -110.5 31.5t-44.5 88.5h92q1 -21 18.5 -32.5t44.5 -11.5q33 0 51.5 18.5t18.5 50.5q0 29 -17.5 47t-47.5 18q-50 0 -67 -36h-83v229h283v-72h-199v-84q30 31 90 31t96.5 -36t36.5 -95q0 -66 -44 -106.5t-118 -40.5z" />
    <glyph glyph-name="uni2076" unicode="&#x2076;" horiz-adv-x="392" 
d="M207 688q69 -4 109 -45t40 -104q0 -64 -43.5 -106t-116.5 -42q-72 0 -116 42t-44 106q0 58 34 98l118 157h108zM196 466q33 0 51.5 20.5t18.5 52.5q0 33 -18.5 53.5t-51.5 20.5t-52 -20.5t-19 -53.5q0 -32 19 -52.5t52 -20.5z" />
    <glyph glyph-name="uni2077" unicode="&#x2077;" horiz-adv-x="360" 
d="M46 400l170 315h-181v79h318l-202 -394h-105z" />
    <glyph glyph-name="uni2078" unicode="&#x2078;" horiz-adv-x="402" 
d="M201 391q-74 0 -117 30t-43 85q0 79 78 98q-34 10 -52 34.5t-18 56.5q0 49 41.5 78.5t110.5 29.5t110.5 -29.5t41.5 -78.5q0 -32 -18 -56.5t-52 -34.5q78 -19 78 -98q0 -55 -43 -85t-117 -30zM201 637q28 0 45 14t17 37q0 24 -17 38t-45 14t-45 -14t-17 -38q0 -23 17 -37
t45 -14zM201 458q31 0 49 15.5t18 41.5q0 25 -18.5 40.5t-48.5 15.5t-48.5 -15.5t-18.5 -40.5q0 -26 18 -41.5t49 -15.5z" />
    <glyph glyph-name="uni2079" unicode="&#x2079;" horiz-adv-x="392" 
d="M356 655q0 -58 -34 -98l-118 -157h-108l89 106q-69 4 -109 45t-40 104q0 64 43.5 106t116.5 42q72 0 116 -42t44 -106zM126 655q0 -33 18.5 -53.5t51.5 -20.5t52 20.5t19 53.5q0 32 -19 52.5t-52 20.5t-51.5 -20.5t-18.5 -52.5z" />
    <glyph glyph-name="uni207A" unicode="&#x207a;" horiz-adv-x="404" 
d="M166 446v107h-110v69h110v107h72v-107h110v-69h-110v-107h-72z" />
    <glyph glyph-name="uni207B" unicode="&#x207b;" horiz-adv-x="404" 
d="M56 553v69h292v-69h-292z" />
    <glyph glyph-name="uni207C" unicode="&#x207c;" horiz-adv-x="404" 
d="M52 628v69h300v-69h-300zM52 484v68h300v-68h-300z" />
    <glyph glyph-name="uni207D" unicode="&#x207d;" horiz-adv-x="259" 
d="M176 326q-61 60 -94 125t-33 155t33 155t94 125l65 -54q-57 -54 -81 -103.5t-24 -122.5t24 -122.5t81 -103.5z" />
    <glyph glyph-name="uni207E" unicode="&#x207e;" horiz-adv-x="259" 
d="M83 326l-65 54q57 54 81 103.5t24 122.5t-24 122.5t-81 103.5l65 54q61 -60 94 -125t33 -155t-33 -155t-94 -125z" />
    <glyph glyph-name="uni2080" unicode="&#x2080;" horiz-adv-x="415" 
d="M207 -89q-83 0 -127 53t-44 153t44 153t127 53q84 0 128 -52.5t44 -153.5t-44 -153.5t-128 -52.5zM207 -12q41 0 60 31t19 98t-19 98t-60 31q-40 0 -59 -31t-19 -98t19 -98t59 -31z" />
    <glyph glyph-name="uni2081" unicode="&#x2081;" horiz-adv-x="285" 
d="M120 -80v252h-93v71q61 0 83 16.5t22 54.5h79v-394h-91z" />
    <glyph glyph-name="uni2082" unicode="&#x2082;" horiz-adv-x="386" 
d="M29 -80q0 71 25 114.5t81 72.5l66 33q46 22 46 63q0 22 -13.5 34.5t-36.5 12.5q-62 0 -62 -68h-96q0 64 43 102.5t114 38.5q69 0 108.5 -31t39.5 -85q0 -78 -81 -120l-61 -32q-28 -15 -39.5 -26.5t-16.5 -31.5h195v-77h-312z" />
    <glyph glyph-name="uni2083" unicode="&#x2083;" horiz-adv-x="392" 
d="M193 -89q-77 0 -118.5 36t-41.5 103h95q0 -31 17.5 -48t49.5 -17q28 0 44 14t16 37q0 53 -66 53h-40v72h41q60 0 60 48q0 19 -15.5 31.5t-39.5 12.5q-27 0 -43.5 -14.5t-16.5 -40.5h-94q0 57 42 91t114 34q67 0 107.5 -29.5t40.5 -79.5q0 -69 -77 -88q39 -7 61.5 -32
t22.5 -62q0 -54 -43.5 -87.5t-115.5 -33.5z" />
    <glyph glyph-name="uni2084" unicode="&#x2084;" horiz-adv-x="396" 
d="M361 112v-80h-50v-112h-93v112h-170v282h92v-202h78v102h93v-102h50z" />
    <glyph glyph-name="uni2085" unicode="&#x2085;" horiz-adv-x="399" 
d="M201 -89q-69 0 -110.5 31.5t-44.5 88.5h92q1 -21 18.5 -32.5t44.5 -11.5q33 0 51.5 18.5t18.5 50.5q0 29 -17.5 47t-47.5 18q-50 0 -67 -36h-83v229h283v-72h-199v-84q30 31 90 31t96.5 -36t36.5 -95q0 -66 -44 -106.5t-118 -40.5z" />
    <glyph glyph-name="uni2086" unicode="&#x2086;" horiz-adv-x="392" 
d="M207 208q69 -4 109 -45t40 -104q0 -64 -43.5 -106t-116.5 -42q-72 0 -116 42t-44 106q0 58 34 98l118 157h108zM196 -14q33 0 51.5 20.5t18.5 52.5q0 33 -18.5 53.5t-51.5 20.5t-52 -20.5t-19 -53.5q0 -32 19 -52.5t52 -20.5z" />
    <glyph glyph-name="uni2087" unicode="&#x2087;" horiz-adv-x="360" 
d="M46 -80l170 315h-181v79h318l-202 -394h-105z" />
    <glyph glyph-name="uni2088" unicode="&#x2088;" horiz-adv-x="402" 
d="M201 -89q-74 0 -117 30t-43 85q0 79 78 98q-34 10 -52 34.5t-18 56.5q0 49 41.5 78.5t110.5 29.5t110.5 -29.5t41.5 -78.5q0 -32 -18 -56.5t-52 -34.5q78 -19 78 -98q0 -55 -43 -85t-117 -30zM201 157q28 0 45 14t17 37q0 24 -17 38t-45 14t-45 -14t-17 -38q0 -23 17 -37
t45 -14zM201 -22q31 0 49 15.5t18 41.5q0 25 -18.5 40.5t-48.5 15.5t-48.5 -15.5t-18.5 -40.5q0 -26 18 -41.5t49 -15.5z" />
    <glyph glyph-name="uni2089" unicode="&#x2089;" horiz-adv-x="392" 
d="M356 175q0 -58 -34 -98l-118 -157h-108l89 106q-69 4 -109 45t-40 104q0 64 43.5 106t116.5 42q72 0 116 -42t44 -106zM126 175q0 -33 18.5 -53.5t51.5 -20.5t52 20.5t19 53.5q0 32 -19 52.5t-52 20.5t-51.5 -20.5t-18.5 -52.5z" />
    <glyph glyph-name="uni208A" unicode="&#x208a;" horiz-adv-x="404" 
d="M166 -44v107h-110v69h110v107h72v-107h110v-69h-110v-107h-72z" />
    <glyph glyph-name="uni208B" unicode="&#x208b;" horiz-adv-x="404" 
d="M56 63v69h292v-69h-292z" />
    <glyph glyph-name="uni208C" unicode="&#x208c;" horiz-adv-x="404" 
d="M52 138v69h300v-69h-300zM52 -6v68h300v-68h-300z" />
    <glyph glyph-name="uni208D" unicode="&#x208d;" horiz-adv-x="259" 
d="M176 -164q-61 60 -94 125t-33 155t33 155t94 125l65 -54q-57 -54 -81 -103.5t-24 -122.5t24 -122.5t81 -103.5z" />
    <glyph glyph-name="uni208E" unicode="&#x208e;" horiz-adv-x="259" 
d="M83 -164l-65 54q57 54 81 103.5t24 122.5t-24 122.5t-81 103.5l65 54q61 -60 94 -125t33 -155t-33 -155t-94 -125z" />
    <glyph glyph-name="uni20A9" unicode="&#x20a9;" horiz-adv-x="746" 
d="M731 365h-83l-13 -68h96v-82h-111l-40 -215h-108l-99 504l-99 -504h-108l-40 215h-111v82h96l-13 68h-83v82h68l-44 233h117l70 -514l102 514h90l102 -514l70 514h117l-44 -233h68v-82z" />
    <glyph glyph-name="Euro" unicode="&#x20ac;" horiz-adv-x="601" 
d="M330 88q48 0 78 29.5t36 79.5h112q-11 -91 -71 -150t-155 -59q-212 0 -245 251h-65l20 75h39v26v26h-59l20 75h45q33 251 245 251q95 0 155 -59t71 -150h-112q-7 50 -36.5 79.5t-77.5 29.5q-62 0 -93.5 -38.5t-40.5 -112.5h189l-20 -75h-175v-26v-26h195l-20 -75h-169
q9 -74 40.5 -112.5t93.5 -38.5z" />
    <glyph glyph-name="uni20AE" unicode="&#x20ae;" horiz-adv-x="532" 
d="M527 577h-204v-116l116 55v-85l-116 -55v-52l116 55v-85l-116 -55v-239h-115v184l-114 -55v85l114 55v52l-114 -55v85l114 55v171h-203v103h522v-103z" />
    <glyph glyph-name="uni20B4" unicode="&#x20b4;" horiz-adv-x="557" 
d="M366 328l-38 -19h208l-20 -60h-306q-32 -18 -43.5 -33.5t-11.5 -44.5q0 -39 29.5 -61t83.5 -22q63 0 98.5 24t35.5 66h105q0 -85 -64 -137.5t-176 -52.5q-99 0 -160 47.5t-61 125.5q0 53 19 88h-44l20 60h77q19 14 51 29l80 38h-228l20 60h313q27 27 27 76q0 38 -27 60
t-74 22q-113 0 -113 -83h-105q0 82 59 131.5t157 49.5q94 0 152 -46t58 -128q0 -43 -17 -82h65l-20 -60h-85q-27 -28 -65 -48z" />
    <glyph glyph-name="uni20B8" unicode="&#x20b8;" horiz-adv-x="532" 
d="M5 577v103h522v-103h-522zM208 0v413h-203v103h522v-103h-204v-413h-115z" />
    <glyph glyph-name="uni20B9" unicode="&#x20b9;" horiz-adv-x="534" 
d="M390 605q50 -54 60 -132h84l-20 -75h-64q-9 -68 -47.5 -118.5t-98.5 -73.5l137 -206h-131l-126 190h-134v103h155q48 0 82.5 29t45.5 76h-283v75h283q-11 47 -45.5 75.5t-82.5 28.5h-155v103h484l-20 -75h-124z" />
    <glyph glyph-name="uni20BA" unicode="&#x20ba;" horiz-adv-x="501" 
d="M379 265h112q0 -70 -23.5 -122.5t-65.5 -83t-94 -45t-115 -14.5h-112v214l-51 -25v85l51 25v52l-51 -25v85l51 25v244h115v-188l139 67v-85l-139 -67v-52l139 67v-85l-139 -67v-167q183 0 183 162z" />
    <glyph glyph-name="uni20BD" unicode="&#x20bd;" horiz-adv-x="608" 
d="M358 190h-143v-48h163v-72h-163v-70h-115v70h-100v72h100v48h-100v103h100v387h258q105 0 172.5 -69t67.5 -176t-67.5 -176t-172.5 -69zM215 577v-284h136q57 0 94.5 40.5t37.5 101.5t-37.5 101.5t-94.5 40.5h-136z" />
    <glyph glyph-name="uni2113" unicode="&#x2113;" horiz-adv-x="432" 
d="M277 -12q-24 0 -41 2t-42.5 11.5t-41.5 27t-28 53t-12 84.5v3l-64 -51l-48 83l112 80v226q0 210 146 210q69 0 106.5 -49.5t37.5 -129.5q0 -151 -196 -300v-80q0 -26 7 -42.5t21 -23t25.5 -8.5t30.5 -2q39 0 73 9v-91q-27 -12 -86 -12zM206 356q56 50 79 92t23 94
q0 89 -46 89q-27 0 -41.5 -29.5t-14.5 -74.5v-171z" />
    <glyph glyph-name="uni2116" unicode="&#x2116;" horiz-adv-x="1120" 
d="M75 0v700h121l277 -508v508h110v-700h-121l-277 508v-508h-110zM837 126q-93 0 -150 58t-57 142q0 85 57 143t150 58q94 0 151 -58t57 -143q0 -84 -57 -142t-151 -58zM837 220q44 0 71.5 30.5t27.5 75.5t-27.5 75.5t-71.5 30.5q-43 0 -70.5 -30.5t-27.5 -75.5t27.5 -75.5
t70.5 -30.5zM630 0v97h415v-97h-415z" />
    <glyph glyph-name="trademark" unicode="&#x2122;" horiz-adv-x="837" 
d="M98 293v335h-93v72h268v-72h-94v-335h-81zM327 293v407h136l82 -266l81 266h136v-407h-80v326l-102 -326h-71l-102 326v-326h-80z" />
    <glyph glyph-name="uni2126" unicode="&#x2126;" horiz-adv-x="696" 
d="M53 0v103h165v18q-86 34 -134.5 108.5t-48.5 169.5q0 129 86 221t227 92t227 -92t86 -221q0 -95 -48.5 -170t-134.5 -109v-17h165v-103h-255v181q80 18 119 78.5t39 144.5q0 86 -52 145.5t-146 59.5t-146 -59.5t-52 -145.5q0 -84 39 -144.5t119 -78.5v-181h-255z" />
    <glyph glyph-name="estimated" unicode="&#x212e;" horiz-adv-x="516" 
d="M268 -12q-112 0 -172.5 71.5t-60.5 174.5q0 108 61 176t169 68q91 0 153.5 -60.5t62.5 -149.5q0 -16 -1 -29h-334v-193q51 -35 122 -35q68 0 117 33t65 83h23q-16 -59 -71 -99t-134 -40zM146 262h228v162q-50 32 -109 32q-69 0 -119 -33v-161z" />
    <glyph glyph-name="uni2153" unicode="&#x2153;" horiz-adv-x="811" 
d="M167 -25l-72 47l472 682l72 -47zM120 286v252h-93v71q61 0 83 16.5t22 54.5h79v-394h-91zM612 -9q-77 0 -118.5 36t-41.5 103h95q0 -31 17.5 -48t49.5 -17q28 0 44 14t16 37q0 53 -66 53h-40v72h41q60 0 60 48q0 19 -15.5 31.5t-39.5 12.5q-27 0 -43.5 -14.5t-16.5 -40.5
h-94q0 57 42 91t114 34q67 0 107.5 -29.5t40.5 -79.5q0 -69 -77 -88q39 -7 61.5 -32t22.5 -62q0 -54 -43.5 -87.5t-115.5 -33.5z" />
    <glyph glyph-name="uni2154" unicode="&#x2154;" horiz-adv-x="912" 
d="M268 -25l-72 47l472 682l72 -47zM29 286q0 71 25 114.5t81 72.5l66 33q46 22 46 63q0 22 -13.5 34.5t-36.5 12.5q-62 0 -62 -68h-96q0 64 43 102.5t114 38.5q69 0 108.5 -31t39.5 -85q0 -78 -81 -120l-61 -32q-28 -15 -39.5 -26.5t-16.5 -31.5h195v-77h-312zM713 -9
q-77 0 -118.5 36t-41.5 103h95q0 -31 17.5 -48t49.5 -17q28 0 44 14t16 37q0 53 -66 53h-40v72h41q60 0 60 48q0 19 -15.5 31.5t-39.5 12.5q-27 0 -43.5 -14.5t-16.5 -40.5h-94q0 57 42 91t114 34q67 0 107.5 -29.5t40.5 -79.5q0 -69 -77 -88q39 -7 61.5 -32t22.5 -62
q0 -54 -43.5 -87.5t-115.5 -33.5z" />
    <glyph glyph-name="arrowleft" unicode="&#x2190;" horiz-adv-x="720" 
d="M244 134l-234 216l234 216l60 -65l-120 -107h526v-89h-525l119 -106z" />
    <glyph glyph-name="arrowup" unicode="&#x2191;" horiz-adv-x="492" 
d="M201 0v524l-106 -118l-65 60l216 234l216 -234l-65 -60l-107 120v-526h-89z" />
    <glyph glyph-name="arrowright" unicode="&#x2192;" horiz-adv-x="720" 
d="M476 134l-60 65l120 107h-526v89h524l-118 106l60 65l234 -216z" />
    <glyph glyph-name="arrowdown" unicode="&#x2193;" horiz-adv-x="492" 
d="M246 0l-216 234l65 60l107 -120v526h89v-525l106 119l65 -60z" />
    <glyph glyph-name="uni2196" unicode="&#x2196;" horiz-adv-x="586" 
d="M493 71l-371 370l9 -158l-89 -4l-12 318l318 -12l-4 -89l-160 9l372 -371z" />
    <glyph glyph-name="uni2197" unicode="&#x2197;" horiz-adv-x="586" 
d="M93 71l-63 63l370 371l-158 -9l-4 89l318 12l-12 -318l-89 4l10 160z" />
    <glyph glyph-name="uni2198" unicode="&#x2198;" horiz-adv-x="586" 
d="M556 103l-318 12l4 89l160 -9l-372 371l63 63l371 -370l-9 158l89 4z" />
    <glyph glyph-name="uni2199" unicode="&#x2199;" horiz-adv-x="586" 
d="M30 103l12 318l89 -4l-9 -160l371 372l63 -63l-370 -371l158 9l4 -89z" />
    <glyph glyph-name="partialdiff" unicode="&#x2202;" horiz-adv-x="584" 
d="M283 717q251 0 251 -375q0 -194 -64 -277t-183 -83q-81 0 -136 34.5t-78 84.5t-23 110q0 101 64 167.5t165 66.5q85 0 145 -49q-6 124 -38.5 172.5t-98.5 48.5q-61 0 -90 -32t-29 -83h-115q0 93 61.5 154t168.5 61zM283 82q74 0 105.5 52t35.5 165q-50 46 -131 46
q-71 0 -103.5 -38t-32.5 -97q0 -54 29.5 -91t96.5 -37z" />
    <glyph glyph-name="emptyset" unicode="&#x2205;" 
d="M556 512l-57 -57q43 -59 43 -138q0 -99 -62.5 -160.5t-159.5 -61.5q-81 0 -138 43l-57 -57l-41 41l57 57q-43 59 -43 138q0 99 62.5 160.5t159.5 61.5q81 0 138 -43l57 57zM167 317q0 -52 24 -88l218 218q-38 25 -88 25q-68 0 -111 -42.5t-43 -112.5zM474 317
q0 51 -24 89l-219 -219q39 -25 90 -25q68 0 110.5 42.5t42.5 112.5z" />
    <glyph glyph-name="uni2206" unicode="&#x2206;" horiz-adv-x="595" 
d="M15 0l242 700h81l242 -700h-565zM174 103h247l-123 406z" />
    <glyph glyph-name="product" unicode="&#x220f;" horiz-adv-x="759" 
d="M120 -210v902h-70v102h659v-102h-70v-902h-115v902h-289v-902h-115z" />
    <glyph glyph-name="summation" unicode="&#x2211;" horiz-adv-x="620" 
d="M50 -210v102l358 400l-358 400v102h520v-107h-374l357 -395l-357 -395h374v-107h-520z" />
    <glyph glyph-name="minus" unicode="&#x2212;" horiz-adv-x="504" 
d="M50 266v97h404v-97h-404z" />
    <glyph glyph-name="radical" unicode="&#x221a;" horiz-adv-x="780" 
d="M294 -210l-128 369h-116v97h197l88 -275l274 813h121l-355 -1004h-81z" />
    <glyph glyph-name="infinity" unicode="&#x221e;" horiz-adv-x="877" 
d="M258 87q-98 0 -153 60t-55 142t55 142t153 60q101 0 180 -104q79 104 181 104q98 0 153 -58.5t55 -143.5t-55 -143.5t-153 -58.5q-103 0 -181 104q-78 -104 -180 -104zM258 184q66 0 124 105q-58 105 -124 105q-50 0 -77.5 -30.5t-27.5 -74.5t27.5 -74.5t77.5 -30.5z
M619 184q50 0 77.5 30.5t27.5 74.5t-27.5 74.5t-77.5 30.5q-67 0 -124 -105q56 -105 124 -105z" />
    <glyph glyph-name="integral" unicode="&#x222b;" horiz-adv-x="354" 
d="M134 -214q-56 0 -84 11v90q25 -6 38 -6q35 0 35 47v731q0 72 27.5 103.5t69.5 31.5q56 0 84 -11v-90q-25 6 -38 6q-35 0 -35 -47v-731q0 -72 -27.5 -103.5t-69.5 -31.5z" />
    <glyph glyph-name="approxequal" unicode="&#x2248;" horiz-adv-x="525" 
d="M365 305q-39 0 -101 34t-108 34q-47 0 -106 -55v93q44 59 111 59q33 0 107.5 -34t97.5 -34q53 0 108 55v-93q-43 -59 -109 -59zM365 149q-38 0 -101 34t-108 34q-48 0 -105 -55v93q43 59 110 59q33 0 107.5 -34t97.5 -34q50 0 109 55v-93q-44 -59 -110 -59z" />
    <glyph glyph-name="notequal" unicode="&#x2260;" horiz-adv-x="524" 
d="M474 353h-150l-34 -79h184v-97h-226l-41 -95h-90l41 95h-108v97h150l34 79h-184v97h226l41 95h90l-41 -95h108v-97z" />
    <glyph glyph-name="lessequal" unicode="&#x2264;" horiz-adv-x="504" 
d="M451 209l-398 116v77l398 116v-103l-227 -51l227 -52v-103zM454 66h-404v97h404v-97z" />
    <glyph glyph-name="greaterequal" unicode="&#x2265;" horiz-adv-x="504" 
d="M53 209v103l227 52l-227 51v103l398 -116v-77zM50 66v97h404v-97h-404z" />
    <glyph glyph-name="uni2460" unicode="&#x2460;" horiz-adv-x="794" 
d="M397 -17q-165 0 -263.5 105t-98.5 262t98.5 262t263.5 105t263.5 -105t98.5 -262t-98.5 -262t-263.5 -105zM397 58q124 0 199 84t75 208t-75 208t-199 84t-199 -84t-75 -208t75 -208t199 -84zM373 171v229h-84v65q55 0 75 15t20 49h72v-358h-83z" />
    <glyph glyph-name="uni2461" unicode="&#x2461;" horiz-adv-x="794" 
d="M397 -17q-165 0 -263.5 105t-98.5 262t98.5 262t263.5 105t263.5 -105t98.5 -262t-98.5 -262t-263.5 -105zM397 58q124 0 199 84t75 208t-75 208t-199 84t-199 -84t-75 -208t75 -208t199 -84zM244 179q0 64 23 104t74 66l60 30q42 21 42 57q0 20 -12.5 31.5t-33.5 11.5
q-56 0 -56 -62h-88q0 58 39 93t104 35q63 0 99 -28t36 -77q0 -71 -74 -109l-55 -29q-26 -14 -36.5 -24.5t-14.5 -28.5h177v-70h-284z" />
    <glyph glyph-name="uni2462" unicode="&#x2462;" horiz-adv-x="794" 
d="M397 -17q-165 0 -263.5 105t-98.5 262t98.5 262t263.5 105t263.5 -105t98.5 -262t-98.5 -262t-263.5 -105zM397 58q124 0 199 84t75 208t-75 208t-199 84t-199 -84t-75 -208t75 -208t199 -84zM397 163q-70 0 -107.5 32.5t-37.5 93.5h86q0 -28 16 -43.5t45 -15.5
q26 0 40.5 12.5t14.5 33.5q0 49 -60 49h-37v65h38q54 0 54 44q0 17 -14 28.5t-36 11.5q-24 0 -39 -13t-15 -37h-86q0 51 38 82t104 31q61 0 98 -27t37 -72q0 -62 -70 -80q35 -6 55.5 -29t20.5 -56q0 -50 -39.5 -80t-105.5 -30z" />
    <glyph glyph-name="uni2463" unicode="&#x2463;" horiz-adv-x="794" 
d="M397 717q165 0 263.5 -105t98.5 -262t-98.5 -262t-263.5 -105t-263.5 105t-98.5 262t98.5 262t263.5 105zM397 58q124 0 199 84t75 208t-75 208t-199 84t-199 -84t-75 -208t75 -208t199 -84zM497 438v-92h45v-73h-45v-102h-85v102h-154v256h83v-183h71v92h85z" />
    <glyph glyph-name="uni2464" unicode="&#x2464;" horiz-adv-x="794" 
d="M397 -17q-165 0 -263.5 105t-98.5 262t98.5 262t263.5 105t263.5 -105t98.5 -262t-98.5 -262t-263.5 -105zM397 58q124 0 199 84t75 208t-75 208t-199 84t-199 -84t-75 -208t75 -208t199 -84zM394 154q-63 0 -101 28.5t-40 80.5h83q1 -19 17.5 -29.5t40.5 -10.5
q30 0 46.5 17t16.5 46q0 27 -16 43t-43 16q-45 0 -61 -33h-75v208h257v-65h-181v-77q28 29 82 29t87.5 -33.5t33.5 -86.5q0 -60 -39.5 -96.5t-107.5 -36.5z" />
    <glyph glyph-name="uni2465" unicode="&#x2465;" horiz-adv-x="794" 
d="M397 717q165 0 263.5 -105t98.5 -262t-98.5 -262t-263.5 -105t-263.5 105t-98.5 262t98.5 262t263.5 105zM397 58q124 0 199 84t75 208t-75 208t-199 84t-199 -84t-75 -208t75 -208t199 -84zM402 438q62 -3 99 -40.5t37 -95.5t-40 -96t-106 -38t-105.5 38t-39.5 96
q0 54 31 90l107 142h98zM392 236q30 0 47 18.5t17 47.5q0 30 -17 49t-47 19t-47 -19t-17 -49q0 -29 17 -47.5t47 -18.5z" />
    <glyph glyph-name="uni2466" unicode="&#x2466;" horiz-adv-x="794" 
d="M397 -17q-165 0 -263.5 105t-98.5 262t98.5 262t263.5 105t263.5 -105t98.5 -262t-98.5 -262t-263.5 -105zM397 58q124 0 199 84t75 208t-75 208t-199 84t-199 -84t-75 -208t75 -208t199 -84zM273 169l154 286h-164v72h289l-184 -358h-95z" />
    <glyph glyph-name="uni2467" unicode="&#x2467;" horiz-adv-x="794" 
d="M397 -17q-165 0 -263.5 105t-98.5 262t98.5 262t263.5 105t263.5 -105t98.5 -262t-98.5 -262t-263.5 -105zM397 58q124 0 199 84t75 208t-75 208t-199 84t-199 -84t-75 -208t75 -208t199 -84zM397 163q-67 0 -106.5 27.5t-39.5 76.5q0 73 71 89q-31 9 -47 31.5t-16 51.5
q0 45 37.5 71.5t100.5 26.5q62 0 100 -26.5t38 -71.5q0 -29 -16.5 -51.5t-47.5 -31.5q71 -16 71 -89q0 -50 -39 -77t-106 -27zM397 386q25 0 40.5 13.5t15.5 33.5q0 22 -15.5 34.5t-40.5 12.5q-26 0 -41.5 -12.5t-15.5 -34.5q0 -20 16 -33.5t41 -13.5zM397 224
q28 0 44.5 14.5t16.5 37.5q0 22 -17 36t-44 14q-28 0 -44.5 -13.5t-16.5 -36.5q0 -24 16.5 -38t44.5 -14z" />
    <glyph glyph-name="uni2468" unicode="&#x2468;" horiz-adv-x="794" 
d="M397 717q165 0 263.5 -105t98.5 -262t-98.5 -262t-263.5 -105t-263.5 105t-98.5 262t98.5 262t263.5 105zM397 58q124 0 199 84t75 208t-75 208t-199 84t-199 -84t-75 -208t75 -208t199 -84zM404 532q66 0 106 -38t40 -96q0 -55 -34 -91l-105 -141h-98l81 96
q-62 4 -98.5 41.5t-36.5 94.5q0 58 39.5 96t105.5 38zM341 398q0 -30 16.5 -48.5t46.5 -18.5t47.5 18.5t17.5 48.5q0 29 -17.5 47.5t-47.5 18.5t-46.5 -18.5t-16.5 -47.5z" />
    <glyph glyph-name="uni24EA" unicode="&#x24ea;" horiz-adv-x="794" 
d="M397 -17q-165 0 -263.5 105t-98.5 262t98.5 262t263.5 105t263.5 -105t98.5 -262t-98.5 -262t-263.5 -105zM397 58q124 0 199 84t75 208t-75 208t-199 84t-199 -84t-75 -208t75 -208t199 -84zM396 163q-76 0 -115.5 48t-39.5 139t39.5 139t115.5 48q77 0 117 -48t40 -139
t-40 -139t-117 -48zM396 233q37 0 54.5 28t17.5 89t-17.5 89t-54.5 28t-54 -28t-17 -89t17 -89t54 -28z" />
    <glyph glyph-name="uni24FF" unicode="&#x24ff;" horiz-adv-x="794" 
d="M397 -17q-165 0 -263.5 105t-98.5 262t98.5 262t263.5 105t263.5 -105t98.5 -262t-98.5 -262t-263.5 -105zM396 163q77 0 117 48t40 139t-40 139t-117 48q-76 0 -115.5 -48t-39.5 -139t39.5 -139t115.5 -48zM396 233q-37 0 -54 28t-17 89t17 89t54 28t54.5 -28t17.5 -89
t-17.5 -89t-54.5 -28z" />
    <glyph glyph-name="lozenge" unicode="&#x25ca;" horiz-adv-x="575" 
d="M239 0l-189 396l189 398h98l188 -398l-188 -396h-98zM287 115l126 281l-125 281l-126 -281z" />
    <glyph glyph-name="uni2776" unicode="&#x2776;" horiz-adv-x="794" 
d="M397 -17q-165 0 -263.5 105t-98.5 262t98.5 262t263.5 105t263.5 -105t98.5 -262t-98.5 -262t-263.5 -105zM360 171h83v358h-72q0 -34 -20 -49t-75 -15v-65h84v-229z" />
    <glyph glyph-name="uni2777" unicode="&#x2777;" horiz-adv-x="794" 
d="M397 -17q-165 0 -263.5 105t-98.5 262t98.5 262t263.5 105t263.5 -105t98.5 -262t-98.5 -262t-263.5 -105zM244 179h284v70h-177q4 18 14.5 28.5t36.5 24.5l55 29q74 38 74 109q0 49 -36 77t-99 28q-65 0 -104 -35t-39 -93h88q0 62 56 62q21 0 33.5 -11.5t12.5 -31.5
q0 -36 -42 -57l-60 -30q-51 -26 -74 -66t-23 -104z" />
    <glyph glyph-name="uni2778" unicode="&#x2778;" horiz-adv-x="794" 
d="M397 -17q-165 0 -263.5 105t-98.5 262t98.5 262t263.5 105t263.5 -105t98.5 -262t-98.5 -262t-263.5 -105zM397 163q66 0 105.5 30t39.5 80q0 33 -20.5 56t-55.5 29q70 18 70 80q0 45 -37 72t-98 27q-66 0 -104 -31t-38 -82h86q0 24 15 37t39 13q22 0 36 -11.5t14 -28.5
q0 -44 -54 -44h-38v-65h37q60 0 60 -49q0 -21 -14.5 -33.5t-40.5 -12.5q-29 0 -45 15.5t-16 43.5h-86q0 -61 37.5 -93.5t107.5 -32.5z" />
    <glyph glyph-name="uni2779" unicode="&#x2779;" horiz-adv-x="794" 
d="M397 -17q-165 0 -263.5 105t-98.5 262t98.5 262t263.5 105t263.5 -105t98.5 -262t-98.5 -262t-263.5 -105zM409 171h85v102h45v73h-45v92h-85v-92h-71v183h-83v-256h154v-102z" />
    <glyph glyph-name="uni277A" unicode="&#x277a;" horiz-adv-x="794" 
d="M397 -17q-165 0 -263.5 105t-98.5 262t98.5 262t263.5 105t263.5 -105t98.5 -262t-98.5 -262t-263.5 -105zM394 154q68 0 107.5 36.5t39.5 96.5q0 53 -33.5 86.5t-87.5 33.5t-82 -29v77h181v65h-257v-208h75q16 33 61 33q27 0 43 -16t16 -43q0 -29 -16.5 -46t-46.5 -17
q-24 0 -40.5 10.5t-17.5 29.5h-83q2 -52 40 -80.5t101 -28.5z" />
    <glyph glyph-name="uni277B" unicode="&#x277b;" horiz-adv-x="794" 
d="M397 -17q-165 0 -263.5 105t-98.5 262t98.5 262t263.5 105t263.5 -105t98.5 -262t-98.5 -262t-263.5 -105zM392 168q66 0 106 38t40 96t-37 95.5t-99 40.5l81 96h-98l-99 -131q-39 -53 -39 -101q0 -58 39.5 -96t105.5 -38zM392 236q-30 0 -47 18.5t-17 47.5q0 30 17 49
t47 19t47 -19t17 -49q0 -29 -17 -47.5t-47 -18.5z" />
    <glyph glyph-name="uni277C" unicode="&#x277c;" horiz-adv-x="794" 
d="M397 -17q-165 0 -263.5 105t-98.5 262t98.5 262t263.5 105t263.5 -105t98.5 -262t-98.5 -262t-263.5 -105zM273 169h95l184 358h-289v-72h164z" />
    <glyph glyph-name="uni277D" unicode="&#x277d;" horiz-adv-x="794" 
d="M397 -17q-165 0 -263.5 105t-98.5 262t98.5 262t263.5 105t263.5 -105t98.5 -262t-98.5 -262t-263.5 -105zM396 163q67 0 106 27t39 77q0 73 -71 89q31 9 47.5 31.5t16.5 51.5q0 45 -38 71.5t-100 26.5q-63 0 -100.5 -26.5t-37.5 -71.5q0 -29 16 -51.5t47 -31.5
q-71 -16 -71 -89q0 -49 39.5 -76.5t106.5 -27.5zM396 386q-25 0 -41 13.5t-16 33.5q0 22 15.5 34.5t41.5 12.5q25 0 40.5 -12.5t15.5 -34.5q0 -20 -15.5 -33.5t-40.5 -13.5zM396 224q-28 0 -44.5 14t-16.5 38q0 23 16.5 36.5t44.5 13.5q27 0 44 -14t17 -36
q0 -23 -16.5 -37.5t-44.5 -14.5z" />
    <glyph glyph-name="uni277E" unicode="&#x277e;" horiz-adv-x="794" 
d="M397 -17q-165 0 -263.5 105t-98.5 262t98.5 262t263.5 105t263.5 -105t98.5 -262t-98.5 -262t-263.5 -105zM306 166h98l107 140q31 41 31 92q0 58 -39.5 96t-105.5 38t-106 -38t-40 -96t37 -95.5t99 -40.5zM397 330q-30 0 -47 19t-17 49q0 29 17 47.5t47 18.5t47 -18.5
t17 -47.5q0 -30 -17 -49t-47 -19z" />
    <glyph glyph-name="uniF8FF" unicode="&#xf8ff;" horiz-adv-x="800" 
d="M400 -17q-109 0 -193.5 52.5t-127.5 135.5t-43 179t43 179t127.5 135.5t193.5 52.5t193.5 -52.5t127.5 -135.5t43 -179t-43 -179t-127.5 -135.5t-193.5 -52.5zM400 6q140 0 239.5 100.5t99.5 243.5q0 138 -98 241.5t-241 103.5t-241.5 -103t-98.5 -242q0 -143 99 -243.5
t241 -100.5zM243 457q-17 0 -29.5 13t-12.5 30q0 18 12.5 30.5t29.5 12.5q18 0 30.5 -12.5t12.5 -30.5q0 -17 -12.5 -30t-30.5 -13zM540 457q-17 0 -29.5 13t-12.5 30q0 18 12.5 30.5t29.5 12.5q18 0 30.5 -12.5t12.5 -30.5q0 -17 -12.5 -30t-30.5 -13zM219 259l179 268
l-110 -243h178v-25h-247zM132 207q0 38 26 52l23 13q11 6 13 17.5t2 39.5h17q0 -57 -20 -69l-22 -13q-23 -13 -23 -40h-16zM616 157l-16 4q5 17 3 26t-16 15l-41 20q-55 27 -31 98l15 -5q-20 -61 27 -82l40 -19q20 -9 22.5 -26.5t-3.5 -30.5zM366 66q-102 0 -198 162
q82 -49 116 -60q35 -11 72 -11q148 0 220 37q1 0 3 2q-22 -49 -88 -89.5t-125 -40.5zM366 92q31 0 71.5 16.5t62.5 30t32 21.5q-9 -2 -40.5 -9.5t-45 -10t-39 -5.5t-49.5 -3q-30 0 -69.5 11.5t-63.5 30.5q26 -42 69 -62t72 -20z" />
    <glyph glyph-name="dollar.tf" 
d="M553 180q0 -79 -49.5 -131.5t-133.5 -63.5v-85h-82v85q-97 12 -149.5 75t-52.5 169h115q0 -68 34 -107t95 -39q52 0 80 24.5t28 69.5q0 34 -20 57t-70 41l-108 35q-66 23 -100 73.5t-34 119.5q0 71 50.5 124t131.5 63v90h82v-93q77 -14 122 -70.5t45 -140.5h-115
q0 57 -27.5 87.5t-78.5 30.5q-44 0 -69 -22.5t-25 -61.5t21.5 -65.5t76.5 -45.5l113 -40q120 -42 120 -179z" />
    <glyph glyph-name="cent.tf" 
d="M325 190q93 0 112 76h109q-7 -70 -53.5 -115t-123.5 -55v-96h-82v95q-91 13 -142.5 78t-51.5 165t51.5 165t142.5 78v99h82v-100q77 -10 123.5 -57t53.5 -118h-109q-18 81 -112 81q-58 0 -90.5 -38.5t-32.5 -109.5t32.5 -109.5t90.5 -38.5z" />
    <glyph glyph-name="sterling.tf" 
d="M259 274q0 -57 -13.5 -106t-29.5 -65h311v-103h-438v75q23 21 39 66.5t16 108.5v68h-58v82h58v75q0 112 57 164.5t148 52.5q96 0 150 -52t54 -147h-115q0 106 -90 106q-89 0 -89 -121v-78h153v-82h-153v-44z" />
    <glyph glyph-name="florin.tf" 
d="M512 595q-41 0 -60.5 -18.5t-28.5 -68.5l-8 -42h120l-16 -91h-120l-76 -417q-31 -173 -178 -173q-48 0 -81 12l16 92q21 -7 47 -7q40 0 60 17t27 57l76 419h-97l16 91h97l8 44q17 94 64 138t126 44q45 0 71 -12l-16 -92q-21 7 -47 7z" />
    <glyph glyph-name="yen.tf" 
d="M595 680l-214 -401h131v-75h-134v-50h134v-75h-134v-79h-116v79h-134v75h134v50h-134v75h131l-214 401h128l147 -308l147 308h128z" />
    <glyph glyph-name="Euro.tf" 
d="M362 88q48 0 78 29.5t36 79.5h112q-11 -91 -71 -150t-155 -59q-212 0 -245 251h-65l20 75h39v26v26h-59l20 75h45q33 251 245 251q95 0 155 -59t71 -150h-112q-7 50 -36.5 79.5t-77.5 29.5q-62 0 -93.5 -38.5t-40.5 -112.5h189l-20 -75h-175v-26v-26h195l-20 -75h-169
q9 -74 40.5 -112.5t93.5 -38.5z" />
    <glyph glyph-name="uni20A9.tf" 
d="M623 365h-64l-11 -68h75v-82h-88l-34 -215h-107l-74 504l-74 -504h-107l-34 215h-88v82h75l-11 68h-64v82h51l-37 233h113l55 -514l76 514h90l76 -514l56 514h112l-37 -233h51v-82z" />
    <glyph glyph-name="uni20B4.tf" 
d="M472 376q-27 -28 -65 -48l-38 -19h198v-60h-316q-32 -18 -43.5 -33.5t-11.5 -44.5q0 -39 29.5 -61t83.5 -22q63 0 98.5 24t35.5 66h105q0 -85 -64 -137.5t-176 -52.5q-99 0 -160 47.5t-61 125.5q0 53 19 88h-51v60h104q19 14 51 29l80 38h-235v60h340q27 27 27 76
q0 38 -27 60t-74 22q-113 0 -113 -83h-105q0 82 59 131.5t157 49.5q94 0 152 -46t58 -128q0 -43 -17 -82h55v-60h-95z" />
    <glyph glyph-name="uni20B8.tf" 
d="M59 577v103h522v-103h-522zM262 0v413h-203v103h522v-103h-204v-413h-115z" />
    <glyph glyph-name="uni20AE.tf" 
d="M581 577h-204v-116l116 55v-85l-116 -55v-52l116 55v-85l-116 -55v-239h-115v184l-114 -55v85l114 55v52l-114 -55v85l114 55v171h-203v103h522v-103z" />
    <glyph glyph-name="perthousand.tf" 
d="M386 687l25 -13l-335 -692l-26 13zM128 337q-58 0 -91 47t-33 123t33 123t91 47q57 0 90 -47t33 -123t-32.5 -123t-90.5 -47zM128 603q-24 0 -37.5 -25.5t-13.5 -70.5t13.5 -70.5t37.5 -25.5t37 25.5t13 70.5q0 96 -50 96zM512 337q58 0 91 -47t33 -123t-33 -123t-91 -47
q-54 0 -87 43q-33 -43 -88 -43q-58 0 -91 47t-33 123q0 77 33 123.5t91 46.5q55 0 88 -43q33 43 87 43zM337 71q24 0 37.5 25.5t13.5 70.5t-13.5 70.5t-37.5 25.5t-37 -25.5t-13 -70.5t13 -70.5t37 -25.5zM512 71q24 0 37.5 25.5t13.5 70.5t-13.5 70.5t-37.5 25.5t-37 -25.5
t-13 -70.5t13 -70.5t37 -25.5z" />
    <glyph glyph-name="zero.zero" horiz-adv-x="612" 
d="M306 692q128 0 194.5 -89.5t66.5 -262.5t-66.5 -262.5t-194.5 -89.5t-194.5 89.5t-66.5 262.5t66.5 262.5t194.5 89.5zM306 592q-152 0 -152 -252q0 -121 35 -185l183 422q-28 15 -66 15zM306 88q152 0 152 252q0 126 -37 188l-183 -424q29 -16 68 -16z" />
    <glyph glyph-name="zero.tf.zero" 
d="M320 692q110 0 183 -72.5t73 -182.5v-204q0 -105 -73 -175t-183 -70t-183 70t-73 175v204q0 110 73 182.5t183 72.5zM179 437v-204q0 -41 19 -74l180 418q-26 12 -58 12q-61 0 -101 -43t-40 -109zM461 233v204q0 47 -22 85l-181 -418q31 -13 62 -13q61 0 101 40t40 102z
" />
    <glyph glyph-name="zero.tf" 
d="M320 -12q-110 0 -183 70t-73 175v204q0 110 73 182.5t183 72.5t183 -72.5t73 -182.5v-204q0 -105 -73 -175t-183 -70zM320 91q61 0 101 40t40 102v204q0 66 -40 109t-101 43t-101 -43t-40 -109v-204q0 -62 40 -102t101 -40z" />
    <glyph glyph-name="one.tf" 
d="M377 103h203v-103h-520v103h203v365h-182v96h28q78 0 118.5 27t50.5 89h99v-577z" />
    <glyph glyph-name="two.tf" 
d="M57 0q0 113 44.5 185.5t144.5 121.5l114 55q98 47 98 129q0 45 -33.5 73t-86.5 28q-68 0 -105.5 -37t-37.5 -106h-121q0 111 71.5 177t192.5 66q113 0 178.5 -52.5t65.5 -142.5q0 -64 -38.5 -121.5t-108.5 -92.5l-112 -56q-70 -35 -94 -57.5t-33 -66.5h395v-103h-534z
" />
    <glyph glyph-name="three.tf" 
d="M328 -12q-128 0 -200 63t-72 176h119q0 -68 40 -105t113 -37q61 0 99 30t38 79q0 112 -146 112h-53v99h54q126 0 126 100q0 41 -34 66.5t-88 25.5q-63 0 -99 -31.5t-36 -86.5h-115q0 98 67.5 155.5t182.5 57.5q108 0 174.5 -51.5t66.5 -135.5q0 -110 -129 -147
q66 -11 106.5 -55.5t40.5 -107.5q0 -91 -71 -149t-184 -58z" />
    <glyph glyph-name="four.tf" 
d="M580 313v-103h-129v-210h-116v210h-275v470h116v-367h159v190h116v-190h129z" />
    <glyph glyph-name="five.tf" 
d="M311 -12q-107 0 -177 51.5t-76 142.5h117q4 -44 42 -68t96 -24q71 0 111.5 38t40.5 102q0 61 -37.5 97.5t-100.5 36.5q-110 0 -149 -74h-107v390h482v-102h-376v-176q55 60 166 60q109 0 174 -62.5t65 -165.5q0 -109 -74 -177.5t-197 -68.5z" />
    <glyph glyph-name="six.tf" 
d="M320 478q122 0 194 -69.5t72 -175.5t-72 -175.5t-194 -69.5t-194 69.5t-72 175.5q0 88 51 153l-1 -1l236 295h139l-173 -202h14zM320 85q72 0 113.5 41.5t41.5 106.5t-41.5 106.5t-113.5 41.5t-113.5 -41.5t-41.5 -106.5t41.5 -106.5t113.5 -41.5z" />
    <glyph glyph-name="seven.tf" 
d="M75 0l337 575h-353v105h532l-388 -680h-128z" />
    <glyph glyph-name="eight.tf" 
d="M320 -12q-119 0 -189.5 55t-70.5 147q0 127 127 163q-55 18 -85.5 60.5t-30.5 96.5q0 81 69 131.5t180 50.5t180 -50.5t69 -131.5q0 -54 -31.5 -96.5t-86.5 -60.5q63 -18 96 -60t33 -103q0 -92 -70.5 -147t-189.5 -55zM320 399q60 0 95 27.5t35 72.5q0 47 -35 74t-95 27
t-95 -27t-35 -74q0 -45 36.5 -72.5t93.5 -27.5zM320 85q64 0 103 30.5t39 81.5t-39 81.5t-103 30.5q-62 0 -102 -31t-40 -81q0 -51 39 -81.5t103 -30.5z" />
    <glyph glyph-name="nine.tf" 
d="M586 447q0 -88 -51 -153l1 1l-236 -295h-139l173 202h-14q-122 0 -194 69.5t-72 175.5t72 175.5t194 69.5t194 -69.5t72 -175.5zM165 447q0 -65 41.5 -106.5t113.5 -41.5t113.5 41.5t41.5 106.5t-41.5 106.5t-113.5 41.5t-113.5 -41.5t-41.5 -106.5z" />
    <glyph glyph-name="Jacute" horiz-adv-x="536" 
d="M340 731l-39 74l207 92l38 -73zM247 -17q-107 0 -167 67t-60 178h115q0 -65 28.5 -103.5t83.5 -38.5t84.5 38.5t29.5 102.5v473h115v-473q0 -111 -60.5 -177.5t-168.5 -66.5z" />
    <glyph glyph-name="uni0243.case" horiz-adv-x="585" 
d="M545 194q0 -78 -45 -128t-126 -62v-107h-82v103h-48v-103h-82v103h-87v700h87v103h82v-103h48v103h82v-109q76 -14 118 -59.5t42 -116.5q0 -138 -133 -159q61 -6 102.5 -49.5t41.5 -115.5zM419 503q0 46 -30 71t-85 25h-114v-193h114q54 0 84.5 26t30.5 71zM320 102
q52 0 81 27.5t29 77.5q0 44 -30 72t-79 28h-131v-205h130z" />
    <glyph glyph-name="uni0243.tf" 
d="M555 189q0 -76 -45 -124.5t-126 -60.5v-104h-82v100h-48v-100h-82v100h-87v680h87v100h82v-100h48v100h82v-105q76 -14 118 -58.5t42 -113.5q0 -133 -133 -154q60 -5 102 -47.5t42 -112.5zM429 488q0 44 -30 68t-85 24h-114v-184h114q54 0 84.5 24.5t30.5 67.5zM330 101
q52 0 81 26.5t29 74.5q0 42 -30 68.5t-79 26.5h-131v-196h130z" />
    <glyph glyph-name="uni0243.tf.tf.case" 
d="M555 194q0 -78 -45 -128t-126 -62v-107h-82v103h-48v-103h-82v103h-87v700h87v103h82v-103h48v103h82v-109q76 -14 118 -59.5t42 -116.5q0 -138 -133 -159q61 -6 102.5 -49.5t41.5 -115.5zM429 503q0 46 -30 71t-85 25h-114v-193h114q54 0 84.5 26t30.5 71zM330 102
q52 0 81 27.5t29 77.5q0 44 -30 72t-79 28h-131v-205h130z" />
    <glyph glyph-name="Y.ss02" horiz-adv-x="620" 
d="M252 0v289l-257 411h133l182 -302l182 302h133l-257 -411v-289h-116z" />
    <glyph glyph-name="Yacute.ss02" horiz-adv-x="620" 
d="M231 731l-39 74l207 92l38 -73zM252 0v289l-257 411h133l182 -302l182 302h133l-257 -411v-289h-116z" />
    <glyph glyph-name="Ycircumflex.ss02" horiz-adv-x="620" 
d="M306 902l141 -119l-57 -50l-84 76l-84 -76l-57 50zM252 0v289l-257 411h133l182 -302l182 302h133l-257 -411v-289h-116z" />
    <glyph glyph-name="Ydieresis.ss02" horiz-adv-x="620" 
d="M190 738q-32 0 -54 22t-22 54t22 54.5t54 22.5t54.5 -22.5t22.5 -54.5t-22.5 -54t-54.5 -22zM429 738q-31 0 -53.5 22t-22.5 54t22 54.5t54 22.5t54.5 -22.5t22.5 -54.5t-22.5 -54t-54.5 -22zM252 0v289l-257 411h133l182 -302l182 302h133l-257 -411v-289h-116z" />
    <glyph glyph-name="Ygrave.ss02" horiz-adv-x="620" 
d="M388 731l-206 93l38 73l207 -92zM252 0v289l-257 411h133l182 -302l182 302h133l-257 -411v-289h-116z" />
    <glyph glyph-name="Adieresis.ss05" horiz-adv-x="603" 
d="M353 845l-87 -111h-90l87 111h90zM403 734h-90l87 111h90zM463 0l-27 89h-269l-27 -89h-125l236 700h101l236 -700h-125zM197 192h208l-104 347z" />
    <glyph glyph-name="Edieresis.ss05" horiz-adv-x="544" 
d="M246 734h-90l87 111h90zM383 734h-90l87 111h90zM75 0v700h404v-103h-289v-198h289v-103h-289v-193h289v-103h-404z" />
    <glyph glyph-name="Odieresis.ss05" horiz-adv-x="794" 
d="M361 734h-90l87 111h90zM498 734h-90l87 111h90zM397 -17q-165 0 -263.5 106t-98.5 261t98.5 261t263.5 106t263.5 -106t98.5 -261t-98.5 -261t-263.5 -106zM397 86q113 0 177.5 75.5t63.5 188.5q1 113 -63.5 188.5t-177.5 75.5t-177.5 -75.5t-63.5 -188.5
q-1 -113 63.5 -188.5t177.5 -75.5z" />
    <glyph glyph-name="Udieresis.ss05" 
d="M284 734h-90l87 111h90zM421 734h-90l87 111h90zM320 -17q-120 0 -190 64.5t-70 184.5v468h115v-461q0 -74 39 -113.5t106 -39.5t106 39.5t39 113.5v461h115v-468q0 -120 -70 -184.5t-190 -64.5z" />
    </font>
</defs>
</svg>
